%
M48
M72
T01C0.01300
T02C0.01378
T03C0.01400
T04C0.03100
T05C0.03200
T06C0.04000
T07C0.11339
%
T01
X1474491Y770554
X1479421Y765324
X1487571Y770654
X1494921Y762604
X1505981Y770854
X1498731Y776934
X1501131Y779334
X1515311Y776144
X1512931Y763504
X1526931Y753534
X1542531Y763134
X1539831Y779304
X1544331Y781734
X1539531Y788934
X1535931Y790134
X1542531Y795534
X1543731Y801534
X1538931Y801534
X1531731Y798534
X1532331Y806334
X1528101Y813534
X1525131Y811134
X1520931Y813194
X1514931Y815934
X1510131Y817134
X1512321Y828264
X1521031Y828364
X1521511Y805771
X1508931Y801534
X1508331Y794334
X1492391Y801884
X1487571Y806674
X1477011Y801344
X1471171Y805764
X1468361Y798724
X1477511Y789574
X1483751Y789974
X1467051Y778804
X1476911Y816934
X1535931Y845934
X1541931Y837534
X1545421Y851774
X1556931Y858624
X1560531Y860334
X1562931Y852534
X1566021Y843786
X1571331Y824334
X1576131Y825534
X1577931Y828534
X1588731Y828534
X1601331Y819534
X1591131Y809934
X1586331Y805734
X1585731Y801534
X1589331Y799134
X1570271Y792784
X1565721Y795364
X1561221Y795334
X1561731Y801534
X1558731Y804534
X1555731Y807534
X1553331Y802134
X1543731Y809334
X1557091Y821874
X1566531Y819534
X1571331Y817134
X1567731Y773934
X1591151Y765804
X1595931Y767934
X1562931Y870534
X1565331Y880134
X1561731Y896934
X1544931Y921534
X1535331Y919134
X1539531Y908934
X1501731Y911334
X1499931Y905934
X1489131Y894534
X1486731Y896934
X1483731Y892734
X1481881Y934934
X1481751Y938244
X1482191Y946554
X1481191Y954074
X1493221Y973844
X1499481Y980114
X1506491Y987374
X1513431Y957614
X1514741Y950804
X1507421Y939404
X1531831Y941384
X1563531Y957534
X1568331Y968934
X1546131Y981534
X1581671Y936884
X1589341Y936734
X1589631Y927754
X1589781Y922104
X1581531Y916734
X1661931Y947934
T02
X1468731Y970734
X1524751Y968664
X1538241Y976244
X1559511Y976564
X1563021Y987084
X1586661Y988444
X1593301Y981904
X1597431Y990854
X1604731Y991214
X1597551Y950824
X1599831Y945624
X1594291Y943054
X1598101Y937564
X1578361Y914654
X1563821Y903834
X1561391Y893384
X1550561Y898064
X1551541Y901974
X1547631Y887094
X1541691Y883674
X1540501Y889124
X1548331Y880114
X1516811Y883074
X1504011Y885364
X1503861Y889994
X1503141Y879424
X1503341Y872784
X1504601Y857194
X1504681Y852564
X1504681Y847634
X1514831Y852494
X1520161Y857024
X1520461Y847064
X1530521Y846664
X1530521Y852994
X1544971Y844084
X1578071Y819614
X1577141Y814714
X1577391Y809704
X1590911Y813544
X1597581Y819614
X1595561Y829414
X1599231Y834404
X1604511Y829644
X1591221Y834534
X1597231Y865264
X1644291Y865494
X1651231Y803764
X1651731Y788974
X1644331Y774504
X1604831Y769954
X1596691Y779344
X1533231Y758744
X1530671Y764554
X1535921Y752654
X1539794Y752700
X1549111Y756204
X1555021Y750194
X1529031Y789734
X1523261Y800344
X1503082Y786925
X1509586Y824329
X1488631Y825574
X1486541Y831584
X1490131Y848174
X1481231Y876384
X1517391Y898874
X1523031Y931734
X1482911Y927704
X1557151Y954764
X1636361Y936634
X1640591Y942774
X1643471Y950954
T03
X1620622Y893834
X1604622Y850779
X1604622Y791724
X1620622Y952890
T04
X1470111Y988154
T05
X1557584Y778904
X1577584Y778904
X1492669Y954323
X1482669Y964323
X1502669Y964323
T06
X1461213Y981173
X1461213Y971173
X1461213Y961173
X1461213Y951173
X1461213Y941173
X1461213Y931173
X1461213Y921173
X1461213Y911173
X1461213Y896173
X1461213Y886173
X1461213Y876173
X1461213Y866173
X1461213Y856173
X1461213Y846173
X1461213Y836173
X1461213Y826173
X1461213Y816173
X1461213Y806173
X1475425Y861016
X1475425Y871016
X1475425Y881016
X1475425Y891016
X1527524Y914244
X1528524Y904244
X1527524Y894244
X1528524Y884244
X1527524Y874244
X1582521Y872144
X1582521Y882144
X1582521Y892144
X1651213Y911173
X1651213Y901173
X1651213Y891173
X1651213Y881173
X1651213Y871173
X1651213Y861173
X1651213Y851173
X1651213Y841173
X1479362Y777000
X1459284Y777000
X1651213Y931173
X1651213Y941173
X1651213Y951173
X1651213Y961173
X1651213Y971173
X1651213Y981173
T07
X1476803Y916921
X1568142Y916921
X1568142Y835425
X1476803Y835425
M30
