G75*
%MOIN*%
%OFA0B0*%
%FSLAX25Y25*%
%IPPOS*%
%LPD*%
%AMOC8*
5,1,8,0,0,1.08239X$1,22.5*
%
%ADD10C,0.00000*%
D10*
X0012170Y0027730D02*
X0012170Y0315330D01*
X0266270Y0315330D01*
X0266270Y0027730D01*
X0012170Y0027730D01*
X0054073Y0132621D02*
X0054075Y0132771D01*
X0054081Y0132921D01*
X0054091Y0133071D01*
X0054105Y0133221D01*
X0054123Y0133370D01*
X0054145Y0133519D01*
X0054170Y0133667D01*
X0054200Y0133814D01*
X0054234Y0133961D01*
X0054271Y0134106D01*
X0054312Y0134251D01*
X0054357Y0134394D01*
X0054406Y0134536D01*
X0054459Y0134677D01*
X0054515Y0134816D01*
X0054575Y0134954D01*
X0054639Y0135090D01*
X0054706Y0135225D01*
X0054777Y0135357D01*
X0054851Y0135488D01*
X0054929Y0135617D01*
X0055010Y0135743D01*
X0055095Y0135867D01*
X0055182Y0135990D01*
X0055273Y0136109D01*
X0055367Y0136226D01*
X0055464Y0136341D01*
X0055564Y0136453D01*
X0055668Y0136563D01*
X0055773Y0136669D01*
X0055882Y0136773D01*
X0055994Y0136874D01*
X0056108Y0136972D01*
X0056224Y0137067D01*
X0056343Y0137158D01*
X0056465Y0137247D01*
X0056589Y0137332D01*
X0056715Y0137414D01*
X0056843Y0137492D01*
X0056973Y0137568D01*
X0057105Y0137639D01*
X0057239Y0137707D01*
X0057375Y0137772D01*
X0057512Y0137833D01*
X0057651Y0137890D01*
X0057791Y0137944D01*
X0057933Y0137994D01*
X0058076Y0138040D01*
X0058220Y0138082D01*
X0058366Y0138120D01*
X0058512Y0138155D01*
X0058659Y0138186D01*
X0058807Y0138212D01*
X0058956Y0138235D01*
X0059105Y0138254D01*
X0059254Y0138269D01*
X0059404Y0138280D01*
X0059554Y0138287D01*
X0059704Y0138290D01*
X0059855Y0138289D01*
X0060005Y0138284D01*
X0060155Y0138275D01*
X0060305Y0138262D01*
X0060454Y0138245D01*
X0060603Y0138224D01*
X0060751Y0138199D01*
X0060899Y0138171D01*
X0061045Y0138138D01*
X0061191Y0138102D01*
X0061336Y0138061D01*
X0061480Y0138017D01*
X0061622Y0137969D01*
X0061763Y0137917D01*
X0061903Y0137862D01*
X0062041Y0137803D01*
X0062177Y0137740D01*
X0062312Y0137674D01*
X0062445Y0137604D01*
X0062576Y0137530D01*
X0062706Y0137454D01*
X0062833Y0137373D01*
X0062958Y0137290D01*
X0063080Y0137203D01*
X0063201Y0137113D01*
X0063318Y0137020D01*
X0063434Y0136923D01*
X0063546Y0136824D01*
X0063657Y0136721D01*
X0063764Y0136616D01*
X0063868Y0136508D01*
X0063970Y0136398D01*
X0064069Y0136284D01*
X0064164Y0136168D01*
X0064257Y0136050D01*
X0064346Y0135929D01*
X0064432Y0135806D01*
X0064515Y0135680D01*
X0064594Y0135553D01*
X0064670Y0135423D01*
X0064743Y0135291D01*
X0064812Y0135158D01*
X0064877Y0135022D01*
X0064939Y0134886D01*
X0064997Y0134747D01*
X0065052Y0134607D01*
X0065103Y0134465D01*
X0065150Y0134323D01*
X0065193Y0134179D01*
X0065232Y0134034D01*
X0065268Y0133888D01*
X0065299Y0133741D01*
X0065327Y0133593D01*
X0065351Y0133445D01*
X0065371Y0133296D01*
X0065387Y0133146D01*
X0065399Y0132996D01*
X0065407Y0132846D01*
X0065411Y0132696D01*
X0065411Y0132546D01*
X0065407Y0132396D01*
X0065399Y0132246D01*
X0065387Y0132096D01*
X0065371Y0131946D01*
X0065351Y0131797D01*
X0065327Y0131649D01*
X0065299Y0131501D01*
X0065268Y0131354D01*
X0065232Y0131208D01*
X0065193Y0131063D01*
X0065150Y0130919D01*
X0065103Y0130777D01*
X0065052Y0130635D01*
X0064997Y0130495D01*
X0064939Y0130356D01*
X0064877Y0130220D01*
X0064812Y0130084D01*
X0064743Y0129951D01*
X0064670Y0129819D01*
X0064594Y0129689D01*
X0064515Y0129562D01*
X0064432Y0129436D01*
X0064346Y0129313D01*
X0064257Y0129192D01*
X0064164Y0129074D01*
X0064069Y0128958D01*
X0063970Y0128844D01*
X0063868Y0128734D01*
X0063764Y0128626D01*
X0063657Y0128521D01*
X0063546Y0128418D01*
X0063434Y0128319D01*
X0063318Y0128222D01*
X0063201Y0128129D01*
X0063080Y0128039D01*
X0062958Y0127952D01*
X0062833Y0127869D01*
X0062706Y0127788D01*
X0062577Y0127712D01*
X0062445Y0127638D01*
X0062312Y0127568D01*
X0062177Y0127502D01*
X0062041Y0127439D01*
X0061903Y0127380D01*
X0061763Y0127325D01*
X0061622Y0127273D01*
X0061480Y0127225D01*
X0061336Y0127181D01*
X0061191Y0127140D01*
X0061045Y0127104D01*
X0060899Y0127071D01*
X0060751Y0127043D01*
X0060603Y0127018D01*
X0060454Y0126997D01*
X0060305Y0126980D01*
X0060155Y0126967D01*
X0060005Y0126958D01*
X0059855Y0126953D01*
X0059704Y0126952D01*
X0059554Y0126955D01*
X0059404Y0126962D01*
X0059254Y0126973D01*
X0059105Y0126988D01*
X0058956Y0127007D01*
X0058807Y0127030D01*
X0058659Y0127056D01*
X0058512Y0127087D01*
X0058366Y0127122D01*
X0058220Y0127160D01*
X0058076Y0127202D01*
X0057933Y0127248D01*
X0057791Y0127298D01*
X0057651Y0127352D01*
X0057512Y0127409D01*
X0057375Y0127470D01*
X0057239Y0127535D01*
X0057105Y0127603D01*
X0056973Y0127674D01*
X0056843Y0127750D01*
X0056715Y0127828D01*
X0056589Y0127910D01*
X0056465Y0127995D01*
X0056343Y0128084D01*
X0056224Y0128175D01*
X0056108Y0128270D01*
X0055994Y0128368D01*
X0055882Y0128469D01*
X0055773Y0128573D01*
X0055668Y0128679D01*
X0055564Y0128789D01*
X0055464Y0128901D01*
X0055367Y0129016D01*
X0055273Y0129133D01*
X0055182Y0129252D01*
X0055095Y0129375D01*
X0055010Y0129499D01*
X0054929Y0129625D01*
X0054851Y0129754D01*
X0054777Y0129885D01*
X0054706Y0130017D01*
X0054639Y0130152D01*
X0054575Y0130288D01*
X0054515Y0130426D01*
X0054459Y0130565D01*
X0054406Y0130706D01*
X0054357Y0130848D01*
X0054312Y0130991D01*
X0054271Y0131136D01*
X0054234Y0131281D01*
X0054200Y0131428D01*
X0054170Y0131575D01*
X0054145Y0131723D01*
X0054123Y0131872D01*
X0054105Y0132021D01*
X0054091Y0132171D01*
X0054081Y0132321D01*
X0054075Y0132471D01*
X0054073Y0132621D01*
X0054073Y0214117D02*
X0054075Y0214267D01*
X0054081Y0214417D01*
X0054091Y0214567D01*
X0054105Y0214717D01*
X0054123Y0214866D01*
X0054145Y0215015D01*
X0054170Y0215163D01*
X0054200Y0215310D01*
X0054234Y0215457D01*
X0054271Y0215602D01*
X0054312Y0215747D01*
X0054357Y0215890D01*
X0054406Y0216032D01*
X0054459Y0216173D01*
X0054515Y0216312D01*
X0054575Y0216450D01*
X0054639Y0216586D01*
X0054706Y0216721D01*
X0054777Y0216853D01*
X0054851Y0216984D01*
X0054929Y0217113D01*
X0055010Y0217239D01*
X0055095Y0217363D01*
X0055182Y0217486D01*
X0055273Y0217605D01*
X0055367Y0217722D01*
X0055464Y0217837D01*
X0055564Y0217949D01*
X0055668Y0218059D01*
X0055773Y0218165D01*
X0055882Y0218269D01*
X0055994Y0218370D01*
X0056108Y0218468D01*
X0056224Y0218563D01*
X0056343Y0218654D01*
X0056465Y0218743D01*
X0056589Y0218828D01*
X0056715Y0218910D01*
X0056843Y0218988D01*
X0056973Y0219064D01*
X0057105Y0219135D01*
X0057239Y0219203D01*
X0057375Y0219268D01*
X0057512Y0219329D01*
X0057651Y0219386D01*
X0057791Y0219440D01*
X0057933Y0219490D01*
X0058076Y0219536D01*
X0058220Y0219578D01*
X0058366Y0219616D01*
X0058512Y0219651D01*
X0058659Y0219682D01*
X0058807Y0219708D01*
X0058956Y0219731D01*
X0059105Y0219750D01*
X0059254Y0219765D01*
X0059404Y0219776D01*
X0059554Y0219783D01*
X0059704Y0219786D01*
X0059855Y0219785D01*
X0060005Y0219780D01*
X0060155Y0219771D01*
X0060305Y0219758D01*
X0060454Y0219741D01*
X0060603Y0219720D01*
X0060751Y0219695D01*
X0060899Y0219667D01*
X0061045Y0219634D01*
X0061191Y0219598D01*
X0061336Y0219557D01*
X0061480Y0219513D01*
X0061622Y0219465D01*
X0061763Y0219413D01*
X0061903Y0219358D01*
X0062041Y0219299D01*
X0062177Y0219236D01*
X0062312Y0219170D01*
X0062445Y0219100D01*
X0062576Y0219026D01*
X0062706Y0218950D01*
X0062833Y0218869D01*
X0062958Y0218786D01*
X0063080Y0218699D01*
X0063201Y0218609D01*
X0063318Y0218516D01*
X0063434Y0218419D01*
X0063546Y0218320D01*
X0063657Y0218217D01*
X0063764Y0218112D01*
X0063868Y0218004D01*
X0063970Y0217894D01*
X0064069Y0217780D01*
X0064164Y0217664D01*
X0064257Y0217546D01*
X0064346Y0217425D01*
X0064432Y0217302D01*
X0064515Y0217176D01*
X0064594Y0217049D01*
X0064670Y0216919D01*
X0064743Y0216787D01*
X0064812Y0216654D01*
X0064877Y0216518D01*
X0064939Y0216382D01*
X0064997Y0216243D01*
X0065052Y0216103D01*
X0065103Y0215961D01*
X0065150Y0215819D01*
X0065193Y0215675D01*
X0065232Y0215530D01*
X0065268Y0215384D01*
X0065299Y0215237D01*
X0065327Y0215089D01*
X0065351Y0214941D01*
X0065371Y0214792D01*
X0065387Y0214642D01*
X0065399Y0214492D01*
X0065407Y0214342D01*
X0065411Y0214192D01*
X0065411Y0214042D01*
X0065407Y0213892D01*
X0065399Y0213742D01*
X0065387Y0213592D01*
X0065371Y0213442D01*
X0065351Y0213293D01*
X0065327Y0213145D01*
X0065299Y0212997D01*
X0065268Y0212850D01*
X0065232Y0212704D01*
X0065193Y0212559D01*
X0065150Y0212415D01*
X0065103Y0212273D01*
X0065052Y0212131D01*
X0064997Y0211991D01*
X0064939Y0211852D01*
X0064877Y0211716D01*
X0064812Y0211580D01*
X0064743Y0211447D01*
X0064670Y0211315D01*
X0064594Y0211185D01*
X0064515Y0211058D01*
X0064432Y0210932D01*
X0064346Y0210809D01*
X0064257Y0210688D01*
X0064164Y0210570D01*
X0064069Y0210454D01*
X0063970Y0210340D01*
X0063868Y0210230D01*
X0063764Y0210122D01*
X0063657Y0210017D01*
X0063546Y0209914D01*
X0063434Y0209815D01*
X0063318Y0209718D01*
X0063201Y0209625D01*
X0063080Y0209535D01*
X0062958Y0209448D01*
X0062833Y0209365D01*
X0062706Y0209284D01*
X0062577Y0209208D01*
X0062445Y0209134D01*
X0062312Y0209064D01*
X0062177Y0208998D01*
X0062041Y0208935D01*
X0061903Y0208876D01*
X0061763Y0208821D01*
X0061622Y0208769D01*
X0061480Y0208721D01*
X0061336Y0208677D01*
X0061191Y0208636D01*
X0061045Y0208600D01*
X0060899Y0208567D01*
X0060751Y0208539D01*
X0060603Y0208514D01*
X0060454Y0208493D01*
X0060305Y0208476D01*
X0060155Y0208463D01*
X0060005Y0208454D01*
X0059855Y0208449D01*
X0059704Y0208448D01*
X0059554Y0208451D01*
X0059404Y0208458D01*
X0059254Y0208469D01*
X0059105Y0208484D01*
X0058956Y0208503D01*
X0058807Y0208526D01*
X0058659Y0208552D01*
X0058512Y0208583D01*
X0058366Y0208618D01*
X0058220Y0208656D01*
X0058076Y0208698D01*
X0057933Y0208744D01*
X0057791Y0208794D01*
X0057651Y0208848D01*
X0057512Y0208905D01*
X0057375Y0208966D01*
X0057239Y0209031D01*
X0057105Y0209099D01*
X0056973Y0209170D01*
X0056843Y0209246D01*
X0056715Y0209324D01*
X0056589Y0209406D01*
X0056465Y0209491D01*
X0056343Y0209580D01*
X0056224Y0209671D01*
X0056108Y0209766D01*
X0055994Y0209864D01*
X0055882Y0209965D01*
X0055773Y0210069D01*
X0055668Y0210175D01*
X0055564Y0210285D01*
X0055464Y0210397D01*
X0055367Y0210512D01*
X0055273Y0210629D01*
X0055182Y0210748D01*
X0055095Y0210871D01*
X0055010Y0210995D01*
X0054929Y0211121D01*
X0054851Y0211250D01*
X0054777Y0211381D01*
X0054706Y0211513D01*
X0054639Y0211648D01*
X0054575Y0211784D01*
X0054515Y0211922D01*
X0054459Y0212061D01*
X0054406Y0212202D01*
X0054357Y0212344D01*
X0054312Y0212487D01*
X0054271Y0212632D01*
X0054234Y0212777D01*
X0054200Y0212924D01*
X0054170Y0213071D01*
X0054145Y0213219D01*
X0054123Y0213368D01*
X0054105Y0213517D01*
X0054091Y0213667D01*
X0054081Y0213817D01*
X0054075Y0213967D01*
X0054073Y0214117D01*
X0145412Y0214117D02*
X0145414Y0214267D01*
X0145420Y0214417D01*
X0145430Y0214567D01*
X0145444Y0214717D01*
X0145462Y0214866D01*
X0145484Y0215015D01*
X0145509Y0215163D01*
X0145539Y0215310D01*
X0145573Y0215457D01*
X0145610Y0215602D01*
X0145651Y0215747D01*
X0145696Y0215890D01*
X0145745Y0216032D01*
X0145798Y0216173D01*
X0145854Y0216312D01*
X0145914Y0216450D01*
X0145978Y0216586D01*
X0146045Y0216721D01*
X0146116Y0216853D01*
X0146190Y0216984D01*
X0146268Y0217113D01*
X0146349Y0217239D01*
X0146434Y0217363D01*
X0146521Y0217486D01*
X0146612Y0217605D01*
X0146706Y0217722D01*
X0146803Y0217837D01*
X0146903Y0217949D01*
X0147007Y0218059D01*
X0147112Y0218165D01*
X0147221Y0218269D01*
X0147333Y0218370D01*
X0147447Y0218468D01*
X0147563Y0218563D01*
X0147682Y0218654D01*
X0147804Y0218743D01*
X0147928Y0218828D01*
X0148054Y0218910D01*
X0148182Y0218988D01*
X0148312Y0219064D01*
X0148444Y0219135D01*
X0148578Y0219203D01*
X0148714Y0219268D01*
X0148851Y0219329D01*
X0148990Y0219386D01*
X0149130Y0219440D01*
X0149272Y0219490D01*
X0149415Y0219536D01*
X0149559Y0219578D01*
X0149705Y0219616D01*
X0149851Y0219651D01*
X0149998Y0219682D01*
X0150146Y0219708D01*
X0150295Y0219731D01*
X0150444Y0219750D01*
X0150593Y0219765D01*
X0150743Y0219776D01*
X0150893Y0219783D01*
X0151043Y0219786D01*
X0151194Y0219785D01*
X0151344Y0219780D01*
X0151494Y0219771D01*
X0151644Y0219758D01*
X0151793Y0219741D01*
X0151942Y0219720D01*
X0152090Y0219695D01*
X0152238Y0219667D01*
X0152384Y0219634D01*
X0152530Y0219598D01*
X0152675Y0219557D01*
X0152819Y0219513D01*
X0152961Y0219465D01*
X0153102Y0219413D01*
X0153242Y0219358D01*
X0153380Y0219299D01*
X0153516Y0219236D01*
X0153651Y0219170D01*
X0153784Y0219100D01*
X0153915Y0219026D01*
X0154045Y0218950D01*
X0154172Y0218869D01*
X0154297Y0218786D01*
X0154419Y0218699D01*
X0154540Y0218609D01*
X0154657Y0218516D01*
X0154773Y0218419D01*
X0154885Y0218320D01*
X0154996Y0218217D01*
X0155103Y0218112D01*
X0155207Y0218004D01*
X0155309Y0217894D01*
X0155408Y0217780D01*
X0155503Y0217664D01*
X0155596Y0217546D01*
X0155685Y0217425D01*
X0155771Y0217302D01*
X0155854Y0217176D01*
X0155933Y0217049D01*
X0156009Y0216919D01*
X0156082Y0216787D01*
X0156151Y0216654D01*
X0156216Y0216518D01*
X0156278Y0216382D01*
X0156336Y0216243D01*
X0156391Y0216103D01*
X0156442Y0215961D01*
X0156489Y0215819D01*
X0156532Y0215675D01*
X0156571Y0215530D01*
X0156607Y0215384D01*
X0156638Y0215237D01*
X0156666Y0215089D01*
X0156690Y0214941D01*
X0156710Y0214792D01*
X0156726Y0214642D01*
X0156738Y0214492D01*
X0156746Y0214342D01*
X0156750Y0214192D01*
X0156750Y0214042D01*
X0156746Y0213892D01*
X0156738Y0213742D01*
X0156726Y0213592D01*
X0156710Y0213442D01*
X0156690Y0213293D01*
X0156666Y0213145D01*
X0156638Y0212997D01*
X0156607Y0212850D01*
X0156571Y0212704D01*
X0156532Y0212559D01*
X0156489Y0212415D01*
X0156442Y0212273D01*
X0156391Y0212131D01*
X0156336Y0211991D01*
X0156278Y0211852D01*
X0156216Y0211716D01*
X0156151Y0211580D01*
X0156082Y0211447D01*
X0156009Y0211315D01*
X0155933Y0211185D01*
X0155854Y0211058D01*
X0155771Y0210932D01*
X0155685Y0210809D01*
X0155596Y0210688D01*
X0155503Y0210570D01*
X0155408Y0210454D01*
X0155309Y0210340D01*
X0155207Y0210230D01*
X0155103Y0210122D01*
X0154996Y0210017D01*
X0154885Y0209914D01*
X0154773Y0209815D01*
X0154657Y0209718D01*
X0154540Y0209625D01*
X0154419Y0209535D01*
X0154297Y0209448D01*
X0154172Y0209365D01*
X0154045Y0209284D01*
X0153916Y0209208D01*
X0153784Y0209134D01*
X0153651Y0209064D01*
X0153516Y0208998D01*
X0153380Y0208935D01*
X0153242Y0208876D01*
X0153102Y0208821D01*
X0152961Y0208769D01*
X0152819Y0208721D01*
X0152675Y0208677D01*
X0152530Y0208636D01*
X0152384Y0208600D01*
X0152238Y0208567D01*
X0152090Y0208539D01*
X0151942Y0208514D01*
X0151793Y0208493D01*
X0151644Y0208476D01*
X0151494Y0208463D01*
X0151344Y0208454D01*
X0151194Y0208449D01*
X0151043Y0208448D01*
X0150893Y0208451D01*
X0150743Y0208458D01*
X0150593Y0208469D01*
X0150444Y0208484D01*
X0150295Y0208503D01*
X0150146Y0208526D01*
X0149998Y0208552D01*
X0149851Y0208583D01*
X0149705Y0208618D01*
X0149559Y0208656D01*
X0149415Y0208698D01*
X0149272Y0208744D01*
X0149130Y0208794D01*
X0148990Y0208848D01*
X0148851Y0208905D01*
X0148714Y0208966D01*
X0148578Y0209031D01*
X0148444Y0209099D01*
X0148312Y0209170D01*
X0148182Y0209246D01*
X0148054Y0209324D01*
X0147928Y0209406D01*
X0147804Y0209491D01*
X0147682Y0209580D01*
X0147563Y0209671D01*
X0147447Y0209766D01*
X0147333Y0209864D01*
X0147221Y0209965D01*
X0147112Y0210069D01*
X0147007Y0210175D01*
X0146903Y0210285D01*
X0146803Y0210397D01*
X0146706Y0210512D01*
X0146612Y0210629D01*
X0146521Y0210748D01*
X0146434Y0210871D01*
X0146349Y0210995D01*
X0146268Y0211121D01*
X0146190Y0211250D01*
X0146116Y0211381D01*
X0146045Y0211513D01*
X0145978Y0211648D01*
X0145914Y0211784D01*
X0145854Y0211922D01*
X0145798Y0212061D01*
X0145745Y0212202D01*
X0145696Y0212344D01*
X0145651Y0212487D01*
X0145610Y0212632D01*
X0145573Y0212777D01*
X0145539Y0212924D01*
X0145509Y0213071D01*
X0145484Y0213219D01*
X0145462Y0213368D01*
X0145444Y0213517D01*
X0145430Y0213667D01*
X0145420Y0213817D01*
X0145414Y0213967D01*
X0145412Y0214117D01*
X0145412Y0132621D02*
X0145414Y0132771D01*
X0145420Y0132921D01*
X0145430Y0133071D01*
X0145444Y0133221D01*
X0145462Y0133370D01*
X0145484Y0133519D01*
X0145509Y0133667D01*
X0145539Y0133814D01*
X0145573Y0133961D01*
X0145610Y0134106D01*
X0145651Y0134251D01*
X0145696Y0134394D01*
X0145745Y0134536D01*
X0145798Y0134677D01*
X0145854Y0134816D01*
X0145914Y0134954D01*
X0145978Y0135090D01*
X0146045Y0135225D01*
X0146116Y0135357D01*
X0146190Y0135488D01*
X0146268Y0135617D01*
X0146349Y0135743D01*
X0146434Y0135867D01*
X0146521Y0135990D01*
X0146612Y0136109D01*
X0146706Y0136226D01*
X0146803Y0136341D01*
X0146903Y0136453D01*
X0147007Y0136563D01*
X0147112Y0136669D01*
X0147221Y0136773D01*
X0147333Y0136874D01*
X0147447Y0136972D01*
X0147563Y0137067D01*
X0147682Y0137158D01*
X0147804Y0137247D01*
X0147928Y0137332D01*
X0148054Y0137414D01*
X0148182Y0137492D01*
X0148312Y0137568D01*
X0148444Y0137639D01*
X0148578Y0137707D01*
X0148714Y0137772D01*
X0148851Y0137833D01*
X0148990Y0137890D01*
X0149130Y0137944D01*
X0149272Y0137994D01*
X0149415Y0138040D01*
X0149559Y0138082D01*
X0149705Y0138120D01*
X0149851Y0138155D01*
X0149998Y0138186D01*
X0150146Y0138212D01*
X0150295Y0138235D01*
X0150444Y0138254D01*
X0150593Y0138269D01*
X0150743Y0138280D01*
X0150893Y0138287D01*
X0151043Y0138290D01*
X0151194Y0138289D01*
X0151344Y0138284D01*
X0151494Y0138275D01*
X0151644Y0138262D01*
X0151793Y0138245D01*
X0151942Y0138224D01*
X0152090Y0138199D01*
X0152238Y0138171D01*
X0152384Y0138138D01*
X0152530Y0138102D01*
X0152675Y0138061D01*
X0152819Y0138017D01*
X0152961Y0137969D01*
X0153102Y0137917D01*
X0153242Y0137862D01*
X0153380Y0137803D01*
X0153516Y0137740D01*
X0153651Y0137674D01*
X0153784Y0137604D01*
X0153915Y0137530D01*
X0154045Y0137454D01*
X0154172Y0137373D01*
X0154297Y0137290D01*
X0154419Y0137203D01*
X0154540Y0137113D01*
X0154657Y0137020D01*
X0154773Y0136923D01*
X0154885Y0136824D01*
X0154996Y0136721D01*
X0155103Y0136616D01*
X0155207Y0136508D01*
X0155309Y0136398D01*
X0155408Y0136284D01*
X0155503Y0136168D01*
X0155596Y0136050D01*
X0155685Y0135929D01*
X0155771Y0135806D01*
X0155854Y0135680D01*
X0155933Y0135553D01*
X0156009Y0135423D01*
X0156082Y0135291D01*
X0156151Y0135158D01*
X0156216Y0135022D01*
X0156278Y0134886D01*
X0156336Y0134747D01*
X0156391Y0134607D01*
X0156442Y0134465D01*
X0156489Y0134323D01*
X0156532Y0134179D01*
X0156571Y0134034D01*
X0156607Y0133888D01*
X0156638Y0133741D01*
X0156666Y0133593D01*
X0156690Y0133445D01*
X0156710Y0133296D01*
X0156726Y0133146D01*
X0156738Y0132996D01*
X0156746Y0132846D01*
X0156750Y0132696D01*
X0156750Y0132546D01*
X0156746Y0132396D01*
X0156738Y0132246D01*
X0156726Y0132096D01*
X0156710Y0131946D01*
X0156690Y0131797D01*
X0156666Y0131649D01*
X0156638Y0131501D01*
X0156607Y0131354D01*
X0156571Y0131208D01*
X0156532Y0131063D01*
X0156489Y0130919D01*
X0156442Y0130777D01*
X0156391Y0130635D01*
X0156336Y0130495D01*
X0156278Y0130356D01*
X0156216Y0130220D01*
X0156151Y0130084D01*
X0156082Y0129951D01*
X0156009Y0129819D01*
X0155933Y0129689D01*
X0155854Y0129562D01*
X0155771Y0129436D01*
X0155685Y0129313D01*
X0155596Y0129192D01*
X0155503Y0129074D01*
X0155408Y0128958D01*
X0155309Y0128844D01*
X0155207Y0128734D01*
X0155103Y0128626D01*
X0154996Y0128521D01*
X0154885Y0128418D01*
X0154773Y0128319D01*
X0154657Y0128222D01*
X0154540Y0128129D01*
X0154419Y0128039D01*
X0154297Y0127952D01*
X0154172Y0127869D01*
X0154045Y0127788D01*
X0153916Y0127712D01*
X0153784Y0127638D01*
X0153651Y0127568D01*
X0153516Y0127502D01*
X0153380Y0127439D01*
X0153242Y0127380D01*
X0153102Y0127325D01*
X0152961Y0127273D01*
X0152819Y0127225D01*
X0152675Y0127181D01*
X0152530Y0127140D01*
X0152384Y0127104D01*
X0152238Y0127071D01*
X0152090Y0127043D01*
X0151942Y0127018D01*
X0151793Y0126997D01*
X0151644Y0126980D01*
X0151494Y0126967D01*
X0151344Y0126958D01*
X0151194Y0126953D01*
X0151043Y0126952D01*
X0150893Y0126955D01*
X0150743Y0126962D01*
X0150593Y0126973D01*
X0150444Y0126988D01*
X0150295Y0127007D01*
X0150146Y0127030D01*
X0149998Y0127056D01*
X0149851Y0127087D01*
X0149705Y0127122D01*
X0149559Y0127160D01*
X0149415Y0127202D01*
X0149272Y0127248D01*
X0149130Y0127298D01*
X0148990Y0127352D01*
X0148851Y0127409D01*
X0148714Y0127470D01*
X0148578Y0127535D01*
X0148444Y0127603D01*
X0148312Y0127674D01*
X0148182Y0127750D01*
X0148054Y0127828D01*
X0147928Y0127910D01*
X0147804Y0127995D01*
X0147682Y0128084D01*
X0147563Y0128175D01*
X0147447Y0128270D01*
X0147333Y0128368D01*
X0147221Y0128469D01*
X0147112Y0128573D01*
X0147007Y0128679D01*
X0146903Y0128789D01*
X0146803Y0128901D01*
X0146706Y0129016D01*
X0146612Y0129133D01*
X0146521Y0129252D01*
X0146434Y0129375D01*
X0146349Y0129499D01*
X0146268Y0129625D01*
X0146190Y0129754D01*
X0146116Y0129885D01*
X0146045Y0130017D01*
X0145978Y0130152D01*
X0145914Y0130288D01*
X0145854Y0130426D01*
X0145798Y0130565D01*
X0145745Y0130706D01*
X0145696Y0130848D01*
X0145651Y0130991D01*
X0145610Y0131136D01*
X0145573Y0131281D01*
X0145539Y0131428D01*
X0145509Y0131575D01*
X0145484Y0131723D01*
X0145462Y0131872D01*
X0145444Y0132021D01*
X0145430Y0132171D01*
X0145420Y0132321D01*
X0145414Y0132471D01*
X0145412Y0132621D01*
M02*
