G75*
%MOIN*%
%OFA0B0*%
%FSLAX25Y25*%
%IPPOS*%
%LPD*%
%AMOC8*
5,1,8,0,0,1.08239X$1,22.5*
%
%ADD10C,0.00000*%
D10*
X0001000Y0048484D02*
X0001000Y0302642D01*
X0233572Y0302642D01*
X0233572Y0048484D01*
X0001000Y0048484D01*
X0032903Y0131776D02*
X0032905Y0131926D01*
X0032911Y0132076D01*
X0032921Y0132226D01*
X0032935Y0132376D01*
X0032953Y0132525D01*
X0032975Y0132674D01*
X0033000Y0132822D01*
X0033030Y0132969D01*
X0033064Y0133116D01*
X0033101Y0133261D01*
X0033142Y0133406D01*
X0033187Y0133549D01*
X0033236Y0133691D01*
X0033289Y0133832D01*
X0033345Y0133971D01*
X0033405Y0134109D01*
X0033469Y0134245D01*
X0033536Y0134380D01*
X0033607Y0134512D01*
X0033681Y0134643D01*
X0033759Y0134772D01*
X0033840Y0134898D01*
X0033925Y0135022D01*
X0034012Y0135145D01*
X0034103Y0135264D01*
X0034197Y0135381D01*
X0034294Y0135496D01*
X0034394Y0135608D01*
X0034498Y0135718D01*
X0034603Y0135824D01*
X0034712Y0135928D01*
X0034824Y0136029D01*
X0034938Y0136127D01*
X0035054Y0136222D01*
X0035173Y0136313D01*
X0035295Y0136402D01*
X0035419Y0136487D01*
X0035545Y0136569D01*
X0035673Y0136647D01*
X0035803Y0136723D01*
X0035935Y0136794D01*
X0036069Y0136862D01*
X0036205Y0136927D01*
X0036342Y0136988D01*
X0036481Y0137045D01*
X0036621Y0137099D01*
X0036763Y0137149D01*
X0036906Y0137195D01*
X0037050Y0137237D01*
X0037196Y0137275D01*
X0037342Y0137310D01*
X0037489Y0137341D01*
X0037637Y0137367D01*
X0037786Y0137390D01*
X0037935Y0137409D01*
X0038084Y0137424D01*
X0038234Y0137435D01*
X0038384Y0137442D01*
X0038534Y0137445D01*
X0038685Y0137444D01*
X0038835Y0137439D01*
X0038985Y0137430D01*
X0039135Y0137417D01*
X0039284Y0137400D01*
X0039433Y0137379D01*
X0039581Y0137354D01*
X0039729Y0137326D01*
X0039875Y0137293D01*
X0040021Y0137257D01*
X0040166Y0137216D01*
X0040310Y0137172D01*
X0040452Y0137124D01*
X0040593Y0137072D01*
X0040733Y0137017D01*
X0040871Y0136958D01*
X0041007Y0136895D01*
X0041142Y0136829D01*
X0041275Y0136759D01*
X0041406Y0136685D01*
X0041536Y0136609D01*
X0041663Y0136528D01*
X0041788Y0136445D01*
X0041910Y0136358D01*
X0042031Y0136268D01*
X0042148Y0136175D01*
X0042264Y0136078D01*
X0042376Y0135979D01*
X0042487Y0135876D01*
X0042594Y0135771D01*
X0042698Y0135663D01*
X0042800Y0135553D01*
X0042899Y0135439D01*
X0042994Y0135323D01*
X0043087Y0135205D01*
X0043176Y0135084D01*
X0043262Y0134961D01*
X0043345Y0134835D01*
X0043424Y0134708D01*
X0043500Y0134578D01*
X0043573Y0134446D01*
X0043642Y0134313D01*
X0043707Y0134177D01*
X0043769Y0134041D01*
X0043827Y0133902D01*
X0043882Y0133762D01*
X0043933Y0133620D01*
X0043980Y0133478D01*
X0044023Y0133334D01*
X0044062Y0133189D01*
X0044098Y0133043D01*
X0044129Y0132896D01*
X0044157Y0132748D01*
X0044181Y0132600D01*
X0044201Y0132451D01*
X0044217Y0132301D01*
X0044229Y0132151D01*
X0044237Y0132001D01*
X0044241Y0131851D01*
X0044241Y0131701D01*
X0044237Y0131551D01*
X0044229Y0131401D01*
X0044217Y0131251D01*
X0044201Y0131101D01*
X0044181Y0130952D01*
X0044157Y0130804D01*
X0044129Y0130656D01*
X0044098Y0130509D01*
X0044062Y0130363D01*
X0044023Y0130218D01*
X0043980Y0130074D01*
X0043933Y0129932D01*
X0043882Y0129790D01*
X0043827Y0129650D01*
X0043769Y0129511D01*
X0043707Y0129375D01*
X0043642Y0129239D01*
X0043573Y0129106D01*
X0043500Y0128974D01*
X0043424Y0128844D01*
X0043345Y0128717D01*
X0043262Y0128591D01*
X0043176Y0128468D01*
X0043087Y0128347D01*
X0042994Y0128229D01*
X0042899Y0128113D01*
X0042800Y0127999D01*
X0042698Y0127889D01*
X0042594Y0127781D01*
X0042487Y0127676D01*
X0042376Y0127573D01*
X0042264Y0127474D01*
X0042148Y0127377D01*
X0042031Y0127284D01*
X0041910Y0127194D01*
X0041788Y0127107D01*
X0041663Y0127024D01*
X0041536Y0126943D01*
X0041407Y0126867D01*
X0041275Y0126793D01*
X0041142Y0126723D01*
X0041007Y0126657D01*
X0040871Y0126594D01*
X0040733Y0126535D01*
X0040593Y0126480D01*
X0040452Y0126428D01*
X0040310Y0126380D01*
X0040166Y0126336D01*
X0040021Y0126295D01*
X0039875Y0126259D01*
X0039729Y0126226D01*
X0039581Y0126198D01*
X0039433Y0126173D01*
X0039284Y0126152D01*
X0039135Y0126135D01*
X0038985Y0126122D01*
X0038835Y0126113D01*
X0038685Y0126108D01*
X0038534Y0126107D01*
X0038384Y0126110D01*
X0038234Y0126117D01*
X0038084Y0126128D01*
X0037935Y0126143D01*
X0037786Y0126162D01*
X0037637Y0126185D01*
X0037489Y0126211D01*
X0037342Y0126242D01*
X0037196Y0126277D01*
X0037050Y0126315D01*
X0036906Y0126357D01*
X0036763Y0126403D01*
X0036621Y0126453D01*
X0036481Y0126507D01*
X0036342Y0126564D01*
X0036205Y0126625D01*
X0036069Y0126690D01*
X0035935Y0126758D01*
X0035803Y0126829D01*
X0035673Y0126905D01*
X0035545Y0126983D01*
X0035419Y0127065D01*
X0035295Y0127150D01*
X0035173Y0127239D01*
X0035054Y0127330D01*
X0034938Y0127425D01*
X0034824Y0127523D01*
X0034712Y0127624D01*
X0034603Y0127728D01*
X0034498Y0127834D01*
X0034394Y0127944D01*
X0034294Y0128056D01*
X0034197Y0128171D01*
X0034103Y0128288D01*
X0034012Y0128407D01*
X0033925Y0128530D01*
X0033840Y0128654D01*
X0033759Y0128780D01*
X0033681Y0128909D01*
X0033607Y0129040D01*
X0033536Y0129172D01*
X0033469Y0129307D01*
X0033405Y0129443D01*
X0033345Y0129581D01*
X0033289Y0129720D01*
X0033236Y0129861D01*
X0033187Y0130003D01*
X0033142Y0130146D01*
X0033101Y0130291D01*
X0033064Y0130436D01*
X0033030Y0130583D01*
X0033000Y0130730D01*
X0032975Y0130878D01*
X0032953Y0131027D01*
X0032935Y0131176D01*
X0032921Y0131326D01*
X0032911Y0131476D01*
X0032905Y0131626D01*
X0032903Y0131776D01*
X0032903Y0213272D02*
X0032905Y0213422D01*
X0032911Y0213572D01*
X0032921Y0213722D01*
X0032935Y0213872D01*
X0032953Y0214021D01*
X0032975Y0214170D01*
X0033000Y0214318D01*
X0033030Y0214465D01*
X0033064Y0214612D01*
X0033101Y0214757D01*
X0033142Y0214902D01*
X0033187Y0215045D01*
X0033236Y0215187D01*
X0033289Y0215328D01*
X0033345Y0215467D01*
X0033405Y0215605D01*
X0033469Y0215741D01*
X0033536Y0215876D01*
X0033607Y0216008D01*
X0033681Y0216139D01*
X0033759Y0216268D01*
X0033840Y0216394D01*
X0033925Y0216518D01*
X0034012Y0216641D01*
X0034103Y0216760D01*
X0034197Y0216877D01*
X0034294Y0216992D01*
X0034394Y0217104D01*
X0034498Y0217214D01*
X0034603Y0217320D01*
X0034712Y0217424D01*
X0034824Y0217525D01*
X0034938Y0217623D01*
X0035054Y0217718D01*
X0035173Y0217809D01*
X0035295Y0217898D01*
X0035419Y0217983D01*
X0035545Y0218065D01*
X0035673Y0218143D01*
X0035803Y0218219D01*
X0035935Y0218290D01*
X0036069Y0218358D01*
X0036205Y0218423D01*
X0036342Y0218484D01*
X0036481Y0218541D01*
X0036621Y0218595D01*
X0036763Y0218645D01*
X0036906Y0218691D01*
X0037050Y0218733D01*
X0037196Y0218771D01*
X0037342Y0218806D01*
X0037489Y0218837D01*
X0037637Y0218863D01*
X0037786Y0218886D01*
X0037935Y0218905D01*
X0038084Y0218920D01*
X0038234Y0218931D01*
X0038384Y0218938D01*
X0038534Y0218941D01*
X0038685Y0218940D01*
X0038835Y0218935D01*
X0038985Y0218926D01*
X0039135Y0218913D01*
X0039284Y0218896D01*
X0039433Y0218875D01*
X0039581Y0218850D01*
X0039729Y0218822D01*
X0039875Y0218789D01*
X0040021Y0218753D01*
X0040166Y0218712D01*
X0040310Y0218668D01*
X0040452Y0218620D01*
X0040593Y0218568D01*
X0040733Y0218513D01*
X0040871Y0218454D01*
X0041007Y0218391D01*
X0041142Y0218325D01*
X0041275Y0218255D01*
X0041406Y0218181D01*
X0041536Y0218105D01*
X0041663Y0218024D01*
X0041788Y0217941D01*
X0041910Y0217854D01*
X0042031Y0217764D01*
X0042148Y0217671D01*
X0042264Y0217574D01*
X0042376Y0217475D01*
X0042487Y0217372D01*
X0042594Y0217267D01*
X0042698Y0217159D01*
X0042800Y0217049D01*
X0042899Y0216935D01*
X0042994Y0216819D01*
X0043087Y0216701D01*
X0043176Y0216580D01*
X0043262Y0216457D01*
X0043345Y0216331D01*
X0043424Y0216204D01*
X0043500Y0216074D01*
X0043573Y0215942D01*
X0043642Y0215809D01*
X0043707Y0215673D01*
X0043769Y0215537D01*
X0043827Y0215398D01*
X0043882Y0215258D01*
X0043933Y0215116D01*
X0043980Y0214974D01*
X0044023Y0214830D01*
X0044062Y0214685D01*
X0044098Y0214539D01*
X0044129Y0214392D01*
X0044157Y0214244D01*
X0044181Y0214096D01*
X0044201Y0213947D01*
X0044217Y0213797D01*
X0044229Y0213647D01*
X0044237Y0213497D01*
X0044241Y0213347D01*
X0044241Y0213197D01*
X0044237Y0213047D01*
X0044229Y0212897D01*
X0044217Y0212747D01*
X0044201Y0212597D01*
X0044181Y0212448D01*
X0044157Y0212300D01*
X0044129Y0212152D01*
X0044098Y0212005D01*
X0044062Y0211859D01*
X0044023Y0211714D01*
X0043980Y0211570D01*
X0043933Y0211428D01*
X0043882Y0211286D01*
X0043827Y0211146D01*
X0043769Y0211007D01*
X0043707Y0210871D01*
X0043642Y0210735D01*
X0043573Y0210602D01*
X0043500Y0210470D01*
X0043424Y0210340D01*
X0043345Y0210213D01*
X0043262Y0210087D01*
X0043176Y0209964D01*
X0043087Y0209843D01*
X0042994Y0209725D01*
X0042899Y0209609D01*
X0042800Y0209495D01*
X0042698Y0209385D01*
X0042594Y0209277D01*
X0042487Y0209172D01*
X0042376Y0209069D01*
X0042264Y0208970D01*
X0042148Y0208873D01*
X0042031Y0208780D01*
X0041910Y0208690D01*
X0041788Y0208603D01*
X0041663Y0208520D01*
X0041536Y0208439D01*
X0041407Y0208363D01*
X0041275Y0208289D01*
X0041142Y0208219D01*
X0041007Y0208153D01*
X0040871Y0208090D01*
X0040733Y0208031D01*
X0040593Y0207976D01*
X0040452Y0207924D01*
X0040310Y0207876D01*
X0040166Y0207832D01*
X0040021Y0207791D01*
X0039875Y0207755D01*
X0039729Y0207722D01*
X0039581Y0207694D01*
X0039433Y0207669D01*
X0039284Y0207648D01*
X0039135Y0207631D01*
X0038985Y0207618D01*
X0038835Y0207609D01*
X0038685Y0207604D01*
X0038534Y0207603D01*
X0038384Y0207606D01*
X0038234Y0207613D01*
X0038084Y0207624D01*
X0037935Y0207639D01*
X0037786Y0207658D01*
X0037637Y0207681D01*
X0037489Y0207707D01*
X0037342Y0207738D01*
X0037196Y0207773D01*
X0037050Y0207811D01*
X0036906Y0207853D01*
X0036763Y0207899D01*
X0036621Y0207949D01*
X0036481Y0208003D01*
X0036342Y0208060D01*
X0036205Y0208121D01*
X0036069Y0208186D01*
X0035935Y0208254D01*
X0035803Y0208325D01*
X0035673Y0208401D01*
X0035545Y0208479D01*
X0035419Y0208561D01*
X0035295Y0208646D01*
X0035173Y0208735D01*
X0035054Y0208826D01*
X0034938Y0208921D01*
X0034824Y0209019D01*
X0034712Y0209120D01*
X0034603Y0209224D01*
X0034498Y0209330D01*
X0034394Y0209440D01*
X0034294Y0209552D01*
X0034197Y0209667D01*
X0034103Y0209784D01*
X0034012Y0209903D01*
X0033925Y0210026D01*
X0033840Y0210150D01*
X0033759Y0210276D01*
X0033681Y0210405D01*
X0033607Y0210536D01*
X0033536Y0210668D01*
X0033469Y0210803D01*
X0033405Y0210939D01*
X0033345Y0211077D01*
X0033289Y0211216D01*
X0033236Y0211357D01*
X0033187Y0211499D01*
X0033142Y0211642D01*
X0033101Y0211787D01*
X0033064Y0211932D01*
X0033030Y0212079D01*
X0033000Y0212226D01*
X0032975Y0212374D01*
X0032953Y0212523D01*
X0032935Y0212672D01*
X0032921Y0212822D01*
X0032911Y0212972D01*
X0032905Y0213122D01*
X0032903Y0213272D01*
X0124242Y0213272D02*
X0124244Y0213422D01*
X0124250Y0213572D01*
X0124260Y0213722D01*
X0124274Y0213872D01*
X0124292Y0214021D01*
X0124314Y0214170D01*
X0124339Y0214318D01*
X0124369Y0214465D01*
X0124403Y0214612D01*
X0124440Y0214757D01*
X0124481Y0214902D01*
X0124526Y0215045D01*
X0124575Y0215187D01*
X0124628Y0215328D01*
X0124684Y0215467D01*
X0124744Y0215605D01*
X0124808Y0215741D01*
X0124875Y0215876D01*
X0124946Y0216008D01*
X0125020Y0216139D01*
X0125098Y0216268D01*
X0125179Y0216394D01*
X0125264Y0216518D01*
X0125351Y0216641D01*
X0125442Y0216760D01*
X0125536Y0216877D01*
X0125633Y0216992D01*
X0125733Y0217104D01*
X0125837Y0217214D01*
X0125942Y0217320D01*
X0126051Y0217424D01*
X0126163Y0217525D01*
X0126277Y0217623D01*
X0126393Y0217718D01*
X0126512Y0217809D01*
X0126634Y0217898D01*
X0126758Y0217983D01*
X0126884Y0218065D01*
X0127012Y0218143D01*
X0127142Y0218219D01*
X0127274Y0218290D01*
X0127408Y0218358D01*
X0127544Y0218423D01*
X0127681Y0218484D01*
X0127820Y0218541D01*
X0127960Y0218595D01*
X0128102Y0218645D01*
X0128245Y0218691D01*
X0128389Y0218733D01*
X0128535Y0218771D01*
X0128681Y0218806D01*
X0128828Y0218837D01*
X0128976Y0218863D01*
X0129125Y0218886D01*
X0129274Y0218905D01*
X0129423Y0218920D01*
X0129573Y0218931D01*
X0129723Y0218938D01*
X0129873Y0218941D01*
X0130024Y0218940D01*
X0130174Y0218935D01*
X0130324Y0218926D01*
X0130474Y0218913D01*
X0130623Y0218896D01*
X0130772Y0218875D01*
X0130920Y0218850D01*
X0131068Y0218822D01*
X0131214Y0218789D01*
X0131360Y0218753D01*
X0131505Y0218712D01*
X0131649Y0218668D01*
X0131791Y0218620D01*
X0131932Y0218568D01*
X0132072Y0218513D01*
X0132210Y0218454D01*
X0132346Y0218391D01*
X0132481Y0218325D01*
X0132614Y0218255D01*
X0132745Y0218181D01*
X0132875Y0218105D01*
X0133002Y0218024D01*
X0133127Y0217941D01*
X0133249Y0217854D01*
X0133370Y0217764D01*
X0133487Y0217671D01*
X0133603Y0217574D01*
X0133715Y0217475D01*
X0133826Y0217372D01*
X0133933Y0217267D01*
X0134037Y0217159D01*
X0134139Y0217049D01*
X0134238Y0216935D01*
X0134333Y0216819D01*
X0134426Y0216701D01*
X0134515Y0216580D01*
X0134601Y0216457D01*
X0134684Y0216331D01*
X0134763Y0216204D01*
X0134839Y0216074D01*
X0134912Y0215942D01*
X0134981Y0215809D01*
X0135046Y0215673D01*
X0135108Y0215537D01*
X0135166Y0215398D01*
X0135221Y0215258D01*
X0135272Y0215116D01*
X0135319Y0214974D01*
X0135362Y0214830D01*
X0135401Y0214685D01*
X0135437Y0214539D01*
X0135468Y0214392D01*
X0135496Y0214244D01*
X0135520Y0214096D01*
X0135540Y0213947D01*
X0135556Y0213797D01*
X0135568Y0213647D01*
X0135576Y0213497D01*
X0135580Y0213347D01*
X0135580Y0213197D01*
X0135576Y0213047D01*
X0135568Y0212897D01*
X0135556Y0212747D01*
X0135540Y0212597D01*
X0135520Y0212448D01*
X0135496Y0212300D01*
X0135468Y0212152D01*
X0135437Y0212005D01*
X0135401Y0211859D01*
X0135362Y0211714D01*
X0135319Y0211570D01*
X0135272Y0211428D01*
X0135221Y0211286D01*
X0135166Y0211146D01*
X0135108Y0211007D01*
X0135046Y0210871D01*
X0134981Y0210735D01*
X0134912Y0210602D01*
X0134839Y0210470D01*
X0134763Y0210340D01*
X0134684Y0210213D01*
X0134601Y0210087D01*
X0134515Y0209964D01*
X0134426Y0209843D01*
X0134333Y0209725D01*
X0134238Y0209609D01*
X0134139Y0209495D01*
X0134037Y0209385D01*
X0133933Y0209277D01*
X0133826Y0209172D01*
X0133715Y0209069D01*
X0133603Y0208970D01*
X0133487Y0208873D01*
X0133370Y0208780D01*
X0133249Y0208690D01*
X0133127Y0208603D01*
X0133002Y0208520D01*
X0132875Y0208439D01*
X0132746Y0208363D01*
X0132614Y0208289D01*
X0132481Y0208219D01*
X0132346Y0208153D01*
X0132210Y0208090D01*
X0132072Y0208031D01*
X0131932Y0207976D01*
X0131791Y0207924D01*
X0131649Y0207876D01*
X0131505Y0207832D01*
X0131360Y0207791D01*
X0131214Y0207755D01*
X0131068Y0207722D01*
X0130920Y0207694D01*
X0130772Y0207669D01*
X0130623Y0207648D01*
X0130474Y0207631D01*
X0130324Y0207618D01*
X0130174Y0207609D01*
X0130024Y0207604D01*
X0129873Y0207603D01*
X0129723Y0207606D01*
X0129573Y0207613D01*
X0129423Y0207624D01*
X0129274Y0207639D01*
X0129125Y0207658D01*
X0128976Y0207681D01*
X0128828Y0207707D01*
X0128681Y0207738D01*
X0128535Y0207773D01*
X0128389Y0207811D01*
X0128245Y0207853D01*
X0128102Y0207899D01*
X0127960Y0207949D01*
X0127820Y0208003D01*
X0127681Y0208060D01*
X0127544Y0208121D01*
X0127408Y0208186D01*
X0127274Y0208254D01*
X0127142Y0208325D01*
X0127012Y0208401D01*
X0126884Y0208479D01*
X0126758Y0208561D01*
X0126634Y0208646D01*
X0126512Y0208735D01*
X0126393Y0208826D01*
X0126277Y0208921D01*
X0126163Y0209019D01*
X0126051Y0209120D01*
X0125942Y0209224D01*
X0125837Y0209330D01*
X0125733Y0209440D01*
X0125633Y0209552D01*
X0125536Y0209667D01*
X0125442Y0209784D01*
X0125351Y0209903D01*
X0125264Y0210026D01*
X0125179Y0210150D01*
X0125098Y0210276D01*
X0125020Y0210405D01*
X0124946Y0210536D01*
X0124875Y0210668D01*
X0124808Y0210803D01*
X0124744Y0210939D01*
X0124684Y0211077D01*
X0124628Y0211216D01*
X0124575Y0211357D01*
X0124526Y0211499D01*
X0124481Y0211642D01*
X0124440Y0211787D01*
X0124403Y0211932D01*
X0124369Y0212079D01*
X0124339Y0212226D01*
X0124314Y0212374D01*
X0124292Y0212523D01*
X0124274Y0212672D01*
X0124260Y0212822D01*
X0124250Y0212972D01*
X0124244Y0213122D01*
X0124242Y0213272D01*
X0124242Y0131776D02*
X0124244Y0131926D01*
X0124250Y0132076D01*
X0124260Y0132226D01*
X0124274Y0132376D01*
X0124292Y0132525D01*
X0124314Y0132674D01*
X0124339Y0132822D01*
X0124369Y0132969D01*
X0124403Y0133116D01*
X0124440Y0133261D01*
X0124481Y0133406D01*
X0124526Y0133549D01*
X0124575Y0133691D01*
X0124628Y0133832D01*
X0124684Y0133971D01*
X0124744Y0134109D01*
X0124808Y0134245D01*
X0124875Y0134380D01*
X0124946Y0134512D01*
X0125020Y0134643D01*
X0125098Y0134772D01*
X0125179Y0134898D01*
X0125264Y0135022D01*
X0125351Y0135145D01*
X0125442Y0135264D01*
X0125536Y0135381D01*
X0125633Y0135496D01*
X0125733Y0135608D01*
X0125837Y0135718D01*
X0125942Y0135824D01*
X0126051Y0135928D01*
X0126163Y0136029D01*
X0126277Y0136127D01*
X0126393Y0136222D01*
X0126512Y0136313D01*
X0126634Y0136402D01*
X0126758Y0136487D01*
X0126884Y0136569D01*
X0127012Y0136647D01*
X0127142Y0136723D01*
X0127274Y0136794D01*
X0127408Y0136862D01*
X0127544Y0136927D01*
X0127681Y0136988D01*
X0127820Y0137045D01*
X0127960Y0137099D01*
X0128102Y0137149D01*
X0128245Y0137195D01*
X0128389Y0137237D01*
X0128535Y0137275D01*
X0128681Y0137310D01*
X0128828Y0137341D01*
X0128976Y0137367D01*
X0129125Y0137390D01*
X0129274Y0137409D01*
X0129423Y0137424D01*
X0129573Y0137435D01*
X0129723Y0137442D01*
X0129873Y0137445D01*
X0130024Y0137444D01*
X0130174Y0137439D01*
X0130324Y0137430D01*
X0130474Y0137417D01*
X0130623Y0137400D01*
X0130772Y0137379D01*
X0130920Y0137354D01*
X0131068Y0137326D01*
X0131214Y0137293D01*
X0131360Y0137257D01*
X0131505Y0137216D01*
X0131649Y0137172D01*
X0131791Y0137124D01*
X0131932Y0137072D01*
X0132072Y0137017D01*
X0132210Y0136958D01*
X0132346Y0136895D01*
X0132481Y0136829D01*
X0132614Y0136759D01*
X0132745Y0136685D01*
X0132875Y0136609D01*
X0133002Y0136528D01*
X0133127Y0136445D01*
X0133249Y0136358D01*
X0133370Y0136268D01*
X0133487Y0136175D01*
X0133603Y0136078D01*
X0133715Y0135979D01*
X0133826Y0135876D01*
X0133933Y0135771D01*
X0134037Y0135663D01*
X0134139Y0135553D01*
X0134238Y0135439D01*
X0134333Y0135323D01*
X0134426Y0135205D01*
X0134515Y0135084D01*
X0134601Y0134961D01*
X0134684Y0134835D01*
X0134763Y0134708D01*
X0134839Y0134578D01*
X0134912Y0134446D01*
X0134981Y0134313D01*
X0135046Y0134177D01*
X0135108Y0134041D01*
X0135166Y0133902D01*
X0135221Y0133762D01*
X0135272Y0133620D01*
X0135319Y0133478D01*
X0135362Y0133334D01*
X0135401Y0133189D01*
X0135437Y0133043D01*
X0135468Y0132896D01*
X0135496Y0132748D01*
X0135520Y0132600D01*
X0135540Y0132451D01*
X0135556Y0132301D01*
X0135568Y0132151D01*
X0135576Y0132001D01*
X0135580Y0131851D01*
X0135580Y0131701D01*
X0135576Y0131551D01*
X0135568Y0131401D01*
X0135556Y0131251D01*
X0135540Y0131101D01*
X0135520Y0130952D01*
X0135496Y0130804D01*
X0135468Y0130656D01*
X0135437Y0130509D01*
X0135401Y0130363D01*
X0135362Y0130218D01*
X0135319Y0130074D01*
X0135272Y0129932D01*
X0135221Y0129790D01*
X0135166Y0129650D01*
X0135108Y0129511D01*
X0135046Y0129375D01*
X0134981Y0129239D01*
X0134912Y0129106D01*
X0134839Y0128974D01*
X0134763Y0128844D01*
X0134684Y0128717D01*
X0134601Y0128591D01*
X0134515Y0128468D01*
X0134426Y0128347D01*
X0134333Y0128229D01*
X0134238Y0128113D01*
X0134139Y0127999D01*
X0134037Y0127889D01*
X0133933Y0127781D01*
X0133826Y0127676D01*
X0133715Y0127573D01*
X0133603Y0127474D01*
X0133487Y0127377D01*
X0133370Y0127284D01*
X0133249Y0127194D01*
X0133127Y0127107D01*
X0133002Y0127024D01*
X0132875Y0126943D01*
X0132746Y0126867D01*
X0132614Y0126793D01*
X0132481Y0126723D01*
X0132346Y0126657D01*
X0132210Y0126594D01*
X0132072Y0126535D01*
X0131932Y0126480D01*
X0131791Y0126428D01*
X0131649Y0126380D01*
X0131505Y0126336D01*
X0131360Y0126295D01*
X0131214Y0126259D01*
X0131068Y0126226D01*
X0130920Y0126198D01*
X0130772Y0126173D01*
X0130623Y0126152D01*
X0130474Y0126135D01*
X0130324Y0126122D01*
X0130174Y0126113D01*
X0130024Y0126108D01*
X0129873Y0126107D01*
X0129723Y0126110D01*
X0129573Y0126117D01*
X0129423Y0126128D01*
X0129274Y0126143D01*
X0129125Y0126162D01*
X0128976Y0126185D01*
X0128828Y0126211D01*
X0128681Y0126242D01*
X0128535Y0126277D01*
X0128389Y0126315D01*
X0128245Y0126357D01*
X0128102Y0126403D01*
X0127960Y0126453D01*
X0127820Y0126507D01*
X0127681Y0126564D01*
X0127544Y0126625D01*
X0127408Y0126690D01*
X0127274Y0126758D01*
X0127142Y0126829D01*
X0127012Y0126905D01*
X0126884Y0126983D01*
X0126758Y0127065D01*
X0126634Y0127150D01*
X0126512Y0127239D01*
X0126393Y0127330D01*
X0126277Y0127425D01*
X0126163Y0127523D01*
X0126051Y0127624D01*
X0125942Y0127728D01*
X0125837Y0127834D01*
X0125733Y0127944D01*
X0125633Y0128056D01*
X0125536Y0128171D01*
X0125442Y0128288D01*
X0125351Y0128407D01*
X0125264Y0128530D01*
X0125179Y0128654D01*
X0125098Y0128780D01*
X0125020Y0128909D01*
X0124946Y0129040D01*
X0124875Y0129172D01*
X0124808Y0129307D01*
X0124744Y0129443D01*
X0124684Y0129581D01*
X0124628Y0129720D01*
X0124575Y0129861D01*
X0124526Y0130003D01*
X0124481Y0130146D01*
X0124440Y0130291D01*
X0124403Y0130436D01*
X0124369Y0130583D01*
X0124339Y0130730D01*
X0124314Y0130878D01*
X0124292Y0131027D01*
X0124274Y0131176D01*
X0124260Y0131326D01*
X0124250Y0131476D01*
X0124244Y0131626D01*
X0124242Y0131776D01*
M02*
