G75*
%MOIN*%
%OFA0B0*%
%FSLAX25Y25*%
%IPPOS*%
%LPD*%
%AMOC8*
5,1,8,0,0,1.08239X$1,22.5*
%
%ADD10C,0.00500*%
D10*
X0040215Y0077214D02*
X0043217Y0077214D01*
X0041716Y0077214D02*
X0041716Y0081718D01*
X0043217Y0080217D01*
X0044819Y0080217D02*
X0045569Y0079466D01*
X0047821Y0079466D01*
X0047821Y0077214D02*
X0047821Y0081718D01*
X0045569Y0081718D01*
X0044819Y0080967D01*
X0044819Y0080217D01*
X0045569Y0079466D02*
X0044819Y0078716D01*
X0044819Y0077965D01*
X0045569Y0077214D01*
X0047821Y0077214D01*
X0047821Y0084714D02*
X0045569Y0084714D01*
X0044819Y0085465D01*
X0044819Y0086216D01*
X0045569Y0086966D01*
X0047821Y0086966D01*
X0047821Y0084714D02*
X0047821Y0089218D01*
X0045569Y0089218D01*
X0044819Y0088467D01*
X0044819Y0087717D01*
X0045569Y0086966D01*
X0043217Y0085465D02*
X0042467Y0084714D01*
X0040965Y0084714D01*
X0040215Y0085465D01*
X0040215Y0088467D01*
X0043217Y0085465D01*
X0043217Y0088467D01*
X0042467Y0089218D01*
X0040965Y0089218D01*
X0040215Y0088467D01*
X0054026Y0086966D02*
X0054026Y0086216D01*
X0057029Y0086216D01*
X0057029Y0086966D02*
X0056278Y0087717D01*
X0054777Y0087717D01*
X0054026Y0086966D01*
X0054777Y0084714D02*
X0056278Y0084714D01*
X0057029Y0085465D01*
X0057029Y0086966D01*
X0058630Y0087717D02*
X0060882Y0087717D01*
X0061633Y0086966D01*
X0060882Y0086216D01*
X0059381Y0086216D01*
X0058630Y0085465D01*
X0059381Y0084714D01*
X0061633Y0084714D01*
X0063234Y0084714D02*
X0063234Y0086966D01*
X0063985Y0087717D01*
X0066237Y0087717D01*
X0066237Y0084714D01*
X0067838Y0086216D02*
X0070841Y0086216D01*
X0070841Y0086966D02*
X0070090Y0087717D01*
X0068589Y0087717D01*
X0067838Y0086966D01*
X0067838Y0086216D01*
X0068589Y0084714D02*
X0070090Y0084714D01*
X0070841Y0085465D01*
X0070841Y0086966D01*
X0072442Y0086216D02*
X0072442Y0085465D01*
X0073193Y0084714D01*
X0074694Y0084714D01*
X0075445Y0085465D01*
X0077046Y0085465D02*
X0077797Y0084714D01*
X0080049Y0084714D01*
X0080049Y0083213D02*
X0080049Y0087717D01*
X0077797Y0087717D01*
X0077046Y0086966D01*
X0077046Y0085465D01*
X0075445Y0087717D02*
X0074694Y0086966D01*
X0073193Y0086966D01*
X0072442Y0086216D01*
X0072442Y0088467D02*
X0073193Y0089218D01*
X0074694Y0089218D01*
X0075445Y0088467D01*
X0075445Y0087717D01*
X0077046Y0092214D02*
X0077046Y0095217D01*
X0078547Y0096718D01*
X0080049Y0095217D01*
X0080049Y0092214D01*
X0081650Y0092965D02*
X0081650Y0095967D01*
X0082401Y0096718D01*
X0084653Y0096718D01*
X0084653Y0092214D01*
X0082401Y0092214D01*
X0081650Y0092965D01*
X0080049Y0094466D02*
X0077046Y0094466D01*
X0077046Y0099714D02*
X0080049Y0099714D01*
X0080049Y0104218D01*
X0081650Y0103467D02*
X0082401Y0104218D01*
X0083902Y0104218D01*
X0084653Y0103467D01*
X0084653Y0100465D01*
X0083902Y0099714D01*
X0082401Y0099714D01*
X0081650Y0100465D01*
X0086254Y0100465D02*
X0087005Y0099714D01*
X0088506Y0099714D01*
X0089256Y0100465D01*
X0088506Y0101966D02*
X0089256Y0102717D01*
X0089256Y0103467D01*
X0088506Y0104218D01*
X0087005Y0104218D01*
X0086254Y0103467D01*
X0087005Y0101966D02*
X0086254Y0101216D01*
X0086254Y0100465D01*
X0087005Y0101966D02*
X0088506Y0101966D01*
X0088506Y0096718D02*
X0089256Y0095967D01*
X0089256Y0095217D01*
X0088506Y0094466D01*
X0087005Y0094466D01*
X0086254Y0093716D01*
X0086254Y0092965D01*
X0087005Y0092214D01*
X0088506Y0092214D01*
X0089256Y0092965D01*
X0088506Y0089218D02*
X0089256Y0088467D01*
X0089256Y0085465D01*
X0088506Y0084714D01*
X0087005Y0084714D01*
X0086254Y0085465D01*
X0084653Y0085465D02*
X0083902Y0086216D01*
X0081650Y0086216D01*
X0081650Y0086966D02*
X0081650Y0084714D01*
X0083902Y0084714D01*
X0084653Y0085465D01*
X0083902Y0087717D02*
X0082401Y0087717D01*
X0081650Y0086966D01*
X0086254Y0088467D02*
X0087005Y0089218D01*
X0088506Y0089218D01*
X0086254Y0095967D02*
X0087005Y0096718D01*
X0088506Y0096718D01*
X0089256Y0107214D02*
X0089256Y0111718D01*
X0090858Y0111718D02*
X0093860Y0111718D01*
X0092359Y0111718D02*
X0092359Y0107214D01*
X0089256Y0109466D02*
X0088506Y0110217D01*
X0087005Y0110217D01*
X0086254Y0109466D01*
X0086254Y0107214D01*
X0084653Y0107965D02*
X0084653Y0109466D01*
X0083902Y0110217D01*
X0082401Y0110217D01*
X0081650Y0109466D01*
X0081650Y0108716D01*
X0084653Y0108716D01*
X0084653Y0107965D02*
X0083902Y0107214D01*
X0082401Y0107214D01*
X0080049Y0107214D02*
X0080049Y0110217D01*
X0080049Y0108716D02*
X0078547Y0110217D01*
X0077797Y0110217D01*
X0076212Y0110217D02*
X0076212Y0107214D01*
X0074711Y0107214D02*
X0074711Y0109466D01*
X0073960Y0110217D01*
X0073209Y0109466D01*
X0073209Y0107214D01*
X0074711Y0109466D02*
X0075461Y0110217D01*
X0076212Y0110217D01*
X0076212Y0114714D02*
X0076212Y0117717D01*
X0075461Y0117717D01*
X0074711Y0116966D01*
X0073960Y0117717D01*
X0073209Y0116966D01*
X0073209Y0114714D01*
X0074711Y0114714D02*
X0074711Y0116966D01*
X0077797Y0117717D02*
X0078547Y0117717D01*
X0080049Y0116216D01*
X0080049Y0117717D02*
X0080049Y0114714D01*
X0081650Y0116216D02*
X0084653Y0116216D01*
X0084653Y0116966D02*
X0083902Y0117717D01*
X0082401Y0117717D01*
X0081650Y0116966D01*
X0081650Y0116216D01*
X0082401Y0114714D02*
X0083902Y0114714D01*
X0084653Y0115465D01*
X0084653Y0116966D01*
X0086254Y0116966D02*
X0086254Y0114714D01*
X0086254Y0116966D02*
X0087005Y0117717D01*
X0088506Y0117717D01*
X0089256Y0116966D01*
X0089256Y0119218D02*
X0089256Y0114714D01*
X0092359Y0114714D02*
X0092359Y0119218D01*
X0093860Y0119218D02*
X0090858Y0119218D01*
X0092359Y0122214D02*
X0092359Y0126718D01*
X0093860Y0126718D02*
X0090858Y0126718D01*
X0089256Y0126718D02*
X0089256Y0122214D01*
X0089256Y0124466D02*
X0088506Y0125217D01*
X0087005Y0125217D01*
X0086254Y0124466D01*
X0086254Y0122214D01*
X0084653Y0122965D02*
X0084653Y0124466D01*
X0083902Y0125217D01*
X0082401Y0125217D01*
X0081650Y0124466D01*
X0081650Y0123716D01*
X0084653Y0123716D01*
X0084653Y0122965D02*
X0083902Y0122214D01*
X0082401Y0122214D01*
X0080049Y0122214D02*
X0080049Y0125217D01*
X0080049Y0123716D02*
X0078547Y0125217D01*
X0077797Y0125217D01*
X0076212Y0125217D02*
X0076212Y0122214D01*
X0074711Y0122214D02*
X0074711Y0124466D01*
X0073960Y0125217D01*
X0073209Y0124466D01*
X0073209Y0122214D01*
X0074711Y0124466D02*
X0075461Y0125217D01*
X0076212Y0125217D01*
X0077046Y0129714D02*
X0077046Y0131966D01*
X0077797Y0132717D01*
X0080049Y0132717D01*
X0080049Y0129714D01*
X0081650Y0129714D02*
X0081650Y0132717D01*
X0081650Y0129714D02*
X0083902Y0129714D01*
X0084653Y0130465D01*
X0084653Y0132717D01*
X0086254Y0134218D02*
X0089256Y0134218D01*
X0089256Y0129714D01*
X0089256Y0131966D02*
X0087755Y0131966D01*
X0075445Y0131966D02*
X0075445Y0130465D01*
X0074694Y0129714D01*
X0072442Y0129714D01*
X0070090Y0130465D02*
X0070090Y0133467D01*
X0070841Y0132717D02*
X0069339Y0132717D01*
X0067771Y0132717D02*
X0067021Y0132717D01*
X0067021Y0129714D01*
X0067771Y0129714D02*
X0066270Y0129714D01*
X0064702Y0130465D02*
X0064702Y0131966D01*
X0063952Y0132717D01*
X0062450Y0132717D01*
X0061700Y0131966D01*
X0061700Y0130465D01*
X0062450Y0129714D01*
X0063952Y0129714D01*
X0064702Y0130465D01*
X0067021Y0134218D02*
X0067021Y0134969D01*
X0070090Y0130465D02*
X0069339Y0129714D01*
X0072442Y0132717D02*
X0074694Y0132717D01*
X0075445Y0131966D01*
X0067004Y0124466D02*
X0064002Y0124466D01*
X0064752Y0119218D02*
X0064002Y0118467D01*
X0064002Y0116966D01*
X0064752Y0116216D01*
X0067004Y0116216D01*
X0065503Y0116216D02*
X0064002Y0114714D01*
X0062400Y0115465D02*
X0062400Y0116966D01*
X0061650Y0117717D01*
X0060148Y0117717D01*
X0059398Y0116966D01*
X0059398Y0116216D01*
X0062400Y0116216D01*
X0062400Y0115465D02*
X0061650Y0114714D01*
X0060148Y0114714D01*
X0057046Y0114714D02*
X0057046Y0118467D01*
X0056295Y0119218D01*
X0056295Y0116966D02*
X0057796Y0116966D01*
X0057796Y0122214D02*
X0057796Y0126718D01*
X0056295Y0125217D01*
X0054794Y0126718D01*
X0054794Y0122214D01*
X0053192Y0122214D02*
X0051691Y0122214D01*
X0052442Y0122214D02*
X0052442Y0126718D01*
X0053192Y0126718D02*
X0051691Y0126718D01*
X0050123Y0126718D02*
X0050123Y0122214D01*
X0047871Y0122214D01*
X0047121Y0122965D01*
X0047121Y0125967D01*
X0047871Y0126718D01*
X0050123Y0126718D01*
X0048622Y0119218D02*
X0050123Y0117717D01*
X0050123Y0116216D01*
X0048622Y0114714D01*
X0047054Y0114714D02*
X0044051Y0114714D01*
X0045553Y0114714D02*
X0045553Y0119218D01*
X0047054Y0117717D01*
X0042450Y0115465D02*
X0042450Y0114714D01*
X0041699Y0114714D01*
X0041699Y0115465D01*
X0042450Y0115465D01*
X0040148Y0114714D02*
X0037145Y0117717D01*
X0037145Y0118467D01*
X0037896Y0119218D01*
X0039397Y0119218D01*
X0040148Y0118467D01*
X0040148Y0114714D02*
X0037145Y0114714D01*
X0035544Y0116216D02*
X0034043Y0114714D01*
X0032541Y0116216D01*
X0032541Y0119218D01*
X0030940Y0119218D02*
X0029439Y0117717D01*
X0029439Y0116216D01*
X0030940Y0114714D01*
X0031707Y0111718D02*
X0030206Y0110217D01*
X0030206Y0108716D01*
X0031707Y0107214D01*
X0033309Y0107965D02*
X0033309Y0110967D01*
X0034059Y0111718D01*
X0036311Y0111718D01*
X0036311Y0107214D01*
X0034059Y0107214D01*
X0033309Y0107965D01*
X0037913Y0107214D02*
X0037913Y0111718D01*
X0040915Y0111718D02*
X0037913Y0107214D01*
X0040915Y0107214D02*
X0040915Y0111718D01*
X0042517Y0110967D02*
X0043267Y0111718D01*
X0044769Y0111718D01*
X0045519Y0110967D01*
X0045519Y0107965D01*
X0044769Y0107214D01*
X0043267Y0107214D01*
X0042517Y0107965D01*
X0042517Y0109466D01*
X0044018Y0109466D01*
X0047087Y0107214D02*
X0048588Y0108716D01*
X0048588Y0110217D01*
X0047087Y0111718D01*
X0054794Y0110217D02*
X0054794Y0107965D01*
X0055544Y0107214D01*
X0056295Y0107965D01*
X0057046Y0107214D01*
X0057796Y0107965D01*
X0057796Y0110217D01*
X0059398Y0109466D02*
X0059398Y0107965D01*
X0060148Y0107214D01*
X0061650Y0107214D01*
X0062400Y0107965D01*
X0062400Y0109466D01*
X0061650Y0110217D01*
X0060148Y0110217D01*
X0059398Y0109466D01*
X0064002Y0107214D02*
X0067004Y0107214D01*
X0067004Y0111718D01*
X0067004Y0114714D02*
X0067004Y0119218D01*
X0064752Y0119218D01*
X0060098Y0129714D02*
X0060098Y0132717D01*
X0057846Y0132717D01*
X0057096Y0131966D01*
X0057096Y0129714D01*
X0035544Y0119218D02*
X0035544Y0116216D01*
X0054777Y0080217D02*
X0054026Y0079466D01*
X0054026Y0078716D01*
X0057029Y0078716D01*
X0057029Y0079466D02*
X0057029Y0077965D01*
X0056278Y0077214D01*
X0054777Y0077214D01*
X0054777Y0080217D02*
X0056278Y0080217D01*
X0057029Y0079466D01*
X0058630Y0080217D02*
X0060882Y0080217D01*
X0061633Y0079466D01*
X0060882Y0078716D01*
X0059381Y0078716D01*
X0058630Y0077965D01*
X0059381Y0077214D01*
X0061633Y0077214D01*
X0063234Y0077214D02*
X0063234Y0079466D01*
X0063985Y0080217D01*
X0066237Y0080217D01*
X0066237Y0077214D01*
X0067838Y0078716D02*
X0070841Y0078716D01*
X0070841Y0079466D02*
X0070841Y0077965D01*
X0070090Y0077214D01*
X0068589Y0077214D01*
X0067838Y0078716D02*
X0067838Y0079466D01*
X0068589Y0080217D01*
X0070090Y0080217D01*
X0070841Y0079466D01*
X0072442Y0078716D02*
X0072442Y0077965D01*
X0073193Y0077214D01*
X0074694Y0077214D01*
X0075445Y0077965D01*
X0077046Y0077965D02*
X0077797Y0077214D01*
X0080049Y0077214D01*
X0080049Y0075713D02*
X0080049Y0080217D01*
X0077797Y0080217D01*
X0077046Y0079466D01*
X0077046Y0077965D01*
X0075445Y0080217D02*
X0074694Y0079466D01*
X0073193Y0079466D01*
X0072442Y0078716D01*
X0072442Y0080967D02*
X0073193Y0081718D01*
X0074694Y0081718D01*
X0075445Y0080967D01*
X0075445Y0080217D01*
X0075445Y0074218D02*
X0073193Y0074218D01*
X0072442Y0073467D01*
X0072442Y0070465D01*
X0073193Y0069714D01*
X0075445Y0069714D01*
X0075445Y0074218D01*
X0077046Y0073467D02*
X0077797Y0074218D01*
X0079298Y0074218D01*
X0080049Y0073467D01*
X0080049Y0070465D01*
X0079298Y0069714D01*
X0077797Y0069714D01*
X0077046Y0070465D01*
X0077046Y0073467D01*
X0081650Y0074218D02*
X0081650Y0069714D01*
X0081650Y0066718D02*
X0084653Y0066718D01*
X0083151Y0066718D02*
X0083151Y0062214D01*
X0080049Y0062214D02*
X0080049Y0065217D01*
X0078547Y0066718D01*
X0077046Y0065217D01*
X0077046Y0062214D01*
X0075445Y0062214D02*
X0075445Y0066718D01*
X0072442Y0062214D01*
X0072442Y0066718D01*
X0070841Y0066718D02*
X0070841Y0062214D01*
X0070841Y0063716D02*
X0067838Y0066718D01*
X0070090Y0064466D02*
X0067838Y0062214D01*
X0077046Y0064466D02*
X0080049Y0064466D01*
X0086254Y0062965D02*
X0087005Y0062214D01*
X0088506Y0062214D01*
X0089256Y0062965D01*
X0089256Y0065967D01*
X0088506Y0066718D01*
X0087005Y0066718D01*
X0086254Y0065967D01*
X0087005Y0069714D02*
X0086254Y0070465D01*
X0087005Y0069714D02*
X0088506Y0069714D01*
X0089256Y0070465D01*
X0089256Y0073467D01*
X0088506Y0074218D01*
X0087005Y0074218D01*
X0086254Y0073467D01*
X0084653Y0074218D02*
X0083151Y0072717D01*
X0081650Y0074218D01*
X0081650Y0077214D02*
X0083902Y0077214D01*
X0084653Y0077965D01*
X0083902Y0078716D01*
X0081650Y0078716D01*
X0081650Y0079466D02*
X0081650Y0077214D01*
X0081650Y0079466D02*
X0082401Y0080217D01*
X0083902Y0080217D01*
X0086254Y0080967D02*
X0087005Y0081718D01*
X0088506Y0081718D01*
X0089256Y0080967D01*
X0089256Y0077965D01*
X0088506Y0077214D01*
X0087005Y0077214D01*
X0086254Y0077965D01*
X0084653Y0074218D02*
X0084653Y0069714D01*
X0104670Y0069714D02*
X0107672Y0069714D01*
X0104670Y0072717D01*
X0104670Y0073467D01*
X0105420Y0074218D01*
X0106922Y0074218D01*
X0107672Y0073467D01*
X0109274Y0074218D02*
X0112276Y0074218D01*
X0112276Y0071966D01*
X0110775Y0072717D01*
X0110024Y0072717D01*
X0109274Y0071966D01*
X0109274Y0070465D01*
X0110024Y0069714D01*
X0111525Y0069714D01*
X0112276Y0070465D01*
X0113877Y0071966D02*
X0113877Y0073467D01*
X0114628Y0074218D01*
X0116880Y0074218D01*
X0116880Y0069714D01*
X0116880Y0071216D02*
X0114628Y0071216D01*
X0113877Y0071966D01*
X0114628Y0066718D02*
X0113877Y0065967D01*
X0113877Y0064466D01*
X0114628Y0063716D01*
X0116880Y0063716D01*
X0116880Y0062214D02*
X0116880Y0066718D01*
X0114628Y0066718D01*
X0112276Y0066718D02*
X0112276Y0064466D01*
X0110775Y0065217D01*
X0110024Y0065217D01*
X0109274Y0064466D01*
X0109274Y0062965D01*
X0110024Y0062214D01*
X0111525Y0062214D01*
X0112276Y0062965D01*
X0112276Y0066718D02*
X0109274Y0066718D01*
X0107672Y0065967D02*
X0106922Y0066718D01*
X0105420Y0066718D01*
X0104670Y0065967D01*
X0104670Y0065217D01*
X0105420Y0064466D01*
X0104670Y0063716D01*
X0104670Y0062965D01*
X0105420Y0062214D01*
X0106922Y0062214D01*
X0107672Y0062965D01*
X0106171Y0064466D02*
X0105420Y0064466D01*
X0104670Y0077214D02*
X0107672Y0077214D01*
X0106171Y0077214D02*
X0106171Y0081718D01*
X0107672Y0080217D01*
X0109274Y0079466D02*
X0109274Y0077965D01*
X0110024Y0077214D01*
X0111525Y0077214D01*
X0112276Y0077965D01*
X0112276Y0079466D02*
X0110775Y0080217D01*
X0110024Y0080217D01*
X0109274Y0079466D01*
X0109274Y0081718D02*
X0112276Y0081718D01*
X0112276Y0079466D01*
X0113877Y0079466D02*
X0114628Y0078716D01*
X0116880Y0078716D01*
X0116880Y0077214D02*
X0116880Y0081718D01*
X0114628Y0081718D01*
X0113877Y0080967D01*
X0113877Y0079466D01*
X0111525Y0084714D02*
X0112276Y0085465D01*
X0111525Y0084714D02*
X0110024Y0084714D01*
X0109274Y0085465D01*
X0109274Y0086966D01*
X0110024Y0087717D01*
X0110775Y0087717D01*
X0112276Y0086966D01*
X0112276Y0089218D01*
X0109274Y0089218D01*
X0107672Y0088467D02*
X0107672Y0085465D01*
X0104670Y0088467D01*
X0104670Y0085465D01*
X0105420Y0084714D01*
X0106922Y0084714D01*
X0107672Y0085465D01*
X0107672Y0088467D02*
X0106922Y0089218D01*
X0105420Y0089218D01*
X0104670Y0088467D01*
X0104670Y0092214D02*
X0107672Y0092214D01*
X0106171Y0092214D02*
X0106171Y0096718D01*
X0107672Y0095217D01*
X0109274Y0094466D02*
X0112276Y0094466D01*
X0110024Y0096718D01*
X0110024Y0092214D01*
X0113877Y0094466D02*
X0114628Y0093716D01*
X0116880Y0093716D01*
X0116880Y0092214D02*
X0116880Y0096718D01*
X0114628Y0096718D01*
X0113877Y0095967D01*
X0113877Y0094466D01*
X0116880Y0099714D02*
X0116880Y0104218D01*
X0114628Y0104218D01*
X0113877Y0103467D01*
X0113877Y0101966D01*
X0114628Y0101216D01*
X0116880Y0101216D01*
X0112276Y0101966D02*
X0109274Y0101966D01*
X0107672Y0100465D02*
X0106922Y0099714D01*
X0105420Y0099714D01*
X0104670Y0100465D01*
X0104670Y0103467D01*
X0107672Y0100465D01*
X0107672Y0103467D01*
X0106922Y0104218D01*
X0105420Y0104218D01*
X0104670Y0103467D01*
X0107672Y0107214D02*
X0107672Y0107965D01*
X0104670Y0110967D01*
X0104670Y0111718D01*
X0107672Y0111718D01*
X0109274Y0110967D02*
X0109274Y0110217D01*
X0110024Y0109466D01*
X0109274Y0108716D01*
X0109274Y0107965D01*
X0110024Y0107214D01*
X0111525Y0107214D01*
X0112276Y0107965D01*
X0110775Y0109466D02*
X0110024Y0109466D01*
X0109274Y0110967D02*
X0110024Y0111718D01*
X0111525Y0111718D01*
X0112276Y0110967D01*
X0113877Y0110967D02*
X0113877Y0109466D01*
X0114628Y0108716D01*
X0116880Y0108716D01*
X0116880Y0107214D02*
X0116880Y0111718D01*
X0114628Y0111718D01*
X0113877Y0110967D01*
X0111525Y0114714D02*
X0112276Y0115465D01*
X0111525Y0114714D02*
X0110024Y0114714D01*
X0109274Y0115465D01*
X0109274Y0116216D01*
X0110024Y0116966D01*
X0110775Y0116966D01*
X0110024Y0116966D02*
X0109274Y0117717D01*
X0109274Y0118467D01*
X0110024Y0119218D01*
X0111525Y0119218D01*
X0112276Y0118467D01*
X0113877Y0118467D02*
X0113877Y0116966D01*
X0114628Y0116216D01*
X0116880Y0116216D01*
X0116880Y0114714D02*
X0116880Y0119218D01*
X0114628Y0119218D01*
X0113877Y0118467D01*
X0111525Y0122214D02*
X0112276Y0122965D01*
X0111525Y0122214D02*
X0110024Y0122214D01*
X0109274Y0122965D01*
X0109274Y0123716D01*
X0110024Y0124466D01*
X0110775Y0124466D01*
X0110024Y0124466D02*
X0109274Y0125217D01*
X0109274Y0125967D01*
X0110024Y0126718D01*
X0111525Y0126718D01*
X0112276Y0125967D01*
X0113877Y0125967D02*
X0113877Y0124466D01*
X0114628Y0123716D01*
X0116880Y0123716D01*
X0116880Y0122214D02*
X0116880Y0126718D01*
X0114628Y0126718D01*
X0113877Y0125967D01*
X0111525Y0129714D02*
X0112276Y0130465D01*
X0111525Y0129714D02*
X0110024Y0129714D01*
X0109274Y0130465D01*
X0109274Y0131216D01*
X0110024Y0131966D01*
X0111525Y0131966D01*
X0112276Y0132717D01*
X0112276Y0133467D01*
X0111525Y0134218D01*
X0110024Y0134218D01*
X0109274Y0133467D01*
X0107672Y0131966D02*
X0107672Y0130465D01*
X0106922Y0129714D01*
X0105420Y0129714D01*
X0104670Y0130465D01*
X0104670Y0131966D01*
X0105420Y0132717D01*
X0106922Y0132717D01*
X0107672Y0131966D01*
X0103068Y0130465D02*
X0102318Y0129714D01*
X0100816Y0129714D01*
X0100066Y0130465D01*
X0103068Y0130465D02*
X0103068Y0133467D01*
X0102318Y0134218D01*
X0100816Y0134218D01*
X0100066Y0133467D01*
X0104670Y0126718D02*
X0107672Y0126718D01*
X0107672Y0124466D01*
X0106171Y0125217D01*
X0105420Y0125217D01*
X0104670Y0124466D01*
X0104670Y0122965D01*
X0105420Y0122214D01*
X0106922Y0122214D01*
X0107672Y0122965D01*
X0106171Y0118467D02*
X0104670Y0119218D01*
X0106171Y0118467D02*
X0107672Y0116966D01*
X0105420Y0116966D01*
X0104670Y0116216D01*
X0104670Y0115465D01*
X0105420Y0114714D01*
X0106922Y0114714D01*
X0107672Y0115465D01*
X0107672Y0116966D01*
X0110024Y0104218D02*
X0112276Y0101966D01*
X0110024Y0099714D02*
X0110024Y0104218D01*
X0114628Y0089218D02*
X0113877Y0088467D01*
X0113877Y0086966D01*
X0114628Y0086216D01*
X0116880Y0086216D01*
X0116880Y0084714D02*
X0116880Y0089218D01*
X0114628Y0089218D01*
X0136605Y0096894D02*
X0138857Y0096894D01*
X0139608Y0097645D01*
X0139608Y0099146D01*
X0138857Y0099897D01*
X0136605Y0099897D01*
X0136605Y0101398D02*
X0136605Y0096894D01*
X0139658Y0093898D02*
X0138907Y0093147D01*
X0138907Y0092397D01*
X0139658Y0091646D01*
X0138907Y0090896D01*
X0138907Y0090145D01*
X0139658Y0089394D01*
X0141159Y0089394D01*
X0141910Y0090145D01*
X0143511Y0089394D02*
X0143511Y0092397D01*
X0145012Y0093898D01*
X0146514Y0092397D01*
X0146514Y0089394D01*
X0146514Y0091646D02*
X0143511Y0091646D01*
X0141910Y0093147D02*
X0141159Y0093898D01*
X0139658Y0093898D01*
X0139658Y0091646D02*
X0140408Y0091646D01*
X0141176Y0096894D02*
X0142677Y0096894D01*
X0141926Y0096894D02*
X0141926Y0101398D01*
X0142677Y0101398D01*
X0144278Y0099146D02*
X0144278Y0098396D01*
X0147281Y0098396D01*
X0147281Y0099146D02*
X0146530Y0099897D01*
X0145029Y0099897D01*
X0144278Y0099146D01*
X0145029Y0096894D02*
X0146530Y0096894D01*
X0147281Y0097645D01*
X0147281Y0099146D01*
X0149600Y0099897D02*
X0149600Y0096894D01*
X0150350Y0096894D02*
X0148849Y0096894D01*
X0149600Y0099897D02*
X0150350Y0099897D01*
X0149600Y0101398D02*
X0149600Y0102149D01*
X0151952Y0099146D02*
X0151952Y0096894D01*
X0151952Y0099146D02*
X0152702Y0099897D01*
X0154204Y0099897D01*
X0154954Y0099146D01*
X0156556Y0098396D02*
X0156556Y0097645D01*
X0157306Y0096894D01*
X0158807Y0096894D01*
X0159558Y0097645D01*
X0158807Y0099146D02*
X0159558Y0099897D01*
X0159558Y0100647D01*
X0158807Y0101398D01*
X0157306Y0101398D01*
X0156556Y0100647D01*
X0157306Y0099146D02*
X0156556Y0098396D01*
X0157306Y0099146D02*
X0158807Y0099146D01*
X0154954Y0101398D02*
X0154954Y0096894D01*
X0155721Y0093898D02*
X0153470Y0093898D01*
X0152719Y0093147D01*
X0152719Y0090145D01*
X0153470Y0089394D01*
X0155721Y0089394D01*
X0155721Y0093898D01*
X0157323Y0093147D02*
X0157323Y0091646D01*
X0158073Y0090896D01*
X0160325Y0090896D01*
X0158824Y0090896D02*
X0157323Y0089394D01*
X0160325Y0089394D02*
X0160325Y0093898D01*
X0158073Y0093898D01*
X0157323Y0093147D01*
X0161927Y0092397D02*
X0161927Y0089394D01*
X0161927Y0091646D02*
X0164929Y0091646D01*
X0164929Y0092397D02*
X0163428Y0093898D01*
X0161927Y0092397D01*
X0164929Y0092397D02*
X0164929Y0089394D01*
X0171101Y0089394D02*
X0171852Y0090145D01*
X0171852Y0093147D01*
X0172603Y0092397D02*
X0171101Y0092397D01*
X0171118Y0096894D02*
X0170367Y0097645D01*
X0170367Y0099146D01*
X0171118Y0099897D01*
X0172619Y0099897D01*
X0173370Y0099146D01*
X0173370Y0097645D01*
X0172619Y0096894D01*
X0171118Y0096894D01*
X0168766Y0096894D02*
X0165763Y0099897D01*
X0168766Y0099897D02*
X0165763Y0096894D01*
X0165747Y0104394D02*
X0164996Y0105145D01*
X0165747Y0105896D01*
X0167248Y0105896D01*
X0167999Y0106646D01*
X0167248Y0107397D01*
X0164996Y0107397D01*
X0163395Y0106646D02*
X0163395Y0105145D01*
X0162644Y0104394D01*
X0161143Y0104394D01*
X0160392Y0105896D02*
X0163395Y0105896D01*
X0163395Y0106646D02*
X0162644Y0107397D01*
X0161143Y0107397D01*
X0160392Y0106646D01*
X0160392Y0105896D01*
X0158791Y0106646D02*
X0158040Y0107397D01*
X0155788Y0107397D01*
X0155788Y0108898D02*
X0155788Y0104394D01*
X0158040Y0104394D01*
X0158791Y0105145D01*
X0158791Y0106646D01*
X0158040Y0111894D02*
X0156539Y0111894D01*
X0158040Y0111894D02*
X0158791Y0112645D01*
X0158791Y0114146D01*
X0158040Y0114897D01*
X0156539Y0114897D01*
X0155788Y0114146D01*
X0155788Y0113396D01*
X0158791Y0113396D01*
X0160392Y0112645D02*
X0161143Y0111894D01*
X0163395Y0111894D01*
X0164996Y0111894D02*
X0164996Y0114897D01*
X0163395Y0114146D02*
X0162644Y0114897D01*
X0160392Y0114897D01*
X0161143Y0113396D02*
X0162644Y0113396D01*
X0163395Y0114146D01*
X0161143Y0113396D02*
X0160392Y0112645D01*
X0164996Y0111894D02*
X0167248Y0111894D01*
X0167999Y0112645D01*
X0167999Y0114897D01*
X0169600Y0114146D02*
X0169600Y0111894D01*
X0169600Y0114146D02*
X0170351Y0114897D01*
X0172603Y0114897D01*
X0172603Y0111894D01*
X0174204Y0112645D02*
X0174204Y0116398D01*
X0174204Y0119394D02*
X0174204Y0121646D01*
X0174955Y0122397D01*
X0177206Y0122397D01*
X0177206Y0119394D01*
X0178808Y0120145D02*
X0178808Y0123898D01*
X0181810Y0123898D02*
X0181810Y0120145D01*
X0181060Y0119394D01*
X0179558Y0119394D01*
X0178808Y0120145D01*
X0177206Y0116398D02*
X0177206Y0112645D01*
X0176456Y0111894D01*
X0174955Y0111894D01*
X0174204Y0112645D01*
X0174955Y0107397D02*
X0174204Y0106646D01*
X0174204Y0104394D01*
X0172603Y0105145D02*
X0172603Y0107397D01*
X0172603Y0105145D02*
X0171852Y0104394D01*
X0169600Y0104394D01*
X0169600Y0107397D01*
X0167999Y0104394D02*
X0165747Y0104394D01*
X0174955Y0107397D02*
X0177206Y0107397D01*
X0177206Y0104394D01*
X0178808Y0105145D02*
X0178808Y0108898D01*
X0181810Y0108898D02*
X0181810Y0105145D01*
X0181060Y0104394D01*
X0179558Y0104394D01*
X0178808Y0105145D01*
X0179558Y0101398D02*
X0178808Y0100647D01*
X0178808Y0099146D01*
X0179558Y0098396D01*
X0181810Y0098396D01*
X0181810Y0096894D02*
X0181810Y0101398D01*
X0179558Y0101398D01*
X0177206Y0099897D02*
X0177206Y0096894D01*
X0177206Y0098396D02*
X0175705Y0099897D01*
X0174955Y0099897D01*
X0174955Y0092397D02*
X0176456Y0092397D01*
X0177206Y0091646D01*
X0177206Y0090145D01*
X0176456Y0089394D01*
X0174955Y0089394D01*
X0174204Y0090145D01*
X0174204Y0091646D01*
X0174955Y0092397D01*
X0178808Y0093147D02*
X0178808Y0091646D01*
X0179558Y0090896D01*
X0181810Y0090896D01*
X0181810Y0089394D02*
X0181810Y0093898D01*
X0179558Y0093898D01*
X0178808Y0093147D01*
X0192620Y0091646D02*
X0195622Y0091646D01*
X0193370Y0093898D01*
X0193370Y0089394D01*
X0197224Y0090145D02*
X0197974Y0089394D01*
X0199475Y0089394D01*
X0200226Y0090145D01*
X0198725Y0091646D02*
X0197974Y0091646D01*
X0197224Y0090896D01*
X0197224Y0090145D01*
X0197974Y0091646D02*
X0197224Y0092397D01*
X0197224Y0093147D01*
X0197974Y0093898D01*
X0199475Y0093898D01*
X0200226Y0093147D01*
X0201827Y0093147D02*
X0201827Y0091646D01*
X0202578Y0090896D01*
X0204830Y0090896D01*
X0204830Y0089394D02*
X0204830Y0093898D01*
X0202578Y0093898D01*
X0201827Y0093147D01*
X0199475Y0096894D02*
X0200226Y0097645D01*
X0199475Y0096894D02*
X0197974Y0096894D01*
X0197224Y0097645D01*
X0197224Y0098396D01*
X0197974Y0099146D01*
X0198725Y0099146D01*
X0197974Y0099146D02*
X0197224Y0099897D01*
X0197224Y0100647D01*
X0197974Y0101398D01*
X0199475Y0101398D01*
X0200226Y0100647D01*
X0201827Y0100647D02*
X0201827Y0099146D01*
X0202578Y0098396D01*
X0204830Y0098396D01*
X0204830Y0096894D02*
X0204830Y0101398D01*
X0202578Y0101398D01*
X0201827Y0100647D01*
X0199475Y0104394D02*
X0200226Y0105145D01*
X0199475Y0104394D02*
X0197974Y0104394D01*
X0197224Y0105145D01*
X0197224Y0105896D01*
X0197974Y0106646D01*
X0198725Y0106646D01*
X0197974Y0106646D02*
X0197224Y0107397D01*
X0197224Y0108147D01*
X0197974Y0108898D01*
X0199475Y0108898D01*
X0200226Y0108147D01*
X0201827Y0108147D02*
X0201827Y0106646D01*
X0202578Y0105896D01*
X0204830Y0105896D01*
X0204830Y0104394D02*
X0204830Y0108898D01*
X0202578Y0108898D01*
X0201827Y0108147D01*
X0199475Y0111894D02*
X0200226Y0112645D01*
X0199475Y0111894D02*
X0197974Y0111894D01*
X0197224Y0112645D01*
X0197224Y0113396D01*
X0197974Y0114146D01*
X0198725Y0114146D01*
X0197974Y0114146D02*
X0197224Y0114897D01*
X0197224Y0115647D01*
X0197974Y0116398D01*
X0199475Y0116398D01*
X0200226Y0115647D01*
X0201827Y0115647D02*
X0201827Y0114146D01*
X0202578Y0113396D01*
X0204830Y0113396D01*
X0204830Y0111894D02*
X0204830Y0116398D01*
X0202578Y0116398D01*
X0201827Y0115647D01*
X0199475Y0119394D02*
X0200226Y0120145D01*
X0199475Y0119394D02*
X0197974Y0119394D01*
X0197224Y0120145D01*
X0197224Y0120896D01*
X0197974Y0121646D01*
X0198725Y0121646D01*
X0197974Y0121646D02*
X0197224Y0122397D01*
X0197224Y0123147D01*
X0197974Y0123898D01*
X0199475Y0123898D01*
X0200226Y0123147D01*
X0201827Y0123147D02*
X0201827Y0121646D01*
X0202578Y0120896D01*
X0204830Y0120896D01*
X0204830Y0119394D02*
X0204830Y0123898D01*
X0202578Y0123898D01*
X0201827Y0123147D01*
X0200226Y0126894D02*
X0197224Y0129897D01*
X0197224Y0130647D01*
X0197974Y0131398D01*
X0199475Y0131398D01*
X0200226Y0130647D01*
X0201827Y0130647D02*
X0201827Y0129146D01*
X0202578Y0128396D01*
X0204830Y0128396D01*
X0204830Y0126894D02*
X0204830Y0131398D01*
X0202578Y0131398D01*
X0201827Y0130647D01*
X0200226Y0134394D02*
X0197224Y0137397D01*
X0197224Y0138147D01*
X0197974Y0138898D01*
X0199475Y0138898D01*
X0200226Y0138147D01*
X0201827Y0138147D02*
X0201827Y0136646D01*
X0202578Y0135896D01*
X0204830Y0135896D01*
X0204830Y0134394D02*
X0204830Y0138898D01*
X0202578Y0138898D01*
X0201827Y0138147D01*
X0200226Y0141894D02*
X0197224Y0144897D01*
X0197224Y0145647D01*
X0197974Y0146398D01*
X0199475Y0146398D01*
X0200226Y0145647D01*
X0201827Y0145647D02*
X0202578Y0146398D01*
X0204830Y0146398D01*
X0204830Y0141894D01*
X0204830Y0143396D02*
X0202578Y0143396D01*
X0201827Y0144146D01*
X0201827Y0145647D01*
X0200226Y0141894D02*
X0197224Y0141894D01*
X0195622Y0142645D02*
X0194872Y0141894D01*
X0193370Y0141894D01*
X0192620Y0142645D01*
X0192620Y0144146D01*
X0193370Y0144897D01*
X0194121Y0144897D01*
X0195622Y0144146D01*
X0195622Y0146398D01*
X0192620Y0146398D01*
X0193370Y0149394D02*
X0193370Y0153898D01*
X0195622Y0151646D01*
X0192620Y0151646D01*
X0197224Y0152397D02*
X0197224Y0153147D01*
X0197974Y0153898D01*
X0199475Y0153898D01*
X0200226Y0153147D01*
X0201827Y0153147D02*
X0201827Y0151646D01*
X0202578Y0150896D01*
X0204830Y0150896D01*
X0204830Y0149394D02*
X0204830Y0153898D01*
X0202578Y0153898D01*
X0201827Y0153147D01*
X0200226Y0149394D02*
X0197224Y0152397D01*
X0197224Y0149394D02*
X0200226Y0149394D01*
X0199475Y0156894D02*
X0197974Y0156894D01*
X0197224Y0157645D01*
X0197224Y0158396D01*
X0197974Y0159146D01*
X0199475Y0159146D01*
X0200226Y0159897D01*
X0200226Y0160647D01*
X0199475Y0161398D01*
X0197974Y0161398D01*
X0197224Y0160647D01*
X0195622Y0159146D02*
X0195622Y0157645D01*
X0194872Y0156894D01*
X0193370Y0156894D01*
X0192620Y0157645D01*
X0192620Y0159146D01*
X0193370Y0159897D01*
X0194872Y0159897D01*
X0195622Y0159146D01*
X0199475Y0156894D02*
X0200226Y0157645D01*
X0201827Y0159146D02*
X0202578Y0158396D01*
X0204830Y0158396D01*
X0204830Y0156894D02*
X0204830Y0161398D01*
X0202578Y0161398D01*
X0201827Y0160647D01*
X0201827Y0159146D01*
X0191018Y0157645D02*
X0190268Y0156894D01*
X0188766Y0156894D01*
X0188016Y0157645D01*
X0191018Y0157645D02*
X0191018Y0160647D01*
X0190268Y0161398D01*
X0188766Y0161398D01*
X0188016Y0160647D01*
X0181810Y0161398D02*
X0181810Y0156894D01*
X0181810Y0159146D02*
X0180309Y0159146D01*
X0181810Y0161398D02*
X0178808Y0161398D01*
X0177206Y0159897D02*
X0177206Y0157645D01*
X0176456Y0156894D01*
X0174204Y0156894D01*
X0174204Y0159897D01*
X0172603Y0159897D02*
X0172603Y0156894D01*
X0172603Y0159897D02*
X0170351Y0159897D01*
X0169600Y0159146D01*
X0169600Y0156894D01*
X0167999Y0157645D02*
X0167999Y0159146D01*
X0167248Y0159897D01*
X0164996Y0159897D01*
X0163395Y0159897D02*
X0161893Y0159897D01*
X0162644Y0160647D02*
X0162644Y0157645D01*
X0161893Y0156894D01*
X0160325Y0156894D02*
X0158824Y0156894D01*
X0159575Y0156894D02*
X0159575Y0159897D01*
X0160325Y0159897D01*
X0159575Y0161398D02*
X0159575Y0162149D01*
X0157256Y0159146D02*
X0157256Y0157645D01*
X0156505Y0156894D01*
X0155004Y0156894D01*
X0154254Y0157645D01*
X0154254Y0159146D01*
X0155004Y0159897D01*
X0156505Y0159897D01*
X0157256Y0159146D01*
X0152652Y0159897D02*
X0152652Y0156894D01*
X0152652Y0159897D02*
X0150400Y0159897D01*
X0149650Y0159146D01*
X0149650Y0156894D01*
X0151184Y0152397D02*
X0151184Y0148644D01*
X0151935Y0147893D01*
X0152686Y0147893D01*
X0153436Y0149394D02*
X0151184Y0149394D01*
X0153436Y0149394D02*
X0154187Y0150145D01*
X0154187Y0152397D01*
X0155755Y0152397D02*
X0157256Y0152397D01*
X0156505Y0153147D02*
X0156505Y0150145D01*
X0155755Y0149394D01*
X0155738Y0147149D02*
X0155738Y0146398D01*
X0155738Y0144897D02*
X0155738Y0141894D01*
X0154988Y0141894D02*
X0156489Y0141894D01*
X0158090Y0141894D02*
X0158090Y0144146D01*
X0158841Y0144897D01*
X0159591Y0144146D01*
X0159591Y0141894D01*
X0161093Y0141894D02*
X0161093Y0144897D01*
X0160342Y0144897D01*
X0159591Y0144146D01*
X0162661Y0141894D02*
X0164162Y0141894D01*
X0163411Y0141894D02*
X0163411Y0144897D01*
X0164162Y0144897D01*
X0165763Y0144897D02*
X0168766Y0141894D01*
X0170367Y0142645D02*
X0170367Y0144146D01*
X0171118Y0144897D01*
X0172619Y0144897D01*
X0173370Y0144146D01*
X0173370Y0142645D01*
X0172619Y0141894D01*
X0171118Y0141894D01*
X0170367Y0142645D01*
X0168766Y0144897D02*
X0165763Y0141894D01*
X0167999Y0138898D02*
X0167999Y0134394D01*
X0164996Y0134394D01*
X0163395Y0134394D02*
X0163395Y0138898D01*
X0160392Y0138898D01*
X0158791Y0138898D02*
X0158791Y0134394D01*
X0156539Y0134394D01*
X0155788Y0135145D01*
X0155788Y0138147D01*
X0156539Y0138898D01*
X0158791Y0138898D01*
X0160392Y0134394D02*
X0163395Y0134394D01*
X0163395Y0136646D02*
X0161893Y0136646D01*
X0161143Y0131398D02*
X0160392Y0130647D01*
X0160392Y0129897D01*
X0161143Y0129146D01*
X0163395Y0129146D01*
X0163395Y0126894D02*
X0161143Y0126894D01*
X0160392Y0127645D01*
X0160392Y0128396D01*
X0161143Y0129146D01*
X0161143Y0131398D02*
X0163395Y0131398D01*
X0163395Y0126894D01*
X0162644Y0122397D02*
X0161143Y0122397D01*
X0160392Y0121646D01*
X0160392Y0120896D01*
X0163395Y0120896D01*
X0163395Y0121646D02*
X0163395Y0120145D01*
X0162644Y0119394D01*
X0161143Y0119394D01*
X0158791Y0120145D02*
X0158791Y0121646D01*
X0158040Y0122397D01*
X0155788Y0122397D01*
X0155788Y0123898D02*
X0155788Y0119394D01*
X0158040Y0119394D01*
X0158791Y0120145D01*
X0162644Y0122397D02*
X0163395Y0121646D01*
X0164996Y0122397D02*
X0167248Y0122397D01*
X0167999Y0121646D01*
X0167248Y0120896D01*
X0165747Y0120896D01*
X0164996Y0120145D01*
X0165747Y0119394D01*
X0167999Y0119394D01*
X0169600Y0119394D02*
X0169600Y0122397D01*
X0172603Y0122397D02*
X0172603Y0120145D01*
X0171852Y0119394D01*
X0169600Y0119394D01*
X0169600Y0126894D02*
X0171101Y0128396D01*
X0170351Y0128396D02*
X0172603Y0128396D01*
X0172603Y0126894D02*
X0172603Y0131398D01*
X0170351Y0131398D01*
X0169600Y0130647D01*
X0169600Y0129146D01*
X0170351Y0128396D01*
X0172603Y0132893D02*
X0172603Y0137397D01*
X0170351Y0137397D01*
X0169600Y0136646D01*
X0169600Y0135145D01*
X0170351Y0134394D01*
X0172603Y0134394D01*
X0174204Y0134394D02*
X0176456Y0134394D01*
X0177206Y0135145D01*
X0176456Y0135896D01*
X0174204Y0135896D01*
X0174204Y0136646D02*
X0174204Y0134394D01*
X0174204Y0136646D02*
X0174955Y0137397D01*
X0176456Y0137397D01*
X0178808Y0138147D02*
X0179558Y0138898D01*
X0181060Y0138898D01*
X0181810Y0138147D01*
X0181810Y0135145D01*
X0181060Y0134394D01*
X0179558Y0134394D01*
X0178808Y0135145D01*
X0179558Y0131398D02*
X0181060Y0131398D01*
X0181810Y0130647D01*
X0181810Y0129897D01*
X0181060Y0129146D01*
X0179558Y0129146D01*
X0178808Y0128396D01*
X0178808Y0127645D01*
X0179558Y0126894D01*
X0181060Y0126894D01*
X0181810Y0127645D01*
X0178808Y0130647D02*
X0179558Y0131398D01*
X0177206Y0129897D02*
X0175705Y0131398D01*
X0174204Y0129897D01*
X0174204Y0126894D01*
X0174204Y0129146D02*
X0177206Y0129146D01*
X0177206Y0129897D02*
X0177206Y0126894D01*
X0177206Y0141894D02*
X0177206Y0144897D01*
X0177206Y0143396D02*
X0175705Y0144897D01*
X0174955Y0144897D01*
X0178808Y0145647D02*
X0178808Y0144146D01*
X0179558Y0143396D01*
X0181810Y0143396D01*
X0181810Y0141894D02*
X0181810Y0146398D01*
X0179558Y0146398D01*
X0178808Y0145647D01*
X0178808Y0149394D02*
X0178808Y0153898D01*
X0177206Y0152397D02*
X0177206Y0150145D01*
X0176456Y0149394D01*
X0174204Y0149394D01*
X0174204Y0152397D01*
X0172603Y0152397D02*
X0172603Y0149394D01*
X0171101Y0149394D02*
X0171101Y0151646D01*
X0170351Y0152397D01*
X0169600Y0151646D01*
X0169600Y0149394D01*
X0167999Y0149394D02*
X0166497Y0149394D01*
X0167248Y0149394D02*
X0167248Y0152397D01*
X0167999Y0152397D01*
X0167248Y0153898D02*
X0167248Y0154649D01*
X0167248Y0156894D02*
X0164996Y0156894D01*
X0167248Y0156894D02*
X0167999Y0157645D01*
X0164179Y0152397D02*
X0164929Y0151646D01*
X0164929Y0150145D01*
X0164179Y0149394D01*
X0161927Y0149394D01*
X0161927Y0153898D01*
X0161927Y0152397D02*
X0164179Y0152397D01*
X0160325Y0152397D02*
X0159575Y0152397D01*
X0159575Y0149394D01*
X0160325Y0149394D02*
X0158824Y0149394D01*
X0159575Y0153898D02*
X0159575Y0154649D01*
X0163411Y0147149D02*
X0163411Y0146398D01*
X0156489Y0144897D02*
X0155738Y0144897D01*
X0153420Y0144897D02*
X0151918Y0144897D01*
X0152669Y0145647D02*
X0152669Y0142645D01*
X0151918Y0141894D01*
X0150350Y0142645D02*
X0149600Y0141894D01*
X0147348Y0141894D01*
X0147348Y0141144D02*
X0148098Y0140393D01*
X0148849Y0140393D01*
X0148832Y0138898D02*
X0147331Y0138898D01*
X0146580Y0138147D01*
X0146580Y0137397D01*
X0147331Y0136646D01*
X0146580Y0135896D01*
X0146580Y0135145D01*
X0147331Y0134394D01*
X0148832Y0134394D01*
X0149583Y0135145D01*
X0148082Y0136646D02*
X0147331Y0136646D01*
X0149583Y0138147D02*
X0148832Y0138898D01*
X0147348Y0141144D02*
X0147348Y0144897D01*
X0150350Y0144897D02*
X0150350Y0142645D01*
X0144979Y0149394D02*
X0144979Y0153898D01*
X0142727Y0153898D01*
X0141976Y0153147D01*
X0141976Y0151646D01*
X0142727Y0150896D01*
X0144979Y0150896D01*
X0143478Y0150896D02*
X0141976Y0149394D01*
X0140375Y0150145D02*
X0140375Y0151646D01*
X0139624Y0152397D01*
X0138123Y0152397D01*
X0137373Y0151646D01*
X0137373Y0150896D01*
X0140375Y0150896D01*
X0140375Y0150145D02*
X0139624Y0149394D01*
X0138123Y0149394D01*
X0135020Y0149394D02*
X0135020Y0153147D01*
X0134270Y0153898D01*
X0134270Y0151646D02*
X0135771Y0151646D01*
X0128098Y0150145D02*
X0127347Y0149394D01*
X0125846Y0149394D01*
X0125095Y0150145D01*
X0123494Y0150145D02*
X0122743Y0150896D01*
X0120491Y0150896D01*
X0120491Y0151646D02*
X0120491Y0149394D01*
X0122743Y0149394D01*
X0123494Y0150145D01*
X0122743Y0152397D02*
X0121242Y0152397D01*
X0120491Y0151646D01*
X0118890Y0152397D02*
X0118890Y0147893D01*
X0118890Y0149394D02*
X0116638Y0149394D01*
X0115888Y0150145D01*
X0115888Y0151646D01*
X0116638Y0152397D01*
X0118890Y0152397D01*
X0125095Y0153147D02*
X0125846Y0153898D01*
X0127347Y0153898D01*
X0128098Y0153147D01*
X0128098Y0150145D01*
X0116880Y0134218D02*
X0114628Y0134218D01*
X0113877Y0133467D01*
X0113877Y0131966D01*
X0114628Y0131216D01*
X0116880Y0131216D01*
X0116880Y0129714D02*
X0116880Y0134218D01*
X0137372Y0129897D02*
X0139624Y0129897D01*
X0140375Y0129146D01*
X0139624Y0128396D01*
X0138123Y0128396D01*
X0137372Y0127645D01*
X0138123Y0126894D01*
X0140375Y0126894D01*
X0141976Y0127645D02*
X0142727Y0128396D01*
X0144228Y0128396D01*
X0144979Y0129146D01*
X0144228Y0129897D01*
X0141976Y0129897D01*
X0141976Y0127645D02*
X0142727Y0126894D01*
X0144979Y0126894D01*
X0146580Y0126894D02*
X0146580Y0129146D01*
X0147331Y0129897D01*
X0148832Y0129897D01*
X0148832Y0128396D02*
X0146580Y0128396D01*
X0146580Y0126894D02*
X0148832Y0126894D01*
X0149583Y0127645D01*
X0148832Y0128396D01*
X0151184Y0129146D02*
X0151184Y0127645D01*
X0151935Y0126894D01*
X0154187Y0126894D01*
X0154187Y0125393D02*
X0154187Y0129897D01*
X0151935Y0129897D01*
X0151184Y0129146D01*
X0155788Y0129897D02*
X0155788Y0126144D01*
X0156539Y0125393D01*
X0157289Y0125393D01*
X0158040Y0126894D02*
X0155788Y0126894D01*
X0158040Y0126894D02*
X0158791Y0127645D01*
X0158791Y0129897D01*
X0151184Y0116398D02*
X0151184Y0111894D01*
X0153436Y0111894D01*
X0154187Y0112645D01*
X0154187Y0114146D01*
X0153436Y0114897D01*
X0151184Y0114897D01*
X0151118Y0091646D02*
X0148115Y0091646D01*
X0192620Y0097645D02*
X0193370Y0096894D01*
X0194872Y0096894D01*
X0195622Y0097645D01*
X0194121Y0099146D02*
X0193370Y0099146D01*
X0192620Y0098396D01*
X0192620Y0097645D01*
X0193370Y0099146D02*
X0192620Y0099897D01*
X0192620Y0100647D01*
X0193370Y0101398D01*
X0194872Y0101398D01*
X0195622Y0100647D01*
X0195622Y0104394D02*
X0192620Y0104394D01*
X0195622Y0104394D02*
X0192620Y0107397D01*
X0192620Y0108147D01*
X0193370Y0108898D01*
X0194872Y0108898D01*
X0195622Y0108147D01*
X0195622Y0111894D02*
X0192620Y0111894D01*
X0194121Y0111894D02*
X0194121Y0116398D01*
X0195622Y0114897D01*
X0194872Y0119394D02*
X0193370Y0119394D01*
X0192620Y0120145D01*
X0192620Y0123147D01*
X0195622Y0120145D01*
X0194872Y0119394D01*
X0195622Y0120145D02*
X0195622Y0123147D01*
X0194872Y0123898D01*
X0193370Y0123898D01*
X0192620Y0123147D01*
X0195622Y0126894D02*
X0195622Y0127645D01*
X0192620Y0130647D01*
X0192620Y0131398D01*
X0195622Y0131398D01*
X0194872Y0134394D02*
X0193370Y0134394D01*
X0192620Y0135145D01*
X0192620Y0135896D01*
X0193370Y0136646D01*
X0195622Y0136646D01*
X0195622Y0135145D01*
X0194872Y0134394D01*
X0197224Y0134394D02*
X0200226Y0134394D01*
X0195622Y0136646D02*
X0194121Y0138147D01*
X0192620Y0138898D01*
X0197224Y0126894D02*
X0200226Y0126894D01*
X0181810Y0149394D02*
X0181810Y0153898D01*
X0181810Y0151646D02*
X0178808Y0151646D01*
X0172603Y0152397D02*
X0171852Y0152397D01*
X0171101Y0151646D01*
X0171080Y0220274D02*
X0172581Y0221776D01*
X0171831Y0221776D02*
X0174083Y0221776D01*
X0174083Y0220274D02*
X0174083Y0224778D01*
X0171831Y0224778D01*
X0171080Y0224027D01*
X0171080Y0222526D01*
X0171831Y0221776D01*
X0169479Y0220274D02*
X0167227Y0220274D01*
X0166476Y0221025D01*
X0166476Y0224027D01*
X0167227Y0224778D01*
X0169479Y0224778D01*
X0169479Y0220274D01*
X0164875Y0222526D02*
X0161872Y0222526D01*
X0160271Y0224778D02*
X0157268Y0224778D01*
X0158769Y0224778D02*
X0158769Y0220274D01*
X0155667Y0220274D02*
X0152664Y0224778D01*
X0152664Y0227774D02*
X0155667Y0232278D01*
X0157268Y0231527D02*
X0157268Y0230026D01*
X0158019Y0229276D01*
X0160271Y0229276D01*
X0158769Y0229276D02*
X0157268Y0227774D01*
X0155667Y0227774D02*
X0152664Y0232278D01*
X0152664Y0235274D02*
X0155667Y0235274D01*
X0154166Y0235274D02*
X0154166Y0239778D01*
X0155667Y0238277D01*
X0157268Y0239027D02*
X0157268Y0236025D01*
X0158019Y0235274D01*
X0160271Y0235274D01*
X0160271Y0239778D01*
X0158019Y0239778D01*
X0157268Y0239027D01*
X0158019Y0242774D02*
X0157268Y0243525D01*
X0157268Y0246527D01*
X0158019Y0247278D01*
X0160271Y0247278D01*
X0160271Y0242774D01*
X0158019Y0242774D01*
X0155667Y0243525D02*
X0154916Y0242774D01*
X0153415Y0242774D01*
X0152664Y0243525D01*
X0152664Y0246527D01*
X0153415Y0247278D01*
X0154916Y0247278D01*
X0155667Y0246527D01*
X0155667Y0245777D01*
X0154916Y0245026D01*
X0152664Y0245026D01*
X0153415Y0250274D02*
X0154916Y0250274D01*
X0155667Y0251025D01*
X0155667Y0252526D02*
X0154166Y0253277D01*
X0153415Y0253277D01*
X0152664Y0252526D01*
X0152664Y0251025D01*
X0153415Y0250274D01*
X0155667Y0252526D02*
X0155667Y0254778D01*
X0152664Y0254778D01*
X0152664Y0257774D02*
X0155667Y0257774D01*
X0154166Y0257774D02*
X0154166Y0262278D01*
X0155667Y0260777D01*
X0157268Y0261527D02*
X0158019Y0262278D01*
X0160271Y0262278D01*
X0160271Y0257774D01*
X0158019Y0257774D01*
X0157268Y0258525D01*
X0157268Y0261527D01*
X0158019Y0265274D02*
X0157268Y0266025D01*
X0157268Y0269027D01*
X0158019Y0269778D01*
X0160271Y0269778D01*
X0160271Y0265274D01*
X0158019Y0265274D01*
X0155667Y0266025D02*
X0154916Y0265274D01*
X0153415Y0265274D01*
X0152664Y0266025D01*
X0152664Y0266776D01*
X0153415Y0267526D01*
X0154166Y0267526D01*
X0153415Y0267526D02*
X0152664Y0268277D01*
X0152664Y0269027D01*
X0153415Y0269778D01*
X0154916Y0269778D01*
X0155667Y0269027D01*
X0154916Y0272774D02*
X0153415Y0272774D01*
X0152664Y0273525D01*
X0152664Y0276527D01*
X0155667Y0273525D01*
X0154916Y0272774D01*
X0155667Y0273525D02*
X0155667Y0276527D01*
X0154916Y0277278D01*
X0153415Y0277278D01*
X0152664Y0276527D01*
X0157268Y0276527D02*
X0157268Y0273525D01*
X0158019Y0272774D01*
X0160271Y0272774D01*
X0160271Y0277278D01*
X0158019Y0277278D01*
X0157268Y0276527D01*
X0161872Y0277278D02*
X0164875Y0277278D01*
X0164875Y0272774D01*
X0161872Y0272774D01*
X0163373Y0275026D02*
X0164875Y0275026D01*
X0166476Y0272774D02*
X0169479Y0272774D01*
X0169479Y0277278D01*
X0171080Y0276527D02*
X0171080Y0275777D01*
X0171831Y0275026D01*
X0174083Y0275026D01*
X0174083Y0272774D02*
X0171831Y0272774D01*
X0171080Y0273525D01*
X0171080Y0274276D01*
X0171831Y0275026D01*
X0171080Y0276527D02*
X0171831Y0277278D01*
X0174083Y0277278D01*
X0174083Y0272774D01*
X0175684Y0272774D02*
X0175684Y0277278D01*
X0177185Y0275777D01*
X0178686Y0277278D01*
X0178686Y0272774D01*
X0177185Y0269778D02*
X0175684Y0268277D01*
X0175684Y0265274D01*
X0174083Y0265274D02*
X0174083Y0269778D01*
X0171831Y0269778D01*
X0171080Y0269027D01*
X0171080Y0267526D01*
X0171831Y0266776D01*
X0174083Y0266776D01*
X0172581Y0266776D02*
X0171080Y0265274D01*
X0169479Y0265274D02*
X0167227Y0265274D01*
X0166476Y0266025D01*
X0166476Y0269027D01*
X0167227Y0269778D01*
X0169479Y0269778D01*
X0169479Y0265274D01*
X0169479Y0262278D02*
X0169479Y0257774D01*
X0166476Y0257774D01*
X0164875Y0257774D02*
X0161872Y0257774D01*
X0163373Y0260026D02*
X0164875Y0260026D01*
X0164875Y0262278D02*
X0164875Y0257774D01*
X0167227Y0254778D02*
X0166476Y0254027D01*
X0166476Y0251025D01*
X0167227Y0250274D01*
X0169479Y0250274D01*
X0169479Y0254778D01*
X0167227Y0254778D01*
X0164875Y0252526D02*
X0161872Y0252526D01*
X0160271Y0250274D02*
X0158019Y0250274D01*
X0157268Y0251025D01*
X0157268Y0254027D01*
X0158019Y0254778D01*
X0160271Y0254778D01*
X0160271Y0250274D01*
X0161872Y0245026D02*
X0164875Y0245026D01*
X0166476Y0243525D02*
X0166476Y0246527D01*
X0167227Y0247278D01*
X0169479Y0247278D01*
X0169479Y0242774D01*
X0167227Y0242774D01*
X0166476Y0243525D01*
X0167227Y0239778D02*
X0166476Y0239027D01*
X0166476Y0236025D01*
X0167227Y0235274D01*
X0169479Y0235274D01*
X0169479Y0239778D01*
X0167227Y0239778D01*
X0164875Y0237526D02*
X0161872Y0237526D01*
X0160271Y0232278D02*
X0158019Y0232278D01*
X0157268Y0231527D01*
X0160271Y0232278D02*
X0160271Y0227774D01*
X0161872Y0230026D02*
X0164875Y0230026D01*
X0166476Y0228525D02*
X0166476Y0231527D01*
X0167227Y0232278D01*
X0169479Y0232278D01*
X0169479Y0227774D01*
X0167227Y0227774D01*
X0166476Y0228525D01*
X0171080Y0227774D02*
X0172581Y0229276D01*
X0171831Y0229276D02*
X0174083Y0229276D01*
X0174083Y0227774D02*
X0174083Y0232278D01*
X0171831Y0232278D01*
X0171080Y0231527D01*
X0171080Y0230026D01*
X0171831Y0229276D01*
X0175684Y0230026D02*
X0178686Y0230026D01*
X0178686Y0230777D02*
X0177185Y0232278D01*
X0175684Y0230777D01*
X0175684Y0227774D01*
X0177185Y0224778D02*
X0175684Y0223277D01*
X0175684Y0220274D01*
X0175684Y0222526D02*
X0178686Y0222526D01*
X0178686Y0223277D02*
X0177185Y0224778D01*
X0178686Y0223277D02*
X0178686Y0220274D01*
X0178686Y0227774D02*
X0178686Y0230777D01*
X0178686Y0235274D02*
X0178686Y0238277D01*
X0177185Y0239778D01*
X0175684Y0238277D01*
X0175684Y0235274D01*
X0174083Y0235274D02*
X0174083Y0239778D01*
X0171831Y0239778D01*
X0171080Y0239027D01*
X0171080Y0237526D01*
X0171831Y0236776D01*
X0174083Y0236776D01*
X0172581Y0236776D02*
X0171080Y0235274D01*
X0175684Y0237526D02*
X0178686Y0237526D01*
X0178686Y0242774D02*
X0178686Y0245777D01*
X0177185Y0247278D01*
X0175684Y0245777D01*
X0175684Y0242774D01*
X0174083Y0242774D02*
X0174083Y0247278D01*
X0171831Y0247278D01*
X0171080Y0246527D01*
X0171080Y0245026D01*
X0171831Y0244276D01*
X0174083Y0244276D01*
X0172581Y0244276D02*
X0171080Y0242774D01*
X0175684Y0245026D02*
X0178686Y0245026D01*
X0178686Y0250274D02*
X0178686Y0253277D01*
X0177185Y0254778D01*
X0175684Y0253277D01*
X0175684Y0250274D01*
X0174083Y0250274D02*
X0174083Y0254778D01*
X0171831Y0254778D01*
X0171080Y0254027D01*
X0171080Y0252526D01*
X0171831Y0251776D01*
X0174083Y0251776D01*
X0172581Y0251776D02*
X0171080Y0250274D01*
X0175684Y0252526D02*
X0178686Y0252526D01*
X0178686Y0257774D02*
X0178686Y0262278D01*
X0177185Y0260777D01*
X0175684Y0262278D01*
X0175684Y0257774D01*
X0174083Y0257774D02*
X0171831Y0257774D01*
X0171080Y0258525D01*
X0171080Y0259276D01*
X0171831Y0260026D01*
X0174083Y0260026D01*
X0174083Y0257774D02*
X0174083Y0262278D01*
X0171831Y0262278D01*
X0171080Y0261527D01*
X0171080Y0260777D01*
X0171831Y0260026D01*
X0164875Y0262278D02*
X0161872Y0262278D01*
X0161872Y0267526D02*
X0164875Y0267526D01*
X0175684Y0267526D02*
X0178686Y0267526D01*
X0178686Y0268277D02*
X0177185Y0269778D01*
X0178686Y0268277D02*
X0178686Y0265274D01*
X0178686Y0280274D02*
X0178686Y0284778D01*
X0177185Y0283277D01*
X0175684Y0284778D01*
X0175684Y0280274D01*
X0174083Y0280274D02*
X0171831Y0280274D01*
X0171080Y0281025D01*
X0171080Y0281776D01*
X0171831Y0282526D01*
X0174083Y0282526D01*
X0174083Y0280274D02*
X0174083Y0284778D01*
X0171831Y0284778D01*
X0171080Y0284027D01*
X0171080Y0283277D01*
X0171831Y0282526D01*
X0169479Y0283277D02*
X0167977Y0284778D01*
X0167977Y0280274D01*
X0166476Y0280274D02*
X0169479Y0280274D01*
X0168728Y0287774D02*
X0169479Y0288525D01*
X0166476Y0291527D01*
X0166476Y0288525D01*
X0167227Y0287774D01*
X0168728Y0287774D01*
X0169479Y0288525D02*
X0169479Y0291527D01*
X0168728Y0292278D01*
X0167227Y0292278D01*
X0166476Y0291527D01*
X0166476Y0295274D02*
X0166476Y0297526D01*
X0167227Y0298277D01*
X0169479Y0298277D01*
X0169479Y0295274D01*
X0171080Y0295274D02*
X0171080Y0298277D01*
X0171080Y0295274D02*
X0173332Y0295274D01*
X0174083Y0296025D01*
X0174083Y0298277D01*
X0175684Y0299778D02*
X0178686Y0299778D01*
X0178686Y0295274D01*
X0178686Y0297526D02*
X0177185Y0297526D01*
X0175684Y0292278D02*
X0175684Y0287774D01*
X0174083Y0287774D02*
X0171831Y0287774D01*
X0171080Y0288525D01*
X0171080Y0289276D01*
X0171831Y0290026D01*
X0174083Y0290026D01*
X0174083Y0287774D02*
X0174083Y0292278D01*
X0171831Y0292278D01*
X0171080Y0291527D01*
X0171080Y0290777D01*
X0171831Y0290026D01*
X0175684Y0292278D02*
X0177185Y0290777D01*
X0178686Y0292278D01*
X0178686Y0287774D01*
X0189496Y0296025D02*
X0190246Y0295274D01*
X0191748Y0295274D01*
X0192498Y0296025D01*
X0192498Y0299027D01*
X0191748Y0299778D01*
X0190246Y0299778D01*
X0189496Y0299027D01*
X0194100Y0297526D02*
X0194850Y0298277D01*
X0196352Y0298277D01*
X0197102Y0297526D01*
X0197102Y0296025D01*
X0196352Y0295274D01*
X0194850Y0295274D01*
X0194100Y0296025D01*
X0194100Y0297526D01*
X0194850Y0292278D02*
X0194100Y0291527D01*
X0197102Y0288525D01*
X0196352Y0287774D01*
X0194850Y0287774D01*
X0194100Y0288525D01*
X0194100Y0291527D01*
X0194850Y0292278D02*
X0196352Y0292278D01*
X0197102Y0291527D01*
X0197102Y0288525D01*
X0198704Y0288525D02*
X0199454Y0287774D01*
X0200955Y0287774D01*
X0201706Y0288525D01*
X0198704Y0291527D01*
X0198704Y0288525D01*
X0201706Y0288525D02*
X0201706Y0291527D01*
X0200955Y0292278D01*
X0199454Y0292278D01*
X0198704Y0291527D01*
X0199454Y0295274D02*
X0198704Y0296025D01*
X0198704Y0296776D01*
X0199454Y0297526D01*
X0200955Y0297526D01*
X0201706Y0298277D01*
X0201706Y0299027D01*
X0200955Y0299778D01*
X0199454Y0299778D01*
X0198704Y0299027D01*
X0199454Y0295274D02*
X0200955Y0295274D01*
X0201706Y0296025D01*
X0203307Y0297526D02*
X0203307Y0299027D01*
X0204058Y0299778D01*
X0206310Y0299778D01*
X0206310Y0295274D01*
X0206310Y0296776D02*
X0204058Y0296776D01*
X0203307Y0297526D01*
X0204058Y0292278D02*
X0203307Y0291527D01*
X0203307Y0290026D01*
X0204058Y0289276D01*
X0206310Y0289276D01*
X0206310Y0287774D02*
X0206310Y0292278D01*
X0204058Y0292278D01*
X0204058Y0284778D02*
X0203307Y0284027D01*
X0203307Y0282526D01*
X0204058Y0281776D01*
X0206310Y0281776D01*
X0206310Y0280274D02*
X0206310Y0284778D01*
X0204058Y0284778D01*
X0201706Y0284027D02*
X0201706Y0281025D01*
X0198704Y0284027D01*
X0198704Y0281025D01*
X0199454Y0280274D01*
X0200955Y0280274D01*
X0201706Y0281025D01*
X0201706Y0284027D02*
X0200955Y0284778D01*
X0199454Y0284778D01*
X0198704Y0284027D01*
X0197102Y0283277D02*
X0195601Y0284778D01*
X0195601Y0280274D01*
X0197102Y0280274D02*
X0194100Y0280274D01*
X0194850Y0277278D02*
X0194100Y0276527D01*
X0194100Y0275777D01*
X0197102Y0272774D01*
X0194100Y0272774D01*
X0194850Y0269778D02*
X0194100Y0269027D01*
X0194100Y0268277D01*
X0194850Y0267526D01*
X0194100Y0266776D01*
X0194100Y0266025D01*
X0194850Y0265274D01*
X0196352Y0265274D01*
X0197102Y0266025D01*
X0198704Y0266025D02*
X0199454Y0265274D01*
X0200955Y0265274D01*
X0201706Y0266025D01*
X0198704Y0269027D01*
X0198704Y0266025D01*
X0201706Y0266025D02*
X0201706Y0269027D01*
X0200955Y0269778D01*
X0199454Y0269778D01*
X0198704Y0269027D01*
X0197102Y0269027D02*
X0196352Y0269778D01*
X0194850Y0269778D01*
X0194850Y0267526D02*
X0195601Y0267526D01*
X0194850Y0262278D02*
X0197102Y0260026D01*
X0194100Y0260026D01*
X0194850Y0257774D02*
X0194850Y0262278D01*
X0198704Y0261527D02*
X0198704Y0258525D01*
X0199454Y0257774D01*
X0200955Y0257774D01*
X0201706Y0258525D01*
X0198704Y0261527D01*
X0199454Y0262278D01*
X0200955Y0262278D01*
X0201706Y0261527D01*
X0201706Y0258525D01*
X0203307Y0260026D02*
X0203307Y0261527D01*
X0204058Y0262278D01*
X0206310Y0262278D01*
X0206310Y0257774D01*
X0206310Y0259276D02*
X0204058Y0259276D01*
X0203307Y0260026D01*
X0204058Y0254778D02*
X0203307Y0254027D01*
X0203307Y0252526D01*
X0204058Y0251776D01*
X0206310Y0251776D01*
X0206310Y0250274D02*
X0206310Y0254778D01*
X0204058Y0254778D01*
X0201706Y0254027D02*
X0201706Y0251025D01*
X0198704Y0254027D01*
X0198704Y0251025D01*
X0199454Y0250274D01*
X0200955Y0250274D01*
X0201706Y0251025D01*
X0201706Y0254027D02*
X0200955Y0254778D01*
X0199454Y0254778D01*
X0198704Y0254027D01*
X0197102Y0254778D02*
X0197102Y0252526D01*
X0195601Y0253277D01*
X0194850Y0253277D01*
X0194100Y0252526D01*
X0194100Y0251025D01*
X0194850Y0250274D01*
X0196352Y0250274D01*
X0197102Y0251025D01*
X0197102Y0254778D02*
X0194100Y0254778D01*
X0194100Y0247278D02*
X0195601Y0246527D01*
X0197102Y0245026D01*
X0194850Y0245026D01*
X0194100Y0244276D01*
X0194100Y0243525D01*
X0194850Y0242774D01*
X0196352Y0242774D01*
X0197102Y0243525D01*
X0197102Y0245026D01*
X0198704Y0243525D02*
X0199454Y0242774D01*
X0200955Y0242774D01*
X0201706Y0243525D01*
X0198704Y0246527D01*
X0198704Y0243525D01*
X0201706Y0243525D02*
X0201706Y0246527D01*
X0200955Y0247278D01*
X0199454Y0247278D01*
X0198704Y0246527D01*
X0203307Y0246527D02*
X0203307Y0245026D01*
X0204058Y0244276D01*
X0206310Y0244276D01*
X0206310Y0242774D02*
X0206310Y0247278D01*
X0204058Y0247278D01*
X0203307Y0246527D01*
X0204058Y0239778D02*
X0203307Y0239027D01*
X0203307Y0237526D01*
X0204058Y0236776D01*
X0206310Y0236776D01*
X0206310Y0235274D02*
X0206310Y0239778D01*
X0204058Y0239778D01*
X0201706Y0239027D02*
X0201706Y0236025D01*
X0198704Y0239027D01*
X0198704Y0236025D01*
X0199454Y0235274D01*
X0200955Y0235274D01*
X0201706Y0236025D01*
X0201706Y0239027D02*
X0200955Y0239778D01*
X0199454Y0239778D01*
X0198704Y0239027D01*
X0197102Y0239778D02*
X0194100Y0239778D01*
X0194100Y0239027D01*
X0197102Y0236025D01*
X0197102Y0235274D01*
X0196352Y0232278D02*
X0194850Y0232278D01*
X0194100Y0231527D01*
X0197102Y0228525D01*
X0196352Y0227774D01*
X0194850Y0227774D01*
X0194100Y0228525D01*
X0194100Y0231527D01*
X0196352Y0232278D02*
X0197102Y0231527D01*
X0197102Y0228525D01*
X0198704Y0227774D02*
X0201706Y0227774D01*
X0200205Y0227774D02*
X0200205Y0232278D01*
X0201706Y0230777D01*
X0203307Y0231527D02*
X0203307Y0230026D01*
X0204058Y0229276D01*
X0206310Y0229276D01*
X0206310Y0227774D02*
X0206310Y0232278D01*
X0204058Y0232278D01*
X0203307Y0231527D01*
X0204058Y0224778D02*
X0203307Y0224027D01*
X0203307Y0222526D01*
X0204058Y0221776D01*
X0206310Y0221776D01*
X0206310Y0220274D02*
X0206310Y0224778D01*
X0204058Y0224778D01*
X0201706Y0223277D02*
X0200205Y0224778D01*
X0200205Y0220274D01*
X0201706Y0220274D02*
X0198704Y0220274D01*
X0197102Y0220274D02*
X0194100Y0220274D01*
X0195601Y0220274D02*
X0195601Y0224778D01*
X0197102Y0223277D01*
X0206310Y0265274D02*
X0206310Y0269778D01*
X0204058Y0269778D01*
X0203307Y0269027D01*
X0203307Y0267526D01*
X0204058Y0266776D01*
X0206310Y0266776D01*
X0206310Y0272774D02*
X0206310Y0277278D01*
X0204058Y0277278D01*
X0203307Y0276527D01*
X0203307Y0275026D01*
X0204058Y0274276D01*
X0206310Y0274276D01*
X0201706Y0273525D02*
X0200955Y0272774D01*
X0199454Y0272774D01*
X0198704Y0273525D01*
X0198704Y0276527D01*
X0201706Y0273525D01*
X0201706Y0276527D01*
X0200955Y0277278D01*
X0199454Y0277278D01*
X0198704Y0276527D01*
X0197102Y0276527D02*
X0196352Y0277278D01*
X0194850Y0277278D01*
X0164875Y0296025D02*
X0164124Y0295274D01*
X0161872Y0295274D01*
X0159520Y0296025D02*
X0159520Y0299027D01*
X0160271Y0298277D02*
X0158769Y0298277D01*
X0157201Y0298277D02*
X0156451Y0298277D01*
X0156451Y0295274D01*
X0157201Y0295274D02*
X0155700Y0295274D01*
X0154132Y0296025D02*
X0153382Y0295274D01*
X0151880Y0295274D01*
X0151130Y0296025D01*
X0151130Y0297526D01*
X0151880Y0298277D01*
X0153382Y0298277D01*
X0154132Y0297526D01*
X0154132Y0296025D01*
X0156451Y0299778D02*
X0156451Y0300529D01*
X0159520Y0296025D02*
X0158769Y0295274D01*
X0161872Y0298277D02*
X0164124Y0298277D01*
X0164875Y0297526D01*
X0164875Y0296025D01*
X0149528Y0295274D02*
X0149528Y0298277D01*
X0147276Y0298277D01*
X0146526Y0297526D01*
X0146526Y0295274D01*
X0133210Y0296254D02*
X0133210Y0300758D01*
X0130958Y0300758D01*
X0130207Y0300007D01*
X0130207Y0298506D01*
X0130958Y0297756D01*
X0133210Y0297756D01*
X0133210Y0293258D02*
X0130958Y0293258D01*
X0130207Y0292507D01*
X0130207Y0291006D01*
X0130958Y0290256D01*
X0133210Y0290256D01*
X0133210Y0288754D02*
X0133210Y0293258D01*
X0128606Y0291757D02*
X0127105Y0293258D01*
X0127105Y0288754D01*
X0128606Y0288754D02*
X0125604Y0288754D01*
X0124002Y0288754D02*
X0121000Y0291757D01*
X0121000Y0292507D01*
X0121750Y0293258D01*
X0123252Y0293258D01*
X0124002Y0292507D01*
X0124002Y0288754D02*
X0121000Y0288754D01*
X0121750Y0285758D02*
X0121000Y0285007D01*
X0121000Y0284257D01*
X0121750Y0283506D01*
X0121000Y0282756D01*
X0121000Y0282005D01*
X0121750Y0281254D01*
X0123252Y0281254D01*
X0124002Y0282005D01*
X0125604Y0281254D02*
X0128606Y0281254D01*
X0127105Y0281254D02*
X0127105Y0285758D01*
X0128606Y0284257D01*
X0130207Y0285007D02*
X0130958Y0285758D01*
X0133210Y0285758D01*
X0133210Y0281254D01*
X0133210Y0282756D02*
X0130958Y0282756D01*
X0130207Y0283506D01*
X0130207Y0285007D01*
X0130958Y0278258D02*
X0130207Y0277507D01*
X0130207Y0276006D01*
X0130958Y0275256D01*
X0133210Y0275256D01*
X0133210Y0273754D02*
X0133210Y0278258D01*
X0130958Y0278258D01*
X0128606Y0276757D02*
X0127105Y0278258D01*
X0127105Y0273754D01*
X0128606Y0273754D02*
X0125604Y0273754D01*
X0124002Y0276006D02*
X0121000Y0276006D01*
X0121750Y0273754D02*
X0121750Y0278258D01*
X0124002Y0276006D01*
X0124002Y0270758D02*
X0121000Y0270758D01*
X0121750Y0269257D02*
X0121000Y0268506D01*
X0121000Y0267005D01*
X0121750Y0266254D01*
X0123252Y0266254D01*
X0124002Y0267005D01*
X0124002Y0268506D02*
X0122501Y0269257D01*
X0121750Y0269257D01*
X0124002Y0268506D02*
X0124002Y0270758D01*
X0127105Y0270758D02*
X0127105Y0266254D01*
X0128606Y0266254D02*
X0125604Y0266254D01*
X0127105Y0263258D02*
X0127105Y0258754D01*
X0128606Y0258754D02*
X0125604Y0258754D01*
X0124002Y0259505D02*
X0123252Y0258754D01*
X0121750Y0258754D01*
X0121000Y0259505D01*
X0121000Y0260256D01*
X0121750Y0261006D01*
X0124002Y0261006D01*
X0124002Y0259505D01*
X0124002Y0261006D02*
X0122501Y0262507D01*
X0121000Y0263258D01*
X0121000Y0255758D02*
X0121000Y0255007D01*
X0124002Y0252005D01*
X0124002Y0251254D01*
X0125604Y0251254D02*
X0128606Y0251254D01*
X0127105Y0251254D02*
X0127105Y0255758D01*
X0128606Y0254257D01*
X0130207Y0255007D02*
X0130958Y0255758D01*
X0133210Y0255758D01*
X0133210Y0251254D01*
X0133210Y0252756D02*
X0130958Y0252756D01*
X0130207Y0253506D01*
X0130207Y0255007D01*
X0133210Y0258754D02*
X0133210Y0263258D01*
X0130958Y0263258D01*
X0130207Y0262507D01*
X0130207Y0261006D01*
X0130958Y0260256D01*
X0133210Y0260256D01*
X0128606Y0261757D02*
X0127105Y0263258D01*
X0130958Y0267756D02*
X0133210Y0267756D01*
X0133210Y0266254D02*
X0133210Y0270758D01*
X0130958Y0270758D01*
X0130207Y0270007D01*
X0130207Y0268506D01*
X0130958Y0267756D01*
X0128606Y0269257D02*
X0127105Y0270758D01*
X0122501Y0283506D02*
X0121750Y0283506D01*
X0121750Y0285758D02*
X0123252Y0285758D01*
X0124002Y0285007D01*
X0123252Y0296254D02*
X0121750Y0296254D01*
X0121000Y0297005D01*
X0121000Y0298506D01*
X0121750Y0299257D01*
X0123252Y0299257D01*
X0124002Y0298506D01*
X0124002Y0297005D01*
X0123252Y0296254D01*
X0125604Y0297005D02*
X0125604Y0297756D01*
X0126354Y0298506D01*
X0127855Y0298506D01*
X0128606Y0299257D01*
X0128606Y0300007D01*
X0127855Y0300758D01*
X0126354Y0300758D01*
X0125604Y0300007D01*
X0125604Y0297005D02*
X0126354Y0296254D01*
X0127855Y0296254D01*
X0128606Y0297005D01*
X0119398Y0297005D02*
X0118648Y0296254D01*
X0117146Y0296254D01*
X0116396Y0297005D01*
X0119398Y0297005D02*
X0119398Y0300007D01*
X0118648Y0300758D01*
X0117146Y0300758D01*
X0116396Y0300007D01*
X0110190Y0300758D02*
X0107188Y0300758D01*
X0105586Y0299257D02*
X0105586Y0297005D01*
X0104836Y0296254D01*
X0102584Y0296254D01*
X0102584Y0299257D01*
X0100983Y0299257D02*
X0098731Y0299257D01*
X0097980Y0298506D01*
X0097980Y0296254D01*
X0096379Y0297005D02*
X0095628Y0296254D01*
X0093376Y0296254D01*
X0091024Y0297005D02*
X0091024Y0300007D01*
X0091775Y0299257D02*
X0090273Y0299257D01*
X0088705Y0299257D02*
X0087955Y0299257D01*
X0087955Y0296254D01*
X0088705Y0296254D02*
X0087204Y0296254D01*
X0085636Y0297005D02*
X0085636Y0298506D01*
X0084885Y0299257D01*
X0083384Y0299257D01*
X0082634Y0298506D01*
X0082634Y0297005D01*
X0083384Y0296254D01*
X0084885Y0296254D01*
X0085636Y0297005D01*
X0085669Y0293258D02*
X0084168Y0291757D01*
X0084168Y0288754D01*
X0082567Y0288754D02*
X0082567Y0293258D01*
X0080315Y0293258D01*
X0079564Y0292507D01*
X0079564Y0291006D01*
X0080315Y0290256D01*
X0082567Y0290256D01*
X0081066Y0290256D02*
X0079564Y0288754D01*
X0077963Y0288754D02*
X0075711Y0288754D01*
X0074960Y0289505D01*
X0074960Y0292507D01*
X0075711Y0293258D01*
X0077963Y0293258D01*
X0077963Y0288754D01*
X0077963Y0285758D02*
X0077963Y0281254D01*
X0074960Y0281254D01*
X0073359Y0281254D02*
X0073359Y0285758D01*
X0070356Y0285758D01*
X0071858Y0283506D02*
X0073359Y0283506D01*
X0074960Y0285758D02*
X0077963Y0285758D01*
X0079564Y0285007D02*
X0079564Y0283506D01*
X0080315Y0282756D01*
X0082567Y0282756D01*
X0081066Y0282756D02*
X0079564Y0281254D01*
X0077963Y0283506D02*
X0076462Y0283506D01*
X0079564Y0285007D02*
X0080315Y0285758D01*
X0082567Y0285758D01*
X0082567Y0281254D01*
X0084168Y0283506D02*
X0087171Y0283506D01*
X0088772Y0285758D02*
X0088772Y0281254D01*
X0090273Y0284257D02*
X0088772Y0285758D01*
X0090273Y0284257D02*
X0091775Y0285758D01*
X0091775Y0281254D01*
X0093376Y0281254D02*
X0094877Y0282756D01*
X0094127Y0282756D02*
X0096379Y0282756D01*
X0096379Y0281254D02*
X0096379Y0285758D01*
X0094127Y0285758D01*
X0093376Y0285007D01*
X0093376Y0283506D01*
X0094127Y0282756D01*
X0097980Y0281254D02*
X0100983Y0281254D01*
X0100983Y0285758D01*
X0097980Y0285758D01*
X0099481Y0283506D02*
X0100983Y0283506D01*
X0102584Y0283506D02*
X0105586Y0283506D01*
X0105586Y0281254D02*
X0105586Y0285758D01*
X0107188Y0285758D02*
X0110190Y0285758D01*
X0108689Y0285758D02*
X0108689Y0281254D01*
X0107938Y0278258D02*
X0107188Y0277507D01*
X0107938Y0278258D02*
X0109440Y0278258D01*
X0110190Y0277507D01*
X0110190Y0274505D01*
X0109440Y0273754D01*
X0107938Y0273754D01*
X0107188Y0274505D01*
X0105586Y0274505D02*
X0104836Y0275256D01*
X0102584Y0275256D01*
X0102584Y0276006D02*
X0102584Y0273754D01*
X0104836Y0273754D01*
X0105586Y0274505D01*
X0104836Y0276757D02*
X0103335Y0276757D01*
X0102584Y0276006D01*
X0100983Y0276757D02*
X0098731Y0276757D01*
X0097980Y0276006D01*
X0097980Y0274505D01*
X0098731Y0273754D01*
X0100983Y0273754D01*
X0100983Y0272253D02*
X0100983Y0276757D01*
X0102584Y0281254D02*
X0102584Y0285758D01*
X0103335Y0288754D02*
X0102584Y0289505D01*
X0102584Y0292507D01*
X0103335Y0293258D01*
X0105586Y0293258D01*
X0105586Y0288754D01*
X0103335Y0288754D01*
X0100983Y0288754D02*
X0100983Y0291757D01*
X0099481Y0293258D01*
X0097980Y0291757D01*
X0097980Y0288754D01*
X0096379Y0289505D02*
X0095628Y0288754D01*
X0094127Y0288754D01*
X0093376Y0289505D01*
X0093376Y0292507D02*
X0094127Y0293258D01*
X0095628Y0293258D01*
X0096379Y0292507D01*
X0096379Y0289505D01*
X0097980Y0291006D02*
X0100983Y0291006D01*
X0100983Y0296254D02*
X0100983Y0299257D01*
X0096379Y0298506D02*
X0096379Y0297005D01*
X0096379Y0298506D02*
X0095628Y0299257D01*
X0093376Y0299257D01*
X0091024Y0297005D02*
X0090273Y0296254D01*
X0087171Y0291757D02*
X0085669Y0293258D01*
X0087171Y0291757D02*
X0087171Y0288754D01*
X0087171Y0291006D02*
X0084168Y0291006D01*
X0081032Y0296254D02*
X0081032Y0299257D01*
X0078780Y0299257D01*
X0078030Y0298506D01*
X0078030Y0296254D01*
X0073359Y0291006D02*
X0070356Y0291006D01*
X0068755Y0291006D02*
X0065752Y0291006D01*
X0065752Y0291757D02*
X0065752Y0288754D01*
X0064151Y0288754D02*
X0061149Y0288754D01*
X0062650Y0288754D02*
X0062650Y0293258D01*
X0064151Y0291757D01*
X0065752Y0291757D02*
X0067254Y0293258D01*
X0068755Y0291757D01*
X0068755Y0288754D01*
X0068755Y0278258D02*
X0066503Y0278258D01*
X0065752Y0277507D01*
X0065752Y0276757D01*
X0066503Y0276006D01*
X0068755Y0276006D01*
X0068755Y0273754D02*
X0066503Y0273754D01*
X0065752Y0274505D01*
X0065752Y0275256D01*
X0066503Y0276006D01*
X0064151Y0274505D02*
X0063400Y0273754D01*
X0061899Y0273754D01*
X0061149Y0274505D01*
X0061149Y0275256D01*
X0061899Y0276006D01*
X0062650Y0276006D01*
X0061899Y0276006D02*
X0061149Y0276757D01*
X0061149Y0277507D01*
X0061899Y0278258D01*
X0063400Y0278258D01*
X0064151Y0277507D01*
X0068755Y0278258D02*
X0068755Y0273754D01*
X0074960Y0275256D02*
X0077963Y0275256D01*
X0077963Y0276006D02*
X0077212Y0276757D01*
X0075711Y0276757D01*
X0074960Y0276006D01*
X0074960Y0275256D01*
X0075711Y0273754D02*
X0077212Y0273754D01*
X0077963Y0274505D01*
X0077963Y0276006D01*
X0079564Y0276757D02*
X0081816Y0276757D01*
X0082567Y0276006D01*
X0081816Y0275256D01*
X0080315Y0275256D01*
X0079564Y0274505D01*
X0080315Y0273754D01*
X0082567Y0273754D01*
X0084168Y0273754D02*
X0084168Y0276006D01*
X0084919Y0276757D01*
X0087171Y0276757D01*
X0087171Y0273754D01*
X0088772Y0275256D02*
X0091775Y0275256D01*
X0091775Y0276006D02*
X0091024Y0276757D01*
X0089523Y0276757D01*
X0088772Y0276006D01*
X0088772Y0275256D01*
X0089523Y0273754D02*
X0091024Y0273754D01*
X0091775Y0274505D01*
X0091775Y0276006D01*
X0093376Y0275256D02*
X0093376Y0274505D01*
X0094127Y0273754D01*
X0095628Y0273754D01*
X0096379Y0274505D01*
X0095628Y0276006D02*
X0096379Y0276757D01*
X0096379Y0277507D01*
X0095628Y0278258D01*
X0094127Y0278258D01*
X0093376Y0277507D01*
X0094127Y0276006D02*
X0093376Y0275256D01*
X0094127Y0276006D02*
X0095628Y0276006D01*
X0096379Y0270758D02*
X0096379Y0266254D01*
X0093376Y0266254D01*
X0091775Y0266254D02*
X0088772Y0266254D01*
X0087171Y0266254D02*
X0084919Y0266254D01*
X0084168Y0267005D01*
X0084168Y0270007D01*
X0084919Y0270758D01*
X0087171Y0270758D01*
X0087171Y0266254D01*
X0087171Y0263258D02*
X0084919Y0263258D01*
X0084168Y0262507D01*
X0084168Y0259505D01*
X0084919Y0258754D01*
X0087171Y0258754D01*
X0087171Y0263258D01*
X0088772Y0263258D02*
X0091775Y0263258D01*
X0091775Y0258754D01*
X0088772Y0258754D01*
X0090273Y0261006D02*
X0091775Y0261006D01*
X0093376Y0258754D02*
X0096379Y0258754D01*
X0096379Y0263258D01*
X0097980Y0261006D02*
X0097980Y0259505D01*
X0098731Y0258754D01*
X0100983Y0258754D01*
X0100983Y0257253D02*
X0100983Y0261757D01*
X0098731Y0261757D01*
X0097980Y0261006D01*
X0096379Y0255758D02*
X0094127Y0255758D01*
X0093376Y0255007D01*
X0093376Y0254257D01*
X0094127Y0253506D01*
X0096379Y0253506D01*
X0097980Y0253506D02*
X0097980Y0252005D01*
X0098731Y0251254D01*
X0100983Y0251254D01*
X0100983Y0249753D02*
X0100983Y0254257D01*
X0098731Y0254257D01*
X0097980Y0253506D01*
X0096379Y0251254D02*
X0094127Y0251254D01*
X0093376Y0252005D01*
X0093376Y0252756D01*
X0094127Y0253506D01*
X0091775Y0255007D02*
X0091024Y0255758D01*
X0089523Y0255758D01*
X0088772Y0255007D01*
X0088772Y0254257D01*
X0091775Y0251254D01*
X0088772Y0251254D01*
X0088772Y0248258D02*
X0091775Y0248258D01*
X0091775Y0243754D01*
X0088772Y0243754D01*
X0087171Y0243754D02*
X0084919Y0243754D01*
X0084168Y0244505D01*
X0084168Y0247507D01*
X0084919Y0248258D01*
X0087171Y0248258D01*
X0087171Y0243754D01*
X0087237Y0240758D02*
X0087237Y0236254D01*
X0090240Y0240758D01*
X0090240Y0236254D01*
X0091808Y0236254D02*
X0093309Y0236254D01*
X0092559Y0236254D02*
X0092559Y0240758D01*
X0093309Y0240758D02*
X0091808Y0240758D01*
X0093376Y0243754D02*
X0096379Y0243754D01*
X0096379Y0248258D01*
X0097980Y0246006D02*
X0097980Y0244505D01*
X0098731Y0243754D01*
X0100983Y0243754D01*
X0100983Y0242253D02*
X0100983Y0246757D01*
X0098731Y0246757D01*
X0097980Y0246006D01*
X0096379Y0251254D02*
X0096379Y0255758D01*
X0102584Y0253506D02*
X0102584Y0251254D01*
X0104836Y0251254D01*
X0105586Y0252005D01*
X0104836Y0252756D01*
X0102584Y0252756D01*
X0102584Y0253506D02*
X0103335Y0254257D01*
X0104836Y0254257D01*
X0107188Y0255007D02*
X0107938Y0255758D01*
X0109440Y0255758D01*
X0110190Y0255007D01*
X0110190Y0252005D01*
X0109440Y0251254D01*
X0107938Y0251254D01*
X0107188Y0252005D01*
X0107938Y0248258D02*
X0107188Y0247507D01*
X0107938Y0248258D02*
X0109440Y0248258D01*
X0110190Y0247507D01*
X0110190Y0244505D01*
X0109440Y0243754D01*
X0107938Y0243754D01*
X0107188Y0244505D01*
X0105586Y0244505D02*
X0104836Y0245256D01*
X0102584Y0245256D01*
X0102584Y0246006D02*
X0102584Y0243754D01*
X0104836Y0243754D01*
X0105586Y0244505D01*
X0104836Y0246757D02*
X0103335Y0246757D01*
X0102584Y0246006D01*
X0104085Y0240758D02*
X0105586Y0240758D01*
X0104836Y0240758D02*
X0104836Y0236254D01*
X0105586Y0236254D02*
X0104085Y0236254D01*
X0102517Y0236254D02*
X0102517Y0239257D01*
X0101016Y0240758D01*
X0099515Y0239257D01*
X0099515Y0236254D01*
X0099515Y0238506D02*
X0102517Y0238506D01*
X0097913Y0238506D02*
X0094911Y0238506D01*
X0095661Y0233258D02*
X0094911Y0232507D01*
X0094911Y0229505D01*
X0095661Y0228754D01*
X0097163Y0228754D01*
X0097913Y0229505D01*
X0097913Y0232507D01*
X0097163Y0233258D01*
X0095661Y0233258D01*
X0093309Y0233258D02*
X0093309Y0229505D01*
X0092559Y0228754D01*
X0091057Y0228754D01*
X0090307Y0229505D01*
X0090307Y0233258D01*
X0088705Y0233258D02*
X0085703Y0233258D01*
X0087204Y0233258D02*
X0087204Y0228754D01*
X0087955Y0226509D02*
X0087955Y0225758D01*
X0087955Y0224257D02*
X0087955Y0221254D01*
X0088705Y0221254D02*
X0087204Y0221254D01*
X0084885Y0222005D02*
X0084135Y0221254D01*
X0084885Y0222005D02*
X0084885Y0225007D01*
X0084135Y0224257D02*
X0085636Y0224257D01*
X0087955Y0224257D02*
X0088705Y0224257D01*
X0090307Y0224257D02*
X0092559Y0224257D01*
X0093309Y0223506D01*
X0093309Y0222005D01*
X0092559Y0221254D01*
X0090307Y0221254D01*
X0090307Y0225758D01*
X0095628Y0225758D02*
X0095628Y0226509D01*
X0095628Y0224257D02*
X0095628Y0221254D01*
X0096379Y0221254D02*
X0094877Y0221254D01*
X0095628Y0224257D02*
X0096379Y0224257D01*
X0097980Y0223506D02*
X0097980Y0221254D01*
X0099481Y0221254D02*
X0099481Y0223506D01*
X0098731Y0224257D01*
X0097980Y0223506D01*
X0099481Y0223506D02*
X0100232Y0224257D01*
X0100983Y0224257D01*
X0100983Y0221254D01*
X0102584Y0221254D02*
X0102584Y0224257D01*
X0102584Y0221254D02*
X0104836Y0221254D01*
X0105586Y0222005D01*
X0105586Y0224257D01*
X0107188Y0223506D02*
X0110190Y0223506D01*
X0110190Y0221254D02*
X0110190Y0225758D01*
X0107188Y0225758D02*
X0107188Y0221254D01*
X0108689Y0228754D02*
X0108689Y0233258D01*
X0110190Y0233258D02*
X0107188Y0233258D01*
X0105586Y0233258D02*
X0104085Y0233258D01*
X0104836Y0233258D02*
X0104836Y0228754D01*
X0105586Y0228754D02*
X0104085Y0228754D01*
X0102517Y0228754D02*
X0102517Y0231757D01*
X0101016Y0233258D01*
X0099515Y0231757D01*
X0099515Y0228754D01*
X0099515Y0231006D02*
X0102517Y0231006D01*
X0108689Y0236254D02*
X0108689Y0240758D01*
X0110190Y0240758D02*
X0107188Y0240758D01*
X0121000Y0244505D02*
X0121750Y0243754D01*
X0123252Y0243754D01*
X0124002Y0244505D01*
X0121000Y0247507D01*
X0121000Y0244505D01*
X0124002Y0244505D02*
X0124002Y0247507D01*
X0123252Y0248258D01*
X0121750Y0248258D01*
X0121000Y0247507D01*
X0125604Y0247507D02*
X0126354Y0248258D01*
X0127855Y0248258D01*
X0128606Y0247507D01*
X0130207Y0247507D02*
X0130207Y0246006D01*
X0130958Y0245256D01*
X0133210Y0245256D01*
X0133210Y0243754D02*
X0133210Y0248258D01*
X0130958Y0248258D01*
X0130207Y0247507D01*
X0128606Y0243754D02*
X0125604Y0246757D01*
X0125604Y0247507D01*
X0125604Y0243754D02*
X0128606Y0243754D01*
X0127855Y0240758D02*
X0126354Y0240758D01*
X0125604Y0240007D01*
X0125604Y0239257D01*
X0128606Y0236254D01*
X0125604Y0236254D01*
X0124002Y0236254D02*
X0121000Y0236254D01*
X0122501Y0236254D02*
X0122501Y0240758D01*
X0124002Y0239257D01*
X0127855Y0240758D02*
X0128606Y0240007D01*
X0130207Y0240007D02*
X0130207Y0238506D01*
X0130958Y0237756D01*
X0133210Y0237756D01*
X0133210Y0236254D02*
X0133210Y0240758D01*
X0130958Y0240758D01*
X0130207Y0240007D01*
X0130958Y0233258D02*
X0130207Y0232507D01*
X0130207Y0231006D01*
X0130958Y0230256D01*
X0133210Y0230256D01*
X0133210Y0228754D02*
X0133210Y0233258D01*
X0130958Y0233258D01*
X0128606Y0232507D02*
X0127855Y0233258D01*
X0126354Y0233258D01*
X0125604Y0232507D01*
X0125604Y0231757D01*
X0128606Y0228754D01*
X0125604Y0228754D01*
X0124002Y0228754D02*
X0121000Y0231757D01*
X0121000Y0232507D01*
X0121750Y0233258D01*
X0123252Y0233258D01*
X0124002Y0232507D01*
X0124002Y0228754D02*
X0121000Y0228754D01*
X0121750Y0225758D02*
X0121000Y0225007D01*
X0121000Y0224257D01*
X0121750Y0223506D01*
X0121000Y0222756D01*
X0121000Y0222005D01*
X0121750Y0221254D01*
X0123252Y0221254D01*
X0124002Y0222005D01*
X0125604Y0221254D02*
X0128606Y0221254D01*
X0125604Y0224257D01*
X0125604Y0225007D01*
X0126354Y0225758D01*
X0127855Y0225758D01*
X0128606Y0225007D01*
X0130207Y0225007D02*
X0130207Y0223506D01*
X0130958Y0222756D01*
X0133210Y0222756D01*
X0133210Y0221254D02*
X0133210Y0225758D01*
X0130958Y0225758D01*
X0130207Y0225007D01*
X0124002Y0225007D02*
X0123252Y0225758D01*
X0121750Y0225758D01*
X0121750Y0223506D02*
X0122501Y0223506D01*
X0113460Y0212158D02*
X0113460Y0209156D01*
X0111959Y0207654D01*
X0110457Y0209156D01*
X0110457Y0212158D01*
X0108856Y0212158D02*
X0108856Y0207654D01*
X0108856Y0209156D02*
X0106604Y0209156D01*
X0105854Y0209906D01*
X0105854Y0211407D01*
X0106604Y0212158D01*
X0108856Y0212158D01*
X0104252Y0212158D02*
X0104252Y0207654D01*
X0102751Y0209156D01*
X0101250Y0207654D01*
X0101250Y0212158D01*
X0099648Y0212158D02*
X0099648Y0207654D01*
X0099648Y0209156D02*
X0097396Y0209156D01*
X0096646Y0209906D01*
X0096646Y0211407D01*
X0097396Y0212158D01*
X0099648Y0212158D01*
X0098147Y0209156D02*
X0096646Y0207654D01*
X0098240Y0202318D02*
X0100492Y0202318D01*
X0100492Y0197814D01*
X0098240Y0197814D01*
X0097490Y0198565D01*
X0097490Y0201567D01*
X0098240Y0202318D01*
X0102094Y0202318D02*
X0102094Y0197814D01*
X0105096Y0202318D01*
X0105096Y0197814D01*
X0106697Y0198565D02*
X0106697Y0200066D01*
X0108199Y0200066D01*
X0109700Y0198565D02*
X0108949Y0197814D01*
X0107448Y0197814D01*
X0106697Y0198565D01*
X0106697Y0201567D02*
X0107448Y0202318D01*
X0108949Y0202318D01*
X0109700Y0201567D01*
X0109700Y0198565D01*
X0109326Y0192708D02*
X0107074Y0192708D01*
X0106324Y0191957D01*
X0106324Y0190456D01*
X0107074Y0189706D01*
X0109326Y0189706D01*
X0107825Y0189706D02*
X0106324Y0188204D01*
X0104722Y0188204D02*
X0101720Y0188204D01*
X0100118Y0188955D02*
X0099368Y0188204D01*
X0097866Y0188204D01*
X0097116Y0188955D01*
X0097116Y0189706D01*
X0097866Y0190456D01*
X0099368Y0190456D01*
X0100118Y0191207D01*
X0100118Y0191957D01*
X0099368Y0192708D01*
X0097866Y0192708D01*
X0097116Y0191957D01*
X0101720Y0192708D02*
X0104722Y0192708D01*
X0104722Y0188204D01*
X0104722Y0190456D02*
X0103221Y0190456D01*
X0109326Y0188204D02*
X0109326Y0192708D01*
X0110927Y0192708D02*
X0113930Y0188204D01*
X0110927Y0188204D02*
X0113930Y0192708D01*
X0112939Y0181928D02*
X0111438Y0181928D01*
X0110687Y0181177D01*
X0109086Y0181177D02*
X0109086Y0178175D01*
X0108335Y0177424D01*
X0106834Y0177424D01*
X0106084Y0178175D01*
X0104482Y0177424D02*
X0104482Y0181928D01*
X0106084Y0181177D02*
X0106834Y0181928D01*
X0108335Y0181928D01*
X0109086Y0181177D01*
X0110687Y0178926D02*
X0110687Y0178175D01*
X0111438Y0177424D01*
X0112939Y0177424D01*
X0113690Y0178175D01*
X0112939Y0179676D02*
X0111438Y0179676D01*
X0110687Y0178926D01*
X0112939Y0179676D02*
X0113690Y0180427D01*
X0113690Y0181177D01*
X0112939Y0181928D01*
X0112459Y0172088D02*
X0113210Y0171337D01*
X0113210Y0170587D01*
X0112459Y0169836D01*
X0110958Y0169836D01*
X0110207Y0169086D01*
X0110207Y0168335D01*
X0110958Y0167584D01*
X0112459Y0167584D01*
X0113210Y0168335D01*
X0112459Y0172088D02*
X0110958Y0172088D01*
X0110207Y0171337D01*
X0108606Y0172088D02*
X0106354Y0172088D01*
X0105604Y0171337D01*
X0105604Y0168335D01*
X0106354Y0167584D01*
X0108606Y0167584D01*
X0108606Y0172088D01*
X0104002Y0170587D02*
X0104002Y0167584D01*
X0104002Y0169836D02*
X0101000Y0169836D01*
X0101000Y0170587D02*
X0101000Y0167584D01*
X0101000Y0170587D02*
X0102501Y0172088D01*
X0104002Y0170587D01*
X0099398Y0172088D02*
X0096396Y0172088D01*
X0097897Y0172088D02*
X0097897Y0167584D01*
X0096876Y0177424D02*
X0099128Y0179676D01*
X0099878Y0178926D02*
X0096876Y0181928D01*
X0099878Y0181928D02*
X0099878Y0177424D01*
X0101480Y0177424D02*
X0104482Y0177424D01*
X0081066Y0219753D02*
X0080315Y0219753D01*
X0079564Y0220504D01*
X0079564Y0224257D01*
X0079564Y0221254D02*
X0081816Y0221254D01*
X0082567Y0222005D01*
X0082567Y0224257D01*
X0079498Y0228754D02*
X0079498Y0231757D01*
X0077996Y0233258D01*
X0076495Y0231757D01*
X0076495Y0228754D01*
X0074894Y0228754D02*
X0074894Y0233258D01*
X0072642Y0233258D01*
X0071891Y0232507D01*
X0071891Y0231006D01*
X0072642Y0230256D01*
X0074894Y0230256D01*
X0073392Y0230256D02*
X0071891Y0228754D01*
X0070290Y0228754D02*
X0070290Y0233258D01*
X0068038Y0233258D01*
X0067287Y0232507D01*
X0067287Y0229505D01*
X0068038Y0228754D01*
X0070290Y0228754D01*
X0065686Y0231006D02*
X0062683Y0231006D01*
X0061082Y0231006D02*
X0058079Y0231006D01*
X0058079Y0231757D02*
X0058079Y0228754D01*
X0056478Y0229505D02*
X0053475Y0232507D01*
X0053475Y0229505D01*
X0054226Y0228754D01*
X0055727Y0228754D01*
X0056478Y0229505D01*
X0056478Y0232507D01*
X0055727Y0233258D01*
X0054226Y0233258D01*
X0053475Y0232507D01*
X0058079Y0231757D02*
X0059581Y0233258D01*
X0061082Y0231757D01*
X0061082Y0228754D01*
X0074960Y0243754D02*
X0077963Y0243754D01*
X0074960Y0246757D01*
X0074960Y0247507D01*
X0075711Y0248258D01*
X0077212Y0248258D01*
X0077963Y0247507D01*
X0077212Y0258754D02*
X0077963Y0259505D01*
X0074960Y0262507D01*
X0074960Y0259505D01*
X0075711Y0258754D01*
X0077212Y0258754D01*
X0077963Y0259505D02*
X0077963Y0262507D01*
X0077212Y0263258D01*
X0075711Y0263258D01*
X0074960Y0262507D01*
X0074960Y0266254D02*
X0077963Y0266254D01*
X0076462Y0266254D02*
X0076462Y0270758D01*
X0077963Y0269257D01*
X0088772Y0270758D02*
X0091775Y0270758D01*
X0091775Y0266254D01*
X0091775Y0268506D02*
X0090273Y0268506D01*
X0097980Y0268506D02*
X0097980Y0267005D01*
X0098731Y0266254D01*
X0100983Y0266254D01*
X0100983Y0264753D02*
X0100983Y0269257D01*
X0098731Y0269257D01*
X0097980Y0268506D01*
X0102584Y0268506D02*
X0102584Y0266254D01*
X0104836Y0266254D01*
X0105586Y0267005D01*
X0104836Y0267756D01*
X0102584Y0267756D01*
X0102584Y0268506D02*
X0103335Y0269257D01*
X0104836Y0269257D01*
X0107188Y0270007D02*
X0107938Y0270758D01*
X0109440Y0270758D01*
X0110190Y0270007D01*
X0110190Y0267005D01*
X0109440Y0266254D01*
X0107938Y0266254D01*
X0107188Y0267005D01*
X0107938Y0263258D02*
X0107188Y0262507D01*
X0107938Y0263258D02*
X0109440Y0263258D01*
X0110190Y0262507D01*
X0110190Y0259505D01*
X0109440Y0258754D01*
X0107938Y0258754D01*
X0107188Y0259505D01*
X0105586Y0259505D02*
X0104836Y0260256D01*
X0102584Y0260256D01*
X0102584Y0261006D02*
X0102584Y0258754D01*
X0104836Y0258754D01*
X0105586Y0259505D01*
X0104836Y0261757D02*
X0103335Y0261757D01*
X0102584Y0261006D01*
X0091775Y0246006D02*
X0090273Y0246006D01*
X0079498Y0231006D02*
X0076495Y0231006D01*
X0063590Y0208637D02*
X0062238Y0208637D01*
X0061788Y0208186D01*
X0061788Y0207285D01*
X0062238Y0206835D01*
X0063590Y0206835D01*
X0063590Y0205934D02*
X0063590Y0208637D01*
X0062689Y0206835D02*
X0061788Y0205934D01*
X0060643Y0205934D02*
X0058841Y0207736D01*
X0058841Y0208186D01*
X0059292Y0208637D01*
X0060193Y0208637D01*
X0060643Y0208186D01*
X0060643Y0205934D02*
X0058841Y0205934D01*
X0057697Y0205934D02*
X0055895Y0205934D01*
X0056796Y0205934D02*
X0056796Y0208637D01*
X0057697Y0207736D01*
X0057546Y0203537D02*
X0057997Y0203086D01*
X0057997Y0202636D01*
X0057546Y0202185D01*
X0056195Y0202185D01*
X0056195Y0201285D02*
X0056195Y0203086D01*
X0056645Y0203537D01*
X0057546Y0203537D01*
X0057997Y0201285D02*
X0057546Y0200834D01*
X0056645Y0200834D01*
X0056195Y0201285D01*
X0059141Y0200834D02*
X0060943Y0200834D01*
X0060042Y0200834D02*
X0060042Y0203537D01*
X0060943Y0202636D01*
X0062088Y0203086D02*
X0062538Y0203537D01*
X0063890Y0203537D01*
X0063890Y0200834D01*
X0063890Y0201735D02*
X0062538Y0201735D01*
X0062088Y0202185D01*
X0062088Y0203086D01*
X0062989Y0201735D02*
X0062088Y0200834D01*
X0121000Y0255758D02*
X0124002Y0255758D01*
X0148060Y0239027D02*
X0148060Y0236025D01*
X0148811Y0235274D01*
X0150312Y0235274D01*
X0151063Y0236025D01*
X0148060Y0239027D01*
X0148811Y0239778D01*
X0150312Y0239778D01*
X0151063Y0239027D01*
X0151063Y0236025D01*
X0155667Y0224778D02*
X0152664Y0220274D01*
X0108689Y0288754D02*
X0107188Y0290256D01*
X0107188Y0293258D01*
X0110190Y0293258D02*
X0110190Y0290256D01*
X0108689Y0288754D01*
X0110190Y0296254D02*
X0110190Y0300758D01*
X0110190Y0298506D02*
X0108689Y0298506D01*
X0087955Y0300758D02*
X0087955Y0301509D01*
M02*
