G75*
%MOIN*%
%OFA0B0*%
%FSLAX25Y25*%
%IPPOS*%
%LPD*%
%AMOC8*
5,1,8,0,0,1.08239X$1,22.5*
%
%ADD10C,0.07100*%
%ADD11C,0.11839*%
%ADD12OC8,0.07100*%
%ADD13C,0.07900*%
%ADD14OC8,0.05300*%
%ADD15C,0.03672*%
%ADD16R,0.04831X0.04437*%
%ADD17C,0.06800*%
D10*
X0058364Y0158212D03*
X0058364Y0168212D03*
X0058364Y0178212D03*
X0058364Y0188212D03*
D11*
X0059742Y0214117D03*
X0059742Y0132621D03*
X0151081Y0132621D03*
X0151081Y0214117D03*
D12*
X0085609Y0261519D03*
X0075609Y0251519D03*
X0065609Y0261519D03*
D13*
X0044152Y0258369D03*
X0044152Y0248369D03*
X0044152Y0238369D03*
X0044152Y0228369D03*
X0044152Y0218369D03*
X0044152Y0208369D03*
X0044152Y0193369D03*
X0044152Y0183369D03*
X0044152Y0173369D03*
X0044152Y0163369D03*
X0044152Y0153369D03*
X0044152Y0143369D03*
X0044152Y0133369D03*
X0044152Y0123369D03*
X0044152Y0113369D03*
X0044152Y0103369D03*
X0110463Y0171440D03*
X0111463Y0181440D03*
X0110463Y0191440D03*
X0111463Y0201440D03*
X0110463Y0211440D03*
X0165636Y0189888D03*
X0165636Y0179888D03*
X0165636Y0169888D03*
X0234152Y0168369D03*
X0234152Y0158369D03*
X0234152Y0148369D03*
X0234152Y0138369D03*
X0234152Y0178369D03*
X0234152Y0188369D03*
X0234152Y0198369D03*
X0234152Y0208369D03*
X0234152Y0228369D03*
X0234152Y0238369D03*
X0234152Y0248369D03*
X0234152Y0258369D03*
X0234152Y0268369D03*
X0234152Y0278369D03*
X0044152Y0278369D03*
X0044152Y0268369D03*
D14*
X0140523Y0076100D03*
X0160523Y0076100D03*
D15*
X0042223Y0074196D03*
X0062301Y0074196D03*
D16*
X0088924Y0203630D03*
X0088924Y0208430D03*
X0095616Y0208430D03*
X0095616Y0203630D03*
D17*
X0053050Y0285350D03*
M02*
