%
M48
M72
T01C0.0130
T02C0.0140
T03C0.0177
T04C0.0236
T05C0.0315
T06C0.0320
T07C0.0400
T08C0.1134
%
T01
X2216Y6551
X2834Y6819
X2807Y7419
X2359Y7956
X1948Y8349
X1550Y9128
X2700Y9343
X3282Y8538
X3819Y7992
X4876Y8242
X4858Y9200
X4016Y10606
X3631Y10999
X4043Y11536
X4554Y11026
X4589Y12047
X4545Y12449
X5623Y11717
X5927Y10978
X6170Y10568
X6678Y10727
X7190Y11108
X7376Y11807
X7766Y11807
X8260Y12109
X8734Y12484
X7910Y11048
X8030Y10628
X8409Y10913
X8797Y10809
X9239Y10852
X9631Y10906
X9770Y9968
X10010Y9728
X10250Y9488
X10550Y9668
X10550Y10028
X10790Y11228
X10730Y11828
X10190Y12008
X10610Y12428
X11150Y12248
X11810Y12248
X12170Y12128
X12426Y11497
X12656Y10817
X12170Y10268
X11834Y10535
X11604Y10765
X11990Y9848
X12470Y9368
X12170Y9128
X12650Y10028
X13010Y10028
X13370Y10028
X13610Y10388
X14207Y9689
X13795Y9340
X14238Y8528
X14309Y8062
X15281Y7890
X15335Y7370
X15415Y6671
X16066Y6687
X13567Y6691
X12949Y6715
X12937Y7309
X13367Y7568
X12050Y6728
X11436Y7847
X10986Y8257
X10190Y8528
X9410Y9608
X9170Y9848
X8390Y10268
X8047Y9247
X8030Y8648
X7790Y8288
X7310Y8288
X6950Y8228
X7970Y7628
X7790Y7028
X7707Y6589
X7310Y6788
X9315Y6296
X9694Y6298
X11056Y6353
X11188Y7202
X14510Y10868
X15366Y10987
X16006Y11157
X15296Y12437
X15110Y13208
X14510Y12248
X14270Y12728
X13306Y12267
X13216Y11907
X12590Y14288
X12590Y14768
X12470Y15968
X12830Y16328
X12290Y16448
X11930Y16448
X11390Y15548
X11150Y15248
X10970Y15548
X10850Y14408
X10313Y14044
X10070Y14421
X9650Y14888
X9650Y15488
X8690Y15488
X8562Y14387
X9064Y14270
X7884Y14245
X6839Y12401
X4789Y14635
X4310Y15008
X3945Y14206
X3525Y14337
X4782Y17481
X4430Y17768
X5774Y18575
X6474Y18985
X7490Y19753
X8191Y20320
X7934Y18605
X7444Y18075
X7004Y17535
X6170Y17108
X5870Y17348
X6151Y16023
X4916Y19508
X5356Y19888
X5692Y20380
X6350Y20288
X6350Y20768
X5833Y22245
X5788Y23013
X4856Y23289
X4916Y22178
X4945Y21648
X3818Y23239
X3170Y23468
X4670Y25028
X5842Y24443
X6061Y24778
X7041Y23811
X7730Y23168
X7478Y22867
X7130Y22808
X7794Y22267
X8331Y22185
X8329Y22884
X9429Y24226
X9109Y25046
X8279Y25156
X8359Y25996
X7609Y26056
X7541Y26919
X7938Y26911
X6557Y26966
X6288Y27577
X5289Y27476
X5346Y26604
X1550Y26288
X2690Y18728
X3560Y10265
X3551Y9469
X3505Y6622
X10250Y12968
X10250Y13568
X11429Y17666
X11699Y18116
X12890Y18428
X12770Y19028
X12843Y19991
X13165Y20340
X13610Y20228
X14390Y21008
X14319Y22326
X14319Y22986
X15189Y22996
X15945Y23185
X16666Y23508
X15952Y24316
X15983Y24726
X15299Y25366
X14090Y24728
X14395Y23959
X13190Y24728
X13490Y25328
X14149Y26346
X13399Y26856
X12590Y25328
X12619Y24546
X12655Y23893
X12069Y24096
X11348Y25227
X11045Y26115
X10685Y25191
X9545Y26115
X10370Y27908
X10587Y22815
X9770Y21908
X10610Y21068
X11297Y21242
X11426Y20791
X11954Y20649
X11787Y21500
X13309Y22986
X15650Y19868
X15714Y19383
X15222Y19230
X15169Y19616
X16039Y18840
X16658Y18579
X14090Y15848
X10490Y18668
X9779Y18926
X9779Y19556
X15035Y27765
X14775Y28355
X15735Y28615
X18926Y23388
X19776Y23336
X20630Y21848
X19731Y18571
X20293Y18512
X20224Y12125
X20643Y11156
X20746Y7057
X19806Y6357
X20711Y28352
X20206Y28674
T02
X18239Y24924
X18239Y19019
X16639Y14713
X16639Y8807
T03
X4113Y7335
X2105Y7335
T04
X14796Y6770
X14794Y9613
T05
X3719Y15737
X3719Y16737
X3719Y17737
X3719Y18737
T06
X5444Y25067
X6444Y26067
X4444Y26067
X12027Y7323
X14027Y7323
T07
X14447Y16904
X14447Y17904
X14447Y18904
X9029Y18059
X8929Y17059
X8929Y19059
X9029Y20059
X8929Y21059
X2298Y20752
X2298Y21752
X2298Y22752
X2298Y23752
X2298Y24752
X2298Y25752
X2298Y26752
X2298Y27752
X2298Y19252
X2298Y18252
X2298Y17252
X2298Y16252
X2298Y15252
X2298Y14252
X2298Y13252
X2298Y12252
X2298Y11252
X2298Y10252
X21298Y13752
X21298Y14752
X21298Y15752
X21298Y16752
X21298Y17752
X21298Y18752
X21298Y19752
X21298Y20752
X21298Y22752
X21298Y23752
X21298Y24752
X21298Y25752
X21298Y26752
X21298Y27752
T08
X12991Y21327
X12991Y13178
X3857Y13178
X3857Y21327
M30
