G75*
%MOIN*%
%OFA0B0*%
%FSLAX25Y25*%
%IPPOS*%
%LPD*%
%AMOC8*
5,1,8,0,0,1.08239X$1,22.5*
%
%ADD10R,0.07874X0.06299*%
%ADD11R,0.05118X0.00827*%
%ADD12R,0.00827X0.05118*%
%ADD13R,0.04331X0.03937*%
%ADD14R,0.03937X0.04331*%
%ADD15R,0.03150X0.03150*%
%ADD16R,0.05709X0.03937*%
%ADD17R,0.07900X0.06700*%
D10*
X0114281Y0241736D03*
X0135541Y0241736D03*
X0135541Y0279531D03*
X0114281Y0279531D03*
D11*
X0110069Y0108350D03*
X0110069Y0106382D03*
X0110069Y0104413D03*
X0110069Y0102445D03*
X0110069Y0100476D03*
X0110069Y0098508D03*
X0110069Y0096539D03*
X0110069Y0094571D03*
X0110069Y0092602D03*
X0110069Y0090634D03*
X0110069Y0088665D03*
X0110069Y0086697D03*
X0075423Y0086697D03*
X0075423Y0088665D03*
X0075423Y0090634D03*
X0075423Y0092602D03*
X0075423Y0094571D03*
X0075423Y0096539D03*
X0075423Y0098508D03*
X0075423Y0100476D03*
X0075423Y0102445D03*
X0075423Y0104413D03*
X0075423Y0106382D03*
X0075423Y0108350D03*
D12*
X0081919Y0114846D03*
X0083887Y0114846D03*
X0085856Y0114846D03*
X0087824Y0114846D03*
X0089793Y0114846D03*
X0091761Y0114846D03*
X0093730Y0114846D03*
X0095698Y0114846D03*
X0097667Y0114846D03*
X0099635Y0114846D03*
X0101604Y0114846D03*
X0103572Y0114846D03*
X0103572Y0080201D03*
X0101604Y0080201D03*
X0099635Y0080201D03*
X0097667Y0080201D03*
X0095698Y0080201D03*
X0093730Y0080201D03*
X0091761Y0080201D03*
X0089793Y0080201D03*
X0087824Y0080201D03*
X0085856Y0080201D03*
X0083887Y0080201D03*
X0081919Y0080201D03*
D13*
X0066646Y0094559D03*
X0066646Y0101162D03*
X0059954Y0101162D03*
X0059954Y0094559D03*
X0112097Y0126556D03*
X0118790Y0126556D03*
X0118948Y0134194D03*
X0118948Y0140572D03*
X0118790Y0148407D03*
X0112097Y0148407D03*
X0112255Y0140572D03*
X0112255Y0134194D03*
X0126069Y0081682D03*
X0132762Y0081682D03*
X0074546Y0212184D03*
X0074546Y0217184D03*
X0067854Y0217184D03*
X0067854Y0212184D03*
X0118887Y0257917D03*
X0125580Y0257917D03*
X0125659Y0266894D03*
X0118966Y0266894D03*
X0210895Y0218154D03*
X0217588Y0218154D03*
D14*
X0060214Y0073084D03*
X0065500Y0073083D03*
X0065500Y0079776D03*
X0060214Y0079777D03*
X0082400Y0072131D03*
X0082400Y0065438D03*
X0089863Y0066638D03*
X0089863Y0073331D03*
X0101120Y0072271D03*
X0105760Y0072291D03*
X0105760Y0065598D03*
X0101120Y0065578D03*
X0098380Y0129008D03*
X0093540Y0128948D03*
X0088830Y0129048D03*
X0084030Y0129048D03*
X0079230Y0129135D03*
X0074430Y0129268D03*
X0069630Y0129268D03*
X0069630Y0135961D03*
X0074430Y0135961D03*
X0079230Y0135828D03*
X0084030Y0135741D03*
X0088830Y0135741D03*
X0093540Y0135641D03*
X0098380Y0135701D03*
X0154832Y0143783D03*
X0154832Y0150476D03*
X0154832Y0202839D03*
X0154832Y0209531D03*
X0154832Y0261894D03*
X0154832Y0268587D03*
X0099557Y0277406D03*
X0099557Y0284098D03*
X0099557Y0245240D03*
X0099557Y0238547D03*
X0154832Y0091421D03*
X0154832Y0084728D03*
D15*
X0147943Y0085516D03*
X0147943Y0091421D03*
X0147943Y0144177D03*
X0147943Y0150083D03*
X0147943Y0203232D03*
X0147943Y0209138D03*
X0147943Y0262287D03*
X0147943Y0268193D03*
X0086998Y0277996D03*
X0086998Y0283902D03*
X0086840Y0245122D03*
X0086840Y0239217D03*
D16*
X0095433Y0073216D03*
X0095433Y0066917D03*
D17*
X0048058Y0155905D03*
X0047711Y0165455D03*
M02*
