G75*
%MOIN*%
%OFA0B0*%
%FSLAX25Y25*%
%IPPOS*%
%LPD*%
%AMOC8*
5,1,8,0,0,1.08239X$1,22.5*
%
%ADD10C,0.07900*%
%ADD11C,0.11839*%
%ADD12R,0.08374X0.06799*%
%ADD13R,0.05618X0.01327*%
%ADD14R,0.01327X0.05618*%
%ADD15R,0.04831X0.04437*%
%ADD16R,0.04437X0.04831*%
%ADD17OC8,0.07100*%
%ADD18R,0.03650X0.03650*%
%ADD19R,0.06209X0.04437*%
%ADD20OC8,0.05300*%
%ADD21R,0.05500X0.02500*%
%ADD22C,0.06800*%
D10*
X0042223Y0074196D03*
X0062301Y0074196D03*
X0044152Y0103369D03*
X0044152Y0113369D03*
X0044152Y0123369D03*
X0044152Y0133369D03*
X0044152Y0143369D03*
X0044152Y0153369D03*
X0044152Y0163369D03*
X0044152Y0173369D03*
X0044152Y0183369D03*
X0044152Y0193369D03*
X0044152Y0208369D03*
X0044152Y0218369D03*
X0044152Y0228369D03*
X0044152Y0238369D03*
X0044152Y0248369D03*
X0044152Y0258369D03*
X0044152Y0268369D03*
X0044152Y0278369D03*
X0110463Y0211440D03*
X0111463Y0201440D03*
X0110463Y0191440D03*
X0111463Y0181440D03*
X0110463Y0171440D03*
X0058364Y0168212D03*
X0058364Y0178212D03*
X0058364Y0188212D03*
X0058364Y0158212D03*
X0165460Y0169340D03*
X0165460Y0179340D03*
X0165460Y0189340D03*
X0234152Y0188369D03*
X0234152Y0198369D03*
X0234152Y0208369D03*
X0234152Y0228369D03*
X0234152Y0238369D03*
X0234152Y0248369D03*
X0234152Y0258369D03*
X0234152Y0268369D03*
X0234152Y0278369D03*
X0234152Y0178369D03*
X0234152Y0168369D03*
X0234152Y0158369D03*
X0234152Y0148369D03*
X0234152Y0138369D03*
D11*
X0151081Y0132621D03*
X0151081Y0214117D03*
X0059742Y0214117D03*
X0059742Y0132621D03*
D12*
X0135451Y0242582D03*
X0156711Y0242582D03*
X0156711Y0280377D03*
X0135451Y0280377D03*
D13*
X0131238Y0109196D03*
X0131238Y0107228D03*
X0131238Y0105259D03*
X0131238Y0103291D03*
X0131238Y0101322D03*
X0131238Y0099354D03*
X0131238Y0097385D03*
X0131238Y0095417D03*
X0131238Y0093448D03*
X0131238Y0091480D03*
X0131238Y0089511D03*
X0131238Y0087543D03*
X0096593Y0087543D03*
X0096593Y0089511D03*
X0096593Y0091480D03*
X0096593Y0093448D03*
X0096593Y0095417D03*
X0096593Y0097385D03*
X0096593Y0099354D03*
X0096593Y0101322D03*
X0096593Y0103291D03*
X0096593Y0105259D03*
X0096593Y0107228D03*
X0096593Y0109196D03*
D14*
X0103089Y0115692D03*
X0105057Y0115692D03*
X0107026Y0115692D03*
X0108994Y0115692D03*
X0110963Y0115692D03*
X0112931Y0115692D03*
X0114900Y0115692D03*
X0116868Y0115692D03*
X0118837Y0115692D03*
X0120805Y0115692D03*
X0122774Y0115692D03*
X0124742Y0115692D03*
X0124742Y0081047D03*
X0122774Y0081047D03*
X0120805Y0081047D03*
X0118837Y0081047D03*
X0116868Y0081047D03*
X0114900Y0081047D03*
X0112931Y0081047D03*
X0110963Y0081047D03*
X0108994Y0081047D03*
X0107026Y0081047D03*
X0105057Y0081047D03*
X0103089Y0081047D03*
D15*
X0087816Y0095405D03*
X0087816Y0102008D03*
X0081124Y0102008D03*
X0081124Y0095405D03*
X0127014Y0049410D03*
X0133706Y0049410D03*
X0141924Y0052030D03*
X0148616Y0052030D03*
X0149396Y0067010D03*
X0142704Y0067010D03*
X0147239Y0082528D03*
X0153932Y0082528D03*
X0155596Y0103860D03*
X0155596Y0109360D03*
X0148904Y0109360D03*
X0148904Y0103860D03*
X0139960Y0127402D03*
X0133267Y0127402D03*
X0133425Y0135040D03*
X0133425Y0141418D03*
X0140118Y0141418D03*
X0140118Y0135040D03*
X0139960Y0149253D03*
X0133267Y0149253D03*
X0139134Y0173220D03*
X0145826Y0173220D03*
X0112616Y0223230D03*
X0105924Y0223230D03*
X0095716Y0218530D03*
X0095716Y0213030D03*
X0089024Y0213030D03*
X0089024Y0218530D03*
X0140057Y0258763D03*
X0146750Y0258763D03*
X0146829Y0267739D03*
X0140136Y0267739D03*
X0232065Y0218999D03*
X0238758Y0218999D03*
D16*
X0176002Y0210377D03*
X0176002Y0203684D03*
X0176002Y0151322D03*
X0176002Y0144629D03*
X0176002Y0092267D03*
X0176002Y0085574D03*
X0128170Y0072376D03*
X0122670Y0072376D03*
X0122670Y0065684D03*
X0128170Y0065684D03*
X0109970Y0066984D03*
X0103570Y0066284D03*
X0103570Y0072976D03*
X0109970Y0073676D03*
X0107140Y0046226D03*
X0107140Y0039534D03*
X0079930Y0079769D03*
X0074644Y0079770D03*
X0074644Y0086463D03*
X0079930Y0086462D03*
X0087470Y0129884D03*
X0092970Y0129884D03*
X0098470Y0129884D03*
X0103970Y0129884D03*
X0109470Y0129884D03*
X0114970Y0129884D03*
X0120470Y0129884D03*
X0120470Y0136576D03*
X0114970Y0136576D03*
X0109470Y0136576D03*
X0103970Y0136576D03*
X0098470Y0136576D03*
X0092970Y0136576D03*
X0087470Y0136576D03*
X0069670Y0233554D03*
X0069670Y0240246D03*
X0120727Y0239393D03*
X0120727Y0246086D03*
X0120727Y0278251D03*
X0120727Y0284944D03*
X0176002Y0269432D03*
X0176002Y0262739D03*
D17*
X0085609Y0261519D03*
X0075609Y0251519D03*
X0065609Y0261519D03*
D18*
X0108010Y0245968D03*
X0108010Y0240062D03*
X0108168Y0278842D03*
X0108168Y0284747D03*
X0169113Y0269039D03*
X0169113Y0263133D03*
X0169113Y0209984D03*
X0169113Y0204078D03*
X0169113Y0150928D03*
X0169113Y0145023D03*
X0169113Y0092267D03*
X0169113Y0086361D03*
X0160623Y0067000D03*
X0154717Y0067000D03*
D19*
X0116340Y0067262D03*
X0116340Y0073561D03*
D20*
X0140523Y0076100D03*
X0160523Y0076100D03*
D21*
X0173770Y0176260D03*
X0173770Y0179610D03*
X0173770Y0182960D03*
X0068831Y0171401D03*
X0068831Y0168051D03*
X0068831Y0164701D03*
X0069178Y0157850D03*
X0069178Y0154500D03*
X0069178Y0151150D03*
D22*
X0053050Y0285350D03*
M02*
