G75*
%MOIN*%
%OFA0B0*%
%FSLAX25Y25*%
%IPPOS*%
%LPD*%
%AMOC8*
5,1,8,0,0,1.08239X$1,22.5*
%
%ADD10C,0.00000*%
%ADD11C,0.04724*%
%ADD12OC8,0.06600*%
%ADD13C,0.07400*%
%ADD14OC8,0.04800*%
%ADD15C,0.03172*%
%ADD16C,0.02800*%
%ADD17R,0.04331X0.03937*%
%ADD18C,0.00700*%
%ADD19C,0.00600*%
%ADD20C,0.02700*%
%ADD21C,0.04000*%
%ADD22C,0.02000*%
%ADD23C,0.05000*%
%ADD24C,0.01600*%
%ADD25C,0.03762*%
%ADD26C,0.01500*%
%ADD27C,0.10630*%
%ADD28C,0.11000*%
D10*
X0001000Y0048484D02*
X0001000Y0302642D01*
X0233572Y0302642D01*
X0233572Y0048484D01*
X0001000Y0048484D01*
X0032903Y0131776D02*
X0032905Y0131926D01*
X0032911Y0132076D01*
X0032921Y0132226D01*
X0032935Y0132376D01*
X0032953Y0132525D01*
X0032975Y0132674D01*
X0033000Y0132822D01*
X0033030Y0132969D01*
X0033064Y0133116D01*
X0033101Y0133261D01*
X0033142Y0133406D01*
X0033187Y0133549D01*
X0033236Y0133691D01*
X0033289Y0133832D01*
X0033345Y0133971D01*
X0033405Y0134109D01*
X0033469Y0134245D01*
X0033536Y0134380D01*
X0033607Y0134512D01*
X0033681Y0134643D01*
X0033759Y0134772D01*
X0033840Y0134898D01*
X0033925Y0135022D01*
X0034012Y0135145D01*
X0034103Y0135264D01*
X0034197Y0135381D01*
X0034294Y0135496D01*
X0034394Y0135608D01*
X0034498Y0135718D01*
X0034603Y0135824D01*
X0034712Y0135928D01*
X0034824Y0136029D01*
X0034938Y0136127D01*
X0035054Y0136222D01*
X0035173Y0136313D01*
X0035295Y0136402D01*
X0035419Y0136487D01*
X0035545Y0136569D01*
X0035673Y0136647D01*
X0035803Y0136723D01*
X0035935Y0136794D01*
X0036069Y0136862D01*
X0036205Y0136927D01*
X0036342Y0136988D01*
X0036481Y0137045D01*
X0036621Y0137099D01*
X0036763Y0137149D01*
X0036906Y0137195D01*
X0037050Y0137237D01*
X0037196Y0137275D01*
X0037342Y0137310D01*
X0037489Y0137341D01*
X0037637Y0137367D01*
X0037786Y0137390D01*
X0037935Y0137409D01*
X0038084Y0137424D01*
X0038234Y0137435D01*
X0038384Y0137442D01*
X0038534Y0137445D01*
X0038685Y0137444D01*
X0038835Y0137439D01*
X0038985Y0137430D01*
X0039135Y0137417D01*
X0039284Y0137400D01*
X0039433Y0137379D01*
X0039581Y0137354D01*
X0039729Y0137326D01*
X0039875Y0137293D01*
X0040021Y0137257D01*
X0040166Y0137216D01*
X0040310Y0137172D01*
X0040452Y0137124D01*
X0040593Y0137072D01*
X0040733Y0137017D01*
X0040871Y0136958D01*
X0041007Y0136895D01*
X0041142Y0136829D01*
X0041275Y0136759D01*
X0041406Y0136685D01*
X0041536Y0136609D01*
X0041663Y0136528D01*
X0041788Y0136445D01*
X0041910Y0136358D01*
X0042031Y0136268D01*
X0042148Y0136175D01*
X0042264Y0136078D01*
X0042376Y0135979D01*
X0042487Y0135876D01*
X0042594Y0135771D01*
X0042698Y0135663D01*
X0042800Y0135553D01*
X0042899Y0135439D01*
X0042994Y0135323D01*
X0043087Y0135205D01*
X0043176Y0135084D01*
X0043262Y0134961D01*
X0043345Y0134835D01*
X0043424Y0134708D01*
X0043500Y0134578D01*
X0043573Y0134446D01*
X0043642Y0134313D01*
X0043707Y0134177D01*
X0043769Y0134041D01*
X0043827Y0133902D01*
X0043882Y0133762D01*
X0043933Y0133620D01*
X0043980Y0133478D01*
X0044023Y0133334D01*
X0044062Y0133189D01*
X0044098Y0133043D01*
X0044129Y0132896D01*
X0044157Y0132748D01*
X0044181Y0132600D01*
X0044201Y0132451D01*
X0044217Y0132301D01*
X0044229Y0132151D01*
X0044237Y0132001D01*
X0044241Y0131851D01*
X0044241Y0131701D01*
X0044237Y0131551D01*
X0044229Y0131401D01*
X0044217Y0131251D01*
X0044201Y0131101D01*
X0044181Y0130952D01*
X0044157Y0130804D01*
X0044129Y0130656D01*
X0044098Y0130509D01*
X0044062Y0130363D01*
X0044023Y0130218D01*
X0043980Y0130074D01*
X0043933Y0129932D01*
X0043882Y0129790D01*
X0043827Y0129650D01*
X0043769Y0129511D01*
X0043707Y0129375D01*
X0043642Y0129239D01*
X0043573Y0129106D01*
X0043500Y0128974D01*
X0043424Y0128844D01*
X0043345Y0128717D01*
X0043262Y0128591D01*
X0043176Y0128468D01*
X0043087Y0128347D01*
X0042994Y0128229D01*
X0042899Y0128113D01*
X0042800Y0127999D01*
X0042698Y0127889D01*
X0042594Y0127781D01*
X0042487Y0127676D01*
X0042376Y0127573D01*
X0042264Y0127474D01*
X0042148Y0127377D01*
X0042031Y0127284D01*
X0041910Y0127194D01*
X0041788Y0127107D01*
X0041663Y0127024D01*
X0041536Y0126943D01*
X0041407Y0126867D01*
X0041275Y0126793D01*
X0041142Y0126723D01*
X0041007Y0126657D01*
X0040871Y0126594D01*
X0040733Y0126535D01*
X0040593Y0126480D01*
X0040452Y0126428D01*
X0040310Y0126380D01*
X0040166Y0126336D01*
X0040021Y0126295D01*
X0039875Y0126259D01*
X0039729Y0126226D01*
X0039581Y0126198D01*
X0039433Y0126173D01*
X0039284Y0126152D01*
X0039135Y0126135D01*
X0038985Y0126122D01*
X0038835Y0126113D01*
X0038685Y0126108D01*
X0038534Y0126107D01*
X0038384Y0126110D01*
X0038234Y0126117D01*
X0038084Y0126128D01*
X0037935Y0126143D01*
X0037786Y0126162D01*
X0037637Y0126185D01*
X0037489Y0126211D01*
X0037342Y0126242D01*
X0037196Y0126277D01*
X0037050Y0126315D01*
X0036906Y0126357D01*
X0036763Y0126403D01*
X0036621Y0126453D01*
X0036481Y0126507D01*
X0036342Y0126564D01*
X0036205Y0126625D01*
X0036069Y0126690D01*
X0035935Y0126758D01*
X0035803Y0126829D01*
X0035673Y0126905D01*
X0035545Y0126983D01*
X0035419Y0127065D01*
X0035295Y0127150D01*
X0035173Y0127239D01*
X0035054Y0127330D01*
X0034938Y0127425D01*
X0034824Y0127523D01*
X0034712Y0127624D01*
X0034603Y0127728D01*
X0034498Y0127834D01*
X0034394Y0127944D01*
X0034294Y0128056D01*
X0034197Y0128171D01*
X0034103Y0128288D01*
X0034012Y0128407D01*
X0033925Y0128530D01*
X0033840Y0128654D01*
X0033759Y0128780D01*
X0033681Y0128909D01*
X0033607Y0129040D01*
X0033536Y0129172D01*
X0033469Y0129307D01*
X0033405Y0129443D01*
X0033345Y0129581D01*
X0033289Y0129720D01*
X0033236Y0129861D01*
X0033187Y0130003D01*
X0033142Y0130146D01*
X0033101Y0130291D01*
X0033064Y0130436D01*
X0033030Y0130583D01*
X0033000Y0130730D01*
X0032975Y0130878D01*
X0032953Y0131027D01*
X0032935Y0131176D01*
X0032921Y0131326D01*
X0032911Y0131476D01*
X0032905Y0131626D01*
X0032903Y0131776D01*
X0032903Y0213272D02*
X0032905Y0213422D01*
X0032911Y0213572D01*
X0032921Y0213722D01*
X0032935Y0213872D01*
X0032953Y0214021D01*
X0032975Y0214170D01*
X0033000Y0214318D01*
X0033030Y0214465D01*
X0033064Y0214612D01*
X0033101Y0214757D01*
X0033142Y0214902D01*
X0033187Y0215045D01*
X0033236Y0215187D01*
X0033289Y0215328D01*
X0033345Y0215467D01*
X0033405Y0215605D01*
X0033469Y0215741D01*
X0033536Y0215876D01*
X0033607Y0216008D01*
X0033681Y0216139D01*
X0033759Y0216268D01*
X0033840Y0216394D01*
X0033925Y0216518D01*
X0034012Y0216641D01*
X0034103Y0216760D01*
X0034197Y0216877D01*
X0034294Y0216992D01*
X0034394Y0217104D01*
X0034498Y0217214D01*
X0034603Y0217320D01*
X0034712Y0217424D01*
X0034824Y0217525D01*
X0034938Y0217623D01*
X0035054Y0217718D01*
X0035173Y0217809D01*
X0035295Y0217898D01*
X0035419Y0217983D01*
X0035545Y0218065D01*
X0035673Y0218143D01*
X0035803Y0218219D01*
X0035935Y0218290D01*
X0036069Y0218358D01*
X0036205Y0218423D01*
X0036342Y0218484D01*
X0036481Y0218541D01*
X0036621Y0218595D01*
X0036763Y0218645D01*
X0036906Y0218691D01*
X0037050Y0218733D01*
X0037196Y0218771D01*
X0037342Y0218806D01*
X0037489Y0218837D01*
X0037637Y0218863D01*
X0037786Y0218886D01*
X0037935Y0218905D01*
X0038084Y0218920D01*
X0038234Y0218931D01*
X0038384Y0218938D01*
X0038534Y0218941D01*
X0038685Y0218940D01*
X0038835Y0218935D01*
X0038985Y0218926D01*
X0039135Y0218913D01*
X0039284Y0218896D01*
X0039433Y0218875D01*
X0039581Y0218850D01*
X0039729Y0218822D01*
X0039875Y0218789D01*
X0040021Y0218753D01*
X0040166Y0218712D01*
X0040310Y0218668D01*
X0040452Y0218620D01*
X0040593Y0218568D01*
X0040733Y0218513D01*
X0040871Y0218454D01*
X0041007Y0218391D01*
X0041142Y0218325D01*
X0041275Y0218255D01*
X0041406Y0218181D01*
X0041536Y0218105D01*
X0041663Y0218024D01*
X0041788Y0217941D01*
X0041910Y0217854D01*
X0042031Y0217764D01*
X0042148Y0217671D01*
X0042264Y0217574D01*
X0042376Y0217475D01*
X0042487Y0217372D01*
X0042594Y0217267D01*
X0042698Y0217159D01*
X0042800Y0217049D01*
X0042899Y0216935D01*
X0042994Y0216819D01*
X0043087Y0216701D01*
X0043176Y0216580D01*
X0043262Y0216457D01*
X0043345Y0216331D01*
X0043424Y0216204D01*
X0043500Y0216074D01*
X0043573Y0215942D01*
X0043642Y0215809D01*
X0043707Y0215673D01*
X0043769Y0215537D01*
X0043827Y0215398D01*
X0043882Y0215258D01*
X0043933Y0215116D01*
X0043980Y0214974D01*
X0044023Y0214830D01*
X0044062Y0214685D01*
X0044098Y0214539D01*
X0044129Y0214392D01*
X0044157Y0214244D01*
X0044181Y0214096D01*
X0044201Y0213947D01*
X0044217Y0213797D01*
X0044229Y0213647D01*
X0044237Y0213497D01*
X0044241Y0213347D01*
X0044241Y0213197D01*
X0044237Y0213047D01*
X0044229Y0212897D01*
X0044217Y0212747D01*
X0044201Y0212597D01*
X0044181Y0212448D01*
X0044157Y0212300D01*
X0044129Y0212152D01*
X0044098Y0212005D01*
X0044062Y0211859D01*
X0044023Y0211714D01*
X0043980Y0211570D01*
X0043933Y0211428D01*
X0043882Y0211286D01*
X0043827Y0211146D01*
X0043769Y0211007D01*
X0043707Y0210871D01*
X0043642Y0210735D01*
X0043573Y0210602D01*
X0043500Y0210470D01*
X0043424Y0210340D01*
X0043345Y0210213D01*
X0043262Y0210087D01*
X0043176Y0209964D01*
X0043087Y0209843D01*
X0042994Y0209725D01*
X0042899Y0209609D01*
X0042800Y0209495D01*
X0042698Y0209385D01*
X0042594Y0209277D01*
X0042487Y0209172D01*
X0042376Y0209069D01*
X0042264Y0208970D01*
X0042148Y0208873D01*
X0042031Y0208780D01*
X0041910Y0208690D01*
X0041788Y0208603D01*
X0041663Y0208520D01*
X0041536Y0208439D01*
X0041407Y0208363D01*
X0041275Y0208289D01*
X0041142Y0208219D01*
X0041007Y0208153D01*
X0040871Y0208090D01*
X0040733Y0208031D01*
X0040593Y0207976D01*
X0040452Y0207924D01*
X0040310Y0207876D01*
X0040166Y0207832D01*
X0040021Y0207791D01*
X0039875Y0207755D01*
X0039729Y0207722D01*
X0039581Y0207694D01*
X0039433Y0207669D01*
X0039284Y0207648D01*
X0039135Y0207631D01*
X0038985Y0207618D01*
X0038835Y0207609D01*
X0038685Y0207604D01*
X0038534Y0207603D01*
X0038384Y0207606D01*
X0038234Y0207613D01*
X0038084Y0207624D01*
X0037935Y0207639D01*
X0037786Y0207658D01*
X0037637Y0207681D01*
X0037489Y0207707D01*
X0037342Y0207738D01*
X0037196Y0207773D01*
X0037050Y0207811D01*
X0036906Y0207853D01*
X0036763Y0207899D01*
X0036621Y0207949D01*
X0036481Y0208003D01*
X0036342Y0208060D01*
X0036205Y0208121D01*
X0036069Y0208186D01*
X0035935Y0208254D01*
X0035803Y0208325D01*
X0035673Y0208401D01*
X0035545Y0208479D01*
X0035419Y0208561D01*
X0035295Y0208646D01*
X0035173Y0208735D01*
X0035054Y0208826D01*
X0034938Y0208921D01*
X0034824Y0209019D01*
X0034712Y0209120D01*
X0034603Y0209224D01*
X0034498Y0209330D01*
X0034394Y0209440D01*
X0034294Y0209552D01*
X0034197Y0209667D01*
X0034103Y0209784D01*
X0034012Y0209903D01*
X0033925Y0210026D01*
X0033840Y0210150D01*
X0033759Y0210276D01*
X0033681Y0210405D01*
X0033607Y0210536D01*
X0033536Y0210668D01*
X0033469Y0210803D01*
X0033405Y0210939D01*
X0033345Y0211077D01*
X0033289Y0211216D01*
X0033236Y0211357D01*
X0033187Y0211499D01*
X0033142Y0211642D01*
X0033101Y0211787D01*
X0033064Y0211932D01*
X0033030Y0212079D01*
X0033000Y0212226D01*
X0032975Y0212374D01*
X0032953Y0212523D01*
X0032935Y0212672D01*
X0032921Y0212822D01*
X0032911Y0212972D01*
X0032905Y0213122D01*
X0032903Y0213272D01*
X0124242Y0213272D02*
X0124244Y0213422D01*
X0124250Y0213572D01*
X0124260Y0213722D01*
X0124274Y0213872D01*
X0124292Y0214021D01*
X0124314Y0214170D01*
X0124339Y0214318D01*
X0124369Y0214465D01*
X0124403Y0214612D01*
X0124440Y0214757D01*
X0124481Y0214902D01*
X0124526Y0215045D01*
X0124575Y0215187D01*
X0124628Y0215328D01*
X0124684Y0215467D01*
X0124744Y0215605D01*
X0124808Y0215741D01*
X0124875Y0215876D01*
X0124946Y0216008D01*
X0125020Y0216139D01*
X0125098Y0216268D01*
X0125179Y0216394D01*
X0125264Y0216518D01*
X0125351Y0216641D01*
X0125442Y0216760D01*
X0125536Y0216877D01*
X0125633Y0216992D01*
X0125733Y0217104D01*
X0125837Y0217214D01*
X0125942Y0217320D01*
X0126051Y0217424D01*
X0126163Y0217525D01*
X0126277Y0217623D01*
X0126393Y0217718D01*
X0126512Y0217809D01*
X0126634Y0217898D01*
X0126758Y0217983D01*
X0126884Y0218065D01*
X0127012Y0218143D01*
X0127142Y0218219D01*
X0127274Y0218290D01*
X0127408Y0218358D01*
X0127544Y0218423D01*
X0127681Y0218484D01*
X0127820Y0218541D01*
X0127960Y0218595D01*
X0128102Y0218645D01*
X0128245Y0218691D01*
X0128389Y0218733D01*
X0128535Y0218771D01*
X0128681Y0218806D01*
X0128828Y0218837D01*
X0128976Y0218863D01*
X0129125Y0218886D01*
X0129274Y0218905D01*
X0129423Y0218920D01*
X0129573Y0218931D01*
X0129723Y0218938D01*
X0129873Y0218941D01*
X0130024Y0218940D01*
X0130174Y0218935D01*
X0130324Y0218926D01*
X0130474Y0218913D01*
X0130623Y0218896D01*
X0130772Y0218875D01*
X0130920Y0218850D01*
X0131068Y0218822D01*
X0131214Y0218789D01*
X0131360Y0218753D01*
X0131505Y0218712D01*
X0131649Y0218668D01*
X0131791Y0218620D01*
X0131932Y0218568D01*
X0132072Y0218513D01*
X0132210Y0218454D01*
X0132346Y0218391D01*
X0132481Y0218325D01*
X0132614Y0218255D01*
X0132745Y0218181D01*
X0132875Y0218105D01*
X0133002Y0218024D01*
X0133127Y0217941D01*
X0133249Y0217854D01*
X0133370Y0217764D01*
X0133487Y0217671D01*
X0133603Y0217574D01*
X0133715Y0217475D01*
X0133826Y0217372D01*
X0133933Y0217267D01*
X0134037Y0217159D01*
X0134139Y0217049D01*
X0134238Y0216935D01*
X0134333Y0216819D01*
X0134426Y0216701D01*
X0134515Y0216580D01*
X0134601Y0216457D01*
X0134684Y0216331D01*
X0134763Y0216204D01*
X0134839Y0216074D01*
X0134912Y0215942D01*
X0134981Y0215809D01*
X0135046Y0215673D01*
X0135108Y0215537D01*
X0135166Y0215398D01*
X0135221Y0215258D01*
X0135272Y0215116D01*
X0135319Y0214974D01*
X0135362Y0214830D01*
X0135401Y0214685D01*
X0135437Y0214539D01*
X0135468Y0214392D01*
X0135496Y0214244D01*
X0135520Y0214096D01*
X0135540Y0213947D01*
X0135556Y0213797D01*
X0135568Y0213647D01*
X0135576Y0213497D01*
X0135580Y0213347D01*
X0135580Y0213197D01*
X0135576Y0213047D01*
X0135568Y0212897D01*
X0135556Y0212747D01*
X0135540Y0212597D01*
X0135520Y0212448D01*
X0135496Y0212300D01*
X0135468Y0212152D01*
X0135437Y0212005D01*
X0135401Y0211859D01*
X0135362Y0211714D01*
X0135319Y0211570D01*
X0135272Y0211428D01*
X0135221Y0211286D01*
X0135166Y0211146D01*
X0135108Y0211007D01*
X0135046Y0210871D01*
X0134981Y0210735D01*
X0134912Y0210602D01*
X0134839Y0210470D01*
X0134763Y0210340D01*
X0134684Y0210213D01*
X0134601Y0210087D01*
X0134515Y0209964D01*
X0134426Y0209843D01*
X0134333Y0209725D01*
X0134238Y0209609D01*
X0134139Y0209495D01*
X0134037Y0209385D01*
X0133933Y0209277D01*
X0133826Y0209172D01*
X0133715Y0209069D01*
X0133603Y0208970D01*
X0133487Y0208873D01*
X0133370Y0208780D01*
X0133249Y0208690D01*
X0133127Y0208603D01*
X0133002Y0208520D01*
X0132875Y0208439D01*
X0132746Y0208363D01*
X0132614Y0208289D01*
X0132481Y0208219D01*
X0132346Y0208153D01*
X0132210Y0208090D01*
X0132072Y0208031D01*
X0131932Y0207976D01*
X0131791Y0207924D01*
X0131649Y0207876D01*
X0131505Y0207832D01*
X0131360Y0207791D01*
X0131214Y0207755D01*
X0131068Y0207722D01*
X0130920Y0207694D01*
X0130772Y0207669D01*
X0130623Y0207648D01*
X0130474Y0207631D01*
X0130324Y0207618D01*
X0130174Y0207609D01*
X0130024Y0207604D01*
X0129873Y0207603D01*
X0129723Y0207606D01*
X0129573Y0207613D01*
X0129423Y0207624D01*
X0129274Y0207639D01*
X0129125Y0207658D01*
X0128976Y0207681D01*
X0128828Y0207707D01*
X0128681Y0207738D01*
X0128535Y0207773D01*
X0128389Y0207811D01*
X0128245Y0207853D01*
X0128102Y0207899D01*
X0127960Y0207949D01*
X0127820Y0208003D01*
X0127681Y0208060D01*
X0127544Y0208121D01*
X0127408Y0208186D01*
X0127274Y0208254D01*
X0127142Y0208325D01*
X0127012Y0208401D01*
X0126884Y0208479D01*
X0126758Y0208561D01*
X0126634Y0208646D01*
X0126512Y0208735D01*
X0126393Y0208826D01*
X0126277Y0208921D01*
X0126163Y0209019D01*
X0126051Y0209120D01*
X0125942Y0209224D01*
X0125837Y0209330D01*
X0125733Y0209440D01*
X0125633Y0209552D01*
X0125536Y0209667D01*
X0125442Y0209784D01*
X0125351Y0209903D01*
X0125264Y0210026D01*
X0125179Y0210150D01*
X0125098Y0210276D01*
X0125020Y0210405D01*
X0124946Y0210536D01*
X0124875Y0210668D01*
X0124808Y0210803D01*
X0124744Y0210939D01*
X0124684Y0211077D01*
X0124628Y0211216D01*
X0124575Y0211357D01*
X0124526Y0211499D01*
X0124481Y0211642D01*
X0124440Y0211787D01*
X0124403Y0211932D01*
X0124369Y0212079D01*
X0124339Y0212226D01*
X0124314Y0212374D01*
X0124292Y0212523D01*
X0124274Y0212672D01*
X0124260Y0212822D01*
X0124250Y0212972D01*
X0124244Y0213122D01*
X0124242Y0213272D01*
X0124242Y0131776D02*
X0124244Y0131926D01*
X0124250Y0132076D01*
X0124260Y0132226D01*
X0124274Y0132376D01*
X0124292Y0132525D01*
X0124314Y0132674D01*
X0124339Y0132822D01*
X0124369Y0132969D01*
X0124403Y0133116D01*
X0124440Y0133261D01*
X0124481Y0133406D01*
X0124526Y0133549D01*
X0124575Y0133691D01*
X0124628Y0133832D01*
X0124684Y0133971D01*
X0124744Y0134109D01*
X0124808Y0134245D01*
X0124875Y0134380D01*
X0124946Y0134512D01*
X0125020Y0134643D01*
X0125098Y0134772D01*
X0125179Y0134898D01*
X0125264Y0135022D01*
X0125351Y0135145D01*
X0125442Y0135264D01*
X0125536Y0135381D01*
X0125633Y0135496D01*
X0125733Y0135608D01*
X0125837Y0135718D01*
X0125942Y0135824D01*
X0126051Y0135928D01*
X0126163Y0136029D01*
X0126277Y0136127D01*
X0126393Y0136222D01*
X0126512Y0136313D01*
X0126634Y0136402D01*
X0126758Y0136487D01*
X0126884Y0136569D01*
X0127012Y0136647D01*
X0127142Y0136723D01*
X0127274Y0136794D01*
X0127408Y0136862D01*
X0127544Y0136927D01*
X0127681Y0136988D01*
X0127820Y0137045D01*
X0127960Y0137099D01*
X0128102Y0137149D01*
X0128245Y0137195D01*
X0128389Y0137237D01*
X0128535Y0137275D01*
X0128681Y0137310D01*
X0128828Y0137341D01*
X0128976Y0137367D01*
X0129125Y0137390D01*
X0129274Y0137409D01*
X0129423Y0137424D01*
X0129573Y0137435D01*
X0129723Y0137442D01*
X0129873Y0137445D01*
X0130024Y0137444D01*
X0130174Y0137439D01*
X0130324Y0137430D01*
X0130474Y0137417D01*
X0130623Y0137400D01*
X0130772Y0137379D01*
X0130920Y0137354D01*
X0131068Y0137326D01*
X0131214Y0137293D01*
X0131360Y0137257D01*
X0131505Y0137216D01*
X0131649Y0137172D01*
X0131791Y0137124D01*
X0131932Y0137072D01*
X0132072Y0137017D01*
X0132210Y0136958D01*
X0132346Y0136895D01*
X0132481Y0136829D01*
X0132614Y0136759D01*
X0132745Y0136685D01*
X0132875Y0136609D01*
X0133002Y0136528D01*
X0133127Y0136445D01*
X0133249Y0136358D01*
X0133370Y0136268D01*
X0133487Y0136175D01*
X0133603Y0136078D01*
X0133715Y0135979D01*
X0133826Y0135876D01*
X0133933Y0135771D01*
X0134037Y0135663D01*
X0134139Y0135553D01*
X0134238Y0135439D01*
X0134333Y0135323D01*
X0134426Y0135205D01*
X0134515Y0135084D01*
X0134601Y0134961D01*
X0134684Y0134835D01*
X0134763Y0134708D01*
X0134839Y0134578D01*
X0134912Y0134446D01*
X0134981Y0134313D01*
X0135046Y0134177D01*
X0135108Y0134041D01*
X0135166Y0133902D01*
X0135221Y0133762D01*
X0135272Y0133620D01*
X0135319Y0133478D01*
X0135362Y0133334D01*
X0135401Y0133189D01*
X0135437Y0133043D01*
X0135468Y0132896D01*
X0135496Y0132748D01*
X0135520Y0132600D01*
X0135540Y0132451D01*
X0135556Y0132301D01*
X0135568Y0132151D01*
X0135576Y0132001D01*
X0135580Y0131851D01*
X0135580Y0131701D01*
X0135576Y0131551D01*
X0135568Y0131401D01*
X0135556Y0131251D01*
X0135540Y0131101D01*
X0135520Y0130952D01*
X0135496Y0130804D01*
X0135468Y0130656D01*
X0135437Y0130509D01*
X0135401Y0130363D01*
X0135362Y0130218D01*
X0135319Y0130074D01*
X0135272Y0129932D01*
X0135221Y0129790D01*
X0135166Y0129650D01*
X0135108Y0129511D01*
X0135046Y0129375D01*
X0134981Y0129239D01*
X0134912Y0129106D01*
X0134839Y0128974D01*
X0134763Y0128844D01*
X0134684Y0128717D01*
X0134601Y0128591D01*
X0134515Y0128468D01*
X0134426Y0128347D01*
X0134333Y0128229D01*
X0134238Y0128113D01*
X0134139Y0127999D01*
X0134037Y0127889D01*
X0133933Y0127781D01*
X0133826Y0127676D01*
X0133715Y0127573D01*
X0133603Y0127474D01*
X0133487Y0127377D01*
X0133370Y0127284D01*
X0133249Y0127194D01*
X0133127Y0127107D01*
X0133002Y0127024D01*
X0132875Y0126943D01*
X0132746Y0126867D01*
X0132614Y0126793D01*
X0132481Y0126723D01*
X0132346Y0126657D01*
X0132210Y0126594D01*
X0132072Y0126535D01*
X0131932Y0126480D01*
X0131791Y0126428D01*
X0131649Y0126380D01*
X0131505Y0126336D01*
X0131360Y0126295D01*
X0131214Y0126259D01*
X0131068Y0126226D01*
X0130920Y0126198D01*
X0130772Y0126173D01*
X0130623Y0126152D01*
X0130474Y0126135D01*
X0130324Y0126122D01*
X0130174Y0126113D01*
X0130024Y0126108D01*
X0129873Y0126107D01*
X0129723Y0126110D01*
X0129573Y0126117D01*
X0129423Y0126128D01*
X0129274Y0126143D01*
X0129125Y0126162D01*
X0128976Y0126185D01*
X0128828Y0126211D01*
X0128681Y0126242D01*
X0128535Y0126277D01*
X0128389Y0126315D01*
X0128245Y0126357D01*
X0128102Y0126403D01*
X0127960Y0126453D01*
X0127820Y0126507D01*
X0127681Y0126564D01*
X0127544Y0126625D01*
X0127408Y0126690D01*
X0127274Y0126758D01*
X0127142Y0126829D01*
X0127012Y0126905D01*
X0126884Y0126983D01*
X0126758Y0127065D01*
X0126634Y0127150D01*
X0126512Y0127239D01*
X0126393Y0127330D01*
X0126277Y0127425D01*
X0126163Y0127523D01*
X0126051Y0127624D01*
X0125942Y0127728D01*
X0125837Y0127834D01*
X0125733Y0127944D01*
X0125633Y0128056D01*
X0125536Y0128171D01*
X0125442Y0128288D01*
X0125351Y0128407D01*
X0125264Y0128530D01*
X0125179Y0128654D01*
X0125098Y0128780D01*
X0125020Y0128909D01*
X0124946Y0129040D01*
X0124875Y0129172D01*
X0124808Y0129307D01*
X0124744Y0129443D01*
X0124684Y0129581D01*
X0124628Y0129720D01*
X0124575Y0129861D01*
X0124526Y0130003D01*
X0124481Y0130146D01*
X0124440Y0130291D01*
X0124403Y0130436D01*
X0124369Y0130583D01*
X0124339Y0130730D01*
X0124314Y0130878D01*
X0124292Y0131027D01*
X0124274Y0131176D01*
X0124260Y0131326D01*
X0124250Y0131476D01*
X0124244Y0131626D01*
X0124242Y0131776D01*
D11*
X0037194Y0157366D03*
X0037194Y0167366D03*
X0037194Y0177366D03*
X0037194Y0187366D03*
D12*
X0054439Y0250673D03*
X0064439Y0260673D03*
X0044439Y0260673D03*
D13*
X0022982Y0257524D03*
X0022982Y0247524D03*
X0022982Y0237524D03*
X0022982Y0227524D03*
X0022982Y0217524D03*
X0022982Y0207524D03*
X0022982Y0192524D03*
X0022982Y0182524D03*
X0022982Y0172524D03*
X0022982Y0162524D03*
X0022982Y0152524D03*
X0022982Y0142524D03*
X0022982Y0132524D03*
X0022982Y0122524D03*
X0022982Y0112524D03*
X0022982Y0102524D03*
X0089293Y0170594D03*
X0090293Y0180594D03*
X0089293Y0190594D03*
X0090293Y0200594D03*
X0089293Y0210594D03*
X0144466Y0189042D03*
X0144466Y0179042D03*
X0144466Y0169042D03*
X0212982Y0167524D03*
X0212982Y0177524D03*
X0212982Y0187524D03*
X0212982Y0197524D03*
X0212982Y0207524D03*
X0212982Y0227524D03*
X0212982Y0237524D03*
X0212982Y0247524D03*
X0212982Y0257524D03*
X0212982Y0267524D03*
X0212982Y0277524D03*
X0212982Y0157524D03*
X0212982Y0147524D03*
X0212982Y0137524D03*
X0022982Y0267524D03*
X0022982Y0277524D03*
D14*
X0120273Y0073234D03*
X0140273Y0073234D03*
D15*
X0041131Y0073350D03*
X0021053Y0073350D03*
D16*
X0166391Y0088075D03*
X0166391Y0147130D03*
X0182391Y0190185D03*
X0182391Y0249240D03*
D17*
X0074446Y0207584D03*
X0074446Y0202784D03*
X0067754Y0202784D03*
X0067754Y0207584D03*
D18*
X0097700Y0219084D02*
X0104130Y0225514D01*
X0136210Y0225514D01*
X0143240Y0218484D01*
X0144970Y0218484D01*
X0157100Y0228734D02*
X0157100Y0236274D01*
X0207576Y0236274D01*
X0207570Y0222582D01*
X0202150Y0228002D01*
X0201418Y0228734D01*
X0157100Y0228734D01*
X0159400Y0228734D02*
X0159400Y0236274D01*
X0157100Y0231884D02*
X0207574Y0231884D01*
X0205600Y0236274D02*
X0205600Y0224552D01*
X0205968Y0224184D02*
X0207571Y0224184D01*
X0207567Y0214383D02*
X0207552Y0180974D01*
X0157413Y0180974D01*
X0157100Y0181287D01*
X0157100Y0196384D01*
X0157453Y0196384D01*
X0158503Y0197434D01*
X0190618Y0197434D01*
X0207567Y0214383D01*
X0205600Y0212416D02*
X0205600Y0180974D01*
X0207554Y0185684D02*
X0157100Y0185684D01*
X0159400Y0180974D02*
X0159400Y0197434D01*
X0157100Y0193384D02*
X0207557Y0193384D01*
X0207561Y0201084D02*
X0194268Y0201084D01*
X0190200Y0197434D02*
X0190200Y0180974D01*
X0197900Y0180974D02*
X0197900Y0204716D01*
X0201968Y0208784D02*
X0207564Y0208784D01*
X0197900Y0228734D02*
X0197900Y0236274D01*
X0197900Y0241764D02*
X0197900Y0289519D01*
X0190200Y0289519D02*
X0190200Y0241764D01*
X0190200Y0236274D02*
X0190200Y0228734D01*
X0182500Y0228734D02*
X0182500Y0236274D01*
X0182500Y0241764D02*
X0182500Y0246890D01*
X0183365Y0246890D02*
X0181418Y0246890D01*
X0180041Y0248267D01*
X0180041Y0250214D01*
X0181418Y0251590D01*
X0183365Y0251590D01*
X0184741Y0250214D01*
X0184741Y0248267D01*
X0183365Y0246890D01*
X0183759Y0247284D02*
X0207581Y0247284D01*
X0207581Y0246474D02*
X0207600Y0289519D01*
X0176510Y0289519D01*
X0157294Y0289481D01*
X0157100Y0287684D01*
X0157100Y0241932D01*
X0157268Y0241764D01*
X0202872Y0241764D01*
X0207581Y0246474D01*
X0205600Y0244493D02*
X0205600Y0289519D01*
X0207598Y0285784D02*
X0157100Y0285784D01*
X0159400Y0289485D02*
X0159400Y0241764D01*
X0156800Y0240464D02*
X0203410Y0240464D01*
X0210365Y0247419D01*
X0210469Y0247524D01*
X0207585Y0254984D02*
X0157100Y0254984D01*
X0157100Y0247284D02*
X0181024Y0247284D01*
X0182500Y0251590D02*
X0182500Y0289519D01*
X0174800Y0289516D02*
X0174800Y0241764D01*
X0174800Y0236274D02*
X0174800Y0228734D01*
X0167100Y0228734D02*
X0167100Y0236274D01*
X0167100Y0241764D02*
X0167100Y0289501D01*
X0157100Y0278084D02*
X0207595Y0278084D01*
X0207592Y0270384D02*
X0157100Y0270384D01*
X0157100Y0262684D02*
X0207588Y0262684D01*
X0182500Y0197434D02*
X0182500Y0192535D01*
X0183365Y0192535D02*
X0181418Y0192535D01*
X0180041Y0191158D01*
X0180041Y0189212D01*
X0181418Y0187835D01*
X0183365Y0187835D01*
X0184741Y0189212D01*
X0184741Y0191158D01*
X0183365Y0192535D01*
X0182500Y0187835D02*
X0182500Y0180974D01*
X0174800Y0180974D02*
X0174800Y0197434D01*
X0167100Y0197434D02*
X0167100Y0180974D01*
X0167100Y0156224D02*
X0167100Y0149480D01*
X0167365Y0149480D02*
X0165418Y0149480D01*
X0164041Y0148103D01*
X0164041Y0146157D01*
X0164468Y0145730D01*
X0157100Y0138363D01*
X0157100Y0156224D01*
X0207541Y0156224D01*
X0207500Y0063384D01*
X0157100Y0063284D01*
X0157100Y0095896D01*
X0164041Y0088954D01*
X0164041Y0087101D01*
X0165418Y0085725D01*
X0167365Y0085725D01*
X0168741Y0087101D01*
X0168741Y0089048D01*
X0167365Y0090425D01*
X0166248Y0090425D01*
X0157100Y0099573D01*
X0157100Y0134686D01*
X0167194Y0144780D01*
X0167365Y0144780D01*
X0168741Y0146157D01*
X0168741Y0148103D01*
X0167365Y0149480D01*
X0166391Y0147130D02*
X0166391Y0145816D01*
X0155290Y0134714D01*
X0139370Y0134714D01*
X0131200Y0142884D01*
X0125900Y0142884D01*
X0142700Y0162084D02*
X0147261Y0157524D01*
X0212982Y0157524D01*
X0207540Y0154884D02*
X0157100Y0154884D01*
X0159400Y0156224D02*
X0159400Y0140663D01*
X0158222Y0139484D02*
X0157100Y0139484D01*
X0159400Y0136986D02*
X0159400Y0097273D01*
X0157100Y0100984D02*
X0207517Y0100984D01*
X0207520Y0108684D02*
X0157100Y0108684D01*
X0154510Y0100324D02*
X0133680Y0100324D01*
X0133670Y0100314D01*
X0133340Y0099984D01*
X0154510Y0100324D02*
X0166391Y0088443D01*
X0166391Y0088075D01*
X0167100Y0090425D02*
X0167100Y0144686D01*
X0168741Y0147184D02*
X0207537Y0147184D01*
X0207534Y0139484D02*
X0161898Y0139484D01*
X0164041Y0147184D02*
X0157100Y0147184D01*
X0157100Y0131784D02*
X0207530Y0131784D01*
X0207527Y0124084D02*
X0157100Y0124084D01*
X0157100Y0116384D02*
X0207523Y0116384D01*
X0207513Y0093284D02*
X0163388Y0093284D01*
X0159712Y0093284D02*
X0157100Y0093284D01*
X0159400Y0093596D02*
X0159400Y0063289D01*
X0157100Y0070184D02*
X0207503Y0070184D01*
X0207506Y0077884D02*
X0157100Y0077884D01*
X0157100Y0085584D02*
X0207510Y0085584D01*
X0205600Y0063380D02*
X0205600Y0156224D01*
X0197900Y0156224D02*
X0197900Y0063365D01*
X0190200Y0063350D02*
X0190200Y0156224D01*
X0182500Y0156224D02*
X0182500Y0063335D01*
X0174800Y0063319D02*
X0174800Y0156224D01*
X0167100Y0085725D02*
X0167100Y0063304D01*
D19*
X0157000Y0063083D02*
X0117570Y0063083D01*
X0117570Y0063681D02*
X0157000Y0063681D01*
X0157000Y0064280D02*
X0117570Y0064280D01*
X0117570Y0064878D02*
X0157000Y0064878D01*
X0157000Y0065477D02*
X0149666Y0065477D01*
X0149535Y0065347D02*
X0150318Y0066129D01*
X0150741Y0067151D01*
X0150741Y0068257D01*
X0150318Y0069280D01*
X0149610Y0069987D01*
X0149610Y0093869D01*
X0150300Y0094559D01*
X0150724Y0095581D01*
X0150724Y0096687D01*
X0150300Y0097710D01*
X0149518Y0098492D01*
X0148496Y0098915D01*
X0147389Y0098915D01*
X0146367Y0098492D01*
X0145585Y0097710D01*
X0145161Y0096687D01*
X0145161Y0095581D01*
X0145585Y0094559D01*
X0146310Y0093834D01*
X0146310Y0069987D01*
X0145602Y0069280D01*
X0145179Y0068257D01*
X0145179Y0067151D01*
X0145602Y0066129D01*
X0146385Y0065347D01*
X0147407Y0064923D01*
X0148513Y0064923D01*
X0149535Y0065347D01*
X0150264Y0066075D02*
X0157000Y0066075D01*
X0157000Y0066674D02*
X0150543Y0066674D01*
X0150741Y0067272D02*
X0157000Y0067272D01*
X0157000Y0067871D02*
X0150741Y0067871D01*
X0150653Y0068469D02*
X0157000Y0068469D01*
X0157000Y0069068D02*
X0150405Y0069068D01*
X0149931Y0069666D02*
X0157000Y0069666D01*
X0157000Y0070265D02*
X0149610Y0070265D01*
X0149610Y0070863D02*
X0157000Y0070863D01*
X0157000Y0071462D02*
X0149610Y0071462D01*
X0149610Y0072060D02*
X0157000Y0072060D01*
X0157000Y0072659D02*
X0149610Y0072659D01*
X0149610Y0073257D02*
X0157000Y0073257D01*
X0157000Y0073856D02*
X0149610Y0073856D01*
X0149610Y0074454D02*
X0157000Y0074454D01*
X0156500Y0074484D02*
X0155900Y0074484D01*
X0155900Y0073884D02*
X0157100Y0073884D01*
X0157100Y0095484D01*
X0156500Y0095484D01*
X0156500Y0074484D01*
X0157000Y0075053D02*
X0149610Y0075053D01*
X0149610Y0075652D02*
X0157000Y0075652D01*
X0157000Y0076250D02*
X0149610Y0076250D01*
X0149610Y0076849D02*
X0157000Y0076849D01*
X0157000Y0077447D02*
X0149610Y0077447D01*
X0149610Y0078046D02*
X0157000Y0078046D01*
X0157000Y0078644D02*
X0149610Y0078644D01*
X0149610Y0079243D02*
X0157000Y0079243D01*
X0157000Y0079841D02*
X0149610Y0079841D01*
X0149610Y0080440D02*
X0157000Y0080440D01*
X0157000Y0081038D02*
X0149610Y0081038D01*
X0149610Y0081637D02*
X0157000Y0081637D01*
X0157000Y0082235D02*
X0149610Y0082235D01*
X0149610Y0082834D02*
X0157000Y0082834D01*
X0157000Y0083432D02*
X0149610Y0083432D01*
X0149610Y0084031D02*
X0157000Y0084031D01*
X0157000Y0084629D02*
X0149610Y0084629D01*
X0149610Y0085228D02*
X0157000Y0085228D01*
X0157000Y0085826D02*
X0149610Y0085826D01*
X0149610Y0086425D02*
X0157000Y0086425D01*
X0157000Y0087023D02*
X0149610Y0087023D01*
X0149610Y0087622D02*
X0157000Y0087622D01*
X0157000Y0088220D02*
X0149610Y0088220D01*
X0149610Y0088819D02*
X0157000Y0088819D01*
X0157000Y0089417D02*
X0149610Y0089417D01*
X0149610Y0090016D02*
X0157000Y0090016D01*
X0157000Y0090614D02*
X0149610Y0090614D01*
X0149610Y0091213D02*
X0157000Y0091213D01*
X0157000Y0091811D02*
X0149610Y0091811D01*
X0149610Y0092410D02*
X0157000Y0092410D01*
X0157000Y0093008D02*
X0149610Y0093008D01*
X0149610Y0093607D02*
X0157000Y0093607D01*
X0157000Y0094205D02*
X0149947Y0094205D01*
X0150402Y0094804D02*
X0157000Y0094804D01*
X0157000Y0095402D02*
X0150650Y0095402D01*
X0150724Y0096001D02*
X0157000Y0096001D01*
X0157000Y0096066D02*
X0157000Y0061699D01*
X0117570Y0061699D01*
X0117570Y0068031D01*
X0116867Y0068734D01*
X0114130Y0071471D01*
X0114130Y0072956D01*
X0112812Y0074274D01*
X0110948Y0074274D01*
X0109630Y0072956D01*
X0109630Y0071092D01*
X0110948Y0069774D01*
X0112433Y0069774D01*
X0115170Y0067037D01*
X0115170Y0061699D01*
X0113240Y0061699D01*
X0112793Y0061884D01*
X0099022Y0061884D01*
X0099190Y0062052D01*
X0099190Y0063916D01*
X0097872Y0065234D01*
X0096047Y0065234D01*
X0095300Y0065981D01*
X0094597Y0066684D01*
X0079803Y0066684D01*
X0077403Y0064284D01*
X0074797Y0064284D01*
X0073447Y0065634D01*
X0074032Y0065634D01*
X0075350Y0066952D01*
X0075350Y0068816D01*
X0074300Y0069866D01*
X0074300Y0072787D01*
X0077450Y0075937D01*
X0077450Y0075352D01*
X0078768Y0074034D01*
X0079953Y0074034D01*
X0078453Y0072534D01*
X0076968Y0072534D01*
X0075650Y0071216D01*
X0075650Y0069352D01*
X0076968Y0068034D01*
X0078832Y0068034D01*
X0080150Y0069352D01*
X0080150Y0070837D01*
X0101947Y0092634D01*
X0103432Y0092634D01*
X0104750Y0093952D01*
X0104750Y0094434D01*
X0106432Y0094434D01*
X0107142Y0095145D01*
X0115100Y0087187D01*
X0115803Y0086484D01*
X0124597Y0086484D01*
X0130597Y0092484D01*
X0131300Y0093187D01*
X0131300Y0098302D01*
X0131900Y0098902D01*
X0132768Y0098034D01*
X0134632Y0098034D01*
X0135672Y0099074D01*
X0153992Y0099074D01*
X0157000Y0096066D01*
X0156467Y0096599D02*
X0150724Y0096599D01*
X0150512Y0097198D02*
X0155869Y0097198D01*
X0155270Y0097796D02*
X0150213Y0097796D01*
X0149615Y0098395D02*
X0154672Y0098395D01*
X0154073Y0098993D02*
X0135591Y0098993D01*
X0134993Y0098395D02*
X0146270Y0098395D01*
X0145672Y0097796D02*
X0131300Y0097796D01*
X0131300Y0097198D02*
X0145373Y0097198D01*
X0145161Y0096599D02*
X0131300Y0096599D01*
X0131300Y0096001D02*
X0145161Y0096001D01*
X0145235Y0095402D02*
X0131300Y0095402D01*
X0131300Y0094804D02*
X0145483Y0094804D01*
X0145938Y0094205D02*
X0131300Y0094205D01*
X0131300Y0093607D02*
X0146310Y0093607D01*
X0146310Y0093008D02*
X0131121Y0093008D01*
X0130523Y0092410D02*
X0146310Y0092410D01*
X0146310Y0091811D02*
X0129924Y0091811D01*
X0129326Y0091213D02*
X0146310Y0091213D01*
X0146310Y0090614D02*
X0128727Y0090614D01*
X0128129Y0090016D02*
X0146310Y0090016D01*
X0146310Y0089417D02*
X0127530Y0089417D01*
X0126932Y0088819D02*
X0146310Y0088819D01*
X0146310Y0088220D02*
X0126333Y0088220D01*
X0125735Y0087622D02*
X0146310Y0087622D01*
X0146310Y0087023D02*
X0125136Y0087023D01*
X0124100Y0087684D02*
X0130100Y0093684D01*
X0130100Y0100284D01*
X0131393Y0098395D02*
X0132407Y0098395D01*
X0133700Y0100284D02*
X0133670Y0100314D01*
X0135532Y0101634D02*
X0137032Y0101634D01*
X0138350Y0102952D01*
X0138350Y0104816D01*
X0137032Y0106134D01*
X0135168Y0106134D01*
X0134118Y0105084D01*
X0131403Y0105084D01*
X0130700Y0104381D01*
X0130203Y0103884D01*
X0123682Y0103884D01*
X0122632Y0104934D01*
X0120768Y0104934D01*
X0119450Y0103616D01*
X0119450Y0101752D01*
X0120468Y0100734D01*
X0118968Y0100734D01*
X0117650Y0099416D01*
X0117650Y0097552D01*
X0118968Y0096234D01*
X0120453Y0096234D01*
X0122450Y0094237D01*
X0122450Y0093534D01*
X0121147Y0093534D01*
X0111500Y0103181D01*
X0110797Y0103884D01*
X0095403Y0103884D01*
X0092253Y0100734D01*
X0090768Y0100734D01*
X0089450Y0099416D01*
X0089450Y0097552D01*
X0090768Y0096234D01*
X0091850Y0096234D01*
X0091850Y0095152D01*
X0093168Y0093834D01*
X0095032Y0093834D01*
X0096350Y0095152D01*
X0096350Y0096637D01*
X0097147Y0097434D01*
X0097850Y0097434D01*
X0097850Y0096352D01*
X0097960Y0096242D01*
X0085100Y0083381D01*
X0085100Y0092981D01*
X0084397Y0093684D01*
X0077900Y0100181D01*
X0077900Y0107587D01*
X0078547Y0108234D01*
X0079068Y0108234D01*
X0078050Y0107216D01*
X0078050Y0105352D01*
X0079368Y0104034D01*
X0080853Y0104034D01*
X0081650Y0103237D01*
X0081650Y0101752D01*
X0082968Y0100434D01*
X0084832Y0100434D01*
X0086150Y0101752D01*
X0086150Y0103616D01*
X0084832Y0104934D01*
X0083347Y0104934D01*
X0082550Y0105731D01*
X0082550Y0107216D01*
X0081232Y0108534D01*
X0080332Y0108534D01*
X0081350Y0109552D01*
X0081350Y0111416D01*
X0080032Y0112734D01*
X0078168Y0112734D01*
X0076850Y0111416D01*
X0076850Y0109931D01*
X0076203Y0109284D01*
X0075500Y0108581D01*
X0075500Y0099187D01*
X0082700Y0091987D01*
X0082700Y0083981D01*
X0078603Y0079884D01*
X0078003Y0079884D01*
X0072603Y0074484D01*
X0071900Y0073781D01*
X0071900Y0069866D01*
X0070850Y0068816D01*
X0070850Y0068231D01*
X0070700Y0068381D01*
X0070700Y0080302D01*
X0071600Y0081202D01*
X0072168Y0080634D01*
X0074032Y0080634D01*
X0075082Y0081684D01*
X0075918Y0081684D01*
X0076968Y0080634D01*
X0078832Y0080634D01*
X0080150Y0081952D01*
X0080150Y0083816D01*
X0079732Y0084234D01*
X0081232Y0084234D01*
X0082550Y0085552D01*
X0082550Y0087416D01*
X0081232Y0088734D01*
X0079747Y0088734D01*
X0068300Y0100181D01*
X0067597Y0100884D01*
X0062797Y0100884D01*
X0050300Y0113381D01*
X0050300Y0127387D01*
X0051500Y0128587D01*
X0051500Y0159187D01*
X0061147Y0168834D01*
X0062632Y0168834D01*
X0063950Y0170152D01*
X0063950Y0172016D01*
X0062632Y0173334D01*
X0060950Y0173334D01*
X0060950Y0174416D01*
X0059632Y0175734D01*
X0057768Y0175734D01*
X0056450Y0174416D01*
X0056450Y0172931D01*
X0041900Y0158381D01*
X0041900Y0152066D01*
X0040850Y0151016D01*
X0040850Y0149152D01*
X0042168Y0147834D01*
X0044032Y0147834D01*
X0045350Y0149152D01*
X0045350Y0151016D01*
X0044300Y0152066D01*
X0044300Y0157387D01*
X0058147Y0171234D01*
X0059450Y0171234D01*
X0059450Y0170531D01*
X0049803Y0160884D01*
X0049100Y0160181D01*
X0049100Y0129581D01*
X0047900Y0128381D01*
X0047900Y0112387D01*
X0048603Y0111684D01*
X0061803Y0098484D01*
X0066603Y0098484D01*
X0078050Y0087037D01*
X0078050Y0085552D01*
X0078468Y0085134D01*
X0076968Y0085134D01*
X0075918Y0084084D01*
X0075082Y0084084D01*
X0074032Y0085134D01*
X0072168Y0085134D01*
X0071000Y0083966D01*
X0070432Y0084534D01*
X0068568Y0084534D01*
X0067250Y0083216D01*
X0067250Y0081352D01*
X0068300Y0080302D01*
X0068300Y0067387D01*
X0069003Y0066684D01*
X0073100Y0062587D01*
X0073803Y0061884D01*
X0078397Y0061884D01*
X0080797Y0064284D01*
X0093603Y0064284D01*
X0094690Y0063197D01*
X0094690Y0062052D01*
X0094858Y0061884D01*
X0016100Y0061884D01*
X0016100Y0089034D01*
X0016432Y0089034D01*
X0017750Y0090352D01*
X0017750Y0092216D01*
X0016432Y0093534D01*
X0016100Y0093534D01*
X0016100Y0097987D01*
X0018774Y0100661D01*
X0019082Y0099918D01*
X0020376Y0098624D01*
X0022067Y0097924D01*
X0023897Y0097924D01*
X0025588Y0098624D01*
X0026882Y0099918D01*
X0027582Y0101609D01*
X0027582Y0103439D01*
X0026882Y0105129D01*
X0025588Y0106423D01*
X0023897Y0107124D01*
X0022067Y0107124D01*
X0020376Y0106423D01*
X0019082Y0105129D01*
X0018382Y0103439D01*
X0018382Y0103284D01*
X0018003Y0103284D01*
X0016100Y0101381D01*
X0016100Y0111684D01*
X0018382Y0111684D01*
X0018382Y0111609D01*
X0019082Y0109918D01*
X0020376Y0108624D01*
X0022067Y0107924D01*
X0023897Y0107924D01*
X0025588Y0108624D01*
X0026882Y0109918D01*
X0027582Y0111609D01*
X0027582Y0113439D01*
X0026882Y0115129D01*
X0025588Y0116423D01*
X0023897Y0117124D01*
X0022067Y0117124D01*
X0020376Y0116423D01*
X0019082Y0115129D01*
X0018649Y0114084D01*
X0016100Y0114084D01*
X0016100Y0193387D01*
X0020197Y0197484D01*
X0024603Y0197484D01*
X0033973Y0188114D01*
X0033932Y0188015D01*
X0033932Y0186717D01*
X0034429Y0185518D01*
X0035347Y0184601D01*
X0036546Y0184104D01*
X0037843Y0184104D01*
X0039042Y0184601D01*
X0039960Y0185518D01*
X0040457Y0186717D01*
X0040457Y0188015D01*
X0039960Y0189214D01*
X0039042Y0190132D01*
X0037843Y0190628D01*
X0036546Y0190628D01*
X0035349Y0190133D01*
X0025597Y0199884D01*
X0019203Y0199884D01*
X0018500Y0199181D01*
X0016100Y0196781D01*
X0016100Y0260634D01*
X0016432Y0260634D01*
X0017750Y0261952D01*
X0017750Y0263437D01*
X0017797Y0263484D01*
X0018500Y0264187D01*
X0018500Y0264787D01*
X0018950Y0265237D01*
X0019082Y0264918D01*
X0020376Y0263624D01*
X0022067Y0262924D01*
X0023897Y0262924D01*
X0025588Y0263624D01*
X0026882Y0264918D01*
X0027582Y0266609D01*
X0027582Y0268439D01*
X0026882Y0270129D01*
X0025588Y0271423D01*
X0023897Y0272124D01*
X0022067Y0272124D01*
X0020376Y0271423D01*
X0019082Y0270129D01*
X0018382Y0268439D01*
X0018382Y0268063D01*
X0017900Y0267581D01*
X0016100Y0265781D01*
X0016100Y0265181D01*
X0016100Y0287484D01*
X0157000Y0287484D01*
X0157000Y0241961D01*
X0142077Y0256884D01*
X0066603Y0256884D01*
X0065403Y0255684D01*
X0058203Y0255684D01*
X0056785Y0254266D01*
X0056178Y0254873D01*
X0052699Y0254873D01*
X0050239Y0252413D01*
X0050239Y0248934D01*
X0052699Y0246473D01*
X0056178Y0246473D01*
X0058639Y0248934D01*
X0058639Y0252413D01*
X0058482Y0252569D01*
X0059197Y0253284D01*
X0066397Y0253284D01*
X0067100Y0253987D01*
X0067597Y0254484D01*
X0123918Y0254484D01*
X0123650Y0254216D01*
X0123650Y0252352D01*
X0124968Y0251034D01*
X0126453Y0251034D01*
X0129650Y0247837D01*
X0129650Y0246352D01*
X0130968Y0245034D01*
X0132832Y0245034D01*
X0134150Y0246352D01*
X0134150Y0248216D01*
X0132832Y0249534D01*
X0131347Y0249534D01*
X0128150Y0252731D01*
X0128150Y0254216D01*
X0127882Y0254484D01*
X0132918Y0254484D01*
X0132650Y0254216D01*
X0132650Y0252352D01*
X0133968Y0251034D01*
X0135453Y0251034D01*
X0138650Y0247837D01*
X0138650Y0246352D01*
X0139968Y0245034D01*
X0141832Y0245034D01*
X0143150Y0246352D01*
X0143150Y0248216D01*
X0141832Y0249534D01*
X0140347Y0249534D01*
X0137150Y0252731D01*
X0137150Y0254216D01*
X0136882Y0254484D01*
X0141083Y0254484D01*
X0155550Y0240017D01*
X0155550Y0239946D01*
X0156282Y0239214D01*
X0157000Y0239214D01*
X0157000Y0238724D01*
X0153442Y0238724D01*
X0152739Y0238021D01*
X0152739Y0238021D01*
X0150603Y0235884D01*
X0076203Y0235884D01*
X0075500Y0235181D01*
X0070653Y0230334D01*
X0070368Y0230334D01*
X0069050Y0229016D01*
X0069050Y0228731D01*
X0068900Y0228581D01*
X0068900Y0227587D01*
X0069050Y0227437D01*
X0069050Y0227152D01*
X0069318Y0226884D01*
X0049597Y0226884D01*
X0031700Y0244781D01*
X0030997Y0245484D01*
X0028597Y0245484D01*
X0027550Y0246531D01*
X0027582Y0246609D01*
X0027582Y0248439D01*
X0026882Y0250129D01*
X0025588Y0251423D01*
X0023897Y0252124D01*
X0022067Y0252124D01*
X0020376Y0251423D01*
X0019082Y0250129D01*
X0018382Y0248439D01*
X0018382Y0246609D01*
X0019082Y0244918D01*
X0020376Y0243624D01*
X0022067Y0242924D01*
X0023897Y0242924D01*
X0025588Y0243624D01*
X0026325Y0244362D01*
X0027603Y0243084D01*
X0030003Y0243084D01*
X0048603Y0224484D01*
X0087003Y0224484D01*
X0126650Y0184837D01*
X0126650Y0184415D01*
X0098012Y0213053D01*
X0096947Y0213494D01*
X0092898Y0213494D01*
X0091899Y0214494D01*
X0090208Y0215194D01*
X0088378Y0215194D01*
X0086687Y0214494D01*
X0085393Y0213200D01*
X0084693Y0211509D01*
X0084693Y0209679D01*
X0084774Y0209484D01*
X0077512Y0209484D01*
X0077512Y0209926D01*
X0076985Y0210453D01*
X0071908Y0210453D01*
X0071381Y0209926D01*
X0071381Y0205243D01*
X0071440Y0205184D01*
X0071381Y0205126D01*
X0071381Y0200443D01*
X0071908Y0199916D01*
X0076985Y0199916D01*
X0077512Y0200443D01*
X0077512Y0205126D01*
X0077453Y0205184D01*
X0077512Y0205243D01*
X0077512Y0205684D01*
X0087070Y0205684D01*
X0087672Y0206287D01*
X0088378Y0205994D01*
X0090208Y0205994D01*
X0091899Y0206695D01*
X0092898Y0207694D01*
X0095169Y0207694D01*
X0123255Y0179608D01*
X0106872Y0163224D01*
X0067526Y0163224D01*
X0066536Y0163634D01*
X0060834Y0163634D01*
X0059584Y0163117D01*
X0058628Y0162160D01*
X0058110Y0160911D01*
X0058110Y0159558D01*
X0058628Y0158308D01*
X0059584Y0157352D01*
X0060834Y0156834D01*
X0063080Y0156834D01*
X0063080Y0119881D01*
X0063030Y0119761D01*
X0063030Y0118408D01*
X0063380Y0117563D01*
X0063380Y0107186D01*
X0062632Y0107934D01*
X0060768Y0107934D01*
X0059450Y0106616D01*
X0059450Y0104752D01*
X0060768Y0103434D01*
X0062253Y0103434D01*
X0064803Y0100884D01*
X0068797Y0100884D01*
X0069500Y0101587D01*
X0073700Y0105787D01*
X0073700Y0109702D01*
X0074150Y0110152D01*
X0074150Y0112016D01*
X0072832Y0113334D01*
X0070968Y0113334D01*
X0070180Y0112546D01*
X0070180Y0116146D01*
X0070316Y0116202D01*
X0071272Y0117158D01*
X0071790Y0118408D01*
X0071790Y0120614D01*
X0080350Y0120614D01*
X0080350Y0120162D01*
X0081668Y0118844D01*
X0083532Y0118844D01*
X0084850Y0120162D01*
X0084850Y0120614D01*
X0089726Y0120614D01*
X0090976Y0121132D01*
X0091932Y0122088D01*
X0092450Y0123338D01*
X0092450Y0124691D01*
X0091932Y0125940D01*
X0090976Y0126897D01*
X0089726Y0127414D01*
X0069880Y0127414D01*
X0069880Y0156424D01*
X0085258Y0156424D01*
X0084650Y0155816D01*
X0084650Y0153952D01*
X0085968Y0152634D01*
X0087453Y0152634D01*
X0095300Y0144787D01*
X0095300Y0126787D01*
X0096003Y0126084D01*
X0100360Y0121727D01*
X0099650Y0121016D01*
X0099650Y0119152D01*
X0100968Y0117834D01*
X0102832Y0117834D01*
X0104150Y0119152D01*
X0104150Y0119737D01*
X0105050Y0118837D01*
X0105050Y0117352D01*
X0106368Y0116034D01*
X0108232Y0116034D01*
X0109550Y0117352D01*
X0109550Y0119216D01*
X0108232Y0120534D01*
X0106747Y0120534D01*
X0105247Y0122034D01*
X0107032Y0122034D01*
X0108350Y0123352D01*
X0108350Y0125216D01*
X0107300Y0126266D01*
X0107300Y0146587D01*
X0110947Y0150234D01*
X0112432Y0150234D01*
X0113750Y0151552D01*
X0113750Y0153234D01*
X0113900Y0153234D01*
X0113900Y0151181D01*
X0110300Y0147581D01*
X0110300Y0124466D01*
X0109250Y0123416D01*
X0109250Y0121552D01*
X0110568Y0120234D01*
X0112432Y0120234D01*
X0112842Y0120645D01*
X0117003Y0116484D01*
X0123997Y0116484D01*
X0124700Y0117187D01*
X0126500Y0118987D01*
X0126500Y0123581D01*
X0125797Y0124284D01*
X0123190Y0126891D01*
X0123190Y0128483D01*
X0123579Y0127545D01*
X0125680Y0125443D01*
X0128425Y0124306D01*
X0131397Y0124306D01*
X0134142Y0125443D01*
X0136243Y0127545D01*
X0137380Y0130290D01*
X0137380Y0133261D01*
X0136243Y0136007D01*
X0134142Y0138108D01*
X0131397Y0139245D01*
X0128425Y0139245D01*
X0125680Y0138108D01*
X0123579Y0136007D01*
X0123190Y0135068D01*
X0123190Y0148677D01*
X0135397Y0160884D01*
X0142132Y0160884D01*
X0146743Y0156274D01*
X0157000Y0156274D01*
X0157000Y0138192D01*
X0154772Y0135964D01*
X0139888Y0135964D01*
X0132450Y0143402D01*
X0131718Y0144134D01*
X0127832Y0144134D01*
X0126832Y0145134D01*
X0124968Y0145134D01*
X0123650Y0143816D01*
X0123650Y0141952D01*
X0124968Y0140634D01*
X0126832Y0140634D01*
X0127832Y0141634D01*
X0130682Y0141634D01*
X0138852Y0133464D01*
X0149298Y0133464D01*
X0148850Y0133016D01*
X0148850Y0131531D01*
X0130803Y0113484D01*
X0109882Y0113484D01*
X0108832Y0114534D01*
X0106968Y0114534D01*
X0105650Y0113216D01*
X0105650Y0111352D01*
X0106968Y0110034D01*
X0108832Y0110034D01*
X0109882Y0111084D01*
X0131797Y0111084D01*
X0132500Y0111787D01*
X0150547Y0129834D01*
X0152032Y0129834D01*
X0153350Y0131152D01*
X0153350Y0133016D01*
X0152902Y0133464D01*
X0155808Y0133464D01*
X0156540Y0134196D01*
X0157000Y0134656D01*
X0157000Y0099602D01*
X0155760Y0100842D01*
X0155028Y0101574D01*
X0135592Y0101574D01*
X0135532Y0101634D01*
X0137384Y0101986D02*
X0157000Y0101986D01*
X0157000Y0102585D02*
X0137982Y0102585D01*
X0138350Y0103183D02*
X0157000Y0103183D01*
X0157000Y0103782D02*
X0138350Y0103782D01*
X0138350Y0104380D02*
X0157000Y0104380D01*
X0157000Y0104979D02*
X0138188Y0104979D01*
X0137589Y0105577D02*
X0157000Y0105577D01*
X0157000Y0106176D02*
X0082550Y0106176D01*
X0082550Y0106774D02*
X0157000Y0106774D01*
X0157000Y0107373D02*
X0082394Y0107373D01*
X0081795Y0107971D02*
X0157000Y0107971D01*
X0157000Y0108570D02*
X0080367Y0108570D01*
X0080966Y0109168D02*
X0157000Y0109168D01*
X0157000Y0109767D02*
X0081350Y0109767D01*
X0081350Y0110365D02*
X0106637Y0110365D01*
X0106039Y0110964D02*
X0081350Y0110964D01*
X0081204Y0111562D02*
X0105650Y0111562D01*
X0105650Y0112161D02*
X0080606Y0112161D01*
X0079100Y0110484D02*
X0076700Y0108084D01*
X0076700Y0099684D01*
X0083900Y0092484D01*
X0083900Y0083484D01*
X0079100Y0078684D01*
X0078500Y0078684D01*
X0073100Y0073284D01*
X0073100Y0067884D01*
X0075350Y0067871D02*
X0114336Y0067871D01*
X0113738Y0068469D02*
X0079267Y0068469D01*
X0079866Y0069068D02*
X0113139Y0069068D01*
X0112541Y0069666D02*
X0080150Y0069666D01*
X0080150Y0070265D02*
X0110457Y0070265D01*
X0109859Y0070863D02*
X0080176Y0070863D01*
X0080775Y0071462D02*
X0109630Y0071462D01*
X0109630Y0072060D02*
X0081373Y0072060D01*
X0081972Y0072659D02*
X0109630Y0072659D01*
X0109931Y0073257D02*
X0082570Y0073257D01*
X0083169Y0073856D02*
X0110530Y0073856D01*
X0112234Y0075053D02*
X0084366Y0075053D01*
X0084964Y0075652D02*
X0111636Y0075652D01*
X0111037Y0076250D02*
X0085563Y0076250D01*
X0086161Y0076849D02*
X0110439Y0076849D01*
X0109840Y0077447D02*
X0086760Y0077447D01*
X0087358Y0078046D02*
X0109242Y0078046D01*
X0108643Y0078644D02*
X0087957Y0078644D01*
X0088555Y0079243D02*
X0108045Y0079243D01*
X0107446Y0079841D02*
X0089154Y0079841D01*
X0089752Y0080440D02*
X0106848Y0080440D01*
X0106249Y0081038D02*
X0090351Y0081038D01*
X0090949Y0081637D02*
X0105651Y0081637D01*
X0105052Y0082235D02*
X0091548Y0082235D01*
X0092146Y0082834D02*
X0104454Y0082834D01*
X0103855Y0083432D02*
X0103230Y0083432D01*
X0103542Y0083745D02*
X0114500Y0072787D01*
X0114500Y0071587D01*
X0118250Y0067837D01*
X0118250Y0066352D01*
X0119568Y0065034D01*
X0121432Y0065034D01*
X0122750Y0066352D01*
X0122750Y0068216D01*
X0121432Y0069534D01*
X0119947Y0069534D01*
X0119547Y0069934D01*
X0121640Y0069934D01*
X0123573Y0071867D01*
X0123573Y0074601D01*
X0121640Y0076534D01*
X0118906Y0076534D01*
X0116973Y0074601D01*
X0116973Y0072508D01*
X0116900Y0072581D01*
X0116900Y0073781D01*
X0116197Y0074484D01*
X0104197Y0086484D01*
X0103882Y0086484D01*
X0102832Y0087534D01*
X0100968Y0087534D01*
X0099650Y0086216D01*
X0099650Y0084352D01*
X0100968Y0083034D01*
X0102832Y0083034D01*
X0103542Y0083745D01*
X0103700Y0085284D02*
X0101900Y0085284D01*
X0103700Y0085284D02*
X0115700Y0073284D01*
X0115700Y0072084D01*
X0120500Y0067284D01*
X0122750Y0067272D02*
X0145179Y0067272D01*
X0145179Y0067871D02*
X0122750Y0067871D01*
X0122497Y0068469D02*
X0145267Y0068469D01*
X0145515Y0069068D02*
X0121898Y0069068D01*
X0121970Y0070265D02*
X0138010Y0070265D01*
X0138608Y0069666D02*
X0119815Y0069666D01*
X0118216Y0067871D02*
X0117570Y0067871D01*
X0117570Y0067272D02*
X0118250Y0067272D01*
X0118250Y0066674D02*
X0117570Y0066674D01*
X0117570Y0066075D02*
X0118527Y0066075D01*
X0119125Y0065477D02*
X0117570Y0065477D01*
X0116370Y0067534D02*
X0116370Y0055484D01*
X0115170Y0061886D02*
X0099023Y0061886D01*
X0099190Y0062484D02*
X0115170Y0062484D01*
X0115170Y0063083D02*
X0099190Y0063083D01*
X0099190Y0063681D02*
X0115170Y0063681D01*
X0115170Y0064280D02*
X0098826Y0064280D01*
X0098228Y0064878D02*
X0115170Y0064878D01*
X0115170Y0065477D02*
X0095804Y0065477D01*
X0095206Y0066075D02*
X0115170Y0066075D01*
X0115170Y0066674D02*
X0094607Y0066674D01*
X0094100Y0065484D02*
X0080300Y0065484D01*
X0077900Y0063084D01*
X0074300Y0063084D01*
X0069500Y0067884D01*
X0069500Y0082284D01*
X0067250Y0082235D02*
X0016100Y0082235D01*
X0016100Y0081637D02*
X0067250Y0081637D01*
X0067564Y0081038D02*
X0016100Y0081038D01*
X0016100Y0080440D02*
X0068163Y0080440D01*
X0068300Y0079841D02*
X0016100Y0079841D01*
X0016100Y0079243D02*
X0068300Y0079243D01*
X0068300Y0078644D02*
X0016100Y0078644D01*
X0016100Y0078046D02*
X0068300Y0078046D01*
X0068300Y0077447D02*
X0016100Y0077447D01*
X0016100Y0076849D02*
X0068300Y0076849D01*
X0068300Y0076250D02*
X0016100Y0076250D01*
X0016100Y0075652D02*
X0019302Y0075652D01*
X0019213Y0075592D02*
X0018811Y0075190D01*
X0018495Y0074717D01*
X0018278Y0074192D01*
X0018167Y0073635D01*
X0018167Y0073493D01*
X0020910Y0073493D01*
X0020910Y0073207D01*
X0021196Y0073207D01*
X0021196Y0070465D01*
X0021337Y0070465D01*
X0021895Y0070575D01*
X0022420Y0070793D01*
X0022892Y0071109D01*
X0023294Y0071511D01*
X0023610Y0071983D01*
X0023828Y0072509D01*
X0023939Y0073066D01*
X0023939Y0073207D01*
X0021196Y0073207D01*
X0021196Y0073493D01*
X0023939Y0073493D01*
X0023939Y0073635D01*
X0023828Y0074192D01*
X0023610Y0074717D01*
X0023294Y0075190D01*
X0022892Y0075592D01*
X0022420Y0075908D01*
X0021895Y0076125D01*
X0021337Y0076236D01*
X0021196Y0076236D01*
X0021196Y0073493D01*
X0020910Y0073493D01*
X0020910Y0076236D01*
X0020769Y0076236D01*
X0020211Y0076125D01*
X0019686Y0075908D01*
X0019213Y0075592D01*
X0018720Y0075053D02*
X0016100Y0075053D01*
X0016100Y0074454D02*
X0018387Y0074454D01*
X0018211Y0073856D02*
X0016100Y0073856D01*
X0016100Y0073257D02*
X0020910Y0073257D01*
X0020910Y0073207D02*
X0018167Y0073207D01*
X0018167Y0073066D01*
X0018278Y0072509D01*
X0018495Y0071983D01*
X0018811Y0071511D01*
X0019213Y0071109D01*
X0019686Y0070793D01*
X0020211Y0070575D01*
X0020769Y0070465D01*
X0020910Y0070465D01*
X0020910Y0073207D01*
X0021196Y0073257D02*
X0038646Y0073257D01*
X0038646Y0072856D02*
X0038646Y0073845D01*
X0039024Y0074758D01*
X0039723Y0075458D01*
X0040637Y0075836D01*
X0041626Y0075836D01*
X0042540Y0075458D01*
X0043239Y0074758D01*
X0043617Y0073845D01*
X0043617Y0072856D01*
X0043239Y0071942D01*
X0042540Y0071243D01*
X0041626Y0070865D01*
X0040637Y0070865D01*
X0039723Y0071243D01*
X0039024Y0071942D01*
X0038646Y0072856D01*
X0038727Y0072659D02*
X0023858Y0072659D01*
X0023642Y0072060D02*
X0038975Y0072060D01*
X0039504Y0071462D02*
X0023245Y0071462D01*
X0022525Y0070863D02*
X0068300Y0070863D01*
X0068300Y0070265D02*
X0016100Y0070265D01*
X0016100Y0070863D02*
X0019580Y0070863D01*
X0018860Y0071462D02*
X0016100Y0071462D01*
X0016100Y0072060D02*
X0018463Y0072060D01*
X0018248Y0072659D02*
X0016100Y0072659D01*
X0016100Y0069666D02*
X0068300Y0069666D01*
X0068300Y0069068D02*
X0016100Y0069068D01*
X0016100Y0068469D02*
X0068300Y0068469D01*
X0068300Y0067871D02*
X0016100Y0067871D01*
X0016100Y0067272D02*
X0068415Y0067272D01*
X0069013Y0066674D02*
X0016100Y0066674D01*
X0016100Y0066075D02*
X0069612Y0066075D01*
X0070210Y0065477D02*
X0016100Y0065477D01*
X0016100Y0064878D02*
X0070809Y0064878D01*
X0071407Y0064280D02*
X0016100Y0064280D01*
X0016100Y0063681D02*
X0072006Y0063681D01*
X0072604Y0063083D02*
X0016100Y0063083D01*
X0016100Y0062484D02*
X0073203Y0062484D01*
X0073801Y0061886D02*
X0016100Y0061886D01*
X0020910Y0070863D02*
X0021196Y0070863D01*
X0021196Y0071462D02*
X0020910Y0071462D01*
X0020910Y0072060D02*
X0021196Y0072060D01*
X0021196Y0072659D02*
X0020910Y0072659D01*
X0020910Y0073856D02*
X0021196Y0073856D01*
X0021196Y0074454D02*
X0020910Y0074454D01*
X0020910Y0075053D02*
X0021196Y0075053D01*
X0021196Y0075652D02*
X0020910Y0075652D01*
X0022803Y0075652D02*
X0040191Y0075652D01*
X0039319Y0075053D02*
X0023386Y0075053D01*
X0023719Y0074454D02*
X0038898Y0074454D01*
X0038650Y0073856D02*
X0023895Y0073856D01*
X0016100Y0082834D02*
X0067250Y0082834D01*
X0067466Y0083432D02*
X0016100Y0083432D01*
X0016100Y0084031D02*
X0068064Y0084031D01*
X0070936Y0084031D02*
X0071064Y0084031D01*
X0071663Y0084629D02*
X0016100Y0084629D01*
X0016100Y0085228D02*
X0078375Y0085228D01*
X0078050Y0085826D02*
X0016100Y0085826D01*
X0016100Y0086425D02*
X0078050Y0086425D01*
X0078050Y0087023D02*
X0016100Y0087023D01*
X0016100Y0087622D02*
X0077465Y0087622D01*
X0076867Y0088220D02*
X0016100Y0088220D01*
X0016100Y0088819D02*
X0076268Y0088819D01*
X0075670Y0089417D02*
X0016815Y0089417D01*
X0017413Y0090016D02*
X0075071Y0090016D01*
X0074473Y0090614D02*
X0017750Y0090614D01*
X0017750Y0091213D02*
X0073874Y0091213D01*
X0073276Y0091811D02*
X0017750Y0091811D01*
X0017556Y0092410D02*
X0072677Y0092410D01*
X0072079Y0093008D02*
X0016958Y0093008D01*
X0016100Y0093607D02*
X0071480Y0093607D01*
X0070882Y0094205D02*
X0016100Y0094205D01*
X0016100Y0094804D02*
X0070283Y0094804D01*
X0069685Y0095402D02*
X0016100Y0095402D01*
X0016100Y0096001D02*
X0069086Y0096001D01*
X0068488Y0096599D02*
X0016100Y0096599D01*
X0016100Y0097198D02*
X0067889Y0097198D01*
X0067291Y0097796D02*
X0016100Y0097796D01*
X0016508Y0098395D02*
X0020929Y0098395D01*
X0020007Y0098993D02*
X0017106Y0098993D01*
X0017705Y0099592D02*
X0019408Y0099592D01*
X0018969Y0100190D02*
X0018303Y0100190D01*
X0018500Y0102084D02*
X0014900Y0098484D01*
X0014900Y0091884D01*
X0015500Y0091284D01*
X0016100Y0101387D02*
X0016106Y0101387D01*
X0016100Y0101986D02*
X0016705Y0101986D01*
X0017303Y0102585D02*
X0016100Y0102585D01*
X0016100Y0103183D02*
X0017902Y0103183D01*
X0018524Y0103782D02*
X0016100Y0103782D01*
X0016100Y0104380D02*
X0018772Y0104380D01*
X0019020Y0104979D02*
X0016100Y0104979D01*
X0016100Y0105577D02*
X0019530Y0105577D01*
X0020128Y0106176D02*
X0016100Y0106176D01*
X0016100Y0106774D02*
X0021223Y0106774D01*
X0021952Y0107971D02*
X0016100Y0107971D01*
X0016100Y0107373D02*
X0052915Y0107373D01*
X0053513Y0106774D02*
X0024741Y0106774D01*
X0025835Y0106176D02*
X0054112Y0106176D01*
X0054710Y0105577D02*
X0026434Y0105577D01*
X0026944Y0104979D02*
X0055309Y0104979D01*
X0055907Y0104380D02*
X0027192Y0104380D01*
X0027440Y0103782D02*
X0056506Y0103782D01*
X0057104Y0103183D02*
X0027582Y0103183D01*
X0027582Y0102585D02*
X0057703Y0102585D01*
X0058301Y0101986D02*
X0027582Y0101986D01*
X0027490Y0101387D02*
X0058900Y0101387D01*
X0059498Y0100789D02*
X0027242Y0100789D01*
X0026994Y0100190D02*
X0060097Y0100190D01*
X0060695Y0099592D02*
X0026556Y0099592D01*
X0025957Y0098993D02*
X0061294Y0098993D01*
X0062300Y0099684D02*
X0049100Y0112884D01*
X0049100Y0127884D01*
X0050300Y0129084D01*
X0050300Y0159684D01*
X0061700Y0171084D01*
X0063356Y0172610D02*
X0085149Y0172610D01*
X0085393Y0173200D02*
X0084693Y0171509D01*
X0084693Y0169679D01*
X0085393Y0167989D01*
X0086687Y0166695D01*
X0088378Y0165994D01*
X0090208Y0165994D01*
X0091899Y0166695D01*
X0093193Y0167989D01*
X0093893Y0169679D01*
X0093893Y0171509D01*
X0093193Y0173200D01*
X0092853Y0173540D01*
X0093397Y0174084D01*
X0093997Y0174084D01*
X0104347Y0184434D01*
X0105832Y0184434D01*
X0107150Y0185752D01*
X0107150Y0187616D01*
X0105832Y0188934D01*
X0103968Y0188934D01*
X0102650Y0187616D01*
X0102650Y0186131D01*
X0093003Y0176484D01*
X0092403Y0176484D01*
X0091700Y0175781D01*
X0090848Y0174929D01*
X0090208Y0175194D01*
X0088378Y0175194D01*
X0086687Y0174494D01*
X0085393Y0173200D01*
X0085402Y0173209D02*
X0062757Y0173209D01*
X0063950Y0172012D02*
X0084901Y0172012D01*
X0084693Y0171413D02*
X0063950Y0171413D01*
X0063950Y0170815D02*
X0084693Y0170815D01*
X0084693Y0170216D02*
X0063950Y0170216D01*
X0063416Y0169618D02*
X0084718Y0169618D01*
X0084966Y0169019D02*
X0062817Y0169019D01*
X0060734Y0168421D02*
X0085214Y0168421D01*
X0085560Y0167822D02*
X0060135Y0167822D01*
X0059537Y0167224D02*
X0086158Y0167224D01*
X0086855Y0166625D02*
X0058938Y0166625D01*
X0058340Y0166027D02*
X0088300Y0166027D01*
X0090286Y0166027D02*
X0109674Y0166027D01*
X0110273Y0166625D02*
X0091731Y0166625D01*
X0092428Y0167224D02*
X0110871Y0167224D01*
X0111470Y0167822D02*
X0093026Y0167822D01*
X0093372Y0168421D02*
X0112068Y0168421D01*
X0112667Y0169019D02*
X0093619Y0169019D01*
X0093867Y0169618D02*
X0113265Y0169618D01*
X0113864Y0170216D02*
X0093893Y0170216D01*
X0093893Y0170815D02*
X0114462Y0170815D01*
X0115061Y0171413D02*
X0093893Y0171413D01*
X0093685Y0172012D02*
X0115659Y0172012D01*
X0116258Y0172610D02*
X0093437Y0172610D01*
X0093184Y0173209D02*
X0116856Y0173209D01*
X0117455Y0173807D02*
X0093120Y0173807D01*
X0094319Y0174406D02*
X0118053Y0174406D01*
X0118652Y0175004D02*
X0094917Y0175004D01*
X0095516Y0175603D02*
X0119250Y0175603D01*
X0119849Y0176201D02*
X0096114Y0176201D01*
X0096713Y0176800D02*
X0120447Y0176800D01*
X0121046Y0177398D02*
X0097311Y0177398D01*
X0097910Y0177997D02*
X0121644Y0177997D01*
X0122243Y0178595D02*
X0098508Y0178595D01*
X0099107Y0179194D02*
X0122841Y0179194D01*
X0123071Y0179792D02*
X0099705Y0179792D01*
X0100304Y0180391D02*
X0122472Y0180391D01*
X0121874Y0180989D02*
X0100902Y0180989D01*
X0101501Y0181588D02*
X0121275Y0181588D01*
X0120677Y0182187D02*
X0102099Y0182187D01*
X0102698Y0182785D02*
X0120078Y0182785D01*
X0119479Y0183384D02*
X0103296Y0183384D01*
X0103895Y0183982D02*
X0118881Y0183982D01*
X0118282Y0184581D02*
X0105978Y0184581D01*
X0106577Y0185179D02*
X0117684Y0185179D01*
X0117085Y0185778D02*
X0107150Y0185778D01*
X0107150Y0186376D02*
X0116487Y0186376D01*
X0115888Y0186975D02*
X0107150Y0186975D01*
X0107150Y0187573D02*
X0115290Y0187573D01*
X0114691Y0188172D02*
X0106595Y0188172D01*
X0105996Y0188770D02*
X0114093Y0188770D01*
X0113494Y0189369D02*
X0093764Y0189369D01*
X0093893Y0189679D02*
X0093193Y0187989D01*
X0091899Y0186695D01*
X0090208Y0185994D01*
X0088378Y0185994D01*
X0086687Y0186695D01*
X0085393Y0187989D01*
X0084693Y0189679D01*
X0084693Y0191509D01*
X0085393Y0193200D01*
X0086687Y0194494D01*
X0088378Y0195194D01*
X0090208Y0195194D01*
X0091899Y0194494D01*
X0093193Y0193200D01*
X0093893Y0191509D01*
X0093893Y0189679D01*
X0093893Y0189967D02*
X0112896Y0189967D01*
X0112297Y0190566D02*
X0093893Y0190566D01*
X0093893Y0191164D02*
X0111699Y0191164D01*
X0111100Y0191763D02*
X0093788Y0191763D01*
X0093540Y0192361D02*
X0110502Y0192361D01*
X0109903Y0192960D02*
X0093292Y0192960D01*
X0092835Y0193558D02*
X0109305Y0193558D01*
X0108706Y0194157D02*
X0092236Y0194157D01*
X0091268Y0194755D02*
X0108108Y0194755D01*
X0107509Y0195354D02*
X0057667Y0195354D01*
X0058265Y0195952D02*
X0088400Y0195952D01*
X0088374Y0195961D02*
X0089122Y0195718D01*
X0089899Y0195594D01*
X0089993Y0195594D01*
X0089993Y0200294D01*
X0090593Y0200294D01*
X0090593Y0195594D01*
X0090686Y0195594D01*
X0091464Y0195718D01*
X0092212Y0195961D01*
X0092913Y0196318D01*
X0093550Y0196781D01*
X0094107Y0197337D01*
X0094569Y0197974D01*
X0094927Y0198675D01*
X0095170Y0199424D01*
X0095293Y0200201D01*
X0095293Y0200294D01*
X0090593Y0200294D01*
X0090593Y0200894D01*
X0095293Y0200894D01*
X0095293Y0200988D01*
X0095170Y0201765D01*
X0094927Y0202514D01*
X0094569Y0203215D01*
X0094107Y0203852D01*
X0093550Y0204408D01*
X0092913Y0204871D01*
X0092212Y0205228D01*
X0091464Y0205471D01*
X0090686Y0205594D01*
X0090593Y0205594D01*
X0090593Y0200895D01*
X0089993Y0200895D01*
X0089993Y0205594D01*
X0089899Y0205594D01*
X0089122Y0205471D01*
X0088374Y0205228D01*
X0087672Y0204871D01*
X0087036Y0204408D01*
X0086479Y0203852D01*
X0086017Y0203215D01*
X0085659Y0202514D01*
X0085416Y0201765D01*
X0085293Y0200988D01*
X0085293Y0200894D01*
X0089993Y0200894D01*
X0089993Y0200294D01*
X0085293Y0200294D01*
X0085293Y0200201D01*
X0085416Y0199424D01*
X0085659Y0198675D01*
X0086017Y0197974D01*
X0086479Y0197337D01*
X0087036Y0196781D01*
X0087672Y0196318D01*
X0088374Y0195961D01*
X0087352Y0196551D02*
X0058864Y0196551D01*
X0059462Y0197149D02*
X0086667Y0197149D01*
X0086181Y0197748D02*
X0060061Y0197748D01*
X0060659Y0198346D02*
X0085827Y0198346D01*
X0085572Y0198945D02*
X0061258Y0198945D01*
X0061856Y0199543D02*
X0085397Y0199543D01*
X0085302Y0200142D02*
X0077211Y0200142D01*
X0077512Y0200740D02*
X0089993Y0200740D01*
X0089993Y0200142D02*
X0090593Y0200142D01*
X0090593Y0200740D02*
X0102123Y0200740D01*
X0102721Y0200142D02*
X0095284Y0200142D01*
X0095189Y0199543D02*
X0103320Y0199543D01*
X0103918Y0198945D02*
X0095014Y0198945D01*
X0094759Y0198346D02*
X0104517Y0198346D01*
X0105115Y0197748D02*
X0094405Y0197748D01*
X0093919Y0197149D02*
X0105714Y0197149D01*
X0106312Y0196551D02*
X0093234Y0196551D01*
X0092186Y0195952D02*
X0106911Y0195952D01*
X0110924Y0200142D02*
X0111345Y0200142D01*
X0111522Y0199543D02*
X0111944Y0199543D01*
X0112121Y0198945D02*
X0112542Y0198945D01*
X0112719Y0198346D02*
X0113141Y0198346D01*
X0113318Y0197748D02*
X0113739Y0197748D01*
X0113916Y0197149D02*
X0114338Y0197149D01*
X0114515Y0196551D02*
X0114936Y0196551D01*
X0115113Y0195952D02*
X0115535Y0195952D01*
X0115712Y0195354D02*
X0116133Y0195354D01*
X0116310Y0194755D02*
X0116732Y0194755D01*
X0116909Y0194157D02*
X0117330Y0194157D01*
X0117507Y0193558D02*
X0117929Y0193558D01*
X0118106Y0192960D02*
X0118527Y0192960D01*
X0118704Y0192361D02*
X0119126Y0192361D01*
X0119303Y0191763D02*
X0119724Y0191763D01*
X0119901Y0191164D02*
X0120323Y0191164D01*
X0120500Y0190566D02*
X0120922Y0190566D01*
X0121098Y0189967D02*
X0121520Y0189967D01*
X0121697Y0189369D02*
X0122119Y0189369D01*
X0122295Y0188770D02*
X0122717Y0188770D01*
X0122894Y0188172D02*
X0123316Y0188172D01*
X0123492Y0187573D02*
X0123914Y0187573D01*
X0124091Y0186975D02*
X0124513Y0186975D01*
X0124689Y0186376D02*
X0125111Y0186376D01*
X0125288Y0185778D02*
X0125710Y0185778D01*
X0125886Y0185179D02*
X0126308Y0185179D01*
X0126485Y0184581D02*
X0126650Y0184581D01*
X0128900Y0184284D02*
X0087500Y0225684D01*
X0049100Y0225684D01*
X0030500Y0244284D01*
X0028100Y0244284D01*
X0025100Y0247284D01*
X0023300Y0247284D01*
X0022982Y0247524D01*
X0024648Y0243235D02*
X0027453Y0243235D01*
X0026854Y0243833D02*
X0025797Y0243833D01*
X0025549Y0241439D02*
X0031648Y0241439D01*
X0032247Y0240841D02*
X0026170Y0240841D01*
X0025588Y0241423D02*
X0026882Y0240129D01*
X0027582Y0238439D01*
X0027582Y0236609D01*
X0026882Y0234918D01*
X0025588Y0233624D01*
X0023897Y0232924D01*
X0022067Y0232924D01*
X0020376Y0233624D01*
X0019082Y0234918D01*
X0018382Y0236609D01*
X0018382Y0238439D01*
X0019082Y0240129D01*
X0020376Y0241423D01*
X0022067Y0242124D01*
X0023897Y0242124D01*
X0025588Y0241423D01*
X0024104Y0242038D02*
X0031050Y0242038D01*
X0030451Y0242636D02*
X0016100Y0242636D01*
X0016100Y0242038D02*
X0021859Y0242038D01*
X0021316Y0243235D02*
X0016100Y0243235D01*
X0016100Y0243833D02*
X0020167Y0243833D01*
X0019568Y0244432D02*
X0016100Y0244432D01*
X0016100Y0245030D02*
X0019036Y0245030D01*
X0018788Y0245629D02*
X0016100Y0245629D01*
X0016100Y0246227D02*
X0018540Y0246227D01*
X0018382Y0246826D02*
X0016100Y0246826D01*
X0016100Y0247424D02*
X0018382Y0247424D01*
X0018382Y0248023D02*
X0016100Y0248023D01*
X0016100Y0248621D02*
X0018458Y0248621D01*
X0018705Y0249220D02*
X0016100Y0249220D01*
X0016100Y0249818D02*
X0018953Y0249818D01*
X0019370Y0250417D02*
X0016100Y0250417D01*
X0016100Y0251015D02*
X0019968Y0251015D01*
X0020836Y0251614D02*
X0016100Y0251614D01*
X0016100Y0252212D02*
X0043075Y0252212D01*
X0043673Y0251614D02*
X0025128Y0251614D01*
X0025996Y0251015D02*
X0044272Y0251015D01*
X0044450Y0250837D02*
X0044450Y0249352D01*
X0045768Y0248034D01*
X0047632Y0248034D01*
X0048950Y0249352D01*
X0048950Y0251216D01*
X0047632Y0252534D01*
X0046147Y0252534D01*
X0043700Y0254981D01*
X0042997Y0255684D01*
X0042397Y0255684D01*
X0030500Y0267581D01*
X0030500Y0269981D01*
X0029797Y0270684D01*
X0026222Y0274259D01*
X0026882Y0274918D01*
X0027582Y0276609D01*
X0027582Y0278439D01*
X0026882Y0280129D01*
X0025588Y0281423D01*
X0023897Y0282124D01*
X0022067Y0282124D01*
X0020376Y0281423D01*
X0019082Y0280129D01*
X0018382Y0278439D01*
X0018382Y0276609D01*
X0019082Y0274918D01*
X0020376Y0273624D01*
X0022067Y0272924D01*
X0023897Y0272924D01*
X0024085Y0273002D01*
X0028100Y0268987D01*
X0028100Y0266587D01*
X0028803Y0265884D01*
X0041403Y0253284D01*
X0042003Y0253284D01*
X0044450Y0250837D01*
X0044450Y0250417D02*
X0026594Y0250417D01*
X0027010Y0249818D02*
X0044450Y0249818D01*
X0044582Y0249220D02*
X0027258Y0249220D01*
X0027506Y0248621D02*
X0045181Y0248621D01*
X0046700Y0250284D02*
X0042500Y0254484D01*
X0041900Y0254484D01*
X0029300Y0267084D01*
X0029300Y0269484D01*
X0023300Y0275484D01*
X0023300Y0277284D01*
X0022982Y0277524D01*
X0019643Y0274357D02*
X0016100Y0274357D01*
X0016100Y0273759D02*
X0020241Y0273759D01*
X0021496Y0273160D02*
X0016100Y0273160D01*
X0016100Y0272562D02*
X0024525Y0272562D01*
X0024284Y0271963D02*
X0025124Y0271963D01*
X0025646Y0271365D02*
X0025723Y0271365D01*
X0026245Y0270766D02*
X0026321Y0270766D01*
X0026843Y0270168D02*
X0026920Y0270168D01*
X0027114Y0269569D02*
X0027518Y0269569D01*
X0027362Y0268971D02*
X0028100Y0268971D01*
X0028100Y0268372D02*
X0027582Y0268372D01*
X0027582Y0267774D02*
X0028100Y0267774D01*
X0028100Y0267175D02*
X0027582Y0267175D01*
X0027569Y0266577D02*
X0028111Y0266577D01*
X0028709Y0265978D02*
X0027321Y0265978D01*
X0027073Y0265380D02*
X0029308Y0265380D01*
X0029906Y0264781D02*
X0026745Y0264781D01*
X0026146Y0264183D02*
X0030505Y0264183D01*
X0031103Y0263584D02*
X0025491Y0263584D01*
X0024046Y0262986D02*
X0031702Y0262986D01*
X0032300Y0262387D02*
X0017750Y0262387D01*
X0017750Y0262986D02*
X0021917Y0262986D01*
X0022067Y0262124D02*
X0020376Y0261423D01*
X0019082Y0260129D01*
X0018382Y0258439D01*
X0018382Y0256609D01*
X0019082Y0254918D01*
X0020376Y0253624D01*
X0022067Y0252924D01*
X0023897Y0252924D01*
X0025588Y0253624D01*
X0026882Y0254918D01*
X0027582Y0256609D01*
X0027582Y0258439D01*
X0026882Y0260129D01*
X0025588Y0261423D01*
X0023897Y0262124D01*
X0022067Y0262124D01*
X0021258Y0261789D02*
X0017586Y0261789D01*
X0016988Y0261190D02*
X0020143Y0261190D01*
X0019544Y0260591D02*
X0016100Y0260591D01*
X0016100Y0259993D02*
X0019026Y0259993D01*
X0018778Y0259394D02*
X0016100Y0259394D01*
X0016100Y0258796D02*
X0018530Y0258796D01*
X0018382Y0258197D02*
X0016100Y0258197D01*
X0016100Y0257599D02*
X0018382Y0257599D01*
X0018382Y0257000D02*
X0016100Y0257000D01*
X0016100Y0256402D02*
X0018467Y0256402D01*
X0018715Y0255803D02*
X0016100Y0255803D01*
X0016100Y0255205D02*
X0018963Y0255205D01*
X0019394Y0254606D02*
X0016100Y0254606D01*
X0016100Y0254008D02*
X0019992Y0254008D01*
X0020894Y0253409D02*
X0016100Y0253409D01*
X0016100Y0252811D02*
X0042476Y0252811D01*
X0041278Y0253409D02*
X0025070Y0253409D01*
X0025972Y0254008D02*
X0040679Y0254008D01*
X0040081Y0254606D02*
X0026570Y0254606D01*
X0027000Y0255205D02*
X0039482Y0255205D01*
X0038884Y0255803D02*
X0027248Y0255803D01*
X0027496Y0256402D02*
X0038285Y0256402D01*
X0037687Y0257000D02*
X0027582Y0257000D01*
X0027582Y0257599D02*
X0037088Y0257599D01*
X0036490Y0258197D02*
X0027582Y0258197D01*
X0027434Y0258796D02*
X0035891Y0258796D01*
X0035293Y0259394D02*
X0027186Y0259394D01*
X0026938Y0259993D02*
X0034694Y0259993D01*
X0034096Y0260591D02*
X0026419Y0260591D01*
X0025821Y0261190D02*
X0033497Y0261190D01*
X0032899Y0261789D02*
X0024706Y0261789D01*
X0022700Y0267084D02*
X0022982Y0267524D01*
X0022700Y0267084D02*
X0019100Y0267084D01*
X0017300Y0265284D01*
X0017300Y0264684D01*
X0015500Y0262884D01*
X0017897Y0263584D02*
X0020472Y0263584D01*
X0019818Y0264183D02*
X0018495Y0264183D01*
X0018500Y0264781D02*
X0019219Y0264781D01*
X0016895Y0266577D02*
X0016100Y0266577D01*
X0016100Y0267175D02*
X0017494Y0267175D01*
X0018092Y0267774D02*
X0016100Y0267774D01*
X0016100Y0268372D02*
X0018382Y0268372D01*
X0018602Y0268971D02*
X0016100Y0268971D01*
X0016100Y0269569D02*
X0018850Y0269569D01*
X0019121Y0270168D02*
X0016100Y0270168D01*
X0016100Y0270766D02*
X0019719Y0270766D01*
X0020318Y0271365D02*
X0016100Y0271365D01*
X0016100Y0271963D02*
X0021680Y0271963D01*
X0019067Y0274956D02*
X0016100Y0274956D01*
X0016100Y0275554D02*
X0018819Y0275554D01*
X0018571Y0276153D02*
X0016100Y0276153D01*
X0016100Y0276751D02*
X0018382Y0276751D01*
X0018382Y0277350D02*
X0016100Y0277350D01*
X0016100Y0277948D02*
X0018382Y0277948D01*
X0018427Y0278547D02*
X0016100Y0278547D01*
X0016100Y0279145D02*
X0018675Y0279145D01*
X0018923Y0279744D02*
X0016100Y0279744D01*
X0016100Y0280342D02*
X0019295Y0280342D01*
X0019894Y0280941D02*
X0016100Y0280941D01*
X0016100Y0281539D02*
X0020656Y0281539D01*
X0016100Y0282138D02*
X0157000Y0282138D01*
X0157000Y0282736D02*
X0016100Y0282736D01*
X0016100Y0283335D02*
X0157000Y0283335D01*
X0157000Y0283933D02*
X0016100Y0283933D01*
X0016100Y0284532D02*
X0157000Y0284532D01*
X0157000Y0285130D02*
X0016100Y0285130D01*
X0016100Y0285729D02*
X0157000Y0285729D01*
X0157000Y0286327D02*
X0016100Y0286327D01*
X0016100Y0286926D02*
X0157000Y0286926D01*
X0157000Y0281539D02*
X0025307Y0281539D01*
X0026070Y0280941D02*
X0157000Y0280941D01*
X0157000Y0280342D02*
X0026669Y0280342D01*
X0027041Y0279744D02*
X0157000Y0279744D01*
X0157000Y0279145D02*
X0027289Y0279145D01*
X0027537Y0278547D02*
X0157000Y0278547D01*
X0157000Y0277948D02*
X0027582Y0277948D01*
X0027582Y0277350D02*
X0157000Y0277350D01*
X0157000Y0276751D02*
X0027582Y0276751D01*
X0027393Y0276153D02*
X0157000Y0276153D01*
X0157000Y0275554D02*
X0027145Y0275554D01*
X0026897Y0274956D02*
X0157000Y0274956D01*
X0157000Y0274357D02*
X0026321Y0274357D01*
X0026723Y0273759D02*
X0157000Y0273759D01*
X0157000Y0273160D02*
X0027321Y0273160D01*
X0027920Y0272562D02*
X0157000Y0272562D01*
X0157000Y0271963D02*
X0028518Y0271963D01*
X0029117Y0271365D02*
X0157000Y0271365D01*
X0157000Y0270766D02*
X0029715Y0270766D01*
X0029797Y0270684D02*
X0029797Y0270684D01*
X0030314Y0270168D02*
X0157000Y0270168D01*
X0157000Y0269569D02*
X0030500Y0269569D01*
X0030500Y0268971D02*
X0157000Y0268971D01*
X0157000Y0268372D02*
X0030500Y0268372D01*
X0030500Y0267774D02*
X0157000Y0267774D01*
X0157000Y0267175D02*
X0030906Y0267175D01*
X0031505Y0266577D02*
X0157000Y0266577D01*
X0157000Y0265978D02*
X0032103Y0265978D01*
X0032702Y0265380D02*
X0157000Y0265380D01*
X0157000Y0264781D02*
X0066270Y0264781D01*
X0066178Y0264873D02*
X0062699Y0264873D01*
X0060239Y0262413D01*
X0060239Y0258934D01*
X0062699Y0256473D01*
X0066178Y0256473D01*
X0068639Y0258934D01*
X0068639Y0262413D01*
X0066178Y0264873D01*
X0066869Y0264183D02*
X0157000Y0264183D01*
X0157000Y0263584D02*
X0067467Y0263584D01*
X0068066Y0262986D02*
X0157000Y0262986D01*
X0157000Y0262387D02*
X0068639Y0262387D01*
X0068639Y0261789D02*
X0157000Y0261789D01*
X0157000Y0261190D02*
X0068639Y0261190D01*
X0068639Y0260591D02*
X0157000Y0260591D01*
X0157000Y0259993D02*
X0068639Y0259993D01*
X0068639Y0259394D02*
X0157000Y0259394D01*
X0157000Y0258796D02*
X0068501Y0258796D01*
X0067902Y0258197D02*
X0157000Y0258197D01*
X0157000Y0257599D02*
X0067304Y0257599D01*
X0066705Y0257000D02*
X0157000Y0257000D01*
X0157000Y0256402D02*
X0142559Y0256402D01*
X0143158Y0255803D02*
X0157000Y0255803D01*
X0157000Y0255205D02*
X0143756Y0255205D01*
X0144355Y0254606D02*
X0157000Y0254606D01*
X0157000Y0254008D02*
X0144953Y0254008D01*
X0145552Y0253409D02*
X0157000Y0253409D01*
X0157000Y0252811D02*
X0146150Y0252811D01*
X0146749Y0252212D02*
X0157000Y0252212D01*
X0157000Y0251614D02*
X0147347Y0251614D01*
X0147946Y0251015D02*
X0157000Y0251015D01*
X0157000Y0250417D02*
X0148544Y0250417D01*
X0149143Y0249818D02*
X0157000Y0249818D01*
X0157000Y0249220D02*
X0149742Y0249220D01*
X0150340Y0248621D02*
X0157000Y0248621D01*
X0157000Y0248023D02*
X0150939Y0248023D01*
X0151537Y0247424D02*
X0157000Y0247424D01*
X0157000Y0246826D02*
X0152136Y0246826D01*
X0152734Y0246227D02*
X0157000Y0246227D01*
X0157000Y0245629D02*
X0153333Y0245629D01*
X0153931Y0245030D02*
X0157000Y0245030D01*
X0157000Y0244432D02*
X0154530Y0244432D01*
X0155128Y0243833D02*
X0157000Y0243833D01*
X0157000Y0243235D02*
X0155727Y0243235D01*
X0156325Y0242636D02*
X0157000Y0242636D01*
X0157000Y0242038D02*
X0156924Y0242038D01*
X0156800Y0240464D02*
X0141580Y0255684D01*
X0067100Y0255684D01*
X0065900Y0254484D01*
X0058700Y0254484D01*
X0054500Y0250284D01*
X0054439Y0250673D01*
X0058639Y0250417D02*
X0127070Y0250417D01*
X0126472Y0251015D02*
X0058639Y0251015D01*
X0058639Y0251614D02*
X0124388Y0251614D01*
X0123790Y0252212D02*
X0058639Y0252212D01*
X0058724Y0252811D02*
X0123650Y0252811D01*
X0123650Y0253409D02*
X0066522Y0253409D01*
X0067121Y0254008D02*
X0123650Y0254008D01*
X0125900Y0253284D02*
X0131900Y0247284D01*
X0133426Y0245629D02*
X0139374Y0245629D01*
X0138775Y0246227D02*
X0134025Y0246227D01*
X0134150Y0246826D02*
X0138650Y0246826D01*
X0138650Y0247424D02*
X0134150Y0247424D01*
X0134150Y0248023D02*
X0138464Y0248023D01*
X0137866Y0248621D02*
X0133745Y0248621D01*
X0133146Y0249220D02*
X0137267Y0249220D01*
X0136669Y0249818D02*
X0131063Y0249818D01*
X0130464Y0250417D02*
X0136070Y0250417D01*
X0135472Y0251015D02*
X0129866Y0251015D01*
X0129267Y0251614D02*
X0133388Y0251614D01*
X0132790Y0252212D02*
X0128669Y0252212D01*
X0128150Y0252811D02*
X0132650Y0252811D01*
X0132650Y0253409D02*
X0128150Y0253409D01*
X0128150Y0254008D02*
X0132650Y0254008D01*
X0134900Y0253284D02*
X0140900Y0247284D01*
X0142426Y0245629D02*
X0149938Y0245629D01*
X0149340Y0246227D02*
X0143025Y0246227D01*
X0143150Y0246826D02*
X0148741Y0246826D01*
X0148143Y0247424D02*
X0143150Y0247424D01*
X0143150Y0248023D02*
X0147544Y0248023D01*
X0146946Y0248621D02*
X0142745Y0248621D01*
X0142146Y0249220D02*
X0146347Y0249220D01*
X0145749Y0249818D02*
X0140063Y0249818D01*
X0139464Y0250417D02*
X0145150Y0250417D01*
X0144552Y0251015D02*
X0138866Y0251015D01*
X0138267Y0251614D02*
X0143953Y0251614D01*
X0143355Y0252212D02*
X0137669Y0252212D01*
X0137150Y0252811D02*
X0142756Y0252811D01*
X0142158Y0253409D02*
X0137150Y0253409D01*
X0137150Y0254008D02*
X0141559Y0254008D01*
X0150537Y0245030D02*
X0031451Y0245030D01*
X0032050Y0244432D02*
X0151136Y0244432D01*
X0151734Y0243833D02*
X0032648Y0243833D01*
X0033247Y0243235D02*
X0152333Y0243235D01*
X0152931Y0242636D02*
X0033845Y0242636D01*
X0034444Y0242038D02*
X0153530Y0242038D01*
X0154128Y0241439D02*
X0035042Y0241439D01*
X0035641Y0240841D02*
X0154727Y0240841D01*
X0155325Y0240242D02*
X0036239Y0240242D01*
X0036838Y0239644D02*
X0155853Y0239644D01*
X0157000Y0239045D02*
X0037436Y0239045D01*
X0038035Y0238447D02*
X0153165Y0238447D01*
X0152567Y0237848D02*
X0038633Y0237848D01*
X0039232Y0237250D02*
X0151968Y0237250D01*
X0151370Y0236651D02*
X0039830Y0236651D01*
X0040429Y0236053D02*
X0150771Y0236053D01*
X0151100Y0234684D02*
X0153939Y0237524D01*
X0212982Y0237524D01*
X0212900Y0247284D02*
X0210500Y0247284D01*
X0210365Y0247419D01*
X0212900Y0247284D02*
X0212982Y0247524D01*
X0200900Y0227484D02*
X0110300Y0227484D01*
X0106100Y0231684D01*
X0077300Y0231684D01*
X0078865Y0230067D02*
X0106020Y0230067D01*
X0105603Y0230484D02*
X0109323Y0226764D01*
X0103612Y0226764D01*
X0102880Y0226032D01*
X0098182Y0221334D01*
X0096768Y0221334D01*
X0095450Y0220016D01*
X0095450Y0219431D01*
X0088700Y0226181D01*
X0087997Y0226884D01*
X0073282Y0226884D01*
X0073550Y0227152D01*
X0073550Y0229016D01*
X0073139Y0229427D01*
X0075050Y0231337D01*
X0075050Y0230752D01*
X0076368Y0229434D01*
X0078232Y0229434D01*
X0079282Y0230484D01*
X0105603Y0230484D01*
X0106618Y0229469D02*
X0078267Y0229469D01*
X0076333Y0229469D02*
X0073182Y0229469D01*
X0073550Y0228870D02*
X0107217Y0228870D01*
X0107815Y0228272D02*
X0073550Y0228272D01*
X0073550Y0227673D02*
X0108414Y0227673D01*
X0109012Y0227075D02*
X0073473Y0227075D01*
X0071300Y0228084D02*
X0070700Y0228684D01*
X0070100Y0228084D01*
X0070700Y0228684D02*
X0076700Y0234684D01*
X0151100Y0234684D01*
X0151771Y0233658D02*
X0157000Y0233658D01*
X0157000Y0233060D02*
X0079106Y0233060D01*
X0079282Y0232884D02*
X0078682Y0233484D01*
X0151597Y0233484D01*
X0152300Y0234187D01*
X0152300Y0234187D01*
X0154436Y0236324D01*
X0157000Y0236324D01*
X0157000Y0228684D01*
X0110797Y0228684D01*
X0107300Y0232181D01*
X0106597Y0232884D01*
X0079282Y0232884D01*
X0075773Y0235454D02*
X0041027Y0235454D01*
X0041626Y0234856D02*
X0075174Y0234856D01*
X0074576Y0234257D02*
X0042224Y0234257D01*
X0042823Y0233658D02*
X0073977Y0233658D01*
X0073379Y0233060D02*
X0043421Y0233060D01*
X0044020Y0232461D02*
X0072780Y0232461D01*
X0072182Y0231863D02*
X0044618Y0231863D01*
X0045217Y0231264D02*
X0071583Y0231264D01*
X0070985Y0230666D02*
X0045815Y0230666D01*
X0046414Y0230067D02*
X0070101Y0230067D01*
X0069503Y0229469D02*
X0047012Y0229469D01*
X0047611Y0228870D02*
X0069050Y0228870D01*
X0068900Y0228272D02*
X0048209Y0228272D01*
X0048808Y0227673D02*
X0068900Y0227673D01*
X0069127Y0227075D02*
X0049406Y0227075D01*
X0047808Y0225279D02*
X0027031Y0225279D01*
X0026882Y0224918D02*
X0027582Y0226609D01*
X0027582Y0228439D01*
X0027456Y0228743D01*
X0031147Y0232434D01*
X0032632Y0232434D01*
X0033950Y0233752D01*
X0033950Y0235616D01*
X0032632Y0236934D01*
X0030768Y0236934D01*
X0029450Y0235616D01*
X0029450Y0234131D01*
X0026165Y0230846D01*
X0025588Y0231423D01*
X0023897Y0232124D01*
X0022067Y0232124D01*
X0020376Y0231423D01*
X0019082Y0230129D01*
X0018382Y0228439D01*
X0018382Y0226609D01*
X0019082Y0224918D01*
X0020376Y0223624D01*
X0022067Y0222924D01*
X0023897Y0222924D01*
X0025588Y0223624D01*
X0026882Y0224918D01*
X0026644Y0224681D02*
X0048406Y0224681D01*
X0047209Y0225878D02*
X0027279Y0225878D01*
X0027527Y0226476D02*
X0046611Y0226476D01*
X0046012Y0227075D02*
X0027582Y0227075D01*
X0027582Y0227673D02*
X0045414Y0227673D01*
X0044815Y0228272D02*
X0027582Y0228272D01*
X0027583Y0228870D02*
X0044217Y0228870D01*
X0043618Y0229469D02*
X0028182Y0229469D01*
X0028780Y0230067D02*
X0043020Y0230067D01*
X0042421Y0230666D02*
X0029379Y0230666D01*
X0029977Y0231264D02*
X0041823Y0231264D01*
X0041224Y0231863D02*
X0030576Y0231863D01*
X0032659Y0232461D02*
X0040626Y0232461D01*
X0040027Y0233060D02*
X0033258Y0233060D01*
X0033856Y0233658D02*
X0039429Y0233658D01*
X0038830Y0234257D02*
X0033950Y0234257D01*
X0033950Y0234856D02*
X0038232Y0234856D01*
X0037633Y0235454D02*
X0033950Y0235454D01*
X0033514Y0236053D02*
X0037035Y0236053D01*
X0036436Y0236651D02*
X0032915Y0236651D01*
X0031700Y0234684D02*
X0025100Y0228084D01*
X0023300Y0228084D01*
X0022982Y0227524D01*
X0019619Y0230666D02*
X0016100Y0230666D01*
X0016100Y0231264D02*
X0020217Y0231264D01*
X0021438Y0231863D02*
X0016100Y0231863D01*
X0016100Y0232461D02*
X0027780Y0232461D01*
X0027182Y0231863D02*
X0024526Y0231863D01*
X0024226Y0233060D02*
X0028379Y0233060D01*
X0028977Y0233658D02*
X0025622Y0233658D01*
X0026221Y0234257D02*
X0029450Y0234257D01*
X0029450Y0234856D02*
X0026819Y0234856D01*
X0027104Y0235454D02*
X0029450Y0235454D01*
X0029886Y0236053D02*
X0027352Y0236053D01*
X0027582Y0236651D02*
X0030485Y0236651D01*
X0027582Y0237250D02*
X0035838Y0237250D01*
X0035239Y0237848D02*
X0027582Y0237848D01*
X0027579Y0238447D02*
X0034641Y0238447D01*
X0034042Y0239045D02*
X0027331Y0239045D01*
X0027083Y0239644D02*
X0033444Y0239644D01*
X0032845Y0240242D02*
X0026769Y0240242D01*
X0028453Y0245629D02*
X0130374Y0245629D01*
X0129775Y0246227D02*
X0027854Y0246227D01*
X0027582Y0246826D02*
X0052346Y0246826D01*
X0051748Y0247424D02*
X0027582Y0247424D01*
X0027582Y0248023D02*
X0051149Y0248023D01*
X0050551Y0248621D02*
X0048219Y0248621D01*
X0048818Y0249220D02*
X0050239Y0249220D01*
X0050239Y0249818D02*
X0048950Y0249818D01*
X0048950Y0250417D02*
X0050239Y0250417D01*
X0050239Y0251015D02*
X0048950Y0251015D01*
X0048552Y0251614D02*
X0050239Y0251614D01*
X0050239Y0252212D02*
X0047954Y0252212D01*
X0045870Y0252811D02*
X0050637Y0252811D01*
X0051235Y0253409D02*
X0045272Y0253409D01*
X0044673Y0254008D02*
X0051834Y0254008D01*
X0052432Y0254606D02*
X0044075Y0254606D01*
X0043476Y0255205D02*
X0057724Y0255205D01*
X0057125Y0254606D02*
X0056445Y0254606D01*
X0058639Y0249818D02*
X0127669Y0249818D01*
X0128267Y0249220D02*
X0058639Y0249220D01*
X0058326Y0248621D02*
X0128866Y0248621D01*
X0129464Y0248023D02*
X0057728Y0248023D01*
X0057129Y0247424D02*
X0129650Y0247424D01*
X0129650Y0246826D02*
X0056531Y0246826D01*
X0062172Y0257000D02*
X0047271Y0257000D01*
X0046673Y0256402D02*
X0066121Y0256402D01*
X0065522Y0255803D02*
X0042278Y0255803D01*
X0042533Y0256073D02*
X0044139Y0256073D01*
X0044139Y0260373D01*
X0044739Y0260373D01*
X0044739Y0260973D01*
X0049039Y0260973D01*
X0049039Y0262579D01*
X0046344Y0265273D01*
X0044739Y0265273D01*
X0044739Y0260973D01*
X0044139Y0260973D01*
X0044139Y0265273D01*
X0042533Y0265273D01*
X0039839Y0262579D01*
X0039839Y0260973D01*
X0044139Y0260973D01*
X0044139Y0260373D01*
X0039839Y0260373D01*
X0039839Y0258768D01*
X0042533Y0256073D01*
X0042205Y0256402D02*
X0041679Y0256402D01*
X0041606Y0257000D02*
X0041081Y0257000D01*
X0041007Y0257599D02*
X0040482Y0257599D01*
X0040409Y0258197D02*
X0039884Y0258197D01*
X0039839Y0258796D02*
X0039285Y0258796D01*
X0039839Y0259394D02*
X0038687Y0259394D01*
X0038088Y0259993D02*
X0039839Y0259993D01*
X0039839Y0261190D02*
X0036891Y0261190D01*
X0036293Y0261789D02*
X0039839Y0261789D01*
X0039839Y0262387D02*
X0035694Y0262387D01*
X0035096Y0262986D02*
X0040246Y0262986D01*
X0040844Y0263584D02*
X0034497Y0263584D01*
X0033899Y0264183D02*
X0041443Y0264183D01*
X0042041Y0264781D02*
X0033300Y0264781D01*
X0037490Y0260591D02*
X0044139Y0260591D01*
X0044439Y0260673D02*
X0044900Y0261084D01*
X0062900Y0279084D01*
X0103700Y0279084D01*
X0107020Y0232461D02*
X0157000Y0232461D01*
X0157000Y0231863D02*
X0107618Y0231863D01*
X0108217Y0231264D02*
X0157000Y0231264D01*
X0157000Y0230666D02*
X0108815Y0230666D01*
X0109414Y0230067D02*
X0157000Y0230067D01*
X0157000Y0229469D02*
X0110012Y0229469D01*
X0110611Y0228870D02*
X0157000Y0228870D01*
X0157000Y0226284D02*
X0157000Y0219684D01*
X0145538Y0219684D01*
X0145488Y0219734D01*
X0143758Y0219734D01*
X0137460Y0226032D01*
X0137208Y0226284D01*
X0157000Y0226284D01*
X0157000Y0225878D02*
X0137614Y0225878D01*
X0138213Y0225279D02*
X0157000Y0225279D01*
X0157000Y0224681D02*
X0138811Y0224681D01*
X0139410Y0224082D02*
X0157000Y0224082D01*
X0157000Y0223484D02*
X0140008Y0223484D01*
X0140607Y0222885D02*
X0157000Y0222885D01*
X0157000Y0222287D02*
X0141205Y0222287D01*
X0141804Y0221688D02*
X0157000Y0221688D01*
X0157000Y0221090D02*
X0142402Y0221090D01*
X0143001Y0220491D02*
X0157000Y0220491D01*
X0157000Y0219893D02*
X0143599Y0219893D01*
X0144970Y0218484D02*
X0206300Y0218484D01*
X0208700Y0219684D02*
X0208700Y0217284D01*
X0190100Y0198684D01*
X0156500Y0198684D01*
X0154853Y0197149D02*
X0121332Y0197149D01*
X0121930Y0196551D02*
X0155451Y0196551D01*
X0155568Y0196434D02*
X0157000Y0196434D01*
X0157000Y0181316D01*
X0149066Y0189250D01*
X0149066Y0189957D01*
X0148365Y0191648D01*
X0147071Y0192942D01*
X0145381Y0193642D01*
X0143551Y0193642D01*
X0141860Y0192942D01*
X0140566Y0191648D01*
X0139866Y0189957D01*
X0139866Y0188127D01*
X0140566Y0186436D01*
X0141860Y0185142D01*
X0143551Y0184442D01*
X0144257Y0184442D01*
X0145057Y0183642D01*
X0143551Y0183642D01*
X0141860Y0182942D01*
X0141573Y0182654D01*
X0130452Y0182654D01*
X0131150Y0183352D01*
X0131150Y0185216D01*
X0129832Y0186534D01*
X0128347Y0186534D01*
X0126847Y0188034D01*
X0128632Y0188034D01*
X0129950Y0189352D01*
X0129950Y0191216D01*
X0128632Y0192534D01*
X0126768Y0192534D01*
X0126358Y0192124D01*
X0108350Y0210131D01*
X0108350Y0211616D01*
X0107032Y0212934D01*
X0105168Y0212934D01*
X0103850Y0211616D01*
X0103850Y0211031D01*
X0098047Y0216834D01*
X0098632Y0216834D01*
X0099950Y0218152D01*
X0099950Y0219566D01*
X0104648Y0224264D01*
X0135692Y0224264D01*
X0141990Y0217966D01*
X0142722Y0217234D01*
X0145488Y0217234D01*
X0145538Y0217284D01*
X0157000Y0217284D01*
X0157000Y0200934D01*
X0155568Y0200934D01*
X0154250Y0199616D01*
X0154250Y0197752D01*
X0155568Y0196434D01*
X0157000Y0195952D02*
X0122529Y0195952D01*
X0123128Y0195354D02*
X0157000Y0195354D01*
X0157000Y0194755D02*
X0123726Y0194755D01*
X0124325Y0194157D02*
X0157000Y0194157D01*
X0157000Y0193558D02*
X0145583Y0193558D01*
X0147028Y0192960D02*
X0157000Y0192960D01*
X0157000Y0192361D02*
X0147652Y0192361D01*
X0148250Y0191763D02*
X0157000Y0191763D01*
X0157000Y0191164D02*
X0148566Y0191164D01*
X0148814Y0190566D02*
X0157000Y0190566D01*
X0157000Y0189967D02*
X0149062Y0189967D01*
X0149066Y0189369D02*
X0157000Y0189369D01*
X0157000Y0188770D02*
X0149546Y0188770D01*
X0150144Y0188172D02*
X0157000Y0188172D01*
X0157000Y0187573D02*
X0150743Y0187573D01*
X0151341Y0186975D02*
X0157000Y0186975D01*
X0157000Y0186376D02*
X0151940Y0186376D01*
X0152539Y0185778D02*
X0157000Y0185778D01*
X0157000Y0185179D02*
X0153137Y0185179D01*
X0153736Y0184581D02*
X0157000Y0184581D01*
X0157000Y0183982D02*
X0154334Y0183982D01*
X0154933Y0183384D02*
X0157000Y0183384D01*
X0157000Y0182785D02*
X0155531Y0182785D01*
X0156130Y0182187D02*
X0157000Y0182187D01*
X0157000Y0181588D02*
X0156728Y0181588D01*
X0144717Y0183982D02*
X0131150Y0183982D01*
X0131150Y0183384D02*
X0142927Y0183384D01*
X0143216Y0184581D02*
X0131150Y0184581D01*
X0131150Y0185179D02*
X0141823Y0185179D01*
X0141225Y0185778D02*
X0130589Y0185778D01*
X0129990Y0186376D02*
X0140626Y0186376D01*
X0140343Y0186975D02*
X0127907Y0186975D01*
X0127308Y0187573D02*
X0140095Y0187573D01*
X0139866Y0188172D02*
X0128769Y0188172D01*
X0129368Y0188770D02*
X0139866Y0188770D01*
X0139866Y0189369D02*
X0129950Y0189369D01*
X0129950Y0189967D02*
X0139870Y0189967D01*
X0140118Y0190566D02*
X0129950Y0190566D01*
X0129950Y0191164D02*
X0140366Y0191164D01*
X0140681Y0191763D02*
X0129404Y0191763D01*
X0128805Y0192361D02*
X0141280Y0192361D01*
X0141904Y0192960D02*
X0125522Y0192960D01*
X0126120Y0192361D02*
X0126595Y0192361D01*
X0124923Y0193558D02*
X0143348Y0193558D01*
X0137032Y0200034D02*
X0138350Y0201352D01*
X0138350Y0202837D01*
X0143347Y0207834D01*
X0144832Y0207834D01*
X0146150Y0209152D01*
X0146150Y0211016D01*
X0144832Y0212334D01*
X0142968Y0212334D01*
X0141650Y0211016D01*
X0141650Y0209531D01*
X0136653Y0204534D01*
X0135168Y0204534D01*
X0133850Y0203216D01*
X0133850Y0201352D01*
X0135168Y0200034D01*
X0137032Y0200034D01*
X0137140Y0200142D02*
X0154776Y0200142D01*
X0154250Y0199543D02*
X0118938Y0199543D01*
X0119536Y0198945D02*
X0154250Y0198945D01*
X0154250Y0198346D02*
X0120135Y0198346D01*
X0120733Y0197748D02*
X0154254Y0197748D01*
X0155374Y0200740D02*
X0137738Y0200740D01*
X0138337Y0201339D02*
X0157000Y0201339D01*
X0157000Y0201937D02*
X0138350Y0201937D01*
X0138350Y0202536D02*
X0157000Y0202536D01*
X0157000Y0203134D02*
X0138647Y0203134D01*
X0139246Y0203733D02*
X0157000Y0203733D01*
X0157000Y0204331D02*
X0139844Y0204331D01*
X0140443Y0204930D02*
X0157000Y0204930D01*
X0157000Y0205528D02*
X0141041Y0205528D01*
X0141640Y0206127D02*
X0157000Y0206127D01*
X0157000Y0206725D02*
X0142238Y0206725D01*
X0142837Y0207324D02*
X0157000Y0207324D01*
X0157000Y0207923D02*
X0144920Y0207923D01*
X0145519Y0208521D02*
X0157000Y0208521D01*
X0157000Y0209120D02*
X0146117Y0209120D01*
X0146150Y0209718D02*
X0157000Y0209718D01*
X0157000Y0210317D02*
X0146150Y0210317D01*
X0146150Y0210915D02*
X0157000Y0210915D01*
X0157000Y0211514D02*
X0145653Y0211514D01*
X0145054Y0212112D02*
X0157000Y0212112D01*
X0157000Y0212711D02*
X0137380Y0212711D01*
X0137380Y0213309D02*
X0157000Y0213309D01*
X0157000Y0213908D02*
X0137380Y0213908D01*
X0137380Y0214506D02*
X0157000Y0214506D01*
X0157000Y0215105D02*
X0137236Y0215105D01*
X0137380Y0214757D02*
X0136243Y0217503D01*
X0134142Y0219604D01*
X0131397Y0220741D01*
X0128425Y0220741D01*
X0125680Y0219604D01*
X0123579Y0217503D01*
X0122442Y0214757D01*
X0122442Y0211786D01*
X0123579Y0209041D01*
X0125680Y0206939D01*
X0128425Y0205802D01*
X0131397Y0205802D01*
X0134142Y0206939D01*
X0136243Y0209041D01*
X0137380Y0211786D01*
X0137380Y0214757D01*
X0136989Y0215703D02*
X0157000Y0215703D01*
X0157000Y0216302D02*
X0136741Y0216302D01*
X0136493Y0216900D02*
X0157000Y0216900D01*
X0143900Y0210084D02*
X0136100Y0202284D01*
X0134462Y0200740D02*
X0117741Y0200740D01*
X0118339Y0200142D02*
X0135060Y0200142D01*
X0133863Y0201339D02*
X0117142Y0201339D01*
X0116544Y0201937D02*
X0133850Y0201937D01*
X0133850Y0202536D02*
X0115945Y0202536D01*
X0115347Y0203134D02*
X0133850Y0203134D01*
X0134367Y0203733D02*
X0114748Y0203733D01*
X0114150Y0204331D02*
X0134965Y0204331D01*
X0137049Y0204930D02*
X0113551Y0204930D01*
X0112953Y0205528D02*
X0137647Y0205528D01*
X0138246Y0206127D02*
X0132180Y0206127D01*
X0133625Y0206725D02*
X0138844Y0206725D01*
X0139443Y0207324D02*
X0134527Y0207324D01*
X0135125Y0207923D02*
X0140041Y0207923D01*
X0140640Y0208521D02*
X0135724Y0208521D01*
X0136276Y0209120D02*
X0141238Y0209120D01*
X0141650Y0209718D02*
X0136524Y0209718D01*
X0136772Y0210317D02*
X0141650Y0210317D01*
X0141650Y0210915D02*
X0137020Y0210915D01*
X0137267Y0211514D02*
X0142147Y0211514D01*
X0142746Y0212112D02*
X0137380Y0212112D01*
X0136245Y0217499D02*
X0142458Y0217499D01*
X0141859Y0218097D02*
X0135649Y0218097D01*
X0135050Y0218696D02*
X0141261Y0218696D01*
X0140662Y0219294D02*
X0134452Y0219294D01*
X0133445Y0219893D02*
X0140064Y0219893D01*
X0139465Y0220491D02*
X0132000Y0220491D01*
X0135874Y0224082D02*
X0104466Y0224082D01*
X0103867Y0223484D02*
X0136473Y0223484D01*
X0137071Y0222885D02*
X0103269Y0222885D01*
X0102670Y0222287D02*
X0137670Y0222287D01*
X0138268Y0221688D02*
X0102072Y0221688D01*
X0101473Y0221090D02*
X0138867Y0221090D01*
X0127822Y0220491D02*
X0100875Y0220491D01*
X0100276Y0219893D02*
X0126378Y0219893D01*
X0125370Y0219294D02*
X0099950Y0219294D01*
X0099950Y0218696D02*
X0124772Y0218696D01*
X0124173Y0218097D02*
X0099895Y0218097D01*
X0099296Y0217499D02*
X0123577Y0217499D01*
X0123329Y0216900D02*
X0098698Y0216900D01*
X0098580Y0216302D02*
X0123081Y0216302D01*
X0122833Y0215703D02*
X0099178Y0215703D01*
X0099777Y0215105D02*
X0122586Y0215105D01*
X0122442Y0214506D02*
X0100375Y0214506D01*
X0100974Y0213908D02*
X0122442Y0213908D01*
X0122442Y0213309D02*
X0101572Y0213309D01*
X0102171Y0212711D02*
X0104944Y0212711D01*
X0104346Y0212112D02*
X0102769Y0212112D01*
X0103368Y0211514D02*
X0103850Y0211514D01*
X0106100Y0210684D02*
X0126500Y0190284D01*
X0127700Y0190284D01*
X0130583Y0182785D02*
X0141703Y0182785D01*
X0144254Y0179254D02*
X0144466Y0179042D01*
X0142700Y0162084D02*
X0134900Y0162084D01*
X0121990Y0149174D01*
X0121990Y0126394D01*
X0125300Y0123084D01*
X0125300Y0119484D01*
X0123500Y0117684D01*
X0117500Y0117684D01*
X0111500Y0123684D01*
X0111500Y0122484D01*
X0111500Y0123684D02*
X0111500Y0147084D01*
X0115100Y0150684D01*
X0115100Y0154284D01*
X0113900Y0155484D01*
X0113900Y0152859D02*
X0113750Y0152859D01*
X0113750Y0152261D02*
X0113900Y0152261D01*
X0113900Y0151662D02*
X0113750Y0151662D01*
X0113783Y0151064D02*
X0113262Y0151064D01*
X0113184Y0150465D02*
X0112663Y0150465D01*
X0112586Y0149867D02*
X0110580Y0149867D01*
X0109981Y0149268D02*
X0111987Y0149268D01*
X0111389Y0148670D02*
X0109383Y0148670D01*
X0108784Y0148071D02*
X0110790Y0148071D01*
X0110300Y0147473D02*
X0108186Y0147473D01*
X0107587Y0146874D02*
X0110300Y0146874D01*
X0110300Y0146276D02*
X0107300Y0146276D01*
X0107300Y0145677D02*
X0110300Y0145677D01*
X0110300Y0145079D02*
X0107300Y0145079D01*
X0107300Y0144480D02*
X0110300Y0144480D01*
X0110300Y0143882D02*
X0107300Y0143882D01*
X0107300Y0143283D02*
X0110300Y0143283D01*
X0110300Y0142685D02*
X0107300Y0142685D01*
X0107300Y0142086D02*
X0110300Y0142086D01*
X0110300Y0141488D02*
X0107300Y0141488D01*
X0107300Y0140889D02*
X0110300Y0140889D01*
X0110300Y0140291D02*
X0107300Y0140291D01*
X0107300Y0139692D02*
X0110300Y0139692D01*
X0110300Y0139094D02*
X0107300Y0139094D01*
X0107300Y0138495D02*
X0110300Y0138495D01*
X0110300Y0137897D02*
X0107300Y0137897D01*
X0107300Y0137298D02*
X0110300Y0137298D01*
X0110300Y0136700D02*
X0107300Y0136700D01*
X0107300Y0136101D02*
X0110300Y0136101D01*
X0110300Y0135503D02*
X0107300Y0135503D01*
X0107300Y0134904D02*
X0110300Y0134904D01*
X0110300Y0134306D02*
X0107300Y0134306D01*
X0107300Y0133707D02*
X0110300Y0133707D01*
X0110300Y0133109D02*
X0107300Y0133109D01*
X0107300Y0132510D02*
X0110300Y0132510D01*
X0110300Y0131912D02*
X0107300Y0131912D01*
X0107300Y0131313D02*
X0110300Y0131313D01*
X0110300Y0130715D02*
X0107300Y0130715D01*
X0107300Y0130116D02*
X0110300Y0130116D01*
X0110300Y0129518D02*
X0107300Y0129518D01*
X0107300Y0128919D02*
X0110300Y0128919D01*
X0110300Y0128320D02*
X0107300Y0128320D01*
X0107300Y0127722D02*
X0110300Y0127722D01*
X0110300Y0127123D02*
X0107300Y0127123D01*
X0107300Y0126525D02*
X0110300Y0126525D01*
X0110300Y0125926D02*
X0107640Y0125926D01*
X0108238Y0125328D02*
X0110300Y0125328D01*
X0110300Y0124729D02*
X0108350Y0124729D01*
X0108350Y0124131D02*
X0109965Y0124131D01*
X0109366Y0123532D02*
X0108350Y0123532D01*
X0107932Y0122934D02*
X0109250Y0122934D01*
X0109250Y0122335D02*
X0107333Y0122335D01*
X0108500Y0121884D02*
X0108500Y0144084D01*
X0106100Y0147084D02*
X0111500Y0152484D01*
X0109250Y0152261D02*
X0097700Y0152261D01*
X0097700Y0152859D02*
X0109250Y0152859D01*
X0109250Y0153234D02*
X0109250Y0151931D01*
X0104900Y0147581D01*
X0104900Y0126266D01*
X0103850Y0125216D01*
X0103850Y0123431D01*
X0103700Y0123581D01*
X0103700Y0127702D01*
X0104750Y0128752D01*
X0104750Y0130616D01*
X0103432Y0131934D01*
X0101568Y0131934D01*
X0100250Y0130616D01*
X0100250Y0128752D01*
X0101300Y0127702D01*
X0101300Y0124181D01*
X0097700Y0127781D01*
X0097700Y0145781D01*
X0096847Y0146634D01*
X0097432Y0146634D01*
X0098750Y0147952D01*
X0098750Y0149816D01*
X0097700Y0150866D01*
X0097700Y0152902D01*
X0098750Y0153952D01*
X0098750Y0155816D01*
X0098142Y0156424D01*
X0107458Y0156424D01*
X0107450Y0156416D01*
X0107450Y0154552D01*
X0108768Y0153234D01*
X0109250Y0153234D01*
X0108544Y0153458D02*
X0098256Y0153458D01*
X0098750Y0154056D02*
X0107946Y0154056D01*
X0107450Y0154655D02*
X0098750Y0154655D01*
X0098750Y0155254D02*
X0107450Y0155254D01*
X0107450Y0155852D02*
X0098714Y0155852D01*
X0096500Y0154884D02*
X0096500Y0148884D01*
X0098101Y0150465D02*
X0107784Y0150465D01*
X0107186Y0149867D02*
X0098699Y0149867D01*
X0098750Y0149268D02*
X0106587Y0149268D01*
X0105989Y0148670D02*
X0098750Y0148670D01*
X0098750Y0148071D02*
X0105390Y0148071D01*
X0104900Y0147473D02*
X0098271Y0147473D01*
X0097672Y0146874D02*
X0104900Y0146874D01*
X0104900Y0146276D02*
X0097205Y0146276D01*
X0097700Y0145677D02*
X0104900Y0145677D01*
X0104900Y0145079D02*
X0097700Y0145079D01*
X0097700Y0144480D02*
X0104900Y0144480D01*
X0104900Y0143882D02*
X0097700Y0143882D01*
X0097700Y0143283D02*
X0104900Y0143283D01*
X0104900Y0142685D02*
X0097700Y0142685D01*
X0097700Y0142086D02*
X0104900Y0142086D01*
X0104900Y0141488D02*
X0097700Y0141488D01*
X0097700Y0140889D02*
X0104900Y0140889D01*
X0104900Y0140291D02*
X0097700Y0140291D01*
X0097700Y0139692D02*
X0104900Y0139692D01*
X0104900Y0139094D02*
X0097700Y0139094D01*
X0097700Y0138495D02*
X0104900Y0138495D01*
X0104900Y0137897D02*
X0097700Y0137897D01*
X0097700Y0137298D02*
X0104900Y0137298D01*
X0104900Y0136700D02*
X0097700Y0136700D01*
X0097700Y0136101D02*
X0104900Y0136101D01*
X0104900Y0135503D02*
X0097700Y0135503D01*
X0097700Y0134904D02*
X0104900Y0134904D01*
X0104900Y0134306D02*
X0097700Y0134306D01*
X0097700Y0133707D02*
X0104900Y0133707D01*
X0104900Y0133109D02*
X0097700Y0133109D01*
X0097700Y0132510D02*
X0104900Y0132510D01*
X0104900Y0131912D02*
X0103455Y0131912D01*
X0104053Y0131313D02*
X0104900Y0131313D01*
X0104900Y0130715D02*
X0104652Y0130715D01*
X0104750Y0130116D02*
X0104900Y0130116D01*
X0104900Y0129518D02*
X0104750Y0129518D01*
X0104750Y0128919D02*
X0104900Y0128919D01*
X0104900Y0128320D02*
X0104318Y0128320D01*
X0104900Y0127722D02*
X0103720Y0127722D01*
X0103700Y0127123D02*
X0104900Y0127123D01*
X0104900Y0126525D02*
X0103700Y0126525D01*
X0103700Y0125926D02*
X0104560Y0125926D01*
X0103962Y0125328D02*
X0103700Y0125328D01*
X0103700Y0124729D02*
X0103850Y0124729D01*
X0103850Y0124131D02*
X0103700Y0124131D01*
X0103749Y0123532D02*
X0103850Y0123532D01*
X0102500Y0123084D02*
X0107300Y0118284D01*
X0108825Y0119941D02*
X0113546Y0119941D01*
X0114144Y0119343D02*
X0109423Y0119343D01*
X0109550Y0118744D02*
X0114743Y0118744D01*
X0115341Y0118146D02*
X0109550Y0118146D01*
X0109550Y0117547D02*
X0115940Y0117547D01*
X0116538Y0116949D02*
X0109147Y0116949D01*
X0108548Y0116350D02*
X0133669Y0116350D01*
X0133070Y0115752D02*
X0070180Y0115752D01*
X0070180Y0115153D02*
X0132472Y0115153D01*
X0131873Y0114555D02*
X0070180Y0114555D01*
X0070180Y0113956D02*
X0106390Y0113956D01*
X0105791Y0113358D02*
X0070180Y0113358D01*
X0070180Y0112759D02*
X0070393Y0112759D01*
X0071900Y0111084D02*
X0071900Y0109884D01*
X0072500Y0109284D01*
X0072500Y0106284D01*
X0068300Y0102084D01*
X0065300Y0102084D01*
X0061700Y0105684D01*
X0059450Y0105577D02*
X0058104Y0105577D01*
X0057506Y0106176D02*
X0059450Y0106176D01*
X0059608Y0106774D02*
X0056907Y0106774D01*
X0056309Y0107373D02*
X0060206Y0107373D01*
X0059450Y0104979D02*
X0058703Y0104979D01*
X0059301Y0104380D02*
X0059822Y0104380D01*
X0059900Y0103782D02*
X0060421Y0103782D01*
X0060498Y0103183D02*
X0062504Y0103183D01*
X0063103Y0102585D02*
X0061097Y0102585D01*
X0061695Y0101986D02*
X0063701Y0101986D01*
X0064300Y0101387D02*
X0062294Y0101387D01*
X0062300Y0099684D02*
X0067100Y0099684D01*
X0080300Y0086484D01*
X0082550Y0086425D02*
X0082700Y0086425D01*
X0082700Y0087023D02*
X0082550Y0087023D01*
X0082700Y0087622D02*
X0082344Y0087622D01*
X0082700Y0088220D02*
X0081746Y0088220D01*
X0082700Y0088819D02*
X0079663Y0088819D01*
X0079064Y0089417D02*
X0082700Y0089417D01*
X0082700Y0090016D02*
X0078466Y0090016D01*
X0077867Y0090614D02*
X0082700Y0090614D01*
X0082700Y0091213D02*
X0077268Y0091213D01*
X0076670Y0091811D02*
X0082700Y0091811D01*
X0082277Y0092410D02*
X0076071Y0092410D01*
X0075473Y0093008D02*
X0081679Y0093008D01*
X0081080Y0093607D02*
X0074874Y0093607D01*
X0074276Y0094205D02*
X0080482Y0094205D01*
X0079883Y0094804D02*
X0073677Y0094804D01*
X0073079Y0095402D02*
X0079285Y0095402D01*
X0078686Y0096001D02*
X0072480Y0096001D01*
X0071882Y0096599D02*
X0078088Y0096599D01*
X0077489Y0097198D02*
X0071283Y0097198D01*
X0070685Y0097796D02*
X0076891Y0097796D01*
X0076292Y0098395D02*
X0070086Y0098395D01*
X0069488Y0098993D02*
X0075694Y0098993D01*
X0075500Y0099592D02*
X0068889Y0099592D01*
X0068291Y0100190D02*
X0075500Y0100190D01*
X0075500Y0100789D02*
X0067692Y0100789D01*
X0069300Y0101387D02*
X0075500Y0101387D01*
X0075500Y0101986D02*
X0069899Y0101986D01*
X0070497Y0102585D02*
X0075500Y0102585D01*
X0075500Y0103183D02*
X0071096Y0103183D01*
X0071694Y0103782D02*
X0075500Y0103782D01*
X0075500Y0104380D02*
X0072293Y0104380D01*
X0072891Y0104979D02*
X0075500Y0104979D01*
X0075500Y0105577D02*
X0073490Y0105577D01*
X0073700Y0106176D02*
X0075500Y0106176D01*
X0075500Y0106774D02*
X0073700Y0106774D01*
X0073700Y0107373D02*
X0075500Y0107373D01*
X0075500Y0107971D02*
X0073700Y0107971D01*
X0073700Y0108570D02*
X0075500Y0108570D01*
X0076087Y0109168D02*
X0073700Y0109168D01*
X0073764Y0109767D02*
X0076685Y0109767D01*
X0076850Y0110365D02*
X0074150Y0110365D01*
X0074150Y0110964D02*
X0076850Y0110964D01*
X0076996Y0111562D02*
X0074150Y0111562D01*
X0074006Y0112161D02*
X0077594Y0112161D01*
X0078284Y0107971D02*
X0078805Y0107971D01*
X0078206Y0107373D02*
X0077900Y0107373D01*
X0077900Y0106774D02*
X0078050Y0106774D01*
X0078050Y0106176D02*
X0077900Y0106176D01*
X0077900Y0105577D02*
X0078050Y0105577D01*
X0077900Y0104979D02*
X0078424Y0104979D01*
X0077900Y0104380D02*
X0079022Y0104380D01*
X0077900Y0103782D02*
X0081106Y0103782D01*
X0081650Y0103183D02*
X0077900Y0103183D01*
X0077900Y0102585D02*
X0081650Y0102585D01*
X0081650Y0101986D02*
X0077900Y0101986D01*
X0077900Y0101387D02*
X0082015Y0101387D01*
X0082613Y0100789D02*
X0077900Y0100789D01*
X0077900Y0100190D02*
X0090224Y0100190D01*
X0089626Y0099592D02*
X0078489Y0099592D01*
X0079088Y0098993D02*
X0089450Y0098993D01*
X0089450Y0098395D02*
X0079686Y0098395D01*
X0080285Y0097796D02*
X0089450Y0097796D01*
X0089804Y0097198D02*
X0080883Y0097198D01*
X0081482Y0096599D02*
X0090403Y0096599D01*
X0091850Y0096001D02*
X0082080Y0096001D01*
X0082679Y0095402D02*
X0091850Y0095402D01*
X0092198Y0094804D02*
X0083277Y0094804D01*
X0083876Y0094205D02*
X0092797Y0094205D01*
X0094129Y0092410D02*
X0085100Y0092410D01*
X0085100Y0091811D02*
X0093530Y0091811D01*
X0092932Y0091213D02*
X0085100Y0091213D01*
X0085100Y0090614D02*
X0092333Y0090614D01*
X0091734Y0090016D02*
X0085100Y0090016D01*
X0085100Y0089417D02*
X0091136Y0089417D01*
X0090537Y0088819D02*
X0085100Y0088819D01*
X0085100Y0088220D02*
X0089939Y0088220D01*
X0089340Y0087622D02*
X0085100Y0087622D01*
X0085100Y0087023D02*
X0088742Y0087023D01*
X0088143Y0086425D02*
X0085100Y0086425D01*
X0085100Y0085826D02*
X0087545Y0085826D01*
X0086946Y0085228D02*
X0085100Y0085228D01*
X0085100Y0084629D02*
X0086348Y0084629D01*
X0085749Y0084031D02*
X0085100Y0084031D01*
X0085100Y0083432D02*
X0085151Y0083432D01*
X0082700Y0084031D02*
X0079936Y0084031D01*
X0080150Y0083432D02*
X0082151Y0083432D01*
X0081552Y0082834D02*
X0080150Y0082834D01*
X0080150Y0082235D02*
X0080954Y0082235D01*
X0080355Y0081637D02*
X0079834Y0081637D01*
X0079757Y0081038D02*
X0079236Y0081038D01*
X0079158Y0080440D02*
X0070837Y0080440D01*
X0070700Y0079841D02*
X0077960Y0079841D01*
X0077361Y0079243D02*
X0070700Y0079243D01*
X0070700Y0078644D02*
X0076763Y0078644D01*
X0076164Y0078046D02*
X0070700Y0078046D01*
X0070700Y0077447D02*
X0075566Y0077447D01*
X0074967Y0076849D02*
X0070700Y0076849D01*
X0070700Y0076250D02*
X0074369Y0076250D01*
X0073770Y0075652D02*
X0070700Y0075652D01*
X0070700Y0075053D02*
X0073172Y0075053D01*
X0072573Y0074454D02*
X0070700Y0074454D01*
X0070700Y0073856D02*
X0071975Y0073856D01*
X0071900Y0073257D02*
X0070700Y0073257D01*
X0070700Y0072659D02*
X0071900Y0072659D01*
X0071900Y0072060D02*
X0070700Y0072060D01*
X0070700Y0071462D02*
X0071900Y0071462D01*
X0071900Y0070863D02*
X0070700Y0070863D01*
X0070700Y0070265D02*
X0071900Y0070265D01*
X0071700Y0069666D02*
X0070700Y0069666D01*
X0070700Y0069068D02*
X0071102Y0069068D01*
X0070850Y0068469D02*
X0070700Y0068469D01*
X0068300Y0071462D02*
X0042759Y0071462D01*
X0043288Y0072060D02*
X0068300Y0072060D01*
X0068300Y0072659D02*
X0043536Y0072659D01*
X0043617Y0073257D02*
X0068300Y0073257D01*
X0068300Y0073856D02*
X0043613Y0073856D01*
X0043365Y0074454D02*
X0068300Y0074454D01*
X0068300Y0075053D02*
X0042944Y0075053D01*
X0042072Y0075652D02*
X0068300Y0075652D01*
X0071436Y0081038D02*
X0071764Y0081038D01*
X0073100Y0082884D02*
X0077900Y0082884D01*
X0076463Y0084629D02*
X0074537Y0084629D01*
X0075034Y0081637D02*
X0075966Y0081637D01*
X0076564Y0081038D02*
X0074436Y0081038D01*
X0077164Y0075652D02*
X0077450Y0075652D01*
X0077749Y0075053D02*
X0076566Y0075053D01*
X0075967Y0074454D02*
X0078348Y0074454D01*
X0079176Y0073257D02*
X0074770Y0073257D01*
X0074300Y0072659D02*
X0078578Y0072659D01*
X0079775Y0073856D02*
X0075369Y0073856D01*
X0074300Y0072060D02*
X0076494Y0072060D01*
X0075896Y0071462D02*
X0074300Y0071462D01*
X0074300Y0070863D02*
X0075650Y0070863D01*
X0075650Y0070265D02*
X0074300Y0070265D01*
X0074500Y0069666D02*
X0075650Y0069666D01*
X0075934Y0069068D02*
X0075098Y0069068D01*
X0075350Y0068469D02*
X0076533Y0068469D01*
X0075350Y0067272D02*
X0114935Y0067272D01*
X0116370Y0067534D02*
X0111880Y0072024D01*
X0114130Y0072060D02*
X0114500Y0072060D01*
X0114500Y0072659D02*
X0114130Y0072659D01*
X0114030Y0073257D02*
X0113829Y0073257D01*
X0113431Y0073856D02*
X0113230Y0073856D01*
X0112833Y0074454D02*
X0083767Y0074454D01*
X0079700Y0076284D02*
X0100100Y0096684D01*
X0100100Y0097284D01*
X0097850Y0097198D02*
X0096911Y0097198D01*
X0096350Y0096599D02*
X0097850Y0096599D01*
X0097720Y0096001D02*
X0096350Y0096001D01*
X0096350Y0095402D02*
X0097121Y0095402D01*
X0096523Y0094804D02*
X0096002Y0094804D01*
X0095924Y0094205D02*
X0095403Y0094205D01*
X0095326Y0093607D02*
X0084474Y0093607D01*
X0085073Y0093008D02*
X0094727Y0093008D01*
X0094100Y0096084D02*
X0097700Y0099684D01*
X0095900Y0102684D02*
X0091700Y0098484D01*
X0092308Y0100789D02*
X0085187Y0100789D01*
X0085785Y0101387D02*
X0092906Y0101387D01*
X0093505Y0101986D02*
X0086150Y0101986D01*
X0086150Y0102585D02*
X0094103Y0102585D01*
X0094702Y0103183D02*
X0086150Y0103183D01*
X0085985Y0103782D02*
X0095300Y0103782D01*
X0095900Y0102684D02*
X0110300Y0102684D01*
X0121700Y0091284D01*
X0121074Y0093607D02*
X0122450Y0093607D01*
X0122450Y0094205D02*
X0120476Y0094205D01*
X0119877Y0094804D02*
X0121883Y0094804D01*
X0121285Y0095402D02*
X0119279Y0095402D01*
X0118680Y0096001D02*
X0120686Y0096001D01*
X0118603Y0096599D02*
X0118082Y0096599D01*
X0118004Y0097198D02*
X0117483Y0097198D01*
X0117650Y0097796D02*
X0116885Y0097796D01*
X0116286Y0098395D02*
X0117650Y0098395D01*
X0117650Y0098993D02*
X0115688Y0098993D01*
X0115089Y0099592D02*
X0117826Y0099592D01*
X0118424Y0100190D02*
X0114491Y0100190D01*
X0113892Y0100789D02*
X0120413Y0100789D01*
X0119815Y0101387D02*
X0113294Y0101387D01*
X0112695Y0101986D02*
X0119450Y0101986D01*
X0119450Y0102585D02*
X0112097Y0102585D01*
X0111498Y0103183D02*
X0119450Y0103183D01*
X0119615Y0103782D02*
X0110900Y0103782D01*
X0109163Y0110365D02*
X0157000Y0110365D01*
X0157000Y0110964D02*
X0109761Y0110964D01*
X0107900Y0112284D02*
X0131300Y0112284D01*
X0151100Y0132084D01*
X0153350Y0131912D02*
X0157000Y0131912D01*
X0157000Y0132510D02*
X0153350Y0132510D01*
X0153258Y0133109D02*
X0157000Y0133109D01*
X0157000Y0133707D02*
X0156051Y0133707D01*
X0156649Y0134306D02*
X0157000Y0134306D01*
X0154909Y0136101D02*
X0139751Y0136101D01*
X0139152Y0136700D02*
X0155508Y0136700D01*
X0156106Y0137298D02*
X0138554Y0137298D01*
X0137955Y0137897D02*
X0156705Y0137897D01*
X0157000Y0138495D02*
X0137357Y0138495D01*
X0136758Y0139094D02*
X0157000Y0139094D01*
X0157000Y0139692D02*
X0136160Y0139692D01*
X0135561Y0140291D02*
X0157000Y0140291D01*
X0157000Y0140889D02*
X0134963Y0140889D01*
X0134364Y0141488D02*
X0157000Y0141488D01*
X0157000Y0142086D02*
X0133766Y0142086D01*
X0133167Y0142685D02*
X0157000Y0142685D01*
X0157000Y0143283D02*
X0132569Y0143283D01*
X0131970Y0143882D02*
X0157000Y0143882D01*
X0157000Y0144480D02*
X0127486Y0144480D01*
X0126887Y0145079D02*
X0157000Y0145079D01*
X0157000Y0145677D02*
X0127075Y0145677D01*
X0126832Y0145434D02*
X0127882Y0146484D01*
X0129603Y0146484D01*
X0130597Y0146484D01*
X0140347Y0156234D01*
X0141832Y0156234D01*
X0143150Y0157552D01*
X0143150Y0159416D01*
X0141832Y0160734D01*
X0139968Y0160734D01*
X0138650Y0159416D01*
X0138650Y0157931D01*
X0129603Y0148884D01*
X0127882Y0148884D01*
X0126832Y0149934D01*
X0124968Y0149934D01*
X0123650Y0148616D01*
X0123650Y0146752D01*
X0124968Y0145434D01*
X0126832Y0145434D01*
X0127674Y0146276D02*
X0157000Y0146276D01*
X0157000Y0146874D02*
X0130987Y0146874D01*
X0131586Y0147473D02*
X0157000Y0147473D01*
X0157000Y0148071D02*
X0132184Y0148071D01*
X0132783Y0148670D02*
X0157000Y0148670D01*
X0157000Y0149268D02*
X0133381Y0149268D01*
X0133980Y0149867D02*
X0157000Y0149867D01*
X0157000Y0150465D02*
X0134578Y0150465D01*
X0135177Y0151064D02*
X0157000Y0151064D01*
X0157000Y0151662D02*
X0135775Y0151662D01*
X0136374Y0152261D02*
X0157000Y0152261D01*
X0157000Y0152859D02*
X0136972Y0152859D01*
X0137571Y0153458D02*
X0157000Y0153458D01*
X0157000Y0154056D02*
X0138169Y0154056D01*
X0138768Y0154655D02*
X0157000Y0154655D01*
X0157000Y0155254D02*
X0139366Y0155254D01*
X0139965Y0155852D02*
X0157000Y0155852D01*
X0146566Y0156451D02*
X0142048Y0156451D01*
X0142647Y0157049D02*
X0145967Y0157049D01*
X0145369Y0157648D02*
X0143150Y0157648D01*
X0143150Y0158246D02*
X0144770Y0158246D01*
X0144172Y0158845D02*
X0143150Y0158845D01*
X0143123Y0159443D02*
X0143573Y0159443D01*
X0142975Y0160042D02*
X0142525Y0160042D01*
X0142376Y0160640D02*
X0141926Y0160640D01*
X0139874Y0160640D02*
X0135153Y0160640D01*
X0134554Y0160042D02*
X0139275Y0160042D01*
X0138677Y0159443D02*
X0133956Y0159443D01*
X0133357Y0158845D02*
X0138650Y0158845D01*
X0138650Y0158246D02*
X0132759Y0158246D01*
X0132160Y0157648D02*
X0138366Y0157648D01*
X0137768Y0157049D02*
X0131562Y0157049D01*
X0130963Y0156451D02*
X0137169Y0156451D01*
X0136571Y0155852D02*
X0130365Y0155852D01*
X0129766Y0155254D02*
X0135972Y0155254D01*
X0135374Y0154655D02*
X0129168Y0154655D01*
X0128569Y0154056D02*
X0134775Y0154056D01*
X0134177Y0153458D02*
X0127971Y0153458D01*
X0127372Y0152859D02*
X0133578Y0152859D01*
X0132980Y0152261D02*
X0126774Y0152261D01*
X0126175Y0151662D02*
X0132381Y0151662D01*
X0131783Y0151064D02*
X0125577Y0151064D01*
X0124978Y0150465D02*
X0131184Y0150465D01*
X0130586Y0149867D02*
X0126899Y0149867D01*
X0127498Y0149268D02*
X0129987Y0149268D01*
X0130100Y0147684D02*
X0140900Y0158484D01*
X0130100Y0147684D02*
X0125900Y0147684D01*
X0124302Y0149268D02*
X0123781Y0149268D01*
X0123704Y0148670D02*
X0123190Y0148670D01*
X0123190Y0148071D02*
X0123650Y0148071D01*
X0123650Y0147473D02*
X0123190Y0147473D01*
X0123190Y0146874D02*
X0123650Y0146874D01*
X0123190Y0146276D02*
X0124126Y0146276D01*
X0124725Y0145677D02*
X0123190Y0145677D01*
X0123190Y0145079D02*
X0124913Y0145079D01*
X0124314Y0144480D02*
X0123190Y0144480D01*
X0123190Y0143882D02*
X0123716Y0143882D01*
X0123650Y0143283D02*
X0123190Y0143283D01*
X0123190Y0142685D02*
X0123650Y0142685D01*
X0123650Y0142086D02*
X0123190Y0142086D01*
X0123190Y0141488D02*
X0124115Y0141488D01*
X0124713Y0140889D02*
X0123190Y0140889D01*
X0123190Y0140291D02*
X0132026Y0140291D01*
X0131427Y0140889D02*
X0127087Y0140889D01*
X0127685Y0141488D02*
X0130829Y0141488D01*
X0132624Y0139692D02*
X0123190Y0139692D01*
X0123190Y0139094D02*
X0128060Y0139094D01*
X0126615Y0138495D02*
X0123190Y0138495D01*
X0123190Y0137897D02*
X0125469Y0137897D01*
X0124870Y0137298D02*
X0123190Y0137298D01*
X0123190Y0136700D02*
X0124272Y0136700D01*
X0123673Y0136101D02*
X0123190Y0136101D01*
X0123190Y0135503D02*
X0123370Y0135503D01*
X0123257Y0128320D02*
X0123190Y0128320D01*
X0123190Y0127722D02*
X0123505Y0127722D01*
X0123190Y0127123D02*
X0124000Y0127123D01*
X0123556Y0126525D02*
X0124598Y0126525D01*
X0124155Y0125926D02*
X0125197Y0125926D01*
X0124753Y0125328D02*
X0125959Y0125328D01*
X0125352Y0124729D02*
X0127404Y0124729D01*
X0126500Y0123532D02*
X0140851Y0123532D01*
X0140253Y0122934D02*
X0126500Y0122934D01*
X0126500Y0122335D02*
X0139654Y0122335D01*
X0139056Y0121737D02*
X0126500Y0121737D01*
X0126500Y0121138D02*
X0138457Y0121138D01*
X0137859Y0120540D02*
X0126500Y0120540D01*
X0126500Y0119941D02*
X0137260Y0119941D01*
X0136662Y0119343D02*
X0126500Y0119343D01*
X0126257Y0118744D02*
X0136063Y0118744D01*
X0135465Y0118146D02*
X0125659Y0118146D01*
X0125060Y0117547D02*
X0134866Y0117547D01*
X0134267Y0116949D02*
X0124462Y0116949D01*
X0125300Y0116484D02*
X0113900Y0116484D01*
X0108500Y0121884D01*
X0109250Y0121737D02*
X0105544Y0121737D01*
X0106143Y0121138D02*
X0109664Y0121138D01*
X0110262Y0120540D02*
X0106741Y0120540D01*
X0105050Y0118744D02*
X0103742Y0118744D01*
X0104150Y0119343D02*
X0104544Y0119343D01*
X0105050Y0118146D02*
X0103144Y0118146D01*
X0105050Y0117547D02*
X0071433Y0117547D01*
X0071681Y0118146D02*
X0100656Y0118146D01*
X0100058Y0118744D02*
X0071790Y0118744D01*
X0071790Y0119343D02*
X0081169Y0119343D01*
X0080571Y0119941D02*
X0071790Y0119941D01*
X0071790Y0120540D02*
X0080350Y0120540D01*
X0084031Y0119343D02*
X0099650Y0119343D01*
X0099650Y0119941D02*
X0084629Y0119941D01*
X0084850Y0120540D02*
X0099650Y0120540D01*
X0099772Y0121138D02*
X0090982Y0121138D01*
X0091581Y0121737D02*
X0100350Y0121737D01*
X0099752Y0122335D02*
X0092035Y0122335D01*
X0092283Y0122934D02*
X0099153Y0122934D01*
X0098555Y0123532D02*
X0092450Y0123532D01*
X0092450Y0124131D02*
X0097956Y0124131D01*
X0097358Y0124729D02*
X0092434Y0124729D01*
X0092186Y0125328D02*
X0096759Y0125328D01*
X0096161Y0125926D02*
X0091938Y0125926D01*
X0091348Y0126525D02*
X0095562Y0126525D01*
X0095300Y0127123D02*
X0090428Y0127123D01*
X0087540Y0125014D02*
X0087340Y0124844D01*
X0095300Y0127722D02*
X0069880Y0127722D01*
X0069880Y0128320D02*
X0095300Y0128320D01*
X0095300Y0128919D02*
X0069880Y0128919D01*
X0069880Y0129518D02*
X0095300Y0129518D01*
X0095300Y0130116D02*
X0069880Y0130116D01*
X0069880Y0130715D02*
X0095300Y0130715D01*
X0095300Y0131313D02*
X0069880Y0131313D01*
X0069880Y0131912D02*
X0095300Y0131912D01*
X0095300Y0132510D02*
X0069880Y0132510D01*
X0069880Y0133109D02*
X0095300Y0133109D01*
X0095300Y0133707D02*
X0069880Y0133707D01*
X0069880Y0134306D02*
X0095300Y0134306D01*
X0095300Y0134904D02*
X0069880Y0134904D01*
X0069880Y0135503D02*
X0095300Y0135503D01*
X0095300Y0136101D02*
X0069880Y0136101D01*
X0069880Y0136700D02*
X0095300Y0136700D01*
X0095300Y0137298D02*
X0069880Y0137298D01*
X0069880Y0137897D02*
X0095300Y0137897D01*
X0095300Y0138495D02*
X0069880Y0138495D01*
X0069880Y0139094D02*
X0095300Y0139094D01*
X0095300Y0139692D02*
X0069880Y0139692D01*
X0069880Y0140291D02*
X0095300Y0140291D01*
X0095300Y0140889D02*
X0069880Y0140889D01*
X0069880Y0141488D02*
X0095300Y0141488D01*
X0095300Y0142086D02*
X0069880Y0142086D01*
X0069880Y0142685D02*
X0095300Y0142685D01*
X0095300Y0143283D02*
X0069880Y0143283D01*
X0069880Y0143882D02*
X0095300Y0143882D01*
X0095300Y0144480D02*
X0069880Y0144480D01*
X0069880Y0145079D02*
X0095008Y0145079D01*
X0094410Y0145677D02*
X0069880Y0145677D01*
X0069880Y0146276D02*
X0093811Y0146276D01*
X0093213Y0146874D02*
X0069880Y0146874D01*
X0069880Y0147473D02*
X0092614Y0147473D01*
X0092016Y0148071D02*
X0069880Y0148071D01*
X0069880Y0148670D02*
X0091417Y0148670D01*
X0090819Y0149268D02*
X0069880Y0149268D01*
X0069880Y0149867D02*
X0090220Y0149867D01*
X0089622Y0150465D02*
X0069880Y0150465D01*
X0069880Y0151064D02*
X0089023Y0151064D01*
X0088425Y0151662D02*
X0069880Y0151662D01*
X0069880Y0152261D02*
X0087826Y0152261D01*
X0085743Y0152859D02*
X0069880Y0152859D01*
X0069880Y0153458D02*
X0085144Y0153458D01*
X0084650Y0154056D02*
X0069880Y0154056D01*
X0069880Y0154655D02*
X0084650Y0154655D01*
X0084650Y0155254D02*
X0069880Y0155254D01*
X0069880Y0155852D02*
X0084686Y0155852D01*
X0086900Y0154884D02*
X0096500Y0145284D01*
X0096500Y0127284D01*
X0101900Y0121884D01*
X0101900Y0120084D01*
X0102500Y0123084D02*
X0102500Y0129684D01*
X0100947Y0131313D02*
X0097700Y0131313D01*
X0097700Y0130715D02*
X0100348Y0130715D01*
X0100250Y0130116D02*
X0097700Y0130116D01*
X0097700Y0129518D02*
X0100250Y0129518D01*
X0100250Y0128919D02*
X0097700Y0128919D01*
X0097700Y0128320D02*
X0100682Y0128320D01*
X0101280Y0127722D02*
X0097759Y0127722D01*
X0098358Y0127123D02*
X0101300Y0127123D01*
X0101300Y0126525D02*
X0098956Y0126525D01*
X0099555Y0125926D02*
X0101300Y0125926D01*
X0101300Y0125328D02*
X0100153Y0125328D01*
X0100752Y0124729D02*
X0101300Y0124729D01*
X0106100Y0124284D02*
X0106100Y0147084D01*
X0108383Y0151064D02*
X0097700Y0151064D01*
X0097700Y0151662D02*
X0108981Y0151662D01*
X0109700Y0155484D02*
X0112100Y0157884D01*
X0115100Y0157884D01*
X0116300Y0156684D01*
X0116300Y0124284D01*
X0115700Y0123684D01*
X0115700Y0121284D01*
X0116900Y0120084D01*
X0120500Y0120084D01*
X0121700Y0121284D01*
X0121700Y0123794D01*
X0119980Y0125514D01*
X0119980Y0161564D01*
X0122900Y0164484D01*
X0119300Y0164484D02*
X0118160Y0164484D01*
X0118160Y0122544D01*
X0118100Y0122484D01*
X0112947Y0120540D02*
X0112738Y0120540D01*
X0109410Y0113956D02*
X0131275Y0113956D01*
X0132873Y0112161D02*
X0157000Y0112161D01*
X0157000Y0112759D02*
X0133472Y0112759D01*
X0134071Y0113358D02*
X0157000Y0113358D01*
X0157000Y0113956D02*
X0134669Y0113956D01*
X0135268Y0114555D02*
X0157000Y0114555D01*
X0157000Y0115153D02*
X0135866Y0115153D01*
X0136465Y0115752D02*
X0157000Y0115752D01*
X0157000Y0116350D02*
X0137063Y0116350D01*
X0137662Y0116949D02*
X0157000Y0116949D01*
X0157000Y0117547D02*
X0138260Y0117547D01*
X0138859Y0118146D02*
X0157000Y0118146D01*
X0157000Y0118744D02*
X0139457Y0118744D01*
X0140056Y0119343D02*
X0157000Y0119343D01*
X0157000Y0119941D02*
X0140654Y0119941D01*
X0141253Y0120540D02*
X0157000Y0120540D01*
X0157000Y0121138D02*
X0141851Y0121138D01*
X0142450Y0121737D02*
X0157000Y0121737D01*
X0157000Y0122335D02*
X0143048Y0122335D01*
X0143647Y0122934D02*
X0157000Y0122934D01*
X0157100Y0122484D02*
X0145100Y0122484D01*
X0144245Y0123532D02*
X0157000Y0123532D01*
X0157000Y0124131D02*
X0144844Y0124131D01*
X0145442Y0124729D02*
X0157000Y0124729D01*
X0157000Y0125328D02*
X0146041Y0125328D01*
X0146639Y0125926D02*
X0157000Y0125926D01*
X0157000Y0126525D02*
X0147238Y0126525D01*
X0147836Y0127123D02*
X0157000Y0127123D01*
X0157000Y0127722D02*
X0148435Y0127722D01*
X0149033Y0128320D02*
X0157000Y0128320D01*
X0157000Y0128919D02*
X0149632Y0128919D01*
X0150230Y0129518D02*
X0157000Y0129518D01*
X0157000Y0130116D02*
X0152314Y0130116D01*
X0152912Y0130715D02*
X0157000Y0130715D01*
X0157000Y0131313D02*
X0153350Y0131313D01*
X0148850Y0131912D02*
X0137380Y0131912D01*
X0137380Y0132510D02*
X0148850Y0132510D01*
X0148942Y0133109D02*
X0137380Y0133109D01*
X0137196Y0133707D02*
X0138609Y0133707D01*
X0138011Y0134306D02*
X0136948Y0134306D01*
X0136700Y0134904D02*
X0137412Y0134904D01*
X0136814Y0135503D02*
X0136452Y0135503D01*
X0136215Y0136101D02*
X0136149Y0136101D01*
X0135617Y0136700D02*
X0135550Y0136700D01*
X0135018Y0137298D02*
X0134952Y0137298D01*
X0134420Y0137897D02*
X0134353Y0137897D01*
X0133821Y0138495D02*
X0133207Y0138495D01*
X0133223Y0139094D02*
X0131762Y0139094D01*
X0137380Y0131313D02*
X0148632Y0131313D01*
X0148033Y0130715D02*
X0137380Y0130715D01*
X0137308Y0130116D02*
X0147435Y0130116D01*
X0146836Y0129518D02*
X0137060Y0129518D01*
X0136812Y0128919D02*
X0146238Y0128919D01*
X0145639Y0128320D02*
X0136565Y0128320D01*
X0136317Y0127722D02*
X0145041Y0127722D01*
X0144442Y0127123D02*
X0135822Y0127123D01*
X0136100Y0127284D02*
X0125300Y0116484D01*
X0125950Y0124131D02*
X0141450Y0124131D01*
X0142048Y0124729D02*
X0132418Y0124729D01*
X0133863Y0125328D02*
X0142647Y0125328D01*
X0143245Y0125926D02*
X0134625Y0125926D01*
X0135224Y0126525D02*
X0143844Y0126525D01*
X0142700Y0127284D02*
X0136100Y0127284D01*
X0132275Y0111562D02*
X0157000Y0111562D01*
X0157000Y0101387D02*
X0155215Y0101387D01*
X0155813Y0100789D02*
X0157000Y0100789D01*
X0157000Y0100190D02*
X0156412Y0100190D01*
X0146310Y0086425D02*
X0104257Y0086425D01*
X0104855Y0085826D02*
X0146310Y0085826D01*
X0146310Y0085228D02*
X0105454Y0085228D01*
X0106052Y0084629D02*
X0146310Y0084629D01*
X0146310Y0084031D02*
X0106651Y0084031D01*
X0107249Y0083432D02*
X0146310Y0083432D01*
X0146310Y0082834D02*
X0107848Y0082834D01*
X0108446Y0082235D02*
X0146310Y0082235D01*
X0146310Y0081637D02*
X0109045Y0081637D01*
X0109643Y0081038D02*
X0146310Y0081038D01*
X0146310Y0080440D02*
X0110242Y0080440D01*
X0110840Y0079841D02*
X0146310Y0079841D01*
X0146310Y0079243D02*
X0111439Y0079243D01*
X0112037Y0078644D02*
X0146310Y0078644D01*
X0146310Y0078046D02*
X0112636Y0078046D01*
X0113234Y0077447D02*
X0146310Y0077447D01*
X0146310Y0076849D02*
X0141891Y0076849D01*
X0141805Y0076934D02*
X0140573Y0076934D01*
X0140573Y0073534D01*
X0143973Y0073534D01*
X0143973Y0074767D01*
X0141805Y0076934D01*
X0142490Y0076250D02*
X0146310Y0076250D01*
X0146310Y0075652D02*
X0143088Y0075652D01*
X0143687Y0075053D02*
X0146310Y0075053D01*
X0146310Y0074454D02*
X0143973Y0074454D01*
X0143973Y0073856D02*
X0146310Y0073856D01*
X0146310Y0073257D02*
X0140573Y0073257D01*
X0140573Y0073534D02*
X0140573Y0072934D01*
X0140573Y0069534D01*
X0141805Y0069534D01*
X0143973Y0071702D01*
X0143973Y0072934D01*
X0140573Y0072934D01*
X0139973Y0072934D01*
X0139973Y0069534D01*
X0138740Y0069534D01*
X0136573Y0071702D01*
X0136573Y0072934D01*
X0139973Y0072934D01*
X0139973Y0073534D01*
X0136573Y0073534D01*
X0136573Y0074767D01*
X0138740Y0076934D01*
X0139973Y0076934D01*
X0139973Y0073534D01*
X0140573Y0073534D01*
X0140573Y0073856D02*
X0139973Y0073856D01*
X0139973Y0074454D02*
X0140573Y0074454D01*
X0140573Y0075053D02*
X0139973Y0075053D01*
X0139973Y0075652D02*
X0140573Y0075652D01*
X0140573Y0076250D02*
X0139973Y0076250D01*
X0139973Y0076849D02*
X0140573Y0076849D01*
X0138654Y0076849D02*
X0113833Y0076849D01*
X0114431Y0076250D02*
X0118622Y0076250D01*
X0118023Y0075652D02*
X0115030Y0075652D01*
X0115628Y0075053D02*
X0117425Y0075053D01*
X0116973Y0074454D02*
X0116227Y0074454D01*
X0116825Y0073856D02*
X0116973Y0073856D01*
X0116973Y0073257D02*
X0116900Y0073257D01*
X0116900Y0072659D02*
X0116973Y0072659D01*
X0115224Y0070863D02*
X0114738Y0070863D01*
X0114625Y0071462D02*
X0114139Y0071462D01*
X0115336Y0070265D02*
X0115822Y0070265D01*
X0115935Y0069666D02*
X0116421Y0069666D01*
X0116533Y0069068D02*
X0117019Y0069068D01*
X0117132Y0068469D02*
X0117618Y0068469D01*
X0121875Y0065477D02*
X0146254Y0065477D01*
X0145656Y0066075D02*
X0122473Y0066075D01*
X0122750Y0066674D02*
X0145377Y0066674D01*
X0145989Y0069666D02*
X0141937Y0069666D01*
X0142536Y0070265D02*
X0146310Y0070265D01*
X0146310Y0070863D02*
X0143134Y0070863D01*
X0143733Y0071462D02*
X0146310Y0071462D01*
X0146310Y0072060D02*
X0143973Y0072060D01*
X0143973Y0072659D02*
X0146310Y0072659D01*
X0140573Y0072659D02*
X0139973Y0072659D01*
X0139973Y0073257D02*
X0123573Y0073257D01*
X0123573Y0072659D02*
X0136573Y0072659D01*
X0136573Y0072060D02*
X0123573Y0072060D01*
X0123167Y0071462D02*
X0136813Y0071462D01*
X0137411Y0070863D02*
X0122569Y0070863D01*
X0123573Y0073856D02*
X0136573Y0073856D01*
X0136573Y0074454D02*
X0123573Y0074454D01*
X0123121Y0075053D02*
X0136859Y0075053D01*
X0137457Y0075652D02*
X0122523Y0075652D01*
X0121924Y0076250D02*
X0138056Y0076250D01*
X0139973Y0072060D02*
X0140573Y0072060D01*
X0140573Y0071462D02*
X0139973Y0071462D01*
X0139973Y0070863D02*
X0140573Y0070863D01*
X0140573Y0070265D02*
X0139973Y0070265D01*
X0139973Y0069666D02*
X0140573Y0069666D01*
X0157000Y0062484D02*
X0117570Y0062484D01*
X0117570Y0061886D02*
X0157000Y0061886D01*
X0127100Y0092484D02*
X0123500Y0088884D01*
X0116900Y0088884D01*
X0105500Y0100284D01*
X0105500Y0096684D02*
X0107300Y0096684D01*
X0116300Y0087684D01*
X0124100Y0087684D01*
X0127100Y0092484D02*
X0127100Y0094884D01*
X0126500Y0095484D01*
X0126500Y0100284D01*
X0123186Y0104380D02*
X0130699Y0104380D01*
X0131297Y0104979D02*
X0083303Y0104979D01*
X0082704Y0105577D02*
X0134611Y0105577D01*
X0136100Y0103884D02*
X0131900Y0103884D01*
X0130700Y0102684D01*
X0121700Y0102684D01*
X0120214Y0104380D02*
X0085386Y0104380D01*
X0083900Y0102684D02*
X0080300Y0106284D01*
X0073407Y0112759D02*
X0105650Y0112759D01*
X0106052Y0116350D02*
X0070464Y0116350D01*
X0071063Y0116949D02*
X0105453Y0116949D01*
X0101545Y0131912D02*
X0097700Y0131912D01*
X0107280Y0163633D02*
X0066540Y0163633D01*
X0063080Y0156451D02*
X0051500Y0156451D01*
X0051500Y0157049D02*
X0060315Y0157049D01*
X0059288Y0157648D02*
X0051500Y0157648D01*
X0051500Y0158246D02*
X0058690Y0158246D01*
X0058405Y0158845D02*
X0051500Y0158845D01*
X0051756Y0159443D02*
X0058158Y0159443D01*
X0058110Y0160042D02*
X0052354Y0160042D01*
X0052953Y0160640D02*
X0058110Y0160640D01*
X0058246Y0161239D02*
X0053551Y0161239D01*
X0054150Y0161837D02*
X0058494Y0161837D01*
X0058903Y0162436D02*
X0054748Y0162436D01*
X0055347Y0163034D02*
X0059502Y0163034D01*
X0060830Y0163633D02*
X0055945Y0163633D01*
X0056544Y0164231D02*
X0107879Y0164231D01*
X0108477Y0164830D02*
X0057142Y0164830D01*
X0057741Y0165428D02*
X0109076Y0165428D01*
X0096311Y0179792D02*
X0094893Y0179792D01*
X0094893Y0179679D02*
X0094193Y0177989D01*
X0092899Y0176695D01*
X0091208Y0175994D01*
X0089378Y0175994D01*
X0087687Y0176695D01*
X0086393Y0177989D01*
X0085693Y0179679D01*
X0085693Y0181509D01*
X0086393Y0183200D01*
X0087687Y0184494D01*
X0089378Y0185194D01*
X0091208Y0185194D01*
X0092899Y0184494D01*
X0094193Y0183200D01*
X0094893Y0181509D01*
X0094893Y0179679D01*
X0094692Y0179194D02*
X0095713Y0179194D01*
X0095114Y0178595D02*
X0094444Y0178595D01*
X0094516Y0177997D02*
X0094196Y0177997D01*
X0093917Y0177398D02*
X0093602Y0177398D01*
X0093319Y0176800D02*
X0093004Y0176800D01*
X0092120Y0176201D02*
X0091707Y0176201D01*
X0091522Y0175603D02*
X0059763Y0175603D01*
X0060362Y0175004D02*
X0087919Y0175004D01*
X0086599Y0174406D02*
X0060950Y0174406D01*
X0060950Y0173807D02*
X0086000Y0173807D01*
X0087582Y0176800D02*
X0046550Y0176800D01*
X0046550Y0176752D02*
X0046550Y0178616D01*
X0045232Y0179934D01*
X0043747Y0179934D01*
X0043700Y0179981D01*
X0042997Y0180684D01*
X0062947Y0200634D01*
X0064432Y0200634D01*
X0064688Y0200890D01*
X0064688Y0200443D01*
X0065215Y0199916D01*
X0070292Y0199916D01*
X0070819Y0200443D01*
X0070819Y0205126D01*
X0070760Y0205184D01*
X0070819Y0205243D01*
X0070819Y0209926D01*
X0070292Y0210453D01*
X0065215Y0210453D01*
X0064688Y0209926D01*
X0064688Y0209678D01*
X0064432Y0209934D01*
X0062568Y0209934D01*
X0061250Y0208616D01*
X0061250Y0206752D01*
X0062568Y0205434D01*
X0064432Y0205434D01*
X0064688Y0205690D01*
X0064688Y0205243D01*
X0064747Y0205184D01*
X0064688Y0205126D01*
X0064688Y0204878D01*
X0064432Y0205134D01*
X0062568Y0205134D01*
X0061250Y0203816D01*
X0061250Y0202331D01*
X0039046Y0180128D01*
X0039042Y0180132D01*
X0037843Y0180628D01*
X0036546Y0180628D01*
X0036480Y0180601D01*
X0029150Y0187931D01*
X0029150Y0188216D01*
X0027832Y0189534D01*
X0026498Y0189534D01*
X0026882Y0189918D01*
X0027582Y0191609D01*
X0027582Y0193439D01*
X0026882Y0195129D01*
X0025588Y0196423D01*
X0023897Y0197124D01*
X0022067Y0197124D01*
X0020376Y0196423D01*
X0019082Y0195129D01*
X0018382Y0193439D01*
X0018382Y0191609D01*
X0019082Y0189918D01*
X0020376Y0188624D01*
X0022067Y0187924D01*
X0023897Y0187924D01*
X0024683Y0188249D01*
X0024650Y0188216D01*
X0024650Y0186812D01*
X0023897Y0187124D01*
X0022067Y0187124D01*
X0020376Y0186423D01*
X0019082Y0185129D01*
X0018382Y0183439D01*
X0018382Y0181609D01*
X0019082Y0179918D01*
X0020376Y0178624D01*
X0022067Y0177924D01*
X0023897Y0177924D01*
X0025588Y0178624D01*
X0026882Y0179918D01*
X0027582Y0181609D01*
X0027582Y0183439D01*
X0026921Y0185034D01*
X0027832Y0185034D01*
X0028242Y0185445D01*
X0034451Y0179236D01*
X0034429Y0179214D01*
X0033932Y0178015D01*
X0033932Y0176717D01*
X0034429Y0175518D01*
X0035347Y0174601D01*
X0036546Y0174104D01*
X0037843Y0174104D01*
X0039042Y0174601D01*
X0039960Y0175518D01*
X0040457Y0176717D01*
X0040457Y0178015D01*
X0040419Y0178106D01*
X0040597Y0178284D01*
X0042003Y0178284D01*
X0042050Y0178237D01*
X0042050Y0176752D01*
X0043368Y0175434D01*
X0045232Y0175434D01*
X0046550Y0176752D01*
X0046550Y0177398D02*
X0086984Y0177398D01*
X0086390Y0177997D02*
X0046550Y0177997D01*
X0046550Y0178595D02*
X0086142Y0178595D01*
X0085894Y0179194D02*
X0045972Y0179194D01*
X0045374Y0179792D02*
X0085693Y0179792D01*
X0085693Y0180391D02*
X0043290Y0180391D01*
X0042997Y0180684D02*
X0042997Y0180684D01*
X0043302Y0180989D02*
X0085693Y0180989D01*
X0085725Y0181588D02*
X0043901Y0181588D01*
X0044499Y0182187D02*
X0085973Y0182187D01*
X0086221Y0182785D02*
X0045098Y0182785D01*
X0045696Y0183384D02*
X0086577Y0183384D01*
X0087175Y0183982D02*
X0046295Y0183982D01*
X0046893Y0184581D02*
X0087896Y0184581D01*
X0089341Y0185179D02*
X0047492Y0185179D01*
X0048090Y0185778D02*
X0102296Y0185778D01*
X0102650Y0186376D02*
X0091129Y0186376D01*
X0091245Y0185179D02*
X0101698Y0185179D01*
X0101099Y0184581D02*
X0092690Y0184581D01*
X0093411Y0183982D02*
X0100501Y0183982D01*
X0099902Y0183384D02*
X0094009Y0183384D01*
X0094365Y0182785D02*
X0099304Y0182785D01*
X0098705Y0182187D02*
X0094612Y0182187D01*
X0094860Y0181588D02*
X0098107Y0181588D01*
X0097508Y0180989D02*
X0094893Y0180989D01*
X0094893Y0180391D02*
X0096910Y0180391D01*
X0093500Y0175284D02*
X0104900Y0186684D01*
X0103205Y0188172D02*
X0093268Y0188172D01*
X0093516Y0188770D02*
X0103804Y0188770D01*
X0102650Y0187573D02*
X0092777Y0187573D01*
X0092178Y0186975D02*
X0102650Y0186975D01*
X0093500Y0175284D02*
X0092900Y0175284D01*
X0091100Y0173484D01*
X0091100Y0172884D01*
X0089300Y0171084D01*
X0089293Y0170594D01*
X0090667Y0175004D02*
X0090923Y0175004D01*
X0088878Y0176201D02*
X0045999Y0176201D01*
X0045401Y0175603D02*
X0057637Y0175603D01*
X0057038Y0175004D02*
X0039446Y0175004D01*
X0039995Y0175603D02*
X0043199Y0175603D01*
X0042601Y0176201D02*
X0040243Y0176201D01*
X0040457Y0176800D02*
X0042050Y0176800D01*
X0042050Y0177398D02*
X0040457Y0177398D01*
X0040457Y0177997D02*
X0042050Y0177997D01*
X0042500Y0179484D02*
X0040100Y0179484D01*
X0063500Y0202884D01*
X0067700Y0202884D01*
X0067754Y0202784D01*
X0064688Y0200740D02*
X0064538Y0200740D01*
X0064989Y0200142D02*
X0062455Y0200142D01*
X0060856Y0201937D02*
X0016100Y0201937D01*
X0016100Y0201339D02*
X0060258Y0201339D01*
X0059659Y0200740D02*
X0016100Y0200740D01*
X0016100Y0200142D02*
X0059061Y0200142D01*
X0058462Y0199543D02*
X0025938Y0199543D01*
X0026536Y0198945D02*
X0057864Y0198945D01*
X0057265Y0198346D02*
X0027135Y0198346D01*
X0027733Y0197748D02*
X0056667Y0197748D01*
X0056068Y0197149D02*
X0028332Y0197149D01*
X0028930Y0196551D02*
X0055470Y0196551D01*
X0054871Y0195952D02*
X0029529Y0195952D01*
X0030128Y0195354D02*
X0054272Y0195354D01*
X0053674Y0194755D02*
X0030726Y0194755D01*
X0031325Y0194157D02*
X0053075Y0194157D01*
X0052477Y0193558D02*
X0031923Y0193558D01*
X0032522Y0192960D02*
X0051878Y0192960D01*
X0051280Y0192361D02*
X0033120Y0192361D01*
X0033719Y0191763D02*
X0050681Y0191763D01*
X0050083Y0191164D02*
X0034317Y0191164D01*
X0034916Y0190566D02*
X0036394Y0190566D01*
X0037995Y0190566D02*
X0049484Y0190566D01*
X0048886Y0189967D02*
X0039207Y0189967D01*
X0039805Y0189369D02*
X0048287Y0189369D01*
X0047689Y0188770D02*
X0040144Y0188770D01*
X0040392Y0188172D02*
X0047090Y0188172D01*
X0046492Y0187573D02*
X0040457Y0187573D01*
X0040457Y0186975D02*
X0045893Y0186975D01*
X0045295Y0186376D02*
X0040315Y0186376D01*
X0040067Y0185778D02*
X0044696Y0185778D01*
X0044098Y0185179D02*
X0039621Y0185179D01*
X0038994Y0184581D02*
X0043499Y0184581D01*
X0042901Y0183982D02*
X0033099Y0183982D01*
X0032501Y0184581D02*
X0035395Y0184581D01*
X0034768Y0185179D02*
X0031902Y0185179D01*
X0031304Y0185778D02*
X0034321Y0185778D01*
X0034074Y0186376D02*
X0030705Y0186376D01*
X0030107Y0186975D02*
X0033932Y0186975D01*
X0033932Y0187573D02*
X0029508Y0187573D01*
X0029150Y0188172D02*
X0033916Y0188172D01*
X0033317Y0188770D02*
X0028596Y0188770D01*
X0027998Y0189369D02*
X0032719Y0189369D01*
X0032120Y0189967D02*
X0026902Y0189967D01*
X0027150Y0190566D02*
X0031522Y0190566D01*
X0030923Y0191164D02*
X0027398Y0191164D01*
X0027582Y0191763D02*
X0030324Y0191763D01*
X0029726Y0192361D02*
X0027582Y0192361D01*
X0027582Y0192960D02*
X0029127Y0192960D01*
X0028529Y0193558D02*
X0027532Y0193558D01*
X0027284Y0194157D02*
X0027930Y0194157D01*
X0027332Y0194755D02*
X0027037Y0194755D01*
X0026733Y0195354D02*
X0026657Y0195354D01*
X0026135Y0195952D02*
X0026059Y0195952D01*
X0025536Y0196551D02*
X0025280Y0196551D01*
X0024938Y0197149D02*
X0019862Y0197149D01*
X0019264Y0196551D02*
X0020684Y0196551D01*
X0019905Y0195952D02*
X0018665Y0195952D01*
X0018067Y0195354D02*
X0019307Y0195354D01*
X0018927Y0194755D02*
X0017468Y0194755D01*
X0016870Y0194157D02*
X0018679Y0194157D01*
X0018431Y0193558D02*
X0016271Y0193558D01*
X0016100Y0192960D02*
X0018382Y0192960D01*
X0018382Y0192361D02*
X0016100Y0192361D01*
X0016100Y0191763D02*
X0018382Y0191763D01*
X0018566Y0191164D02*
X0016100Y0191164D01*
X0016100Y0190566D02*
X0018814Y0190566D01*
X0019062Y0189967D02*
X0016100Y0189967D01*
X0016100Y0189369D02*
X0019631Y0189369D01*
X0020230Y0188770D02*
X0016100Y0188770D01*
X0016100Y0188172D02*
X0021468Y0188172D01*
X0021707Y0186975D02*
X0016100Y0186975D01*
X0016100Y0187573D02*
X0024650Y0187573D01*
X0024650Y0186975D02*
X0024257Y0186975D01*
X0024496Y0188172D02*
X0024650Y0188172D01*
X0026900Y0187284D02*
X0028100Y0187284D01*
X0037700Y0177684D01*
X0037194Y0177366D01*
X0037700Y0177084D01*
X0040100Y0179484D01*
X0039310Y0180391D02*
X0038416Y0180391D01*
X0039908Y0180989D02*
X0036092Y0180989D01*
X0035493Y0181588D02*
X0040507Y0181588D01*
X0041105Y0182187D02*
X0034895Y0182187D01*
X0034296Y0182785D02*
X0041704Y0182785D01*
X0042302Y0183384D02*
X0033698Y0183384D01*
X0032099Y0181588D02*
X0027573Y0181588D01*
X0027582Y0182187D02*
X0031501Y0182187D01*
X0030902Y0182785D02*
X0027582Y0182785D01*
X0027582Y0183384D02*
X0030304Y0183384D01*
X0029705Y0183982D02*
X0027357Y0183982D01*
X0027109Y0184581D02*
X0029107Y0184581D01*
X0028508Y0185179D02*
X0027977Y0185179D01*
X0027325Y0180989D02*
X0032698Y0180989D01*
X0033296Y0180391D02*
X0027078Y0180391D01*
X0026756Y0179792D02*
X0033895Y0179792D01*
X0034421Y0179194D02*
X0026158Y0179194D01*
X0025519Y0178595D02*
X0034173Y0178595D01*
X0033932Y0177997D02*
X0024074Y0177997D01*
X0023897Y0177124D02*
X0022067Y0177124D01*
X0020376Y0176423D01*
X0019082Y0175129D01*
X0018382Y0173439D01*
X0018382Y0171609D01*
X0019082Y0169918D01*
X0020376Y0168624D01*
X0022067Y0167924D01*
X0023897Y0167924D01*
X0025588Y0168624D01*
X0026882Y0169918D01*
X0027582Y0171609D01*
X0027582Y0173439D01*
X0026882Y0175129D01*
X0025588Y0176423D01*
X0023897Y0177124D01*
X0024678Y0176800D02*
X0033932Y0176800D01*
X0033932Y0177398D02*
X0016100Y0177398D01*
X0016100Y0176800D02*
X0021285Y0176800D01*
X0020154Y0176201D02*
X0016100Y0176201D01*
X0016100Y0175603D02*
X0019556Y0175603D01*
X0019030Y0175004D02*
X0016100Y0175004D01*
X0016100Y0174406D02*
X0018783Y0174406D01*
X0018535Y0173807D02*
X0016100Y0173807D01*
X0016100Y0173209D02*
X0018382Y0173209D01*
X0018382Y0172610D02*
X0016100Y0172610D01*
X0016100Y0172012D02*
X0018382Y0172012D01*
X0018463Y0171413D02*
X0016100Y0171413D01*
X0016100Y0170815D02*
X0018711Y0170815D01*
X0018959Y0170216D02*
X0016100Y0170216D01*
X0016100Y0169618D02*
X0019382Y0169618D01*
X0019981Y0169019D02*
X0016100Y0169019D01*
X0016100Y0168421D02*
X0020867Y0168421D01*
X0022067Y0167124D02*
X0020376Y0166423D01*
X0019082Y0165129D01*
X0018382Y0163439D01*
X0018382Y0161609D01*
X0019082Y0159918D01*
X0020376Y0158624D01*
X0022067Y0157924D01*
X0023897Y0157924D01*
X0025588Y0158624D01*
X0026882Y0159918D01*
X0027582Y0161609D01*
X0027582Y0163439D01*
X0026882Y0165129D01*
X0025588Y0166423D01*
X0023897Y0167124D01*
X0022067Y0167124D01*
X0020864Y0166625D02*
X0016100Y0166625D01*
X0016100Y0166027D02*
X0019980Y0166027D01*
X0019381Y0165428D02*
X0016100Y0165428D01*
X0016100Y0164830D02*
X0018958Y0164830D01*
X0018710Y0164231D02*
X0016100Y0164231D01*
X0016100Y0163633D02*
X0018462Y0163633D01*
X0018382Y0163034D02*
X0016100Y0163034D01*
X0016100Y0162436D02*
X0018382Y0162436D01*
X0018382Y0161837D02*
X0016100Y0161837D01*
X0016100Y0161239D02*
X0018535Y0161239D01*
X0018783Y0160640D02*
X0016100Y0160640D01*
X0016100Y0160042D02*
X0019031Y0160042D01*
X0019557Y0159443D02*
X0016100Y0159443D01*
X0016100Y0158845D02*
X0020156Y0158845D01*
X0021288Y0158246D02*
X0016100Y0158246D01*
X0016100Y0157648D02*
X0033932Y0157648D01*
X0033932Y0158015D02*
X0033932Y0156717D01*
X0034429Y0155518D01*
X0035347Y0154601D01*
X0036546Y0154104D01*
X0037843Y0154104D01*
X0039042Y0154601D01*
X0039960Y0155518D01*
X0040457Y0156717D01*
X0040457Y0158015D01*
X0039960Y0159214D01*
X0039042Y0160132D01*
X0037843Y0160628D01*
X0036546Y0160628D01*
X0035347Y0160132D01*
X0034429Y0159214D01*
X0033932Y0158015D01*
X0034028Y0158246D02*
X0024675Y0158246D01*
X0025808Y0158845D02*
X0034276Y0158845D01*
X0034658Y0159443D02*
X0026407Y0159443D01*
X0026933Y0160042D02*
X0035256Y0160042D01*
X0033932Y0157049D02*
X0024077Y0157049D01*
X0023897Y0157124D02*
X0022067Y0157124D01*
X0020376Y0156423D01*
X0019082Y0155129D01*
X0018382Y0153439D01*
X0018382Y0151609D01*
X0019082Y0149918D01*
X0020376Y0148624D01*
X0022067Y0147924D01*
X0023897Y0147924D01*
X0025588Y0148624D01*
X0026882Y0149918D01*
X0027582Y0151609D01*
X0027582Y0153439D01*
X0026882Y0155129D01*
X0025588Y0156423D01*
X0023897Y0157124D01*
X0025522Y0156451D02*
X0034043Y0156451D01*
X0034291Y0155852D02*
X0026159Y0155852D01*
X0026757Y0155254D02*
X0034694Y0155254D01*
X0035292Y0154655D02*
X0027078Y0154655D01*
X0027326Y0154056D02*
X0041900Y0154056D01*
X0041900Y0153458D02*
X0027574Y0153458D01*
X0027582Y0152859D02*
X0041900Y0152859D01*
X0041900Y0152261D02*
X0027582Y0152261D01*
X0027582Y0151662D02*
X0041496Y0151662D01*
X0040898Y0151064D02*
X0027356Y0151064D01*
X0027108Y0150465D02*
X0040850Y0150465D01*
X0040850Y0149867D02*
X0026831Y0149867D01*
X0026232Y0149268D02*
X0040850Y0149268D01*
X0041332Y0148670D02*
X0025634Y0148670D01*
X0024254Y0148071D02*
X0041931Y0148071D01*
X0043100Y0150084D02*
X0043100Y0157884D01*
X0058700Y0173484D01*
X0056450Y0173209D02*
X0027582Y0173209D01*
X0027582Y0172610D02*
X0056129Y0172610D01*
X0055531Y0172012D02*
X0027582Y0172012D01*
X0027501Y0171413D02*
X0054932Y0171413D01*
X0054334Y0170815D02*
X0027253Y0170815D01*
X0027005Y0170216D02*
X0035551Y0170216D01*
X0035347Y0170132D02*
X0034429Y0169214D01*
X0033932Y0168015D01*
X0033932Y0166717D01*
X0034429Y0165518D01*
X0035347Y0164601D01*
X0036546Y0164104D01*
X0037843Y0164104D01*
X0039042Y0164601D01*
X0039960Y0165518D01*
X0040457Y0166717D01*
X0040457Y0168015D01*
X0039960Y0169214D01*
X0039042Y0170132D01*
X0037843Y0170628D01*
X0036546Y0170628D01*
X0035347Y0170132D01*
X0034833Y0169618D02*
X0026581Y0169618D01*
X0025983Y0169019D02*
X0034348Y0169019D01*
X0034100Y0168421D02*
X0025097Y0168421D01*
X0025100Y0166625D02*
X0033970Y0166625D01*
X0033932Y0167224D02*
X0016100Y0167224D01*
X0016100Y0167822D02*
X0033932Y0167822D01*
X0034218Y0166027D02*
X0025984Y0166027D01*
X0026583Y0165428D02*
X0034519Y0165428D01*
X0035117Y0164830D02*
X0027006Y0164830D01*
X0027254Y0164231D02*
X0036238Y0164231D01*
X0038151Y0164231D02*
X0047750Y0164231D01*
X0047151Y0163633D02*
X0027502Y0163633D01*
X0027582Y0163034D02*
X0046553Y0163034D01*
X0045954Y0162436D02*
X0027582Y0162436D01*
X0027582Y0161837D02*
X0045356Y0161837D01*
X0044757Y0161239D02*
X0027429Y0161239D01*
X0027181Y0160640D02*
X0044159Y0160640D01*
X0043560Y0160042D02*
X0039132Y0160042D01*
X0039731Y0159443D02*
X0042962Y0159443D01*
X0042363Y0158845D02*
X0040113Y0158845D01*
X0040361Y0158246D02*
X0041900Y0158246D01*
X0041900Y0157648D02*
X0040457Y0157648D01*
X0040457Y0157049D02*
X0041900Y0157049D01*
X0041900Y0156451D02*
X0040346Y0156451D01*
X0040098Y0155852D02*
X0041900Y0155852D01*
X0041900Y0155254D02*
X0039695Y0155254D01*
X0039097Y0154655D02*
X0041900Y0154655D01*
X0044300Y0154655D02*
X0049100Y0154655D01*
X0049100Y0154056D02*
X0044300Y0154056D01*
X0044300Y0153458D02*
X0049100Y0153458D01*
X0049100Y0152859D02*
X0044300Y0152859D01*
X0044300Y0152261D02*
X0049100Y0152261D01*
X0049100Y0151662D02*
X0044704Y0151662D01*
X0045302Y0151064D02*
X0049100Y0151064D01*
X0049100Y0150465D02*
X0045350Y0150465D01*
X0045350Y0149867D02*
X0049100Y0149867D01*
X0049100Y0149268D02*
X0045350Y0149268D01*
X0044868Y0148670D02*
X0049100Y0148670D01*
X0049100Y0148071D02*
X0044269Y0148071D01*
X0049100Y0147473D02*
X0016100Y0147473D01*
X0016100Y0148071D02*
X0021710Y0148071D01*
X0022067Y0147124D02*
X0020376Y0146423D01*
X0019082Y0145129D01*
X0018382Y0143439D01*
X0018382Y0141609D01*
X0019082Y0139918D01*
X0020376Y0138624D01*
X0022067Y0137924D01*
X0023897Y0137924D01*
X0025588Y0138624D01*
X0026882Y0139918D01*
X0027582Y0141609D01*
X0027582Y0143439D01*
X0026882Y0145129D01*
X0025588Y0146423D01*
X0023897Y0147124D01*
X0022067Y0147124D01*
X0021465Y0146874D02*
X0016100Y0146874D01*
X0016100Y0146276D02*
X0020229Y0146276D01*
X0019630Y0145677D02*
X0016100Y0145677D01*
X0016100Y0145079D02*
X0019061Y0145079D01*
X0018813Y0144480D02*
X0016100Y0144480D01*
X0016100Y0143882D02*
X0018565Y0143882D01*
X0018382Y0143283D02*
X0016100Y0143283D01*
X0016100Y0142685D02*
X0018382Y0142685D01*
X0018382Y0142086D02*
X0016100Y0142086D01*
X0016100Y0141488D02*
X0018432Y0141488D01*
X0018680Y0140889D02*
X0016100Y0140889D01*
X0016100Y0140291D02*
X0018928Y0140291D01*
X0019308Y0139692D02*
X0016100Y0139692D01*
X0016100Y0139094D02*
X0019906Y0139094D01*
X0020687Y0138495D02*
X0016100Y0138495D01*
X0016100Y0137897D02*
X0034130Y0137897D01*
X0034341Y0138108D02*
X0032240Y0136007D01*
X0031103Y0133261D01*
X0031103Y0130290D01*
X0032240Y0127545D01*
X0034341Y0125443D01*
X0037087Y0124306D01*
X0040058Y0124306D01*
X0042803Y0125443D01*
X0044905Y0127545D01*
X0046042Y0130290D01*
X0046042Y0133261D01*
X0044905Y0136007D01*
X0042803Y0138108D01*
X0040058Y0139245D01*
X0037087Y0139245D01*
X0034341Y0138108D01*
X0035277Y0138495D02*
X0025277Y0138495D01*
X0026057Y0139094D02*
X0036722Y0139094D01*
X0033532Y0137298D02*
X0024468Y0137298D01*
X0024153Y0137400D02*
X0023375Y0137524D01*
X0023282Y0137524D01*
X0023282Y0132824D01*
X0022682Y0132824D01*
X0022682Y0137524D01*
X0022588Y0137524D01*
X0021811Y0137400D01*
X0021063Y0137157D01*
X0020361Y0136800D01*
X0019725Y0136337D01*
X0019168Y0135781D01*
X0018705Y0135144D01*
X0018348Y0134443D01*
X0018105Y0133694D01*
X0017982Y0132917D01*
X0017982Y0132824D01*
X0022682Y0132824D01*
X0022682Y0132224D01*
X0017982Y0132224D01*
X0017982Y0132130D01*
X0018105Y0131353D01*
X0018348Y0130604D01*
X0018705Y0129903D01*
X0019168Y0129266D01*
X0019725Y0128710D01*
X0020361Y0128247D01*
X0021063Y0127890D01*
X0021811Y0127647D01*
X0022588Y0127524D01*
X0022682Y0127524D01*
X0022682Y0132224D01*
X0023282Y0132224D01*
X0023282Y0132824D01*
X0027982Y0132824D01*
X0027982Y0132917D01*
X0027859Y0133694D01*
X0027616Y0134443D01*
X0027258Y0135144D01*
X0026796Y0135781D01*
X0026239Y0136337D01*
X0025602Y0136800D01*
X0024901Y0137157D01*
X0024153Y0137400D01*
X0023282Y0137298D02*
X0022682Y0137298D01*
X0022682Y0136700D02*
X0023282Y0136700D01*
X0023282Y0136101D02*
X0022682Y0136101D01*
X0022682Y0135503D02*
X0023282Y0135503D01*
X0023282Y0134904D02*
X0022682Y0134904D01*
X0022682Y0134306D02*
X0023282Y0134306D01*
X0023282Y0133707D02*
X0022682Y0133707D01*
X0022682Y0133109D02*
X0023282Y0133109D01*
X0023282Y0132510D02*
X0031103Y0132510D01*
X0031103Y0131912D02*
X0027947Y0131912D01*
X0027982Y0132130D02*
X0027982Y0132224D01*
X0023282Y0132224D01*
X0023282Y0127524D01*
X0023375Y0127524D01*
X0024153Y0127647D01*
X0024901Y0127890D01*
X0025602Y0128247D01*
X0026239Y0128710D01*
X0026796Y0129266D01*
X0027258Y0129903D01*
X0027616Y0130604D01*
X0027859Y0131353D01*
X0027982Y0132130D01*
X0027846Y0131313D02*
X0031103Y0131313D01*
X0031103Y0130715D02*
X0027651Y0130715D01*
X0027367Y0130116D02*
X0031175Y0130116D01*
X0031423Y0129518D02*
X0026978Y0129518D01*
X0026448Y0128919D02*
X0031671Y0128919D01*
X0031919Y0128320D02*
X0025703Y0128320D01*
X0024384Y0127722D02*
X0032167Y0127722D01*
X0032661Y0127123D02*
X0023897Y0127123D01*
X0023897Y0127124D02*
X0022067Y0127124D01*
X0020376Y0126423D01*
X0019082Y0125129D01*
X0018382Y0123439D01*
X0018382Y0121609D01*
X0019082Y0119918D01*
X0020376Y0118624D01*
X0022067Y0117924D01*
X0023897Y0117924D01*
X0025588Y0118624D01*
X0026882Y0119918D01*
X0027582Y0121609D01*
X0027582Y0123439D01*
X0026882Y0125129D01*
X0025588Y0126423D01*
X0023897Y0127124D01*
X0023282Y0127722D02*
X0022682Y0127722D01*
X0022682Y0128320D02*
X0023282Y0128320D01*
X0023282Y0128919D02*
X0022682Y0128919D01*
X0022682Y0129518D02*
X0023282Y0129518D01*
X0023282Y0130116D02*
X0022682Y0130116D01*
X0022682Y0130715D02*
X0023282Y0130715D01*
X0023282Y0131313D02*
X0022682Y0131313D01*
X0022682Y0131912D02*
X0023282Y0131912D01*
X0022682Y0132510D02*
X0016100Y0132510D01*
X0016100Y0131912D02*
X0018016Y0131912D01*
X0018118Y0131313D02*
X0016100Y0131313D01*
X0016100Y0130715D02*
X0018312Y0130715D01*
X0018597Y0130116D02*
X0016100Y0130116D01*
X0016100Y0129518D02*
X0018986Y0129518D01*
X0019515Y0128919D02*
X0016100Y0128919D01*
X0016100Y0128320D02*
X0020260Y0128320D01*
X0021579Y0127722D02*
X0016100Y0127722D01*
X0016100Y0127123D02*
X0022067Y0127123D01*
X0020622Y0126525D02*
X0016100Y0126525D01*
X0016100Y0125926D02*
X0019879Y0125926D01*
X0019281Y0125328D02*
X0016100Y0125328D01*
X0016100Y0124729D02*
X0018917Y0124729D01*
X0018669Y0124131D02*
X0016100Y0124131D01*
X0016100Y0123532D02*
X0018421Y0123532D01*
X0018382Y0122934D02*
X0016100Y0122934D01*
X0016100Y0122335D02*
X0018382Y0122335D01*
X0018382Y0121737D02*
X0016100Y0121737D01*
X0016100Y0121138D02*
X0018577Y0121138D01*
X0018825Y0120540D02*
X0016100Y0120540D01*
X0016100Y0119941D02*
X0019072Y0119941D01*
X0019657Y0119343D02*
X0016100Y0119343D01*
X0016100Y0118744D02*
X0020256Y0118744D01*
X0021530Y0118146D02*
X0016100Y0118146D01*
X0016100Y0117547D02*
X0047900Y0117547D01*
X0047900Y0116949D02*
X0024319Y0116949D01*
X0024433Y0118146D02*
X0047900Y0118146D01*
X0047900Y0118744D02*
X0025708Y0118744D01*
X0026306Y0119343D02*
X0047900Y0119343D01*
X0047900Y0119941D02*
X0026891Y0119941D01*
X0027139Y0120540D02*
X0047900Y0120540D01*
X0047900Y0121138D02*
X0027387Y0121138D01*
X0027582Y0121737D02*
X0047900Y0121737D01*
X0047900Y0122335D02*
X0027582Y0122335D01*
X0027582Y0122934D02*
X0047900Y0122934D01*
X0047900Y0123532D02*
X0027543Y0123532D01*
X0027295Y0124131D02*
X0047900Y0124131D01*
X0047900Y0124729D02*
X0041080Y0124729D01*
X0042525Y0125328D02*
X0047900Y0125328D01*
X0047900Y0125926D02*
X0043286Y0125926D01*
X0043885Y0126525D02*
X0047900Y0126525D01*
X0047900Y0127123D02*
X0044483Y0127123D01*
X0044978Y0127722D02*
X0047900Y0127722D01*
X0047900Y0128320D02*
X0045226Y0128320D01*
X0045474Y0128919D02*
X0048438Y0128919D01*
X0049036Y0129518D02*
X0045722Y0129518D01*
X0045970Y0130116D02*
X0049100Y0130116D01*
X0049100Y0130715D02*
X0046042Y0130715D01*
X0046042Y0131313D02*
X0049100Y0131313D01*
X0049100Y0131912D02*
X0046042Y0131912D01*
X0046042Y0132510D02*
X0049100Y0132510D01*
X0049100Y0133109D02*
X0046042Y0133109D01*
X0045857Y0133707D02*
X0049100Y0133707D01*
X0049100Y0134306D02*
X0045609Y0134306D01*
X0045361Y0134904D02*
X0049100Y0134904D01*
X0049100Y0135503D02*
X0045113Y0135503D01*
X0044810Y0136101D02*
X0049100Y0136101D01*
X0049100Y0136700D02*
X0044212Y0136700D01*
X0043613Y0137298D02*
X0049100Y0137298D01*
X0049100Y0137897D02*
X0043015Y0137897D01*
X0041868Y0138495D02*
X0049100Y0138495D01*
X0049100Y0139094D02*
X0040423Y0139094D01*
X0032933Y0136700D02*
X0025741Y0136700D01*
X0026475Y0136101D02*
X0032335Y0136101D01*
X0032032Y0135503D02*
X0026998Y0135503D01*
X0027381Y0134904D02*
X0031784Y0134904D01*
X0031536Y0134306D02*
X0027660Y0134306D01*
X0027855Y0133707D02*
X0031288Y0133707D01*
X0031103Y0133109D02*
X0027952Y0133109D01*
X0025342Y0126525D02*
X0033260Y0126525D01*
X0033858Y0125926D02*
X0026084Y0125926D01*
X0026683Y0125328D02*
X0034620Y0125328D01*
X0036065Y0124729D02*
X0027047Y0124729D01*
X0025661Y0116350D02*
X0047900Y0116350D01*
X0047900Y0115752D02*
X0026259Y0115752D01*
X0026858Y0115153D02*
X0047900Y0115153D01*
X0047900Y0114555D02*
X0027120Y0114555D01*
X0027367Y0113956D02*
X0047900Y0113956D01*
X0047900Y0113358D02*
X0027582Y0113358D01*
X0027582Y0112759D02*
X0047900Y0112759D01*
X0048127Y0112161D02*
X0027582Y0112161D01*
X0027563Y0111562D02*
X0048725Y0111562D01*
X0049324Y0110964D02*
X0027315Y0110964D01*
X0027067Y0110365D02*
X0049922Y0110365D01*
X0050521Y0109767D02*
X0026730Y0109767D01*
X0026132Y0109168D02*
X0051119Y0109168D01*
X0051718Y0108570D02*
X0025456Y0108570D01*
X0024012Y0107971D02*
X0052316Y0107971D01*
X0053915Y0109767D02*
X0063380Y0109767D01*
X0063380Y0110365D02*
X0053316Y0110365D01*
X0052718Y0110964D02*
X0063380Y0110964D01*
X0063380Y0111562D02*
X0052119Y0111562D01*
X0051521Y0112161D02*
X0063380Y0112161D01*
X0063380Y0112759D02*
X0050922Y0112759D01*
X0050324Y0113358D02*
X0063380Y0113358D01*
X0063380Y0113956D02*
X0050300Y0113956D01*
X0050300Y0114555D02*
X0063380Y0114555D01*
X0063380Y0115153D02*
X0050300Y0115153D01*
X0050300Y0115752D02*
X0063380Y0115752D01*
X0063380Y0116350D02*
X0050300Y0116350D01*
X0050300Y0116949D02*
X0063380Y0116949D01*
X0063380Y0117547D02*
X0050300Y0117547D01*
X0050300Y0118146D02*
X0063139Y0118146D01*
X0063030Y0118744D02*
X0050300Y0118744D01*
X0050300Y0119343D02*
X0063030Y0119343D01*
X0063080Y0119941D02*
X0050300Y0119941D01*
X0050300Y0120540D02*
X0063080Y0120540D01*
X0063080Y0121138D02*
X0050300Y0121138D01*
X0050300Y0121737D02*
X0063080Y0121737D01*
X0063080Y0122335D02*
X0050300Y0122335D01*
X0050300Y0122934D02*
X0063080Y0122934D01*
X0063080Y0123532D02*
X0050300Y0123532D01*
X0050300Y0124131D02*
X0063080Y0124131D01*
X0063080Y0124729D02*
X0050300Y0124729D01*
X0050300Y0125328D02*
X0063080Y0125328D01*
X0063080Y0125926D02*
X0050300Y0125926D01*
X0050300Y0126525D02*
X0063080Y0126525D01*
X0063080Y0127123D02*
X0050300Y0127123D01*
X0050635Y0127722D02*
X0063080Y0127722D01*
X0063080Y0128320D02*
X0051233Y0128320D01*
X0051500Y0128919D02*
X0063080Y0128919D01*
X0063080Y0129518D02*
X0051500Y0129518D01*
X0051500Y0130116D02*
X0063080Y0130116D01*
X0063080Y0130715D02*
X0051500Y0130715D01*
X0051500Y0131313D02*
X0063080Y0131313D01*
X0063080Y0131912D02*
X0051500Y0131912D01*
X0051500Y0132510D02*
X0063080Y0132510D01*
X0063080Y0133109D02*
X0051500Y0133109D01*
X0051500Y0133707D02*
X0063080Y0133707D01*
X0063080Y0134306D02*
X0051500Y0134306D01*
X0051500Y0134904D02*
X0063080Y0134904D01*
X0063080Y0135503D02*
X0051500Y0135503D01*
X0051500Y0136101D02*
X0063080Y0136101D01*
X0063080Y0136700D02*
X0051500Y0136700D01*
X0051500Y0137298D02*
X0063080Y0137298D01*
X0063080Y0137897D02*
X0051500Y0137897D01*
X0051500Y0138495D02*
X0063080Y0138495D01*
X0063080Y0139094D02*
X0051500Y0139094D01*
X0051500Y0139692D02*
X0063080Y0139692D01*
X0063080Y0140291D02*
X0051500Y0140291D01*
X0051500Y0140889D02*
X0063080Y0140889D01*
X0063080Y0141488D02*
X0051500Y0141488D01*
X0051500Y0142086D02*
X0063080Y0142086D01*
X0063080Y0142685D02*
X0051500Y0142685D01*
X0051500Y0143283D02*
X0063080Y0143283D01*
X0063080Y0143882D02*
X0051500Y0143882D01*
X0051500Y0144480D02*
X0063080Y0144480D01*
X0063080Y0145079D02*
X0051500Y0145079D01*
X0051500Y0145677D02*
X0063080Y0145677D01*
X0063080Y0146276D02*
X0051500Y0146276D01*
X0051500Y0146874D02*
X0063080Y0146874D01*
X0063080Y0147473D02*
X0051500Y0147473D01*
X0051500Y0148071D02*
X0063080Y0148071D01*
X0063080Y0148670D02*
X0051500Y0148670D01*
X0051500Y0149268D02*
X0063080Y0149268D01*
X0063080Y0149867D02*
X0051500Y0149867D01*
X0051500Y0150465D02*
X0063080Y0150465D01*
X0063080Y0151064D02*
X0051500Y0151064D01*
X0051500Y0151662D02*
X0063080Y0151662D01*
X0063080Y0152261D02*
X0051500Y0152261D01*
X0051500Y0152859D02*
X0063080Y0152859D01*
X0063080Y0153458D02*
X0051500Y0153458D01*
X0051500Y0154056D02*
X0063080Y0154056D01*
X0063080Y0154655D02*
X0051500Y0154655D01*
X0051500Y0155254D02*
X0063080Y0155254D01*
X0063080Y0155852D02*
X0051500Y0155852D01*
X0049100Y0155852D02*
X0044300Y0155852D01*
X0044300Y0155254D02*
X0049100Y0155254D01*
X0049100Y0156451D02*
X0044300Y0156451D01*
X0044300Y0157049D02*
X0049100Y0157049D01*
X0049100Y0157648D02*
X0044560Y0157648D01*
X0045159Y0158246D02*
X0049100Y0158246D01*
X0049100Y0158845D02*
X0045757Y0158845D01*
X0046356Y0159443D02*
X0049100Y0159443D01*
X0049100Y0160042D02*
X0046954Y0160042D01*
X0047553Y0160640D02*
X0049559Y0160640D01*
X0050157Y0161239D02*
X0048151Y0161239D01*
X0048750Y0161837D02*
X0050756Y0161837D01*
X0051354Y0162436D02*
X0049348Y0162436D01*
X0049947Y0163034D02*
X0051953Y0163034D01*
X0052551Y0163633D02*
X0050545Y0163633D01*
X0051144Y0164231D02*
X0053150Y0164231D01*
X0053748Y0164830D02*
X0051742Y0164830D01*
X0052341Y0165428D02*
X0054347Y0165428D01*
X0054945Y0166027D02*
X0052939Y0166027D01*
X0053538Y0166625D02*
X0055544Y0166625D01*
X0056142Y0167224D02*
X0054137Y0167224D01*
X0054735Y0167822D02*
X0056741Y0167822D01*
X0057339Y0168421D02*
X0055334Y0168421D01*
X0055932Y0169019D02*
X0057938Y0169019D01*
X0058536Y0169618D02*
X0056531Y0169618D01*
X0057129Y0170216D02*
X0059135Y0170216D01*
X0059450Y0170815D02*
X0057728Y0170815D01*
X0056450Y0173807D02*
X0027429Y0173807D01*
X0027181Y0174406D02*
X0035817Y0174406D01*
X0034943Y0175004D02*
X0026933Y0175004D01*
X0026408Y0175603D02*
X0034394Y0175603D01*
X0034146Y0176201D02*
X0025809Y0176201D01*
X0021890Y0177997D02*
X0016100Y0177997D01*
X0016100Y0178595D02*
X0020445Y0178595D01*
X0019806Y0179194D02*
X0016100Y0179194D01*
X0016100Y0179792D02*
X0019208Y0179792D01*
X0018886Y0180391D02*
X0016100Y0180391D01*
X0016100Y0180989D02*
X0018638Y0180989D01*
X0018390Y0181588D02*
X0016100Y0181588D01*
X0016100Y0182187D02*
X0018382Y0182187D01*
X0018382Y0182785D02*
X0016100Y0182785D01*
X0016100Y0183384D02*
X0018382Y0183384D01*
X0018607Y0183982D02*
X0016100Y0183982D01*
X0016100Y0184581D02*
X0018855Y0184581D01*
X0019132Y0185179D02*
X0016100Y0185179D01*
X0016100Y0185778D02*
X0019730Y0185778D01*
X0020329Y0186376D02*
X0016100Y0186376D01*
X0014900Y0193884D02*
X0019700Y0198684D01*
X0025100Y0198684D01*
X0035900Y0187884D01*
X0037100Y0187884D01*
X0037194Y0187366D01*
X0042500Y0179484D02*
X0044300Y0177684D01*
X0038572Y0174406D02*
X0056450Y0174406D01*
X0053735Y0170216D02*
X0038838Y0170216D01*
X0039556Y0169618D02*
X0053136Y0169618D01*
X0052538Y0169019D02*
X0040041Y0169019D01*
X0040289Y0168421D02*
X0051939Y0168421D01*
X0051341Y0167822D02*
X0040457Y0167822D01*
X0040457Y0167224D02*
X0050742Y0167224D01*
X0050144Y0166625D02*
X0040419Y0166625D01*
X0040171Y0166027D02*
X0049545Y0166027D01*
X0048947Y0165428D02*
X0039870Y0165428D01*
X0039271Y0164830D02*
X0048348Y0164830D01*
X0049100Y0146874D02*
X0024499Y0146874D01*
X0025735Y0146276D02*
X0049100Y0146276D01*
X0049100Y0145677D02*
X0026334Y0145677D01*
X0026902Y0145079D02*
X0049100Y0145079D01*
X0049100Y0144480D02*
X0027150Y0144480D01*
X0027398Y0143882D02*
X0049100Y0143882D01*
X0049100Y0143283D02*
X0027582Y0143283D01*
X0027582Y0142685D02*
X0049100Y0142685D01*
X0049100Y0142086D02*
X0027582Y0142086D01*
X0027532Y0141488D02*
X0049100Y0141488D01*
X0049100Y0140889D02*
X0027284Y0140889D01*
X0027036Y0140291D02*
X0049100Y0140291D01*
X0049100Y0139692D02*
X0026656Y0139692D01*
X0021496Y0137298D02*
X0016100Y0137298D01*
X0016100Y0136700D02*
X0020223Y0136700D01*
X0019488Y0136101D02*
X0016100Y0136101D01*
X0016100Y0135503D02*
X0018966Y0135503D01*
X0018583Y0134904D02*
X0016100Y0134904D01*
X0016100Y0134306D02*
X0018304Y0134306D01*
X0018109Y0133707D02*
X0016100Y0133707D01*
X0016100Y0133109D02*
X0018012Y0133109D01*
X0016100Y0148670D02*
X0020330Y0148670D01*
X0019732Y0149268D02*
X0016100Y0149268D01*
X0016100Y0149867D02*
X0019133Y0149867D01*
X0018855Y0150465D02*
X0016100Y0150465D01*
X0016100Y0151064D02*
X0018608Y0151064D01*
X0018382Y0151662D02*
X0016100Y0151662D01*
X0016100Y0152261D02*
X0018382Y0152261D01*
X0018382Y0152859D02*
X0016100Y0152859D01*
X0016100Y0153458D02*
X0018390Y0153458D01*
X0018638Y0154056D02*
X0016100Y0154056D01*
X0016100Y0154655D02*
X0018886Y0154655D01*
X0019206Y0155254D02*
X0016100Y0155254D01*
X0016100Y0155852D02*
X0019805Y0155852D01*
X0020442Y0156451D02*
X0016100Y0156451D01*
X0016100Y0157049D02*
X0021887Y0157049D01*
X0048689Y0186376D02*
X0087457Y0186376D01*
X0086407Y0186975D02*
X0049287Y0186975D01*
X0049886Y0187573D02*
X0085809Y0187573D01*
X0085317Y0188172D02*
X0050484Y0188172D01*
X0051083Y0188770D02*
X0085070Y0188770D01*
X0084822Y0189369D02*
X0051681Y0189369D01*
X0052280Y0189967D02*
X0084693Y0189967D01*
X0084693Y0190566D02*
X0052878Y0190566D01*
X0053477Y0191164D02*
X0084693Y0191164D01*
X0084798Y0191763D02*
X0054075Y0191763D01*
X0054674Y0192361D02*
X0085046Y0192361D01*
X0085294Y0192960D02*
X0055273Y0192960D01*
X0055871Y0193558D02*
X0085751Y0193558D01*
X0086350Y0194157D02*
X0056470Y0194157D01*
X0057068Y0194755D02*
X0087318Y0194755D01*
X0089993Y0195952D02*
X0090593Y0195952D01*
X0090593Y0196551D02*
X0089993Y0196551D01*
X0089993Y0197149D02*
X0090593Y0197149D01*
X0090593Y0197748D02*
X0089993Y0197748D01*
X0089993Y0198346D02*
X0090593Y0198346D01*
X0090593Y0198945D02*
X0089993Y0198945D01*
X0089993Y0199543D02*
X0090593Y0199543D01*
X0090593Y0201339D02*
X0089993Y0201339D01*
X0089993Y0201937D02*
X0090593Y0201937D01*
X0090593Y0202536D02*
X0089993Y0202536D01*
X0089993Y0203134D02*
X0090593Y0203134D01*
X0090593Y0203733D02*
X0089993Y0203733D01*
X0089993Y0204331D02*
X0090593Y0204331D01*
X0090593Y0204930D02*
X0089993Y0204930D01*
X0089993Y0205528D02*
X0090593Y0205528D01*
X0091103Y0205528D02*
X0097335Y0205528D01*
X0097933Y0204930D02*
X0092798Y0204930D01*
X0093627Y0204331D02*
X0098532Y0204331D01*
X0099130Y0203733D02*
X0094193Y0203733D01*
X0094610Y0203134D02*
X0099729Y0203134D01*
X0100327Y0202536D02*
X0094915Y0202536D01*
X0095114Y0201937D02*
X0100926Y0201937D01*
X0101524Y0201339D02*
X0095237Y0201339D01*
X0096736Y0206127D02*
X0090528Y0206127D01*
X0089483Y0205528D02*
X0077512Y0205528D01*
X0077512Y0204930D02*
X0087788Y0204930D01*
X0086959Y0204331D02*
X0077512Y0204331D01*
X0077512Y0203733D02*
X0086393Y0203733D01*
X0085975Y0203134D02*
X0077512Y0203134D01*
X0077512Y0202536D02*
X0085670Y0202536D01*
X0085472Y0201937D02*
X0077512Y0201937D01*
X0077512Y0201339D02*
X0085348Y0201339D01*
X0087512Y0206127D02*
X0088058Y0206127D01*
X0091929Y0206725D02*
X0096138Y0206725D01*
X0095539Y0207324D02*
X0092528Y0207324D01*
X0092485Y0213908D02*
X0097580Y0213908D01*
X0097394Y0213309D02*
X0098178Y0213309D01*
X0098355Y0212711D02*
X0098777Y0212711D01*
X0098953Y0212112D02*
X0099375Y0212112D01*
X0099552Y0211514D02*
X0099974Y0211514D01*
X0100150Y0210915D02*
X0100572Y0210915D01*
X0100749Y0210317D02*
X0101171Y0210317D01*
X0101347Y0209718D02*
X0101769Y0209718D01*
X0101946Y0209120D02*
X0102368Y0209120D01*
X0102544Y0208521D02*
X0102966Y0208521D01*
X0103143Y0207923D02*
X0103565Y0207923D01*
X0103741Y0207324D02*
X0104163Y0207324D01*
X0104340Y0206725D02*
X0104762Y0206725D01*
X0104938Y0206127D02*
X0105360Y0206127D01*
X0105537Y0205528D02*
X0105959Y0205528D01*
X0106136Y0204930D02*
X0106557Y0204930D01*
X0106734Y0204331D02*
X0107156Y0204331D01*
X0107333Y0203733D02*
X0107754Y0203733D01*
X0107931Y0203134D02*
X0108353Y0203134D01*
X0108530Y0202536D02*
X0108951Y0202536D01*
X0109128Y0201937D02*
X0109550Y0201937D01*
X0109727Y0201339D02*
X0110148Y0201339D01*
X0110325Y0200740D02*
X0110747Y0200740D01*
X0112354Y0206127D02*
X0127642Y0206127D01*
X0126197Y0206725D02*
X0111756Y0206725D01*
X0111157Y0207324D02*
X0125296Y0207324D01*
X0124697Y0207923D02*
X0110559Y0207923D01*
X0109960Y0208521D02*
X0124098Y0208521D01*
X0123546Y0209120D02*
X0109362Y0209120D01*
X0108763Y0209718D02*
X0123298Y0209718D01*
X0123050Y0210317D02*
X0108350Y0210317D01*
X0108350Y0210915D02*
X0122802Y0210915D01*
X0122555Y0211514D02*
X0108350Y0211514D01*
X0107854Y0212112D02*
X0122442Y0212112D01*
X0122442Y0212711D02*
X0107256Y0212711D01*
X0098536Y0221688D02*
X0093193Y0221688D01*
X0093792Y0221090D02*
X0096524Y0221090D01*
X0095925Y0220491D02*
X0094390Y0220491D01*
X0094989Y0219893D02*
X0095450Y0219893D01*
X0093390Y0218097D02*
X0044310Y0218097D01*
X0044905Y0217503D02*
X0042803Y0219604D01*
X0040058Y0220741D01*
X0037087Y0220741D01*
X0034341Y0219604D01*
X0032240Y0217503D01*
X0031103Y0214757D01*
X0031103Y0211786D01*
X0032240Y0209041D01*
X0034341Y0206939D01*
X0037087Y0205802D01*
X0040058Y0205802D01*
X0042803Y0206939D01*
X0044905Y0209041D01*
X0046042Y0211786D01*
X0046042Y0214757D01*
X0044905Y0217503D01*
X0044906Y0217499D02*
X0093989Y0217499D01*
X0094587Y0216900D02*
X0045154Y0216900D01*
X0045402Y0216302D02*
X0095186Y0216302D01*
X0095784Y0215703D02*
X0045650Y0215703D01*
X0045898Y0215105D02*
X0088161Y0215105D01*
X0086716Y0214506D02*
X0046042Y0214506D01*
X0046042Y0213908D02*
X0086101Y0213908D01*
X0085502Y0213309D02*
X0046042Y0213309D01*
X0046042Y0212711D02*
X0085190Y0212711D01*
X0084943Y0212112D02*
X0046042Y0212112D01*
X0045929Y0211514D02*
X0084695Y0211514D01*
X0084693Y0210915D02*
X0045681Y0210915D01*
X0045433Y0210317D02*
X0065079Y0210317D01*
X0064688Y0209718D02*
X0064648Y0209718D01*
X0062352Y0209718D02*
X0045185Y0209718D01*
X0044937Y0209120D02*
X0061753Y0209120D01*
X0061250Y0208521D02*
X0044385Y0208521D01*
X0043786Y0207923D02*
X0061250Y0207923D01*
X0061250Y0207324D02*
X0043188Y0207324D01*
X0042287Y0206725D02*
X0061277Y0206725D01*
X0061875Y0206127D02*
X0040842Y0206127D01*
X0036303Y0206127D02*
X0027382Y0206127D01*
X0027582Y0206609D02*
X0026882Y0204918D01*
X0025588Y0203624D01*
X0023897Y0202924D01*
X0022067Y0202924D01*
X0020376Y0203624D01*
X0019082Y0204918D01*
X0018382Y0206609D01*
X0018382Y0208439D01*
X0019082Y0210129D01*
X0020376Y0211423D01*
X0022067Y0212124D01*
X0023897Y0212124D01*
X0025588Y0211423D01*
X0026882Y0210129D01*
X0027582Y0208439D01*
X0027582Y0206609D01*
X0027582Y0206725D02*
X0034858Y0206725D01*
X0033957Y0207324D02*
X0027582Y0207324D01*
X0027582Y0207923D02*
X0033358Y0207923D01*
X0032760Y0208521D02*
X0027548Y0208521D01*
X0027300Y0209120D02*
X0032208Y0209120D01*
X0031960Y0209718D02*
X0027052Y0209718D01*
X0026694Y0210317D02*
X0031712Y0210317D01*
X0031464Y0210915D02*
X0026096Y0210915D01*
X0025370Y0211514D02*
X0031216Y0211514D01*
X0031103Y0212112D02*
X0023925Y0212112D01*
X0023897Y0212924D02*
X0022067Y0212924D01*
X0020376Y0213624D01*
X0019082Y0214918D01*
X0018382Y0216609D01*
X0018382Y0218439D01*
X0019082Y0220129D01*
X0020376Y0221423D01*
X0022067Y0222124D01*
X0023897Y0222124D01*
X0025588Y0221423D01*
X0026882Y0220129D01*
X0027582Y0218439D01*
X0027582Y0216609D01*
X0026882Y0214918D01*
X0025588Y0213624D01*
X0023897Y0212924D01*
X0024828Y0213309D02*
X0031103Y0213309D01*
X0031103Y0212711D02*
X0016100Y0212711D01*
X0016100Y0213309D02*
X0021136Y0213309D01*
X0020093Y0213908D02*
X0016100Y0213908D01*
X0016100Y0214506D02*
X0019494Y0214506D01*
X0019005Y0215105D02*
X0016100Y0215105D01*
X0016100Y0215703D02*
X0018757Y0215703D01*
X0018509Y0216302D02*
X0016100Y0216302D01*
X0016100Y0216900D02*
X0018382Y0216900D01*
X0018382Y0217499D02*
X0016100Y0217499D01*
X0016100Y0218097D02*
X0018382Y0218097D01*
X0018488Y0218696D02*
X0016100Y0218696D01*
X0016100Y0219294D02*
X0018736Y0219294D01*
X0018984Y0219893D02*
X0016100Y0219893D01*
X0016100Y0220491D02*
X0019444Y0220491D01*
X0020043Y0221090D02*
X0016100Y0221090D01*
X0016100Y0221688D02*
X0021016Y0221688D01*
X0020714Y0223484D02*
X0016100Y0223484D01*
X0016100Y0224082D02*
X0019918Y0224082D01*
X0019319Y0224681D02*
X0016100Y0224681D01*
X0016100Y0225279D02*
X0018932Y0225279D01*
X0018685Y0225878D02*
X0016100Y0225878D01*
X0016100Y0226476D02*
X0018437Y0226476D01*
X0018382Y0227075D02*
X0016100Y0227075D01*
X0016100Y0227673D02*
X0018382Y0227673D01*
X0018382Y0228272D02*
X0016100Y0228272D01*
X0016100Y0228870D02*
X0018561Y0228870D01*
X0018809Y0229469D02*
X0016100Y0229469D01*
X0016100Y0230067D02*
X0019057Y0230067D01*
X0020342Y0233658D02*
X0016100Y0233658D01*
X0016100Y0233060D02*
X0021738Y0233060D01*
X0019743Y0234257D02*
X0016100Y0234257D01*
X0016100Y0234856D02*
X0019145Y0234856D01*
X0018860Y0235454D02*
X0016100Y0235454D01*
X0016100Y0236053D02*
X0018612Y0236053D01*
X0018382Y0236651D02*
X0016100Y0236651D01*
X0016100Y0237250D02*
X0018382Y0237250D01*
X0018382Y0237848D02*
X0016100Y0237848D01*
X0016100Y0238447D02*
X0018385Y0238447D01*
X0018633Y0239045D02*
X0016100Y0239045D01*
X0016100Y0239644D02*
X0018881Y0239644D01*
X0019195Y0240242D02*
X0016100Y0240242D01*
X0016100Y0240841D02*
X0019794Y0240841D01*
X0020414Y0241439D02*
X0016100Y0241439D01*
X0025746Y0231264D02*
X0026583Y0231264D01*
X0026046Y0224082D02*
X0087405Y0224082D01*
X0088003Y0223484D02*
X0025249Y0223484D01*
X0024948Y0221688D02*
X0089799Y0221688D01*
X0090397Y0221090D02*
X0025921Y0221090D01*
X0026520Y0220491D02*
X0036484Y0220491D01*
X0035039Y0219893D02*
X0026980Y0219893D01*
X0027227Y0219294D02*
X0034032Y0219294D01*
X0033433Y0218696D02*
X0027475Y0218696D01*
X0027582Y0218097D02*
X0032835Y0218097D01*
X0032239Y0217499D02*
X0027582Y0217499D01*
X0027582Y0216900D02*
X0031991Y0216900D01*
X0031743Y0216302D02*
X0027455Y0216302D01*
X0027207Y0215703D02*
X0031495Y0215703D01*
X0031247Y0215105D02*
X0026959Y0215105D01*
X0026470Y0214506D02*
X0031103Y0214506D01*
X0031103Y0213908D02*
X0025871Y0213908D01*
X0022039Y0212112D02*
X0016100Y0212112D01*
X0016100Y0211514D02*
X0020594Y0211514D01*
X0019868Y0210915D02*
X0016100Y0210915D01*
X0016100Y0210317D02*
X0019269Y0210317D01*
X0018912Y0209718D02*
X0016100Y0209718D01*
X0016100Y0209120D02*
X0018664Y0209120D01*
X0018416Y0208521D02*
X0016100Y0208521D01*
X0016100Y0207923D02*
X0018382Y0207923D01*
X0018382Y0207324D02*
X0016100Y0207324D01*
X0016100Y0206725D02*
X0018382Y0206725D01*
X0018581Y0206127D02*
X0016100Y0206127D01*
X0016100Y0205528D02*
X0018829Y0205528D01*
X0019077Y0204930D02*
X0016100Y0204930D01*
X0016100Y0204331D02*
X0019669Y0204331D01*
X0020267Y0203733D02*
X0016100Y0203733D01*
X0016100Y0203134D02*
X0021558Y0203134D01*
X0024406Y0203134D02*
X0061250Y0203134D01*
X0061250Y0202536D02*
X0016100Y0202536D01*
X0016100Y0199543D02*
X0018862Y0199543D01*
X0018264Y0198945D02*
X0016100Y0198945D01*
X0016100Y0198346D02*
X0017665Y0198346D01*
X0017067Y0197748D02*
X0016100Y0197748D01*
X0016100Y0197149D02*
X0016468Y0197149D01*
X0014900Y0193884D02*
X0014900Y0113484D01*
X0015500Y0112884D01*
X0022700Y0112884D01*
X0022982Y0112524D01*
X0019705Y0115752D02*
X0016100Y0115752D01*
X0016100Y0116350D02*
X0020303Y0116350D01*
X0021645Y0116949D02*
X0016100Y0116949D01*
X0016100Y0115153D02*
X0019106Y0115153D01*
X0018844Y0114555D02*
X0016100Y0114555D01*
X0016100Y0111562D02*
X0018401Y0111562D01*
X0018649Y0110964D02*
X0016100Y0110964D01*
X0016100Y0110365D02*
X0018897Y0110365D01*
X0019233Y0109767D02*
X0016100Y0109767D01*
X0016100Y0109168D02*
X0019832Y0109168D01*
X0020507Y0108570D02*
X0016100Y0108570D01*
X0018500Y0102084D02*
X0022700Y0102084D01*
X0022982Y0102524D01*
X0025035Y0098395D02*
X0066692Y0098395D01*
X0063380Y0107373D02*
X0063194Y0107373D01*
X0063380Y0107971D02*
X0055710Y0107971D01*
X0055112Y0108570D02*
X0063380Y0108570D01*
X0063380Y0109168D02*
X0054513Y0109168D01*
X0081627Y0084629D02*
X0082700Y0084629D01*
X0082700Y0085228D02*
X0082225Y0085228D01*
X0082550Y0085826D02*
X0082700Y0085826D01*
X0092745Y0083432D02*
X0100570Y0083432D01*
X0099972Y0084031D02*
X0093343Y0084031D01*
X0093942Y0084629D02*
X0099650Y0084629D01*
X0099650Y0085228D02*
X0094540Y0085228D01*
X0095139Y0085826D02*
X0099650Y0085826D01*
X0099858Y0086425D02*
X0095737Y0086425D01*
X0096336Y0087023D02*
X0100457Y0087023D01*
X0098132Y0088819D02*
X0113468Y0088819D01*
X0112870Y0089417D02*
X0098730Y0089417D01*
X0099329Y0090016D02*
X0112271Y0090016D01*
X0111673Y0090614D02*
X0099927Y0090614D01*
X0100526Y0091213D02*
X0111074Y0091213D01*
X0110476Y0091811D02*
X0101124Y0091811D01*
X0101723Y0092410D02*
X0109877Y0092410D01*
X0109279Y0093008D02*
X0103806Y0093008D01*
X0104405Y0093607D02*
X0108680Y0093607D01*
X0108082Y0094205D02*
X0104750Y0094205D01*
X0106802Y0094804D02*
X0107483Y0094804D01*
X0102500Y0094884D02*
X0077900Y0070284D01*
X0079793Y0066674D02*
X0075072Y0066674D01*
X0074473Y0066075D02*
X0079194Y0066075D01*
X0078596Y0065477D02*
X0073604Y0065477D01*
X0074203Y0064878D02*
X0077997Y0064878D01*
X0079596Y0063083D02*
X0094690Y0063083D01*
X0094690Y0062484D02*
X0078997Y0062484D01*
X0078399Y0061886D02*
X0094857Y0061886D01*
X0094206Y0063681D02*
X0080194Y0063681D01*
X0080793Y0064280D02*
X0093607Y0064280D01*
X0094100Y0065484D02*
X0096500Y0063084D01*
X0096940Y0062984D01*
X0096935Y0087622D02*
X0114665Y0087622D01*
X0114067Y0088220D02*
X0097533Y0088220D01*
X0103343Y0087023D02*
X0115264Y0087023D01*
X0124700Y0093684D02*
X0119900Y0098484D01*
X0143985Y0109799D02*
X0145100Y0108684D01*
X0124901Y0149867D02*
X0124380Y0149867D01*
X0124700Y0159684D02*
X0128300Y0163284D01*
X0096981Y0214506D02*
X0091870Y0214506D01*
X0090425Y0215105D02*
X0096383Y0215105D01*
X0092791Y0218696D02*
X0043712Y0218696D01*
X0043113Y0219294D02*
X0092193Y0219294D01*
X0091594Y0219893D02*
X0042106Y0219893D01*
X0040661Y0220491D02*
X0090996Y0220491D01*
X0092595Y0222287D02*
X0099135Y0222287D01*
X0099733Y0222885D02*
X0091996Y0222885D01*
X0091397Y0223484D02*
X0100332Y0223484D01*
X0100930Y0224082D02*
X0090799Y0224082D01*
X0090200Y0224681D02*
X0101529Y0224681D01*
X0102127Y0225279D02*
X0089602Y0225279D01*
X0089003Y0225878D02*
X0102726Y0225878D01*
X0103324Y0226476D02*
X0088405Y0226476D01*
X0088602Y0222885D02*
X0016100Y0222885D01*
X0016100Y0222287D02*
X0089200Y0222287D01*
X0084693Y0210317D02*
X0077121Y0210317D01*
X0077512Y0209718D02*
X0084693Y0209718D01*
X0071772Y0210317D02*
X0070428Y0210317D01*
X0070819Y0209718D02*
X0071381Y0209718D01*
X0071381Y0209120D02*
X0070819Y0209120D01*
X0070819Y0208521D02*
X0071381Y0208521D01*
X0071381Y0207923D02*
X0070819Y0207923D01*
X0070819Y0207324D02*
X0071381Y0207324D01*
X0071381Y0206725D02*
X0070819Y0206725D01*
X0070819Y0206127D02*
X0071381Y0206127D01*
X0071381Y0205528D02*
X0070819Y0205528D01*
X0070819Y0204930D02*
X0071381Y0204930D01*
X0071381Y0204331D02*
X0070819Y0204331D01*
X0070819Y0203733D02*
X0071381Y0203733D01*
X0071381Y0203134D02*
X0070819Y0203134D01*
X0070819Y0202536D02*
X0071381Y0202536D01*
X0071381Y0201937D02*
X0070819Y0201937D01*
X0070819Y0201339D02*
X0071381Y0201339D01*
X0071381Y0200740D02*
X0070819Y0200740D01*
X0070518Y0200142D02*
X0071682Y0200142D01*
X0067754Y0207584D02*
X0067700Y0207684D01*
X0063500Y0207684D01*
X0064526Y0205528D02*
X0064688Y0205528D01*
X0064688Y0204930D02*
X0064636Y0204930D01*
X0062474Y0205528D02*
X0027134Y0205528D01*
X0026887Y0204930D02*
X0062364Y0204930D01*
X0061765Y0204331D02*
X0026295Y0204331D01*
X0025697Y0203733D02*
X0061250Y0203733D01*
X0073780Y0230067D02*
X0075735Y0230067D01*
X0075136Y0230666D02*
X0074379Y0230666D01*
X0074977Y0231264D02*
X0075050Y0231264D01*
X0061573Y0257599D02*
X0047870Y0257599D01*
X0048468Y0258197D02*
X0060975Y0258197D01*
X0060376Y0258796D02*
X0049039Y0258796D01*
X0049039Y0258768D02*
X0049039Y0260373D01*
X0044739Y0260373D01*
X0044739Y0256073D01*
X0046344Y0256073D01*
X0049039Y0258768D01*
X0049039Y0259394D02*
X0060239Y0259394D01*
X0060239Y0259993D02*
X0049039Y0259993D01*
X0049039Y0261190D02*
X0060239Y0261190D01*
X0060239Y0260591D02*
X0044739Y0260591D01*
X0044739Y0259993D02*
X0044139Y0259993D01*
X0044139Y0259394D02*
X0044739Y0259394D01*
X0044739Y0258796D02*
X0044139Y0258796D01*
X0044139Y0258197D02*
X0044739Y0258197D01*
X0044739Y0257599D02*
X0044139Y0257599D01*
X0044139Y0257000D02*
X0044739Y0257000D01*
X0044739Y0256402D02*
X0044139Y0256402D01*
X0044139Y0261190D02*
X0044739Y0261190D01*
X0044739Y0261789D02*
X0044139Y0261789D01*
X0044139Y0262387D02*
X0044739Y0262387D01*
X0044739Y0262986D02*
X0044139Y0262986D01*
X0044139Y0263584D02*
X0044739Y0263584D01*
X0044739Y0264183D02*
X0044139Y0264183D01*
X0044139Y0264781D02*
X0044739Y0264781D01*
X0046836Y0264781D02*
X0062607Y0264781D01*
X0062008Y0264183D02*
X0047435Y0264183D01*
X0048033Y0263584D02*
X0061410Y0263584D01*
X0060811Y0262986D02*
X0048632Y0262986D01*
X0049039Y0262387D02*
X0060239Y0262387D01*
X0060239Y0261789D02*
X0049039Y0261789D01*
X0016297Y0265978D02*
X0016100Y0265978D01*
X0152370Y0234257D02*
X0157000Y0234257D01*
X0157000Y0234856D02*
X0152968Y0234856D01*
X0153567Y0235454D02*
X0157000Y0235454D01*
X0157000Y0236053D02*
X0154165Y0236053D01*
X0200900Y0227484D02*
X0208700Y0219684D01*
D20*
X0206300Y0218484D03*
X0197760Y0233364D03*
X0189260Y0233884D03*
X0166660Y0235084D03*
X0159520Y0243164D03*
X0159830Y0247264D03*
X0152990Y0253664D03*
X0140900Y0247284D03*
X0143950Y0239594D03*
X0143190Y0229864D03*
X0143190Y0223264D03*
X0151890Y0229964D03*
X0159450Y0231854D03*
X0143900Y0210084D03*
X0136100Y0202284D03*
X0131650Y0203404D03*
X0128430Y0199914D03*
X0127700Y0190284D03*
X0128900Y0184284D03*
X0116990Y0181164D03*
X0114290Y0176664D03*
X0119300Y0164484D03*
X0122900Y0164484D03*
X0124700Y0159684D03*
X0128300Y0163284D03*
X0125900Y0147684D03*
X0125900Y0142884D03*
X0113900Y0155484D03*
X0111500Y0152484D03*
X0109700Y0155484D03*
X0108500Y0144084D03*
X0103130Y0140444D03*
X0100700Y0144214D03*
X0096500Y0148884D03*
X0096500Y0154884D03*
X0086900Y0154884D03*
X0085620Y0143874D03*
X0090640Y0142704D03*
X0078840Y0142454D03*
X0087340Y0124844D03*
X0082600Y0121094D03*
X0077660Y0118074D03*
X0073760Y0118074D03*
X0071900Y0111084D03*
X0066780Y0107274D03*
X0061700Y0105684D03*
X0059270Y0109784D03*
X0056230Y0117174D03*
X0045890Y0120474D03*
X0045450Y0124494D03*
X0040430Y0115364D03*
X0036310Y0109994D03*
X0040160Y0106064D03*
X0035600Y0102654D03*
X0035510Y0094694D03*
X0032820Y0085384D03*
X0027000Y0093434D03*
X0019480Y0083494D03*
X0023590Y0079564D03*
X0028070Y0074194D03*
X0028340Y0068194D03*
X0035050Y0066224D03*
X0022160Y0065514D03*
X0038190Y0079924D03*
X0048760Y0082424D03*
X0048580Y0092004D03*
X0045540Y0110264D03*
X0068390Y0124014D03*
X0079100Y0110484D03*
X0080300Y0106284D03*
X0084090Y0109134D03*
X0087970Y0108094D03*
X0092390Y0108524D03*
X0096310Y0109064D03*
X0097700Y0099684D03*
X0100100Y0097284D03*
X0102500Y0094884D03*
X0105500Y0096684D03*
X0105500Y0100284D03*
X0107900Y0112284D03*
X0107300Y0118284D03*
X0101900Y0120084D03*
X0106100Y0124284D03*
X0111500Y0122484D03*
X0118100Y0122484D03*
X0121700Y0121284D03*
X0124260Y0114974D03*
X0126560Y0108174D03*
X0121700Y0102684D03*
X0118340Y0105354D03*
X0116040Y0107654D03*
X0119900Y0098484D03*
X0124700Y0093684D03*
X0121700Y0091284D03*
X0126500Y0100284D03*
X0130100Y0100284D03*
X0133700Y0100284D03*
X0136100Y0103884D03*
X0142070Y0096894D03*
X0137950Y0093404D03*
X0142380Y0085284D03*
X0143090Y0080624D03*
X0152810Y0078904D03*
X0153350Y0073704D03*
X0154150Y0066714D03*
X0160660Y0066874D03*
X0135670Y0066914D03*
X0129490Y0067154D03*
X0129370Y0073094D03*
X0133670Y0075684D03*
X0120500Y0067284D03*
X0114360Y0078474D03*
X0109860Y0082574D03*
X0101900Y0085284D03*
X0094100Y0096084D03*
X0091700Y0098484D03*
X0083900Y0102684D03*
X0080470Y0092474D03*
X0080300Y0086484D03*
X0077900Y0082884D03*
X0073100Y0082884D03*
X0069500Y0082284D03*
X0079700Y0076284D03*
X0077900Y0070284D03*
X0077070Y0065894D03*
X0073100Y0067884D03*
X0093150Y0062964D03*
X0096940Y0062984D03*
X0110560Y0063534D03*
X0111880Y0072024D03*
X0145100Y0108684D03*
X0153660Y0109874D03*
X0160060Y0111574D03*
X0152960Y0124374D03*
X0151100Y0132084D03*
X0145100Y0122484D03*
X0142700Y0127284D03*
X0133060Y0122674D03*
X0132160Y0119074D03*
X0102500Y0129684D03*
X0102500Y0135684D03*
X0070040Y0175354D03*
X0074440Y0180754D03*
X0079340Y0186054D03*
X0074900Y0197534D03*
X0081910Y0203204D03*
X0097790Y0195564D03*
X0097790Y0189264D03*
X0104900Y0186684D03*
X0119540Y0206494D03*
X0114260Y0207914D03*
X0112970Y0212424D03*
X0117870Y0215004D03*
X0106100Y0210684D03*
X0097700Y0219084D03*
X0105870Y0228154D03*
X0094290Y0242264D03*
X0091090Y0250464D03*
X0082790Y0251564D03*
X0083590Y0259964D03*
X0076090Y0260564D03*
X0075410Y0269194D03*
X0079380Y0269114D03*
X0065570Y0269664D03*
X0062880Y0275774D03*
X0052890Y0274764D03*
X0053460Y0266044D03*
X0046700Y0250284D03*
X0058420Y0244434D03*
X0060610Y0247784D03*
X0070410Y0238114D03*
X0077300Y0231684D03*
X0074780Y0228674D03*
X0071300Y0228084D03*
X0077940Y0222674D03*
X0083310Y0221854D03*
X0083290Y0228844D03*
X0063500Y0207684D03*
X0063500Y0202884D03*
X0056920Y0203804D03*
X0053560Y0198884D03*
X0049160Y0195084D03*
X0057740Y0185754D03*
X0064740Y0189854D03*
X0058700Y0173484D03*
X0061700Y0171084D03*
X0061510Y0160234D03*
X0047890Y0146354D03*
X0043100Y0150084D03*
X0039450Y0142064D03*
X0035250Y0143374D03*
X0047820Y0174814D03*
X0044300Y0177684D03*
X0026900Y0187284D03*
X0049450Y0216484D03*
X0049160Y0221784D03*
X0048560Y0232894D03*
X0057880Y0230134D03*
X0058330Y0222454D03*
X0038180Y0232394D03*
X0031700Y0234684D03*
X0015500Y0262884D03*
X0095450Y0261154D03*
X0106850Y0251914D03*
X0113480Y0252274D03*
X0110450Y0261154D03*
X0125900Y0253284D03*
X0126190Y0245464D03*
X0126550Y0238934D03*
X0120690Y0240964D03*
X0131900Y0247284D03*
X0134900Y0253284D03*
X0141490Y0263464D03*
X0133990Y0268564D03*
X0147750Y0283554D03*
X0150350Y0277654D03*
X0157350Y0286154D03*
X0202060Y0286744D03*
X0207110Y0283524D03*
X0156500Y0198684D03*
X0157140Y0193834D03*
X0152220Y0192304D03*
X0151690Y0196164D03*
X0160390Y0188404D03*
X0166580Y0185794D03*
X0140900Y0158484D03*
X0133090Y0229864D03*
X0103700Y0279084D03*
X0197310Y0185714D03*
X0202930Y0185124D03*
X0202240Y0121254D03*
X0206430Y0111564D03*
X0207460Y0070574D03*
X0198060Y0063574D03*
X0015500Y0091284D03*
D21*
X0085780Y0107954D02*
X0142140Y0107954D01*
X0143985Y0109799D01*
X0153690Y0119504D01*
X0207150Y0119504D01*
X0207280Y0119634D01*
X0127710Y0179254D02*
X0096370Y0210594D01*
X0089293Y0210594D01*
D22*
X0086283Y0207584D01*
X0074446Y0207584D01*
X0074446Y0202784D01*
X0094300Y0144444D02*
X0094300Y0107924D01*
D23*
X0089050Y0124014D02*
X0087530Y0124014D01*
X0079340Y0124014D01*
X0068390Y0124014D01*
X0068390Y0119084D01*
X0066780Y0119084D01*
X0066480Y0119084D01*
X0066430Y0119084D01*
X0066480Y0119084D02*
X0066480Y0159204D01*
X0065860Y0159824D01*
X0065860Y0160234D01*
X0061510Y0160234D01*
X0065860Y0159824D02*
X0108280Y0159824D01*
X0127710Y0179254D01*
X0144254Y0179254D01*
X0144466Y0189042D02*
X0155984Y0177524D01*
X0212982Y0177524D01*
X0212982Y0167524D02*
X0145984Y0167524D01*
X0144466Y0169042D01*
X0068390Y0124014D02*
X0066630Y0124014D01*
X0066630Y0123864D01*
X0066780Y0119084D02*
X0066780Y0107274D01*
D24*
X0079340Y0124014D02*
X0079680Y0124014D01*
X0082600Y0121094D01*
X0087530Y0124014D02*
X0087530Y0125004D01*
X0087540Y0125014D01*
D25*
X0147943Y0096134D03*
X0147960Y0067704D03*
D26*
X0147960Y0096117D01*
X0147943Y0096134D01*
D27*
X0116370Y0055484D02*
X0111520Y0055484D01*
X0116370Y0055484D02*
X0226700Y0055484D01*
X0226700Y0295784D01*
X0008100Y0295784D01*
X0008100Y0055484D01*
D28*
X0111520Y0055484D01*
M02*
