%
M48
M72
T01C0.0130
T02C0.0138
T03C0.0140
T04C0.0310
T05C0.0320
T06C0.0400
T07C0.1134
%
T01
X5743Y6775
X6236Y6252
X7051Y6785
X7786Y5980
X8892Y6805
X9587Y6070
X9825Y7334
X8407Y7653
X8167Y7413
X6669Y8717
X6045Y8677
X5995Y9854
X5411Y10296
X5130Y9592
X5985Y11413
X7051Y10387
X7533Y9908
X9187Y9873
X9127Y9153
X10445Y10297
X10807Y10833
X11104Y11073
X11527Y10353
X11467Y9573
X12187Y9873
X12667Y9873
X12547Y9273
X12247Y8613
X11887Y8733
X12727Y7893
X12277Y7650
X12547Y6033
X10987Y5073
X14416Y9253
X14866Y9256
X14467Y9873
X14167Y10173
X13867Y10473
X13627Y9933
X12667Y10653
X14003Y11907
X14947Y11673
X15427Y11433
X15427Y12153
X15907Y12273
X16087Y12573
X17167Y12573
X18427Y11673
X17407Y10713
X16927Y10293
X16867Y9873
X17227Y9633
X15321Y8998
X15067Y7113
X17409Y6300
X17887Y6513
X12487Y13473
X11887Y14313
X12836Y14897
X13987Y15582
X14347Y15753
X14587Y14973
X14896Y14098
X14587Y16773
X14827Y17733
X14467Y19413
X16447Y21393
X17272Y21930
X17257Y22495
X17228Y23393
X16461Y23408
X14647Y25473
X15127Y26613
X12907Y27873
X9637Y25481
X9768Y24800
X9036Y23660
X6513Y24375
X6413Y25127
X6469Y23544
X6482Y23213
X8467Y20853
X8287Y20313
X7207Y19173
X6967Y19413
X6667Y18993
X11477Y23858
X12787Y21873
X11827Y21633
X12247Y20613
X7616Y27104
X8242Y27731
X8943Y28457
X9526Y12546
X10397Y12556
X9787Y11313
X9307Y11433
X10387Y11039
X4999Y7600
X24487Y24513
T02
X22641Y24815
X22353Y23997
X21930Y23383
X18277Y24282
X18049Y24802
X17723Y24025
X18104Y23476
X16130Y21185
X14676Y20103
X14433Y19058
X13350Y19526
X13448Y19917
X12344Y18632
X12463Y18087
X13057Y18429
X13127Y17731
X11346Y15019
X11346Y14386
X10340Y14426
X9777Y14969
X10310Y15422
X8762Y14976
X8762Y14483
X8754Y15439
X8628Y16998
X8608Y17662
X8695Y18256
X8680Y18719
X9975Y18027
X10033Y19607
X10597Y22893
X10769Y26586
X12118Y27344
X14009Y25196
X14245Y27376
X14596Y28428
X16960Y28564
X17624Y27910
X18037Y28805
X18767Y28841
X22723Y16269
X18745Y12684
X18217Y13160
X17850Y12661
X17416Y13173
X18052Y11681
X17385Y11074
X16101Y11681
X16008Y11191
X16033Y10690
X17963Y7654
X18777Y6715
X22727Y7170
X23467Y8617
X23417Y10096
X18017Y16246
X12791Y14128
X9253Y12152
X7157Y12277
X6948Y12878
X7307Y14537
X6417Y17358
X6585Y22490
X5167Y26793
X10620Y9754
X11197Y8693
X11361Y6175
X11617Y5594
X11886Y4985
X12273Y4990
X13205Y5340
X13796Y4739
X8602Y8412
T03
X18756Y8892
X18756Y14798
X20356Y19103
X20356Y25009
T04
X5305Y28535
T05
X6561Y26152
X7561Y25152
X8561Y26152
X14052Y7610
X16052Y7610
T06
X23415Y13837
X23415Y14837
X23415Y15837
X23415Y16837
X23415Y17837
X23415Y18837
X23415Y19837
X23415Y20837
X23415Y22837
X23415Y23837
X23415Y24837
X23415Y25837
X23415Y26837
X23415Y27837
X16546Y18934
X16546Y17934
X16546Y16934
X11046Y17144
X11146Y18144
X11046Y19144
X11146Y20144
X11046Y21144
X5836Y18821
X5836Y17821
X5836Y16821
X5836Y15821
X4415Y15337
X4415Y16337
X4415Y17337
X4415Y18337
X4415Y19337
X4415Y20837
X4415Y21837
X4415Y22837
X4415Y23837
X4415Y24837
X4415Y25837
X4415Y26837
X4415Y27837
X4415Y14337
X4415Y13337
X4415Y12337
X4415Y11337
X4415Y10337
X4222Y7420
X6230Y7420
T07
X5974Y13262
X5974Y21412
X15108Y21412
X15108Y13262
M30
